<?xml version="1.0" encoding="UTF-8"?>
<svg version="1.1" xmlns="http://www.w3.org/2000/svg" width="512" height="512">
<path d="M0 0 C8.65548136 5.13350621 19.30972 12.71914558 22.6015625 22.54296875 C20.68744693 23.52711308 18.7701658 24.50510224 16.8515625 25.48046875 C15.78421875 26.02574219 14.716875 26.57101563 13.6171875 27.1328125 C11.21710365 28.2551315 9.18299498 29.04798534 6.6015625 29.54296875 C6.20066406 29.03507812 5.79976562 28.5271875 5.38671875 28.00390625 C0.1127724 21.61776713 -6.37686332 15.17586694 -15 14.26953125 C-22.55492038 14.01574839 -27.26445997 15.13340257 -33.3984375 19.54296875 C-34.3884375 20.22359375 -35.3784375 20.90421875 -36.3984375 21.60546875 C-57.97332817 40.7963936 -66.38024972 74.10471177 -74.3984375 100.54296875 C-73.54733398 100.65761475 -72.69623047 100.77226074 -71.81933594 100.89038086 C-68.21577705 101.57781398 -65.08351553 102.65965958 -61.6640625 103.984375 C-61.03269379 104.22811859 -60.40132507 104.47186218 -59.75082397 104.72299194 C-58.40726916 105.24332154 -57.06483198 105.76654498 -55.72344971 106.29244995 C-53.63126987 107.11219527 -51.53537354 107.92185202 -49.43896484 108.73071289 C-43.43280817 111.06324283 -37.48068736 113.42582067 -31.671875 116.22265625 C-30.86717773 116.6086499 -30.06248047 116.99464355 -29.23339844 117.39233398 C-27.81406593 118.0911812 -26.40680189 118.81541741 -25.01660156 119.57055664 C-21.30699656 121.40860176 -18.90890941 121.7283504 -15.0546875 120.515625 C-13.48970265 119.88939833 -11.93756447 119.23030097 -10.3984375 118.54296875 C-9.61645996 118.20644287 -8.83448242 117.86991699 -8.02880859 117.52319336 C-6.35012324 116.78753517 -4.67656538 116.04009615 -3.00756836 115.28271484 C28.56706807 100.96572192 62.21810809 90.30730492 96.6015625 85.54296875 C97.31803955 85.44129395 98.0345166 85.33961914 98.77270508 85.23486328 C120.33575687 82.48651112 146.33602772 82.33927097 164.8515625 95.29296875 C173.98624429 102.77198946 178.65416894 110.2665461 181.3515625 121.73046875 C183.81719696 149.46885644 167.65156285 174.83477256 150.68994141 195.38671875 C147.18124392 199.56489773 143.56531772 203.6081167 139.79296875 207.55078125 C138.82762207 208.56313843 138.82762207 208.56313843 137.84277344 209.59594727 C136.578487 210.91320571 135.30466256 212.22139012 134.02050781 213.51928711 C133.44526367 214.11620361 132.87001953 214.71312012 132.27734375 215.328125 C131.76083252 215.852854 131.24432129 216.37758301 130.7121582 216.91821289 C129.22535563 218.76533417 129.22535563 218.76533417 129.6015625 222.54296875 C131.33405753 224.72467204 131.33405753 224.72467204 133.6640625 226.79296875 C137.91263345 230.87027948 141.81806055 235.03435542 145.6015625 239.54296875 C146.05515137 240.07212891 146.50874023 240.60128906 146.97607422 241.14648438 C164.0415471 261.10801545 182.34756419 286.62388195 181.8125 314.1796875 C180.97664743 323.54433202 178.61185515 331.27337668 172.6015625 338.54296875 C172.12203125 339.1565625 171.6425 339.77015625 171.1484375 340.40234375 C163.5333262 349.09433948 150.76545854 353.8587603 139.6015625 355.54296875 C137.6215625 355.54296875 135.6415625 355.54296875 133.6015625 355.54296875 C133.6015625 349.93296875 133.6015625 344.32296875 133.6015625 338.54296875 C137.0665625 337.73859375 137.0665625 337.73859375 140.6015625 336.91796875 C146.9892833 335.29460045 151.84256772 333.26662446 156.6015625 328.54296875 C157.10171875 328.05699219 157.601875 327.57101562 158.1171875 327.0703125 C162.99175783 321.81754275 163.82397617 316.53450986 163.6015625 309.60546875 C161.63490511 290.09533353 149.72455992 273.27996021 137.6015625 258.54296875 C137.1281543 257.96659668 136.65474609 257.39022461 136.16699219 256.79638672 C129.38954444 248.60305632 122.25520609 240.92542024 114.6015625 233.54296875 C110.4611842 235.83047057 107.05018725 238.66175988 103.5390625 241.79296875 C96.09087463 248.31242442 88.21672725 254.21007139 80.265625 260.09765625 C79.48606445 260.68772461 78.70650391 261.27779297 77.90332031 261.88574219 C75.6015625 263.54296875 75.6015625 263.54296875 73.29199219 264.86425781 C69.82868124 266.96034911 67.96772513 268.38411432 66.72192383 272.3269043 C66.17981385 275.73353471 65.8618747 279.10370688 65.6015625 282.54296875 C65.3370659 284.75645635 65.06228165 286.96873834 64.77734375 289.1796875 C64.63973633 290.31623779 64.50212891 291.45278809 64.36035156 292.6237793 C58.47652216 340.17400452 48.33179931 401.86388148 9.9765625 434.796875 C-1.5693579 443.70232212 -13.04202692 446.35037087 -27.3984375 444.54296875 C-44.48786433 440.37153385 -56.44242927 425.57582946 -65.21875 411.203125 C-65.94730349 409.98426079 -66.67391823 408.7642353 -67.3984375 407.54296875 C-68.05585938 406.44855469 -68.71328125 405.35414063 -69.390625 404.2265625 C-79.53540032 386.32042292 -85.9135008 366.29765947 -91.3984375 346.54296875 C-92.04578857 346.70901611 -92.69313965 346.87506348 -93.36010742 347.04614258 C-125.48592696 355.2128596 -165.91710843 364.31756743 -197.2109375 348.29296875 C-206.97720144 342.30250946 -213.69276204 334.94809946 -217.2421875 323.921875 C-220.18233999 310.903963 -217.69814148 297.59525506 -212.3984375 285.54296875 C-211.7384375 285.21296875 -211.0784375 284.88296875 -210.3984375 284.54296875 C-207.90234375 285.94140625 -207.90234375 285.94140625 -204.9609375 287.91796875 C-200.88657872 290.6480816 -200.88657872 290.6480816 -196.3984375 292.54296875 C-196.615 293.23519531 -196.8315625 293.92742187 -197.0546875 294.640625 C-199.5851202 303.53228434 -201.72717265 314.03272221 -198.01171875 322.82421875 C-193.33109307 330.71214968 -186.4418966 333.77514213 -177.9609375 336.23046875 C-173.09285162 337.45581458 -168.41101987 338.28651105 -163.3984375 338.54296875 C-162.39167969 338.59582031 -161.38492188 338.64867187 -160.34765625 338.703125 C-142.06145669 339.1709588 -124.0058225 335.7506076 -106.26953125 331.62890625 C-102.32187177 330.7170267 -98.41864626 330.03929082 -94.3984375 329.54296875 C-94.59107178 328.82826416 -94.78370605 328.11355957 -94.98217773 327.37719727 C-96.96199288 319.78882673 -98.35832098 312.2409548 -99.4609375 304.48046875 C-99.63375244 303.31177246 -99.80656738 302.14307617 -99.98461914 300.93896484 C-100.76434419 295.54700544 -101.47150467 290.17228548 -101.921875 284.7421875 C-101.995271 283.8766626 -102.06866699 283.0111377 -102.14428711 282.11938477 C-102.2680157 280.53676217 -102.37184881 278.9523998 -102.45141602 277.36694336 C-102.71609476 273.88619837 -103.19303481 271.81102963 -105.33203125 269.01953125 C-109.66457293 265.52038294 -114.06512106 262.13014224 -118.5234375 258.79296875 C-125.94609169 253.18471303 -133.29402688 247.55193881 -140.3984375 241.54296875 C-140.95080078 241.07938965 -141.50316406 240.61581055 -142.07226562 240.13818359 C-148.48645813 234.74977754 -154.78391772 229.35551362 -160.61328125 223.328125 C-162.44390465 221.4975016 -164.35743607 219.83672436 -166.3359375 218.16796875 C-171.14111489 214.01592227 -175.23746364 209.32841736 -179.3984375 204.54296875 C-180.33672908 203.4904301 -181.27555403 202.43836675 -182.21484375 201.38671875 C-200.18029394 181.08644066 -219.09288133 155.48876585 -218.609375 127.05859375 C-217.65646218 115.69422609 -213.46222218 106.12749434 -205.2109375 98.23046875 C-200.37843222 94.2087865 -195.25516724 91.74449413 -189.3984375 89.54296875 C-188.65464844 89.24648437 -187.91085938 88.95 -187.14453125 88.64453125 C-157.66037709 78.2866197 -120.27207176 86.25916845 -91.3984375 94.54296875 C-91.08205322 93.53266602 -91.08205322 93.53266602 -90.75927734 92.50195312 C-74.92451771 42.08504072 -74.92451771 42.08504072 -60.3984375 22.54296875 C-59.76292969 21.67414062 -59.12742188 20.8053125 -58.47265625 19.91015625 C-44.54060643 1.65051581 -22.58124766 -11.10400195 0 0 Z M-195.3984375 112.54296875 C-200.16497584 118.53518838 -201.71600535 124.29090395 -201.2734375 131.79296875 C-199.12960334 149.18184584 -189.3319119 165.23577951 -178.3984375 178.54296875 C-177.97304687 179.06310547 -177.54765625 179.58324219 -177.109375 180.11914062 C-164.97106735 194.90161179 -151.9911323 209.14675223 -137.3984375 221.54296875 C-136.40585938 222.41308594 -135.41328125 223.28320312 -134.390625 224.1796875 C-127.8067237 229.93377385 -121.07633267 235.45680583 -114.1484375 240.79296875 C-113.40924072 241.36611816 -112.67004395 241.93926758 -111.90844727 242.52978516 C-111.21936279 243.05491699 -110.53027832 243.58004883 -109.8203125 244.12109375 C-109.20768555 244.5893457 -108.59505859 245.05759766 -107.96386719 245.54003906 C-106.42762456 246.72278745 -106.42762456 246.72278745 -104.3984375 246.54296875 C-104.40891113 245.48948242 -104.41938477 244.43599609 -104.43017578 243.35058594 C-104.8315923 198.74945746 -101.9423449 155.53898817 -94.3984375 111.54296875 C-108.64389883 107.77356372 -122.76898989 104.39797827 -137.3984375 102.54296875 C-138.41808594 102.41148437 -139.43773437 102.28 -140.48828125 102.14453125 C-158.44522104 100.1932632 -181.07648126 99.85075236 -195.3984375 112.54296875 Z M2.6015625 131.54296875 C2.6015625 132.20296875 2.6015625 132.86296875 2.6015625 133.54296875 C3.20814697 133.86346191 3.81473145 134.18395508 4.43969727 134.51416016 C39.13280496 152.90999912 71.58092352 174.09326844 101.86376953 199.11376953 C105.74009299 202.30174334 109.67429184 205.41814522 113.6015625 208.54296875 C135.62998223 190.34557854 161.43277109 161.34724776 164.6640625 131.60546875 C164.90474298 124.40288246 163.39531856 119.28636036 159.4765625 113.29296875 C146.91674719 101.27923236 129.90646944 101.07253512 113.54296875 101.26953125 C75.26037125 102.35214145 37.40492697 116.64514529 2.6015625 131.54296875 Z M-78.3984375 117.54296875 C-92.59720241 184.60947535 -92.59720241 256.47646215 -78.3984375 323.54296875 C-70.75570196 322.09835453 -63.80402762 319.60033614 -56.5859375 316.73046875 C-54.75192383 316.0029541 -54.75192383 316.0029541 -52.88085938 315.26074219 C3.43739385 292.70898424 54.22439007 260.39951862 100.6015625 221.54296875 C99.27475042 218.52663939 97.93502527 216.69945617 95.390625 214.6171875 C94.40533813 213.80531982 94.40533813 213.80531982 93.40014648 212.97705078 C92.32422241 212.11249268 92.32422241 212.11249268 91.2265625 211.23046875 C90.47125244 210.61800293 89.71594238 210.00553711 88.93774414 209.37451172 C61.01369176 186.89703476 31.10927958 167.58749714 -0.3984375 150.54296875 C-1.23616699 150.0845459 -2.07389648 149.62612305 -2.93701172 149.15380859 C-39.06897059 128.01267101 -39.06897059 128.01267101 -78.3984375 117.54296875 Z M38.9140625 286.73046875 C3.31816637 309.30436905 -34.65191428 326.67804723 -74.3984375 340.54296875 C-68.20108483 368.10386633 -57.33123223 406.29053463 -32.5234375 423.16796875 C-31.16824608 423.9930853 -29.7940127 424.78816349 -28.3984375 425.54296875 C-27.769375 425.91292969 -27.1403125 426.28289062 -26.4921875 426.6640625 C-21.32586329 428.83276203 -15.07711658 428.29347794 -9.77734375 426.80859375 C10.20316591 417.98520068 20.20334317 394.04809554 27.64208984 375.04345703 C38.7400494 346.12098838 47.01125011 313.6148662 47.6015625 282.54296875 C44.2311204 282.54296875 41.67282504 284.94135691 38.9140625 286.73046875 Z " fill="#D45DFF" transform="translate(274.3984375,35.45703125)"/>
<path d="M0 0 C2.01409327 0.00631682 4.02227712 -0.04064237 6.03564453 -0.09130859 C13.2328985 -0.09848432 18.40920045 0.39801133 24.32128906 4.65722656 C30.98042274 11.85008722 30.74471238 18.50978161 30.68017578 27.95556641 C30.68287402 29.34845754 30.6867592 30.74134684 30.69177246 32.13423157 C30.69764622 35.04173868 30.68917031 37.9487518 30.67041016 40.85620117 C30.64755678 44.57885362 30.66079576 48.30035645 30.68470001 52.02296734 C30.69916176 54.89438021 30.69455162 57.76552079 30.68418884 60.63694191 C30.68152585 62.00964305 30.68477634 63.38236912 30.69410706 64.75504112 C30.70428379 66.67173147 30.68601758 68.58850893 30.66650391 70.50512695 C30.66173035 72.13891548 30.66173035 72.13891548 30.65686035 73.80570984 C30.03068323 77.28913045 28.89258082 78.46763644 26.14892578 80.63134766 C24.14892578 81.16259766 24.14892578 81.16259766 22.14892578 81.13134766 C21.15892578 81.14681641 21.15892578 81.14681641 20.14892578 81.16259766 C17.19279474 80.37737535 16.04908017 79.00629641 14.14892578 76.63134766 C13.69482422 73.60693359 13.69482422 73.60693359 13.75830078 70.11572266 C13.77119141 68.86533203 13.78408203 67.61494141 13.79736328 66.32666016 C13.83087891 65.02470703 13.86439453 63.72275391 13.89892578 62.38134766 C13.91697266 61.06392578 13.93501953 59.74650391 13.95361328 58.38916016 C14.00075696 55.13624609 14.07249962 51.88370549 14.14892578 48.63134766 C6.22892578 48.63134766 -1.69107422 48.63134766 -9.85107422 48.63134766 C-9.80466797 50.60619141 -9.75826172 52.58103516 -9.71044922 54.61572266 C-9.67293434 57.20424923 -9.63653388 59.79279212 -9.60107422 62.38134766 C-9.56755859 63.68330078 -9.53404297 64.98525391 -9.49951172 66.32666016 C-9.48662109 67.57705078 -9.47373047 68.82744141 -9.46044922 70.11572266 C-9.43950195 71.26782227 -9.41855469 72.41992188 -9.39697266 73.60693359 C-9.94588571 77.26281259 -10.96749222 78.39928628 -13.85107422 80.63134766 C-15.85107422 81.16259766 -15.85107422 81.16259766 -17.85107422 81.13134766 C-18.51107422 81.14166016 -19.17107422 81.15197266 -19.85107422 81.16259766 C-22.78934036 80.38212071 -23.94561439 78.97428815 -25.85107422 76.63134766 C-26.37246704 73.81916809 -26.37246704 73.81916809 -26.40039062 70.53686523 C-26.42898666 68.6889312 -26.42898666 68.6889312 -26.4581604 66.80366516 C-26.45763729 65.46106858 -26.45576194 64.11847195 -26.45263672 62.77587891 C-26.46041783 61.39067575 -26.46908865 60.00547734 -26.47860718 58.62028503 C-26.49352326 55.71585646 -26.49295913 52.81191397 -26.48242188 49.9074707 C-26.4708761 46.20613797 -26.5045831 42.50682131 -26.55111122 38.80582142 C-26.58076023 35.9427499 -26.58230556 33.08015307 -26.57609177 30.21695518 C-26.57760313 28.19580118 -26.60523225 26.17472035 -26.63345337 24.15376282 C-26.55248755 16.04445057 -25.44172864 10.68407949 -19.85107422 4.63134766 C-13.95679894 -0.41865477 -7.54015952 -0.04942566 0 0 Z M-9.85107422 20.63134766 C-9.85107422 24.59134766 -9.85107422 28.55134766 -9.85107422 32.63134766 C-1.93107422 32.63134766 5.98892578 32.63134766 14.14892578 32.63134766 C14.14892578 28.67134766 14.14892578 24.71134766 14.14892578 20.63134766 C10.13698378 16.61940566 9.59667803 16.12396148 4.30517578 16.08447266 C3.59361328 16.09994141 2.88205078 16.11541016 2.14892578 16.13134766 C1.08158203 16.10814453 1.08158203 16.10814453 -0.00732422 16.08447266 C-5.29882646 16.12396148 -5.83913222 16.61940566 -9.85107422 20.63134766 Z " fill="#D760FF" transform="translate(237.85107421875,215.36865234375)"/>
<path d="M0 0 C6.13779437 3.87840944 9.58141618 9.08732045 11.58203125 16.015625 C13.11476012 23.29250598 11.76672152 29.65181866 8 36 C2.90727959 41.79816365 -1.92319253 45.47532266 -9.68359375 46.27734375 C-17.16750014 46.66822294 -22.91547252 45.50384952 -29 41 C-34.30117581 35.54484813 -37.28228016 29.87341245 -37.3125 22.1875 C-37.15058913 14.84754053 -35.88654151 9.77098262 -30.9375 4.25 C-22.01442296 -3.97654993 -10.79781839 -5.14644222 0 0 Z " fill="#BB49FF" transform="translate(382,360)"/>
<path d="M0 0 C5.18753316 3.89299505 8.90634341 9.22664829 10.16015625 15.62109375 C10.90198161 23.03934733 10.37932128 29.32205864 6.16015625 35.62109375 C1.53359574 40.98915719 -3.77725542 44.53892296 -10.83984375 45.62109375 C-18.72313169 45.88011607 -25.55104137 44.37379584 -31.55859375 39.1171875 C-36.63085984 33.75898485 -38.47426395 27.91131193 -39.27734375 20.68359375 C-38.95029872 13.84290182 -36.18319346 7.6540279 -31.52734375 2.68359375 C-22.57079858 -5.31130131 -10.40904147 -5.97462055 0 0 Z " fill="#F77AFF" transform="translate(104.83984375,270.37890625)"/>
<path d="M0 0 C5.47927794 3.99204535 8.95079178 8.82991001 11.390625 15.1328125 C12.32099218 22.80834174 11.57917797 29.54489223 7.38671875 36.1796875 C2.87941762 41.92741755 -2.59577749 44.96631149 -9.796875 46.0703125 C-17.50915664 46.58711488 -23.54600906 44.87129042 -29.56640625 39.98046875 C-34.80287402 34.76681783 -37.48468653 28.99862249 -37.734375 21.6328125 C-37.66544675 14.51597053 -35.64776967 8.95347784 -30.9375 3.5703125 C-22.5902037 -3.96918093 -9.83212507 -5.90753733 0 0 Z " fill="#C854FF" transform="translate(321.359375,73.8046875)"/>
<path d="M0 0 C0.66 -0.0103125 1.32 -0.020625 2 -0.03125 C4.97217385 0.75823368 6.09656286 2.10063373 8 4.5 C8.50793457 7.6875 8.50793457 7.6875 8.51757812 11.5 C8.5245874 12.19641602 8.53159668 12.89283203 8.53881836 13.61035156 C8.55639196 15.90730932 8.54477919 18.20303021 8.53125 20.5 C8.53394513 22.09896073 8.53782773 23.69791987 8.54284668 25.296875 C8.54874082 28.64599226 8.54018192 31.99468243 8.52148438 35.34375 C8.49869435 39.63478591 8.51181796 43.92482111 8.53577423 48.21582031 C8.5502348 51.51700366 8.54562515 54.81795011 8.53526306 58.11914062 C8.53259646 59.70117308 8.53586322 61.28322711 8.54518127 62.86523438 C8.55535179 65.07740163 8.5398419 67.287953 8.51757812 69.5 C8.51280457 71.3871875 8.51280457 71.3871875 8.50793457 73.3125 C7.91152758 77.05520109 6.9748465 78.23159929 4 80.5 C2 81.03125 2 81.03125 0 81 C-0.66 81.0103125 -1.32 81.020625 -2 81.03125 C-4.97217385 80.24176632 -6.09656286 78.89936627 -8 76.5 C-8.50793457 73.3125 -8.50793457 73.3125 -8.51757812 69.5 C-8.5245874 68.80358398 -8.53159668 68.10716797 -8.53881836 67.38964844 C-8.55639196 65.09269068 -8.54477919 62.79696979 -8.53125 60.5 C-8.53394513 58.90103927 -8.53782773 57.30208013 -8.54284668 55.703125 C-8.54874082 52.35400774 -8.54018192 49.00531757 -8.52148438 45.65625 C-8.49869435 41.36521409 -8.51181796 37.07517889 -8.53577423 32.78417969 C-8.5502348 29.48299634 -8.54562515 26.18204989 -8.53526306 22.88085938 C-8.53259646 21.29882692 -8.53586322 19.71677289 -8.54518127 18.13476562 C-8.55535179 15.92259837 -8.5398419 13.712047 -8.51757812 11.5 C-8.51439575 10.241875 -8.51121338 8.98375 -8.50793457 7.6875 C-7.72413955 2.76886132 -5.09820141 -0.0796594 0 0 Z " fill="#CC57FF" transform="translate(292,215.5)"/>
</svg>
