<?xml version="1.0" encoding="UTF-8"?>
<svg version="1.1" xmlns="http://www.w3.org/2000/svg" width="512" height="512">
<path d="M0 0 C3.13248737 1.56363762 5.47264436 3.60182031 8 6 C9.16149779 6.96459151 10.32771831 7.92354347 11.5 8.875 C12.325 9.57625 13.15 10.2775 14 11 C14.76183594 10.66226563 15.52367187 10.32453125 16.30859375 9.9765625 C34.25820073 2.22304937 50.4922877 2.0020418 68.75 9.1875 C70.17005638 9.78365575 71.5881512 10.38465882 73 11 C73.51949219 10.45730469 74.03898438 9.91460937 74.57421875 9.35546875 C75.27160156 8.64003906 75.96898437 7.92460938 76.6875 7.1875 C77.37199219 6.47980469 78.05648437 5.77210937 78.76171875 5.04296875 C84.09520986 0.17487826 88.03761717 -0.54290224 95.1171875 -0.3515625 C99.0210649 0.12452011 101.15730391 1.3030832 104 4 C107.854078 9.43667042 108.04971762 14.52534174 107 21 C104.92270334 25.16131597 101.99512003 28.10694356 98.5625 31.1875 C98.046875 31.785625 97.53125 32.38375 97 33 C97.45554505 36.72135393 98.67839158 40.06898361 100 43.5625 C101.74659907 48.19227181 103.15998258 52.10336981 102.96484375 57.08203125 C102.54869406 65.80697561 102.54869406 65.80697561 105.97265625 73.421875 C108.48993391 75.10750644 108.48993391 75.10750644 111.234375 76.51953125 C119.94072694 81.1801349 124.86116306 89.3527871 129 98 C129.33 98.66 129.66 99.32 130 100 C130.23074219 99.05898437 130.46148437 98.11796875 130.69921875 97.1484375 C134.48780488 82.68292683 134.48780488 82.68292683 141.3125 78.625 C146.39143339 77.4438527 150.4041607 77.41690487 155.25 79.1875 C158.8177811 81.53899209 161.09221079 84.18442157 163 88 C164.13649673 102.73719529 160.79853679 113.88247179 151.15234375 125.16015625 C146.74216339 129.85090474 141.99418956 133.54084531 136 136 C135.01 136 134.02 136 133 136 C133 144.58 133 153.16 133 162 C136.63 162 140.26 162 144 162 C155.29646347 163.38404745 164.32925541 168.90490835 171.4609375 177.7265625 C177.51355389 186.66722935 179.76440031 196.26757882 178 207 C175.70181931 211.34621927 173.52878347 214.0089551 169 216 C163.45191396 216.82885269 158.52859117 216.7240695 153.4375 214.3125 C148.90066569 210.00832386 147.60500386 206.10030724 146.52734375 200.0859375 C146.05162664 197.71577222 146.05162664 197.71577222 144 195 C141.35308332 194.19907746 141.35308332 194.19907746 138.375 193.8125 C137.37210938 193.65394531 136.36921875 193.49539063 135.3359375 193.33203125 C134.56507813 193.22246094 133.79421875 193.11289062 133 193 C133.04640625 194.258125 133.0928125 195.51625 133.140625 196.8125 C133.49088904 210.64657211 131.45422004 221.87810854 127 235 C127.680625 235.185625 128.36125 235.37125 129.0625 235.5625 C137.41089347 239.64788404 142.71152982 248.20999839 146.0390625 256.62890625 C148.54566458 264.67580171 149.5085626 273.47431219 146.8125 281.5625 C144.35731164 284.86430503 141.68011621 287.15994189 138 289 C132.68864048 289.52940021 128.32727259 289.66363629 123.5 287.25 C118.24278371 282.51850534 117.25464728 278.28464226 116.27148438 271.48828125 C115.5302587 267.09355861 114.48678625 264.80661234 111 262 C107.56120966 263.48263872 105.35137089 265.45383886 102.6875 268.0625 C91.36310767 278.34537888 78.62744549 283.97654055 64 288 C62.57300781 288.40025391 62.57300781 288.40025391 61.1171875 288.80859375 C39.70991974 293.67388188 15.07046398 289.12262032 -3.59399414 277.82104492 C-9.53297018 274.04110445 -14.85078652 269.74676458 -19.9140625 264.84765625 C-21.87782046 263.1082227 -23.60516489 262.03487219 -26 261 C-30.57957356 264.87330816 -31.69325797 267.54709683 -32.5 273.4375 C-33.4532071 279.31336625 -34.38209448 283.05788553 -39 287 C-43.70823058 289.8733313 -48.64946393 289.63586081 -54 289 C-59.14853681 286.4257316 -62.182008 283.45397599 -64 278 C-65.11625603 265.44669446 -62.57404753 254.34437334 -54.9375 244.22265625 C-52.43680137 241.35391125 -49.74579741 238.8730791 -46.796875 236.47265625 C-45.08461988 235.06935151 -43.53796645 233.59018136 -42 232 C-42.27714844 231.13117188 -42.55429688 230.26234375 -42.83984375 229.3671875 C-43.20207031 228.21476563 -43.56429687 227.06234375 -43.9375 225.875 C-44.29714844 224.73804688 -44.65679687 223.60109375 -45.02734375 222.4296875 C-46.92621451 215.73407094 -47.12656579 209.5342488 -47.0625 202.625 C-47.05798828 201.69816406 -47.05347656 200.77132812 -47.04882812 199.81640625 C-47.03711574 197.54420291 -47.02071372 195.27213612 -47 193 C-51.42203169 193.36587423 -55.7031615 193.8686805 -60 195 C-62.28895215 197.74674257 -62.70136678 199.57381706 -63.41796875 202.99609375 C-64.8348157 209.40217952 -67.4559961 212.3039974 -73 216 C-78.55398223 216.68923878 -83.47110145 216.7242151 -88.5625 214.3125 C-92.04187166 211.01155765 -93.79511824 208.46319724 -94.46875 203.65234375 C-94.57740907 190.73549686 -91.46475102 181.51809973 -82.3125 172.125 C-72.08721991 162.72879668 -60.50452917 161.55963492 -47 162 C-47 153.75 -47 145.5 -47 137 C-49.97 136.01 -52.94 135.02 -56 134 C-66.60691486 127.818263 -74.41966557 117.67891643 -78.3046875 106.10546875 C-79.89292695 99.0119274 -80.78005265 91.12148862 -77.09765625 84.6640625 C-74.33527927 81.15579229 -72.22753824 79.40917941 -68 78 C-62.38124276 77.6315569 -58.84288621 77.80809772 -54 81 C-50.43147928 84.79454986 -49.10663165 88.17472068 -47.8125 93.1875 C-46.71064717 97.70782331 -46.71064717 97.70782331 -45 102 C-44.55011719 101.04480469 -44.10023438 100.08960938 -43.63671875 99.10546875 C-38.5605829 88.74617244 -32.50489161 78.58492786 -21.375 73.9375 C-19.32505289 72.97130127 -19.32505289 72.97130127 -18 71 C-17.45201529 67.3104865 -17.26315796 63.81140971 -17.22583008 60.09106445 C-17.13916154 52.23762269 -15.74329788 44.83899758 -11.80859375 37.8984375 C-10.84979236 36.04191906 -10.84979236 36.04191906 -11.125 34.0390625 C-12.29568288 31.31095328 -13.97485943 29.53756082 -16 27.375 C-20.93184521 22.0732664 -21.35048851 19.21505124 -21.28125 11.98828125 C-20.9054694 7.99561236 -19.74835565 5.89691541 -17 3 C-11.56069217 -0.85594767 -6.47764414 -1.04450959 0 0 Z " fill="#E53850" transform="translate(213,109)"/>
<path d="M0 0 C4.60201712 2.17990285 6.7675784 4.48383676 9 9 C9.37782074 13.01497505 9.13272773 16.97392539 9 21 C9.73428223 20.98114746 10.46856445 20.96229492 11.22509766 20.94287109 C18.4511284 20.83807925 25.26258557 21.37953561 32.375 22.625 C33.40665283 22.80321289 34.43830566 22.98142578 35.5012207 23.16503906 C74.33319936 30.17311583 110.14410757 46.50435199 141 71 C141.82395264 71.6482373 141.82395264 71.6482373 142.66455078 72.30957031 C157.25475885 83.88312399 170.80895978 97.28799724 181.78955078 112.34521484 C182.99447093 113.99244131 184.22699182 115.61571141 185.46484375 117.23828125 C207.30169703 146.30522395 220.33804625 180.48858025 227 216 C227.36931641 217.93359375 227.36931641 217.93359375 227.74609375 219.90625 C228.96599858 226.97328489 229.23232729 233.83657507 229 241 C229.79664063 240.95359375 230.59328125 240.9071875 231.4140625 240.859375 C240.07994956 240.56418663 240.07994956 240.56418663 244.5625 242.6875 C247.8320199 245.78935221 249.75850523 248.38350798 250.43359375 252.90234375 C250.44150672 259.05071801 250.4465054 263.31314296 246 268 C240.51508099 271.99942011 235.49748946 271.21420295 229 271 C229.02719116 272.10468628 229.02719116 272.10468628 229.05493164 273.23168945 C229.15449798 280.38396662 228.65795358 287.14444084 227.4375 294.1875 C227.26041504 295.21431885 227.08333008 296.2411377 226.90087891 297.29907227 C218.31141117 344.56984815 196.19049026 386.53049278 163 421 C162.49823242 421.52368164 161.99646484 422.04736328 161.47949219 422.58691406 C154.72493049 429.60210193 147.73610484 436.05777454 140 442 C139.43941895 442.4316748 138.87883789 442.86334961 138.30126953 443.30810547 C129.24903411 450.23561081 119.92205364 456.39536697 110 462 C109.35901367 462.36834961 108.71802734 462.73669922 108.05761719 463.11621094 C84.64804737 476.48482609 58.69736198 484.87789539 32.1875 489.4375 C30.76642944 489.68367065 30.76642944 489.68367065 29.31665039 489.93481445 C22.51442691 491.00475313 15.87799602 491.16929757 9 491 C9.04133057 491.85972412 9.08266113 492.71944824 9.12524414 493.60522461 C9.32791435 498.51095415 9.44060793 502.0698277 7.3125 506.5625 C4.21064779 509.8320199 1.61649202 511.75850523 -2.90234375 512.43359375 C-9.05071801 512.44150672 -13.31314296 512.4465054 -18 508 C-21.99942011 502.51508099 -21.21420295 497.49748946 -21 491 C-22.10468628 491.02719116 -22.10468628 491.02719116 -23.23168945 491.05493164 C-30.38396662 491.15449798 -37.14444084 490.65795358 -44.1875 489.4375 C-45.21431885 489.26041504 -46.2411377 489.08333008 -47.29907227 488.90087891 C-94.60141251 480.30567568 -136.48656096 458.16957136 -171 425 C-171.54543457 424.48179687 -172.09086914 423.96359375 -172.65283203 423.4296875 C-180.39757857 416.04637762 -187.32208592 408.32218171 -193.70898438 399.73535156 C-194.55007113 398.60478336 -195.39744514 397.47885704 -196.25195312 396.35839844 C-222.36109998 362.11859015 -242.43860102 314.63756415 -241 271 C-241.79664063 271.04640625 -242.59328125 271.0928125 -243.4140625 271.140625 C-252.07994956 271.43581337 -252.07994956 271.43581337 -256.5625 269.3125 C-259.8320199 266.21064779 -261.75850523 263.61649202 -262.43359375 259.09765625 C-262.44150672 252.94928199 -262.4465054 248.68685704 -258 244 C-252.51508099 240.00057989 -247.49748946 240.78579705 -241 241 C-241.01885254 240.26571777 -241.03770508 239.53143555 -241.05712891 238.77490234 C-241.16192075 231.5488716 -240.62046439 224.73741443 -239.375 217.625 C-239.10768066 216.07752075 -239.10768066 216.07752075 -238.83496094 214.4987793 C-228.51668909 157.32490327 -196.7433852 102.98276492 -149.703125 68.25878906 C-148.03965069 67.02930604 -146.39472448 65.77783788 -144.75 64.5234375 C-115.67286439 42.70152528 -81.51321239 29.66229005 -46 23 C-44.7109375 22.75378906 -43.421875 22.50757812 -42.09375 22.25390625 C-35.02671511 21.03400142 -28.16342493 20.76767271 -21 21 C-21.04640625 20.20335938 -21.0928125 19.40671875 -21.140625 18.5859375 C-21.43581337 9.92005044 -21.43581337 9.92005044 -19.3125 5.4375 C-13.59131946 -0.59293354 -7.97795444 -0.97292127 0 0 Z M-159 119 C-186.08896156 149.63000229 -210.70906939 194.91048956 -210.0625 236.9375 C-210.05347656 237.70964844 -210.04445312 238.48179687 -210.03515625 239.27734375 C-210.02355469 239.84582031 -210.01195312 240.41429687 -210 241 C-208.46279297 241.05607422 -208.46279297 241.05607422 -206.89453125 241.11328125 C-205.53381938 241.17897079 -204.17314389 241.24541709 -202.8125 241.3125 C-201.80219727 241.34633789 -201.80219727 241.34633789 -200.77148438 241.38085938 C-196.38505639 241.61622868 -193.44157336 242.23084772 -190 245 C-187.16521573 248.6641753 -186.58987803 251.41072985 -186.625 256 C-186.61726563 257.010625 -186.60953125 258.02125 -186.6015625 259.0625 C-187.20289449 263.4958496 -188.72516264 265.97424277 -192.19921875 268.76953125 C-195.72433054 270.31822053 -199.02136581 270.56052421 -202.8125 270.6875 C-203.50537109 270.72166016 -204.19824219 270.75582031 -204.91210938 270.79101562 C-206.60752849 270.87286344 -208.30373458 270.93812365 -210 271 C-210.18069749 277.80395538 -209.56578906 284.1174542 -208.375 290.8125 C-208.19678711 291.81514893 -208.01857422 292.81779785 -207.83496094 293.85083008 C-200.16022214 335.0002862 -179.74578375 371.00394657 -151 401 C-150.28972656 401.75152344 -149.57945312 402.50304687 -148.84765625 403.27734375 C-118.86359445 434.24247915 -70.78134856 458.55581646 -27.33886719 460.09423828 C-25.22567994 460.09712402 -23.11250475 460.05378067 -21 460 C-20.96261719 458.97519531 -20.92523438 457.95039063 -20.88671875 456.89453125 C-20.82102921 455.53381938 -20.75458291 454.17314389 -20.6875 452.8125 C-20.65366211 451.80219727 -20.65366211 451.80219727 -20.61914062 450.77148438 C-20.38377132 446.38505639 -19.76915228 443.44157336 -17 440 C-13.3358247 437.16521573 -10.58927015 436.58987803 -6 436.625 C-4.4840625 436.61339844 -4.4840625 436.61339844 -2.9375 436.6015625 C1.4958496 437.20289449 3.97424277 438.72516264 6.76953125 442.19921875 C8.31822053 445.72433054 8.56052421 449.02136581 8.6875 452.8125 C8.72166016 453.50537109 8.75582031 454.19824219 8.79101562 454.91210938 C8.87286344 456.60752849 8.93812365 458.30373458 9 460 C15.98754064 460.21900409 22.51102133 459.67281633 29.375 458.375 C30.80175049 458.10768066 30.80175049 458.10768066 32.25732422 457.83496094 C73.27016807 449.79962505 109.0191162 429.73124641 139 401 C139.75152344 400.28972656 140.50304687 399.57945312 141.27734375 398.84765625 C172.24426985 368.86186048 196.49449888 320.88941031 198.09765625 277.34765625 C198.08025391 276.21650391 198.08025391 276.21650391 198.0625 275.0625 C198.04896484 273.90427734 198.04896484 273.90427734 198.03515625 272.72265625 C198.02355469 272.15417969 198.01195312 271.58570313 198 271 C196.97519531 270.96261719 195.95039063 270.92523438 194.89453125 270.88671875 C193.53381938 270.82102921 192.17314389 270.75458291 190.8125 270.6875 C189.80219727 270.65366211 189.80219727 270.65366211 188.77148438 270.61914062 C184.38505639 270.38377132 181.44157336 269.76915228 178 267 C175.16521573 263.3358247 174.58987803 260.58927015 174.625 256 C174.61726563 254.989375 174.60953125 253.97875 174.6015625 252.9375 C175.20289449 248.5041504 176.72516264 246.02575723 180.19921875 243.23046875 C183.72433054 241.68177947 187.02136581 241.43947579 190.8125 241.3125 C191.50537109 241.27833984 192.19824219 241.24417969 192.91210938 241.20898438 C194.60752849 241.12713656 196.30373458 241.06187635 198 241 C198.18069749 234.19604462 197.56578906 227.8825458 196.375 221.1875 C196.10768066 219.68352661 196.10768066 219.68352661 195.83496094 218.14916992 C188.16022214 176.9997138 167.74578375 140.99605343 139 111 C138.28972656 110.24847656 137.57945312 109.49695313 136.84765625 108.72265625 C107.16982244 78.07376857 59.09430666 53.36375193 16.12890625 51.90234375 C15.28199219 51.91394531 14.43507813 51.92554688 13.5625 51.9375 C12.69753906 51.94652344 11.83257812 51.95554688 10.94140625 51.96484375 C10.30074219 51.97644531 9.66007813 51.98804688 9 52 C8.96261719 53.02480469 8.92523438 54.04960938 8.88671875 55.10546875 C8.82102921 56.46618062 8.75458291 57.82685611 8.6875 59.1875 C8.65366211 60.19780273 8.65366211 60.19780273 8.61914062 61.22851562 C8.38377132 65.61494361 7.76915228 68.55842664 5 72 C1.3358247 74.83478427 -1.41072985 75.41012197 -6 75.375 C-7.010625 75.38273437 -8.02125 75.39046875 -9.0625 75.3984375 C-13.4958496 74.79710551 -15.97424277 73.27483736 -18.76953125 69.80078125 C-20.31822053 66.27566946 -20.56052421 62.97863419 -20.6875 59.1875 C-20.72166016 58.49462891 -20.75582031 57.80175781 -20.79101562 57.08789062 C-20.87286344 55.39247151 -20.93812365 53.69626542 -21 52 C-72.96265993 50.73390473 -124.59025843 82.20345555 -159 119 Z " fill="#E6384F" transform="translate(262,0)"/>
<path d="M0 0 C6.21029673 0 7.44462468 0.25446918 12 4 C16.02967515 9.44857485 15.21346943 14.52476069 15 21 C16.10142334 20.97172119 16.10142334 20.97172119 17.22509766 20.94287109 C24.4511284 20.83807925 31.26258557 21.37953561 38.375 22.625 C39.40665283 22.80321289 40.43830566 22.98142578 41.5012207 23.16503906 C80.33319936 30.17311583 116.14410757 46.50435199 147 71 C147.54930176 71.4321582 148.09860352 71.86431641 148.66455078 72.30957031 C163.25475885 83.88312399 176.80895978 97.28799724 187.78955078 112.34521484 C188.99447093 113.99244131 190.22699182 115.61571141 191.46484375 117.23828125 C213.30169703 146.30522395 226.33804625 180.48858025 233 216 C233.36931641 217.93359375 233.36931641 217.93359375 233.74609375 219.90625 C234.96599858 226.97328489 235.23232729 233.83657507 235 241 C235.79664063 240.95359375 236.59328125 240.9071875 237.4140625 240.859375 C246.07994956 240.56418663 246.07994956 240.56418663 250.5625 242.6875 C253.8320199 245.78935221 255.75850523 248.38350798 256.43359375 252.90234375 C256.44150672 259.05071801 256.4465054 263.31314296 252 268 C246.51508099 271.99942011 241.49748946 271.21420295 235 271 C235.02719116 272.10468628 235.02719116 272.10468628 235.05493164 273.23168945 C235.15449798 280.38396662 234.65795358 287.14444084 233.4375 294.1875 C233.26041504 295.21431885 233.08333008 296.2411377 232.90087891 297.29907227 C224.31141117 344.56984815 202.19049026 386.53049278 169 421 C168.49823242 421.52368164 167.99646484 422.04736328 167.47949219 422.58691406 C160.72493049 429.60210193 153.73610484 436.05777454 146 442 C145.43941895 442.4316748 144.87883789 442.86334961 144.30126953 443.30810547 C135.24903411 450.23561081 125.92205364 456.39536697 116 462 C115.35901367 462.36834961 114.71802734 462.73669922 114.05761719 463.11621094 C90.64804737 476.48482609 64.69736198 484.87789539 38.1875 489.4375 C36.76642944 489.68367065 36.76642944 489.68367065 35.31665039 489.93481445 C28.51442691 491.00475313 21.87799602 491.16929757 15 491 C15.04133057 491.85972412 15.08266113 492.71944824 15.12524414 493.60522461 C15.32791435 498.51095415 15.44060793 502.0698277 13.3125 506.5625 C10.93563211 509.06784724 9.17400691 510.63971132 6 512 C4.02 512 2.04 512 0 512 C0 486.92 0 461.84 0 436 C6.21029673 436 7.44462468 436.25446918 12 440 C15.19820939 444.14415864 15.37618431 447.75672798 15.1875 452.8125 C15.17396484 453.50537109 15.16042969 454.19824219 15.14648438 454.91210938 C15.11138845 456.60841265 15.05758943 458.30431136 15 460 C65.38446381 454.14235928 108.25049389 435.12745894 145 400 C145.67675781 399.36449219 146.35351562 398.72898437 147.05078125 398.07421875 C181.39279919 364.99535549 199.06273126 317.51426869 204 271 C202.98679687 271.04640625 201.97359375 271.0928125 200.9296875 271.140625 C199.57815468 271.17816758 198.22658972 271.21456506 196.875 271.25 C196.20984375 271.28351563 195.5446875 271.31703125 194.859375 271.3515625 C189.70653231 271.45259863 186.89745331 270.32130804 183 267 C178.94369602 261.77740143 179.22602456 256.34659858 180 250 C182.17348865 245.41152397 184.45929981 243.17055449 189 241 C191.69591571 240.79047287 194.13450509 240.71255569 196.8125 240.8125 C197.50537109 240.82603516 198.19824219 240.83957031 198.91210938 240.85351562 C200.60841265 240.88861155 202.30431136 240.94241057 204 241 C197.31675928 190.45338634 179.46411729 148.10171001 144 111 C143.36449219 110.32324219 142.72898437 109.64648438 142.07421875 108.94921875 C109.1831873 74.80220519 61.35335072 56.51069738 15 52 C15.04640625 53.01320312 15.0928125 54.02640625 15.140625 55.0703125 C15.17816758 56.42184532 15.21456506 57.77341028 15.25 59.125 C15.28351563 59.79015625 15.31703125 60.4553125 15.3515625 61.140625 C15.45240281 66.2834809 14.21249129 69.04616456 11 73 C6.88150105 76.25144654 5.67158558 76 0 76 C0 50.92 0 25.84 0 0 Z " fill="#CD0000" transform="translate(256,0)"/>
<path d="M0 0 C0 73.92 0 147.84 0 224 C-24.28531359 224 -45.4316886 215.7631955 -62.9140625 198.84765625 C-64.87782046 197.1082227 -66.60516489 196.03487219 -69 195 C-73.57957356 198.87330816 -74.69325797 201.54709683 -75.5 207.4375 C-76.4532071 213.31336625 -77.38209448 217.05788553 -82 221 C-86.70823058 223.8733313 -91.64946393 223.63586081 -97 223 C-102.14853681 220.4257316 -105.182008 217.45397599 -107 212 C-108.11625603 199.44669446 -105.57404753 188.34437334 -97.9375 178.22265625 C-95.43680137 175.35391125 -92.74579741 172.8730791 -89.796875 170.47265625 C-88.08461988 169.06935151 -86.53796645 167.59018136 -85 166 C-85.27714844 165.13117188 -85.55429688 164.26234375 -85.83984375 163.3671875 C-86.20207031 162.21476563 -86.56429687 161.06234375 -86.9375 159.875 C-87.29714844 158.73804688 -87.65679687 157.60109375 -88.02734375 156.4296875 C-89.92621451 149.73407094 -90.12656579 143.5342488 -90.0625 136.625 C-90.05798828 135.69816406 -90.05347656 134.77132812 -90.04882812 133.81640625 C-90.03711574 131.54420291 -90.02071372 129.27213612 -90 127 C-94.42203169 127.36587423 -98.7031615 127.8686805 -103 129 C-105.28895215 131.74674257 -105.70136678 133.57381706 -106.41796875 136.99609375 C-107.8348157 143.40217952 -110.4559961 146.3039974 -116 150 C-121.55398223 150.68923878 -126.47110145 150.7242151 -131.5625 148.3125 C-135.04187166 145.01155765 -136.79511824 142.46319724 -137.46875 137.65234375 C-137.57740907 124.73549686 -134.46475102 115.51809973 -125.3125 106.125 C-115.08721991 96.72879668 -103.50452917 95.55963492 -90 96 C-90 87.75 -90 79.5 -90 71 C-92.97 70.01 -95.94 69.02 -99 68 C-109.60691486 61.818263 -117.41966557 51.67891643 -121.3046875 40.10546875 C-122.89292695 33.0119274 -123.78005265 25.12148862 -120.09765625 18.6640625 C-117.33527927 15.15579229 -115.22753824 13.40917941 -111 12 C-105.38124276 11.6315569 -101.84288621 11.80809772 -97 15 C-93.43147928 18.79454986 -92.10663165 22.17472068 -90.8125 27.1875 C-89.71064717 31.70782331 -89.71064717 31.70782331 -88 36 C-87.55011719 35.04480469 -87.10023438 34.08960938 -86.63671875 33.10546875 C-80.77070187 21.13419595 -73.22122295 11.11061148 -61 5 C-46 0 -46 0 0 0 Z " fill="#FE627B" transform="translate(256,175)"/>
<path d="M0 0 C3.13248737 1.56363762 5.47264436 3.60182031 8 6 C9.16149779 6.96459151 10.32771831 7.92354347 11.5 8.875 C12.325 9.57625 13.15 10.2775 14 11 C14.76183594 10.66226563 15.52367187 10.32453125 16.30859375 9.9765625 C34.25820073 2.22304937 50.4922877 2.0020418 68.75 9.1875 C70.17005638 9.78365575 71.5881512 10.38465882 73 11 C73.51949219 10.45730469 74.03898437 9.91460937 74.57421875 9.35546875 C75.27160156 8.64003906 75.96898437 7.92460938 76.6875 7.1875 C77.37199219 6.47980469 78.05648437 5.77210937 78.76171875 5.04296875 C84.09520986 0.17487826 88.03761717 -0.54290224 95.1171875 -0.3515625 C99.0210649 0.12452011 101.15730391 1.3030832 104 4 C107.854078 9.43667042 108.04971762 14.52534174 107 21 C104.92270334 25.16131597 101.99512003 28.10694356 98.5625 31.1875 C98.046875 31.785625 97.53125 32.38375 97 33 C97.45554505 36.72135393 98.67839158 40.06898361 100 43.5625 C101.77276434 48.26162899 103.13372225 52.27888437 103.09765625 57.328125 C103.09282227 58.52695313 103.09282227 58.52695313 103.08789062 59.75 C103.07532227 60.9875 103.07532227 60.9875 103.0625 62.25 C103.05798828 63.09046875 103.05347656 63.9309375 103.04882812 64.796875 C103.03707961 66.86461401 103.01914522 68.93231624 103 71 C102.25234375 70.79503906 101.5046875 70.59007812 100.734375 70.37890625 C99.74953125 70.10949219 98.7646875 69.84007812 97.75 69.5625 C96.77546875 69.29566406 95.8009375 69.02882813 94.796875 68.75390625 C93.87390625 68.50511719 92.9509375 68.25632812 92 68 C91.36182343 67.82248609 90.72364685 67.64497217 90.06613159 67.46207905 C86.55248854 66.67627197 82.96758882 66.83478637 79.3828125 66.82299805 C78.07948723 66.81314125 78.07948723 66.81314125 76.74983215 66.80308533 C73.87488715 66.78338145 70.99999445 66.77169305 68.125 66.76171875 C67.13968292 66.75764322 66.15436584 66.7535677 65.13919067 66.74936867 C59.91880504 66.72851527 54.6984456 66.71421323 49.47802734 66.70483398 C44.10953242 66.69380165 38.74145563 66.65943632 33.37310791 66.61966228 C29.22584309 66.59339485 25.07867612 66.58513294 20.93133545 66.58155251 C18.95397128 66.57670872 16.97661082 66.56515845 14.99932861 66.54651451 C4.08548458 66.45004519 -4.81277536 66.79636771 -15 71 C-15.66 71 -16.32 71 -17 71 C-17.46948277 59.38030138 -17.75672077 48.36312345 -11.8046875 37.8984375 C-10.85033389 36.04144177 -10.85033389 36.04144177 -11.125 34.0390625 C-12.29568288 31.31095328 -13.97485943 29.53756082 -16 27.375 C-20.93184521 22.0732664 -21.35048851 19.21505124 -21.28125 11.98828125 C-20.9054694 7.99561236 -19.74835565 5.89691541 -17 3 C-11.56069217 -0.85594767 -6.47764414 -1.04450959 0 0 Z " fill="#3A3C9C" transform="translate(213,109)"/>
<path d="M0 0 C4.62215198 2.18944041 6.71179348 4.50115328 9 9 C9.87699803 13.92886487 10.06452746 18.8675 7.79296875 23.41796875 C5.6196621 26.35055721 3.2774539 28.75100291 0.5625 31.1875 C0.046875 31.785625 -0.46875 32.38375 -1 33 C-0.54445495 36.72135393 0.67839158 40.06898361 2 43.5625 C3.77276434 48.26162899 5.13372225 52.27888437 5.09765625 57.328125 C5.09443359 58.12734375 5.09121094 58.9265625 5.08789062 59.75 C5.07532227 60.9875 5.07532227 60.9875 5.0625 62.25 C5.05798828 63.09046875 5.05347656 63.9309375 5.04882812 64.796875 C5.03707961 66.86461401 5.01914522 68.93231624 5 71 C4.29875 70.80664062 3.5975 70.61328125 2.875 70.4140625 C1.92625 70.15367187 0.9775 69.89328125 0 69.625 C-0.928125 69.36976563 -1.85625 69.11453125 -2.8125 68.8515625 C-3.864375 68.57054687 -4.91625 68.28953125 -6 68 C-7.77697266 67.49146484 -7.77697266 67.49146484 -9.58984375 66.97265625 C-14.31420425 65.79986276 -18.8999863 65.65119055 -23.75 65.5859375 C-24.94689453 65.55947144 -24.94689453 65.55947144 -26.16796875 65.5324707 C-29.11178474 65.47002103 -32.05591967 65.4234103 -35 65.375 C-41.6 65.25125 -48.2 65.1275 -55 65 C-55 44.87 -55 24.74 -55 4 C-44.01263226 4 -35.00763399 6.63826572 -25 11 C-24.22076172 10.18595703 -24.22076172 10.18595703 -23.42578125 9.35546875 C-22.72839844 8.64003906 -22.03101563 7.92460938 -21.3125 7.1875 C-20.62800781 6.47980469 -19.94351563 5.77210937 -19.23828125 5.04296875 C-13.20343646 -0.46527527 -7.95220289 -0.96978084 0 0 Z " fill="#182084" transform="translate(311,109)"/>
<path d="M0 0 C0 10.23 0 20.46 0 31 C-4.29 31.66 -8.58 32.32 -13 33 C-15.28895215 35.74674257 -15.70136678 37.57381706 -16.41796875 40.99609375 C-17.8348157 47.40217952 -20.4559961 50.3039974 -26 54 C-31.55398223 54.68923878 -36.47110145 54.7242151 -41.5625 52.3125 C-45.04187166 49.01155765 -46.79511824 46.46319724 -47.46875 41.65234375 C-47.57740907 28.73549686 -44.46475102 19.51809973 -35.3125 10.125 C-24.87695287 0.53557831 -14.17616203 0 0 0 Z " fill="#383C9D" transform="translate(166,271)"/>
<path d="M0 0 C14.8689524 0 23.95538102 1.80331405 35 11.8125 C43.23928646 20.33589978 45.55409191 29.95457878 45.56640625 41.5546875 C44.72956457 46.64499343 42.67731014 49.69726158 38.62109375 52.84765625 C33.87170897 54.93568681 29.07751849 54.61920957 24 54 C19.47175896 51.85504372 17.03074697 49.56918068 15 45 C14.42901079 42.70389445 13.94464474 40.41487446 13.52734375 38.0859375 C13.05162664 35.71577222 13.05162664 35.71577222 11 33 C7.37 32.34 3.74 31.68 0 31 C0 20.77 0 10.54 0 0 Z " fill="#171F84" transform="translate(346,271)"/>
<path d="M0 0 C5.48924121 3.61790898 7.32378464 7.74932297 8.9375 14 C10.03935283 18.52032331 10.03935283 18.52032331 11.75 22.8125 C11.97697854 28.94092057 11.97697854 28.94092057 11.26196289 31.68652344 C10.63289145 34.29880483 10.53356471 36.76819051 10.43359375 39.453125 C10.37075195 41.05800781 10.37075195 41.05800781 10.30664062 42.6953125 C10.26732422 43.80648437 10.22800781 44.91765625 10.1875 46.0625 C10.12272461 47.75246094 10.12272461 47.75246094 10.05664062 49.4765625 C9.95067985 52.25508954 9.84860858 55.03370391 9.75 57.8125 C-2.99125967 53.92446665 -11.61388499 46.44842769 -18.25 34.8125 C-22.42001732 26.60077359 -23.64349768 17.94195904 -22.25 8.8125 C-17.18622116 -0.06730931 -9.91051864 -3.62115104 0 0 Z " fill="#393C9D" transform="translate(156.25,188.1875)"/>
<path d="M0 0 C3.03997403 2.47701587 4.57130342 5.00946432 6.1875 8.5 C9.26938789 14.99328581 13.56581943 20.37757497 18 26 C17.20980469 26.6084375 16.41960937 27.216875 15.60546875 27.84375 C10.80017582 31.82054415 9.93001972 36.03251434 9.125 42 C8.29480586 47.57613731 7.17515898 50.22247521 3 54 C-1.69170359 56.88720221 -6.66122028 56.63446368 -12 56 C-17.14853681 53.4257316 -20.182008 50.45397599 -22 45 C-23.11571965 32.45272653 -20.57994933 21.33963123 -12.9375 11.2265625 C-9.10753016 6.82518587 -4.84437085 3.22958057 0 0 Z " fill="#393D9D" transform="translate(171,342)"/>
<path d="M0 0 C3.5677811 2.35149209 5.84221079 4.99692157 7.75 8.8125 C8.88649673 23.54969529 5.54853679 34.69497179 -4.09765625 45.97265625 C-8.50783661 50.66340474 -13.25581044 54.35334531 -19.25 56.8125 C-20.24 56.8125 -21.23 56.8125 -22.25 56.8125 C-22.26981934 56.14307373 -22.28963867 55.47364746 -22.31005859 54.78393555 C-22.40655166 51.68896029 -22.51571634 48.59454901 -22.625 45.5 C-22.67140625 43.9212207 -22.67140625 43.9212207 -22.71875 42.31054688 C-22.91188495 37.07980873 -23.30681232 32.13504731 -24.38671875 27.0078125 C-25.92804838 19.21310848 -23.82906537 11.53801332 -20.0390625 4.59375 C-15.00066415 -1.95295869 -7.37106299 -2.69327301 0 0 Z " fill="#181F84" transform="translate(368.25,188.1875)"/>
<path d="M0 0 C10.65642134 5.10620189 16.61906696 14.14938994 20.74609375 24.953125 C22.91923681 32.0870291 23.16318711 40.51043866 20.8125 47.5625 C18.35731164 50.86430503 15.68011621 53.15994189 12 55 C6.68864048 55.52940021 2.32727259 55.66363629 -2.5 53.25 C-8.34950487 47.98544562 -8.81946615 43.2919839 -9.9609375 35.62890625 C-11.15143564 31.47111388 -12.73702959 29.75811342 -16 27 C-13.86897601 22.25907022 -10.74699106 18.10357159 -7.80859375 13.83984375 C-4.78617947 9.38337105 -2.32206389 4.86013372 0 0 Z " fill="#181F83" transform="translate(339,343)"/>
<path d="M0 0 C3.15735118 1.55279566 5.50554917 3.54011431 8 6 C8.52722656 6.49886719 9.05445313 6.99773437 9.59765625 7.51171875 C10.76228903 8.6439105 11.88678803 9.81721228 13 11 C11.85221053 14.44336841 10.75114339 14.91519065 7.80859375 16.78515625 C0.92402001 21.40956755 -3.76117615 26.91923743 -8 34 C-11.6147378 32.50536684 -13.64435488 30.4391696 -16.1875 27.5 C-16.88230469 26.7059375 -17.57710937 25.911875 -18.29296875 25.09375 C-22.17283187 20.33492475 -21.55549151 14.90209733 -21 9 C-16.72474018 -0.02554852 -9.2635138 -1.49178664 0 0 Z " fill="#181F84" transform="translate(213,109)"/>
<path d="M0 0 C4.62215198 2.18944041 6.71179348 4.50115328 9 9 C9.87169498 13.89906094 10.03750422 18.82516297 7.86328125 23.3828125 C4.81867913 27.58612147 1.11193538 30.86709685 -3 34 C-3.46148437 33.38253906 -3.92296875 32.76507813 -4.3984375 32.12890625 C-8.74108091 26.49033566 -13.31567534 21.65749039 -18.703125 17.0078125 C-20.89992667 15.08747907 -22.96097442 13.08579222 -25 11 C-23.77742768 9.72282148 -22.54660355 8.45353969 -21.3125 7.1875 C-20.62800781 6.47980469 -19.94351562 5.77210937 -19.23828125 5.04296875 C-13.20343646 -0.46527527 -7.95220289 -0.96978084 0 0 Z " fill="#051166" transform="translate(311,109)"/>
</svg>
