<?xml version="1.0" encoding="UTF-8"?>
<svg version="1.1" xmlns="http://www.w3.org/2000/svg" width="512" height="512">
<path d="M0 0 C5.47900849 3.21547989 10.5555708 8.03389991 12.5859375 14.125 C12.54605713 14.92583008 12.50617676 15.72666016 12.46508789 16.55175781 C12.35705869 19.74268775 12.56261246 22.08911822 13.5859375 25.125 C17.23731634 28.56801847 21.56921244 30.65048494 26.0234375 32.875 C27.3009623 33.55158885 28.57616703 34.23257497 29.84912109 34.91772461 C32.46993846 36.32432195 35.09942009 37.71216073 37.73681641 39.08740234 C43.49606098 42.11044446 49.09647128 45.40574726 54.7109375 48.6875 C56.85611073 49.92822533 59.00194536 51.16780782 61.1484375 52.40625 C62.20804687 53.01855469 63.26765625 53.63085938 64.359375 54.26171875 C67.62117757 56.1453505 70.88455594 58.02622321 74.1484375 59.90625 C83.73833293 65.43118121 93.32531824 70.96025945 102.87817383 76.54907227 C104.87149173 77.7129018 106.86737966 78.87234211 108.8659668 80.02709961 C113.78112428 82.87056223 118.63948508 85.7710305 123.4375 88.80859375 C124.37811279 89.38778564 125.31872559 89.96697754 126.2878418 90.5637207 C128.05927472 91.65566959 129.81486779 92.77392394 131.55004883 93.92260742 C135.96608813 96.70601654 135.96608813 96.70601654 140.96704102 96.54785156 C142.51742158 95.82698532 144.04352127 95.0512727 145.53881836 94.22216797 C150.42104581 91.60550367 156.72831669 92.31605877 161.91796875 93.78515625 C167.74412142 96.35846651 171.96788087 100.77806095 174.7265625 106.484375 C176.69447707 112.53123978 176.64564251 119.65912274 174.0234375 125.5 C171.68234106 129.49069464 168.49080565 132.65020418 164.5859375 135.125 C163.2659375 135.455 161.9459375 135.785 160.5859375 136.125 C160.5859375 184.305 160.5859375 232.485 160.5859375 282.125 C162.5659375 282.785 164.5459375 283.445 166.5859375 284.125 C168.6328125 285.89453125 168.6328125 285.89453125 170.3359375 287.9375 C170.90828125 288.60394531 171.480625 289.27039063 172.0703125 289.95703125 C176.2619456 295.95279509 176.31473363 302.03076935 175.5859375 309.125 C173.86704495 315.31095462 169.90384005 319.65343784 164.5859375 323.125 C159.05783324 325.79752722 153.61549664 325.81409247 147.5859375 325.125 C145.31658124 324.20237647 143.42005836 323.1859418 141.40234375 321.8046875 C138.66459289 320.78023879 137.19945 321.95258763 134.5859375 323.125 C133.01220472 323.9455546 131.45392295 324.79624431 129.91015625 325.671875 C129.01256592 326.17960449 128.11497559 326.68733398 127.19018555 327.21044922 C125.74639526 328.03440186 125.74639526 328.03440186 124.2734375 328.875 C123.25870361 329.45137207 122.24396973 330.02774414 121.19848633 330.62158203 C112.0078497 335.85540401 102.87405536 341.18524042 93.74609375 346.52734375 C84.15388243 352.13747788 74.51922825 357.67420903 64.89013672 363.22070312 C60.44898129 365.78025775 56.01043082 368.34431298 51.57177734 370.90820312 C47.28428527 373.38358715 42.99450442 375.85498914 38.70458984 378.32617188 C35.58594 380.12499856 32.47061688 381.92949259 29.35546875 383.734375 C27.43241227 384.84395904 25.50924109 385.95334434 23.5859375 387.0625 C22.25888794 387.83436646 22.25888794 387.83436646 20.9050293 388.62182617 C20.098479 389.08564697 19.29192871 389.54946777 18.4609375 390.02734375 C17.75710938 390.43460693 17.05328125 390.84187012 16.328125 391.26147461 C14.5859375 392.125 14.5859375 392.125 12.5859375 392.125 C12.67294922 393.28515625 12.67294922 393.28515625 12.76171875 394.46875 C13.07962956 401.80794817 12.52934907 406.5474859 7.5859375 412.125 C2.91887076 416.90202381 -1.89222011 419.39402316 -8.6015625 419.5625 C-14.74087583 419.41356787 -19.50880939 417.85539353 -24.4140625 414.125 C-28.97781283 408.82845236 -31.56815019 403.9897523 -31.4765625 396.9375 C-31.46753906 396.03644531 -31.45851562 395.13539063 -31.44921875 394.20703125 C-31.43181641 393.17642578 -31.43181641 393.17642578 -31.4140625 392.125 C-32.12852539 391.85494141 -32.84298828 391.58488281 -33.57910156 391.30664062 C-36.44269664 390.113065 -39.06875143 388.73673477 -41.7734375 387.21875 C-43.30955688 386.35842163 -43.30955688 386.35842163 -44.87670898 385.48071289 C-45.96153564 384.86832764 -47.0463623 384.25594238 -48.1640625 383.625 C-49.29078369 382.99134521 -50.41750488 382.35769043 -51.57836914 381.70483398 C-58.36780127 377.87580572 -65.12153564 373.99403332 -71.82495117 370.01660156 C-78.17792897 366.24884767 -84.57526135 362.5599457 -90.9765625 358.875 C-99.47062982 353.98354427 -107.95136695 349.07053042 -116.4140625 344.125 C-119.36368573 342.40403651 -122.31361682 340.68360206 -125.26367188 338.96337891 C-127.48447853 337.66744942 -129.70454329 336.37030637 -131.92382812 335.07177734 C-134.91987428 333.3192348 -137.91894745 331.57196977 -140.91992188 329.82788086 C-142.62829146 328.83332472 -144.33371121 327.83370709 -146.0390625 326.83398438 C-147.07546875 326.23263672 -148.111875 325.63128906 -149.1796875 325.01171875 C-150.09524414 324.47764404 -151.01080078 323.94356934 -151.95410156 323.39331055 C-154.16507475 322.2533735 -155.96363461 321.49754827 -158.4140625 321.125 C-160.22624262 321.87481308 -160.22624262 321.87481308 -161.9765625 323.0625 C-167.90968985 326.21069002 -173.74506416 326.22305993 -180.12890625 324.3125 C-186.63239957 321.49594951 -190.33593501 317.47434784 -193.4140625 311.125 C-195.57865677 304.11011118 -194.61774439 298.07918877 -191.75390625 291.46484375 C-189.67908243 287.84146337 -186.99815681 285.25502096 -183.4140625 283.125 C-182.08659259 282.76903299 -180.75354668 282.43268658 -179.4140625 282.125 C-179.35779318 263.1751649 -179.34710438 244.22582728 -179.39071655 225.27595234 C-179.40990312 216.47718165 -179.41415963 207.67887618 -179.38330078 198.88012695 C-179.3564426 191.21129424 -179.3575645 183.54306409 -179.39232159 175.87425393 C-179.40974918 171.81321077 -179.41314069 167.75324705 -179.38302612 163.69225502 C-179.35511815 159.86921262 -179.36463855 156.04808538 -179.40279961 152.22514915 C-179.41021469 150.82271609 -179.40398471 149.42013384 -179.38304329 148.01783752 C-178.98619807 140.54773942 -178.98619807 140.54773942 -182.19703674 134.22986412 C-184.22549143 132.96765674 -186.22220184 132.05919964 -188.4140625 131.125 C-190.25390625 129.02734375 -190.25390625 129.02734375 -191.3515625 127.0625 C-191.73183594 126.41152344 -192.11210937 125.76054687 -192.50390625 125.08984375 C-195.42889856 118.77537536 -195.12317258 112.44593631 -192.8515625 106 C-190.34253015 100.21676941 -186.71703151 96.72945731 -181.08203125 93.9921875 C-177.99822254 92.98983679 -175.40514171 92.78914347 -172.1640625 92.75 C-171.10703125 92.72164063 -170.05 92.69328125 -168.9609375 92.6640625 C-165.47435496 93.11716464 -164.1230819 93.81270204 -161.17578125 95.51171875 C-158.2414361 96.89026187 -157.01448946 97.29993751 -153.86669922 96.3828125 C-150.94415311 94.84637603 -148.22735193 93.1389638 -145.4765625 91.3125 C-143.34082757 89.98019243 -141.20407354 88.64951741 -139.06640625 87.3203125 C-137.96925293 86.62325195 -136.87209961 85.92619141 -135.74169922 85.20800781 C-130.42814402 81.8818704 -124.98371429 78.79255325 -119.5390625 75.6875 C-117.35360328 74.42936355 -115.16871006 73.17024342 -112.984375 71.91015625 C-111.89930664 71.28512207 -110.81423828 70.66008789 -109.69628906 70.01611328 C-103.18676661 66.26553601 -96.6801147 62.50998011 -90.17333984 58.75463867 C-83.60373877 54.96349525 -77.03149459 51.17701563 -70.45507812 47.39770508 C-68.27866737 46.14271689 -66.10542287 44.88222005 -63.93554688 43.6159668 C-58.66121599 40.54048349 -53.36826303 37.55097447 -47.9609375 34.71484375 C-46.94161133 34.16199707 -45.92228516 33.60915039 -44.87207031 33.03955078 C-42.96234964 32.0052501 -41.03515671 31.00230036 -39.08886719 30.03857422 C-35.18726433 27.88405686 -32.88223755 26.54360829 -31.44824219 22.19848633 C-30.89097837 19.01305006 -30.89097837 19.01305006 -30.68847656 15.91259766 C-30.15929488 10.53697802 -27.46943856 6.86400416 -23.4765625 3.3125 C-16.64470084 -1.56740119 -8.03789595 -2.91341213 0 0 Z M-30.04296875 40.66015625 C-31.4513501 41.49148071 -31.4513501 41.49148071 -32.88818359 42.33959961 C-33.90734863 42.94940674 -34.92651367 43.55921387 -35.9765625 44.1875 C-38.16756493 45.48245433 -40.35898527 46.77670178 -42.55078125 48.0703125 C-43.68563965 48.74223633 -44.82049805 49.41416016 -45.98974609 50.10644531 C-51.40108231 53.29630186 -56.84446602 56.42986218 -62.2890625 59.5625 C-64.47399541 60.82155024 -66.65889103 62.0806652 -68.84375 63.33984375 C-70.47135254 64.27739502 -70.47135254 64.27739502 -72.13183594 65.23388672 C-78.64135839 68.98446399 -85.1480103 72.74001989 -91.65478516 76.49536133 C-97.11940913 79.64885162 -102.58554152 82.7996704 -108.0546875 85.9453125 C-114.51374525 89.66165846 -120.96667953 93.38843722 -127.4140625 97.125 C-128.48994629 97.74810059 -129.56583008 98.37120117 -130.67431641 99.01318359 C-133.77878234 100.81500416 -136.87846253 102.62476027 -139.9765625 104.4375 C-140.91725586 104.98293457 -141.85794922 105.52836914 -142.82714844 106.09033203 C-143.68211914 106.59290527 -144.53708984 107.09547852 -145.41796875 107.61328125 C-146.16892822 108.05196533 -146.9198877 108.49064941 -147.69360352 108.94262695 C-150.32304904 110.74969446 -150.43199782 112.20620166 -151.125 115.34375 C-150.81629796 119.10076569 -150.81629796 119.10076569 -148.57910156 120.765625 C-145.7930183 122.52365333 -142.95270774 124.08729903 -140.0390625 125.625 C-137.83443179 126.84728905 -135.63001204 128.06995865 -133.42578125 129.29296875 C-132.27384277 129.91993652 -131.1219043 130.5469043 -129.93505859 131.19287109 C-124.17971028 134.33401744 -118.52363781 137.64929221 -112.8515625 140.9375 C-111.76101562 141.56333984 -110.67046875 142.18917969 -109.546875 142.83398438 C-104.85203937 145.53022676 -100.17725511 148.24211809 -95.58203125 151.10546875 C-94.884729 151.53819092 -94.18742676 151.97091309 -93.46899414 152.41674805 C-91.69602531 153.52673195 -89.93341226 154.65321222 -88.171875 155.78125 C-85.59450757 157.30771937 -85.59450757 157.30771937 -83.2109375 157.03125 C-81.13139449 155.982437 -80.05307505 154.89271195 -78.5390625 153.125 C-75.15169279 149.57597707 -71.45332537 146.95464105 -67.3515625 144.3125 C-66.76197754 143.92771484 -66.17239258 143.54292969 -65.56494141 143.14648438 C-61.96292031 140.87321778 -58.50413931 139.30159744 -54.4140625 138.125 C-54.03193604 139.34356689 -53.64980957 140.56213379 -53.25610352 141.81762695 C-51.17682162 148.0457617 -48.5534897 154.02340172 -45.94140625 160.04296875 C-45.41200739 161.27109681 -44.88300784 162.49939706 -44.35438538 163.7278595 C-42.9723756 166.93747681 -41.58642513 170.14537433 -40.19915771 173.35272217 C-37.97524723 178.49476448 -35.75510235 183.63841958 -33.53936958 188.78399086 C-32.76937693 190.56959246 -31.9961636 192.35380413 -31.22288513 194.13798523 C-30.75222122 195.22964493 -30.28155731 196.32130463 -29.79663086 197.44604492 C-29.38376328 198.40040939 -28.97089569 199.35477386 -28.54551697 200.33805847 C-28.17213699 201.25774918 -27.79875702 202.17743988 -27.4140625 203.125 C-26.79235168 204.61147285 -26.79235168 204.61147285 -26.15808105 206.12797546 C-25.254858 209.76630093 -25.74007747 211.30735162 -27.12719727 214.75634766 C-27.55166641 215.83832428 -27.97613556 216.9203009 -28.41346741 218.0350647 C-28.88932785 219.19138397 -29.36518829 220.34770325 -29.85546875 221.5390625 C-30.33475327 222.74509125 -30.81403778 223.95112 -31.30784607 225.19369507 C-32.58311682 228.40168452 -33.88096007 231.60006412 -35.18365479 234.79699707 C-36.48868453 238.01140257 -37.7715449 241.23461773 -39.05664062 244.45703125 C-45.90628358 261.59657271 -45.90628358 261.59657271 -48.86032104 268.50946045 C-49.31883453 269.58318909 -49.77734802 270.65691772 -50.24975586 271.76318359 C-50.66535263 272.72292084 -51.0809494 273.68265808 -51.50914001 274.67147827 C-52.58708241 277.15826292 -52.58708241 277.15826292 -52.4140625 280.125 C-59.82066932 276.65875015 -66.84795542 273.28819862 -73.15625 267.99609375 C-76.47801677 265.24328011 -79.95089509 262.69629908 -83.4140625 260.125 C-95.98713748 267.11863086 -108.55166063 274.11434432 -120.91796875 281.46875 C-124.51255342 283.60358362 -128.13049212 285.69573937 -131.75390625 287.78125 C-132.85468506 288.41675781 -133.95546387 289.05226563 -135.08959961 289.70703125 C-137.27686733 290.96892265 -139.46642795 292.22684946 -141.65844727 293.48046875 C-143.14622681 294.34091797 -143.14622681 294.34091797 -144.6640625 295.21875 C-145.55609375 295.73115234 -146.448125 296.24355469 -147.3671875 296.77148438 C-150.27201319 298.69232808 -150.36764832 299.91486105 -151.125 303.34375 C-150.81629796 307.10076569 -150.81629796 307.10076569 -148.57910156 308.765625 C-145.79298907 310.52367177 -142.95272782 312.08724468 -140.0390625 313.625 C-137.82010099 314.85508729 -135.60135823 316.08556924 -133.3828125 317.31640625 C-131.65224609 318.25830811 -131.65224609 318.25830811 -129.88671875 319.21923828 C-124.38294327 322.2396595 -118.96633885 325.4073949 -113.5390625 328.5625 C-111.3547462 329.8226197 -109.1698466 331.0817288 -106.984375 332.33984375 C-99.37702317 336.72192242 -91.77298354 341.10973334 -84.16894531 345.49755859 C-78.72820914 348.63682246 -73.28674773 351.77481497 -67.84375 354.91015625 C-66.21735596 355.84831177 -66.21735596 355.84831177 -64.55810547 356.80541992 C-62.39540868 358.05054535 -60.23039812 359.29166135 -58.06298828 360.52856445 C-52.54525512 363.68760721 -47.10225743 366.92439307 -41.7265625 370.3203125 C-40.6452002 370.9898999 -39.56383789 371.6594873 -38.44970703 372.34936523 C-36.3924024 373.62719518 -34.3505278 374.93032354 -32.32763672 376.26196289 C-31.4048291 376.82906982 -30.48202148 377.39617676 -29.53125 377.98046875 C-28.73315918 378.49246826 -27.93506836 379.00446777 -27.11279297 379.53198242 C-23.36998851 380.65088579 -23.36998851 380.65088579 -16.4140625 376.125 C-16.4140625 351.705 -16.4140625 327.285 -16.4140625 302.125 C-27.38712648 299.50120313 -27.38712648 299.50120313 -38.4140625 297.125 C-34.36474609 287.00170898 -30.31542969 276.87841797 -26.26611328 266.75512695 C-25.89264078 265.8214306 -25.89264078 265.8214306 -25.51162338 264.86887169 C-25.01310868 263.62260522 -24.51456605 262.37634991 -24.01599503 261.13010597 C-22.79921026 258.08849506 -21.58300372 255.04665505 -20.36761475 252.00448608 C-18.37672386 247.02238415 -16.3841834 242.04121237 -14.36425781 237.07080078 C-14.07628326 236.35988785 -13.78830872 235.64897491 -13.49160767 234.91651917 C-12.77257916 233.14388305 -12.04981843 231.372762 -11.32666016 229.60180664 C-10.29881738 227.25215337 -10.29881738 227.25215337 -10.4140625 225.125 C-9.7540625 225.125 -9.0940625 225.125 -8.4140625 225.125 C-8.02992188 226.34832031 -7.64578125 227.57164062 -7.25 228.83203125 C-5.19821304 234.97661846 -2.61851897 240.87447225 -0.0390625 246.8125 C0.73800049 248.61267578 0.73800049 248.61267578 1.53076172 250.44921875 C2.63483543 253.00665858 3.74129731 255.56304651 4.84960938 258.11865234 C6.33394209 261.54172897 7.8133513 264.96690883 9.29122925 268.39277649 C10.76302574 271.80413992 12.23697334 275.21457276 13.7109375 278.625 C13.99233582 279.27665131 14.27373413 279.92830261 14.56365967 280.59970093 C15.36414623 282.45240731 16.1664114 284.30434491 16.96875 286.15625 C17.42652832 287.21392578 17.88430664 288.27160156 18.35595703 289.36132812 C19.37538438 291.65190327 20.43991006 293.89583279 21.5859375 296.125 C20.51214844 296.39054687 19.43835938 296.65609375 18.33203125 296.9296875 C16.8958174 297.28639421 15.45962038 297.64316866 14.0234375 298 C13.31896484 298.17402344 12.61449219 298.34804688 11.88867188 298.52734375 C11.18935547 298.70136719 10.49003906 298.87539063 9.76953125 299.0546875 C9.13587646 299.21179199 8.50222168 299.36889648 7.84936523 299.53076172 C4.74707213 300.34523496 1.66906814 301.24109591 -1.4140625 302.125 C-1.55306314 311.70417186 -1.65968274 321.28299682 -1.72493553 330.862957 C-1.75625348 335.311344 -1.79873333 339.75904126 -1.86669922 344.20703125 C-1.93187744 348.49943061 -1.96776505 352.79116652 -1.98332596 357.08402252 C-1.9944153 358.72198179 -2.01607106 360.35990459 -2.04844284 361.99758148 C-2.09199062 364.29182963 -2.09799803 366.58333496 -2.09521484 368.87792969 C-2.10853851 370.18364929 -2.12186218 371.4893689 -2.1355896 372.83465576 C-1.70330036 376.37861854 -1.70330036 376.37861854 1.47135925 378.61230469 C4.40804172 380.43568144 4.40804172 380.43568144 7.1003418 379.57519531 C8.33071167 378.85734863 8.33071167 378.85734863 9.5859375 378.125 C10.49577393 377.63870117 11.40561035 377.15240234 12.34301758 376.65136719 C13.83418091 375.79526855 13.83418091 375.79526855 15.35546875 374.921875 C17.0408374 373.95689087 17.0408374 373.95689087 18.76025391 372.97241211 C19.97305471 372.27340128 21.18578069 371.57426061 22.3984375 370.875 C23.66053728 370.1502852 24.92274581 369.42575976 26.18505859 368.70141602 C35.02870113 363.62125437 43.84461717 358.49374397 52.64819336 353.34448242 C59.90476207 349.10043649 67.17788745 344.88593214 74.4609375 340.6875 C75.53480713 340.06842773 76.60867676 339.44935547 77.71508789 338.81152344 C82.13944246 336.26177204 86.56446337 333.71317919 90.98974609 331.16503906 C107.34410297 321.75063489 107.34410297 321.75063489 123.6484375 312.25 C124.35105713 311.83903076 125.05367676 311.42806152 125.77758789 311.00463867 C128.85835761 309.30507118 128.85835761 309.30507118 131.5859375 307.125 C131.65773714 305.60571962 131.66985757 304.08332518 131.6484375 302.5625 C131.63490234 301.32306641 131.63490234 301.32306641 131.62109375 300.05859375 C131.60369141 299.10146484 131.60369141 299.10146484 131.5859375 298.125 C131.01488281 297.80450684 130.44382812 297.48401367 129.85546875 297.15380859 C115.64801816 289.17199961 101.53334249 281.04440614 87.47070312 272.81054688 C82.84997558 270.1106905 78.21859099 267.4293266 73.5859375 264.75 C72.7722168 264.27933105 71.95849609 263.80866211 71.12011719 263.32373047 C69.27558752 262.25714639 67.43079611 261.191015 65.5859375 260.125 C64.48502574 261.06303818 63.38492555 262.00202889 62.28515625 262.94140625 C61.36609497 263.72559937 61.36609497 263.72559937 60.4284668 264.52563477 C58.72111195 266.00766493 57.05653114 267.52587136 55.3984375 269.0625 C49.99254769 273.71722973 43.36042835 277.86683638 36.5859375 280.125 C36.42108353 279.59653976 36.25622955 279.06807953 36.08638 278.52360535 C34.11901799 272.40377833 31.71756376 266.55607228 29.12890625 260.67578125 C28.70346024 259.70070114 28.27801422 258.72562103 27.8396759 257.72099304 C26.48790331 254.62488901 25.13084687 251.53113627 23.7734375 248.4375 C22.87398091 246.38102031 21.9748893 244.32438095 21.07617188 242.26757812 C20.41888596 240.76431473 20.41888596 240.76431473 19.74832153 239.23068237 C18.88312217 237.24966373 18.01939208 235.26800267 17.15719604 233.28567505 C15.33211325 229.09305989 13.4979814 224.90879162 11.57666016 220.75927734 C11.28616287 220.11975632 10.99566559 219.48023529 10.69636536 218.82133484 C9.95551178 217.19407071 9.19981441 215.57358571 8.44262695 213.95385742 C6.89790799 208.85307127 8.72180123 204.34808832 10.65551758 199.55371094 C11.08298782 198.48529968 11.51045807 197.41688843 11.95088196 196.31610107 C12.4143956 195.17538147 12.87790924 194.03466187 13.35546875 192.859375 C13.8328801 191.67079895 14.31029144 190.4822229 14.8021698 189.25762939 C16.06938304 186.10291198 17.34380338 182.95115606 18.61981201 179.79998779 C19.90513602 176.62229445 21.18377209 173.44191383 22.46289062 170.26171875 C24.34764215 165.57761278 26.23613843 160.89503632 28.12817383 156.21386719 C28.54169098 155.18789429 28.95520813 154.16192139 29.3812561 153.1048584 C30.18091016 151.12686166 30.98586234 149.15099813 31.79623413 147.17736816 C32.1634256 146.27740112 32.53061707 145.37743408 32.90893555 144.45019531 C33.2335527 143.66074524 33.55816986 142.87129517 33.8926239 142.05792236 C34.69847914 140.15349018 34.69847914 140.15349018 34.5859375 138.125 C43.88926049 142.29298424 51.97276609 146.54465765 59.3347168 153.70629883 C60.96006548 155.28914515 60.96006548 155.28914515 63.5859375 157.125 C67.567736 156.79366726 70.43929446 155.27727645 73.84765625 153.2734375 C75.38389648 152.37806274 75.38389648 152.37806274 76.95117188 151.46459961 C78.04751953 150.81628174 79.14386719 150.16796387 80.2734375 149.5 C82.01313142 148.48308639 83.75283231 147.46618449 85.49295044 146.44999695 C87.30557851 145.3904057 89.11645381 144.32786157 90.92724609 143.26513672 C94.51838747 141.16070275 98.12218357 139.07877863 101.73046875 137.00390625 C102.3088298 136.67124756 102.88719086 136.33858887 103.483078 135.99584961 C105.18390944 135.01785467 106.88492184 134.04017448 108.5859375 133.0625 C120.74315231 126.97806051 120.74315231 126.97806051 131.5859375 119.125 C131.65773714 117.60571962 131.66985757 116.08332518 131.6484375 114.5625 C131.63490234 113.32306641 131.63490234 113.32306641 131.62109375 112.05859375 C131.60949219 111.42050781 131.59789062 110.78242188 131.5859375 110.125 C130.8738916 109.71886475 130.1618457 109.31272949 129.42822266 108.89428711 C113.19548295 99.63308466 96.98533945 90.3342014 80.80371094 80.98388672 C75.39923104 77.86175394 69.99245676 74.74359945 64.5859375 71.625 C62.42837729 70.38022241 60.27082522 69.13543074 58.11328125 67.890625 C53.68902981 65.33814665 49.26452082 62.78611545 44.83984375 60.234375 C43.72955811 59.59363037 42.61927246 58.95288574 41.4753418 58.29272461 C39.28154991 57.02815902 37.08642777 55.76589799 34.88989258 54.50610352 C29.85877635 51.61647827 24.85482132 48.69712058 19.90625 45.66796875 C19.03411865 45.14106445 18.1619873 44.61416016 17.26342773 44.07128906 C15.65209221 43.09491358 14.04930796 42.10422301 12.45727539 41.09667969 C8.39122644 38.5150081 8.39122644 38.5150081 3.76171875 38.72265625 C2.02630501 39.84117247 0.30382203 40.97974364 -1.4140625 42.125 C-1.85515959 45.32011663 -1.85515959 45.32011663 -1.75463867 49.14501953 C-1.75507675 49.86707581 -1.75551483 50.58913208 -1.75596619 51.33306885 C-1.75387249 53.72492308 -1.73051507 56.1160804 -1.70703125 58.5078125 C-1.70143734 60.16404843 -1.69716627 61.82028932 -1.69416809 63.47653198 C-1.68270313 67.8397996 -1.65322198 72.20276852 -1.62005615 76.56591797 C-1.58939068 81.01656045 -1.57567031 85.46725111 -1.56054688 89.91796875 C-1.52835366 98.65378304 -1.47713765 107.38935439 -1.4140625 116.125 C0.37451172 116.54072266 0.37451172 116.54072266 2.19921875 116.96484375 C3.76564227 117.33065523 5.33204757 117.69654471 6.8984375 118.0625 C7.68412109 118.24490234 8.46980469 118.42730469 9.27929688 118.61523438 C10.4152832 118.88110352 10.4152832 118.88110352 11.57421875 119.15234375 C12.61896362 119.39585571 12.61896362 119.39585571 13.68481445 119.64428711 C15.3393781 120.06265565 16.96687858 120.58531369 18.5859375 121.125 C17.15628557 128.78413811 14.58188477 135.65610118 11.6484375 142.859375 C11.16769775 144.05556458 10.68695801 145.25175415 10.19165039 146.48419189 C8.92282552 149.64110643 7.64575676 152.79461918 6.36682129 155.94744873 C5.0676513 159.15434942 3.77633578 162.36440856 2.484375 165.57421875 C0.21185274 171.21742165 -2.0674531 176.85785263 -4.35180664 182.49627686 C-4.70235107 183.36375549 -5.05289551 184.23123413 -5.4140625 185.125 C-5.78974365 186.00101868 -6.1654248 186.87703735 -6.55249023 187.77960205 C-7.58647079 190.17789516 -7.58647079 190.17789516 -7.4140625 193.125 C-8.0740625 193.125 -8.7340625 193.125 -9.4140625 193.125 C-9.58480789 192.58181122 -9.75555328 192.03862244 -9.93147278 191.47897339 C-11.76173651 185.80670827 -13.93411164 180.38471556 -16.36328125 174.9453125 C-16.73959183 174.09307098 -17.1159024 173.24082947 -17.50361633 172.36276245 C-18.69911096 169.65679811 -19.89997697 166.95326445 -21.1015625 164.25 C-25.79299959 153.66885904 -30.47273818 143.0840356 -34.99609375 132.4296875 C-35.34169846 131.62185822 -35.68730316 130.81402893 -36.04338074 129.98171997 C-38.4140625 124.36096106 -38.4140625 124.36096106 -38.4140625 122.125 C-36.43637967 121.49532046 -34.45682315 120.87152511 -32.4765625 120.25 C-31.37441406 119.90195313 -30.27226562 119.55390625 -29.13671875 119.1953125 C-26.31516919 118.38407999 -23.54459735 117.68417983 -20.68139648 117.05810547 C-19.87967514 116.88213837 -19.0779538 116.70617126 -18.25193787 116.52487183 C-17.645439 116.39291412 -17.03894012 116.26095642 -16.4140625 116.125 C-16.27506186 106.54582814 -16.16844226 96.96700318 -16.10318947 87.387043 C-16.07187152 82.938656 -16.02939167 78.49095874 -15.96142578 74.04296875 C-15.89624756 69.75056939 -15.86035995 65.45883348 -15.84479904 61.16597748 C-15.8337097 59.52801821 -15.81205394 57.89009541 -15.77968216 56.25241852 C-15.73613438 53.95817037 -15.73012697 51.66666504 -15.73291016 49.37207031 C-15.71958649 48.06635071 -15.70626282 46.7606311 -15.6925354 45.41534424 C-16.12259891 41.87807335 -16.12259891 41.87807335 -19.26913452 39.67205811 C-23.95895888 37.36503205 -25.77022683 38.11471963 -30.04296875 40.66015625 Z M-163.10283279 134.38637543 C-166.28970815 138.6120117 -165.17815301 144.91272035 -165.09521484 149.98144531 C-165.09352213 151.42043995 -165.09447293 152.85943977 -165.09786987 154.2984314 C-165.09959212 158.20348256 -165.06430681 162.10742897 -165.02242613 166.01222324 C-164.98492938 170.09343941 -164.98139464 174.17468064 -164.97427368 178.25604248 C-164.95562159 185.98391774 -164.90638009 193.71128398 -164.84617674 201.43893504 C-164.77912255 210.23685371 -164.74612542 219.03479663 -164.71600413 227.8329072 C-164.65328102 245.9305601 -164.54773934 264.02773913 -164.4140625 282.125 C-163.14638138 282.8163101 -161.87172351 283.49483834 -160.59420776 284.1678009 C-159.88514723 284.54699582 -159.17608669 284.92619074 -158.44553947 285.31687641 C-156.30978737 286.39173781 -156.30978737 286.39173781 -153.53173828 285.44018555 C-152.6498584 284.8862915 -151.76797852 284.33239746 -150.859375 283.76171875 C-149.84512451 283.1488501 -148.83087402 282.53598145 -147.78588867 281.90454102 C-146.71443604 281.21416748 -145.6429834 280.52379395 -144.5390625 279.8125 C-143.40220697 279.11244681 -142.26324707 278.41580069 -141.12231445 277.72241211 C-138.7437144 276.27344705 -136.37491492 274.81007146 -134.01123047 273.33691406 C-128.29858145 269.79788571 -122.44023733 266.51284361 -116.6015625 263.1875 C-108.11565906 258.3072869 -99.68373861 253.36469356 -91.4140625 248.125 C-91.88457031 247.0834375 -92.35507813 246.041875 -92.83984375 244.96875 C-101.73238933 224.7313638 -105.06653613 203.06989422 -96.84375 181.87890625 C-96.03288697 179.87094211 -95.1960996 177.8837565 -94.30810547 175.90869141 C-92.56032277 172.14068859 -92.56032277 172.14068859 -93.4140625 168.125 C-95.90969554 166.57019313 -98.37860259 165.17682267 -100.9765625 163.8125 C-102.62897728 162.92050777 -104.27994538 162.02583192 -105.9296875 161.12890625 C-106.81720703 160.64695801 -107.70472656 160.16500977 -108.61914062 159.66845703 C-113.53984552 156.95106567 -118.37968768 154.09634141 -123.2265625 151.25 C-131.23554316 146.56271046 -139.24768517 141.88155425 -147.2890625 137.25 C-148.18085205 136.73195801 -149.0726416 136.21391602 -149.99145508 135.68017578 C-150.8089624 135.2107959 -151.62646973 134.74141602 -152.46875 134.2578125 C-153.18530762 133.84418457 -153.90186523 133.43055664 -154.64013672 133.00439453 C-157.8420734 131.41708708 -160.2292677 132.36957825 -163.10283279 134.38637543 Z M133.125 134.625 C132.19204102 135.17470459 131.25908203 135.72440918 130.29785156 136.29077148 C129.27916992 136.89606689 128.26048828 137.5013623 127.2109375 138.125 C125.03194311 139.40872928 122.85222505 140.69123083 120.671875 141.97265625 C120.10138428 142.30830093 119.53089355 142.64394562 118.94311523 142.98976135 C111.13234002 147.57802313 103.25347717 152.04746823 95.38134766 156.52929688 C88.08973248 160.68375987 80.82627668 164.88182067 73.5859375 169.125 C75.31576916 174.37803795 77.29831707 179.4852579 79.3671875 184.61328125 C82.2264071 192.85186592 82.97420054 200.54413774 82.9609375 209.25 C82.95932617 210.35150391 82.95771484 211.45300781 82.95605469 212.58789062 C82.78464639 224.03527628 80.50361788 234.1037574 75.3203125 244.390625 C74.3909822 246.27151894 74.3909822 246.27151894 74.5859375 249.125 C75.24787109 249.5060791 75.90980469 249.8871582 76.59179688 250.27978516 C87.83923406 256.7569311 99.08620501 263.23443624 110.29101562 269.78515625 C112.30809644 270.96254146 114.32760518 272.13577775 116.34960938 273.3046875 C120.59533995 275.76259197 124.8064658 278.2344038 128.9140625 280.91796875 C129.54731445 281.31894775 130.18056641 281.71992676 130.83300781 282.13305664 C132.43202075 283.1519263 134.01023985 284.20324402 135.5859375 285.2578125 C139.55249659 286.77172253 139.55249659 286.77172253 146.5859375 282.125 C146.5859375 233.945 146.5859375 185.765 146.5859375 136.125 C139.28679086 131.39353125 139.28679086 131.39353125 133.125 134.625 Z " fill="#64B5F5" transform="translate(265.4140625,47.875)"/>
<path d="M0 0 C0.40890221 0.94268738 0.40890221 0.94268738 0.82606506 1.90441895 C3.4283935 7.90373103 6.03096685 13.9029368 8.63379765 19.90203094 C9.97108233 22.98427315 11.30825382 26.06656434 12.64526367 29.14892578 C13.6823113 31.5397213 14.71993342 33.93026772 15.75814819 36.32055664 C16.77287168 38.66178008 17.78366282 41.00471193 18.79043579 43.34936523 C20.90562601 48.26274784 23.03323739 53.14605422 25.41357422 57.9375 C25.76060898 58.6550647 26.10764374 59.37262939 26.4651947 60.11193848 C27.34695625 61.91644789 28.26241667 63.70439178 29.18139648 65.49023438 C30.38241227 70.63959404 28.86356905 74.15988631 27 79 C26.63317612 79.97249695 26.26635223 80.9449939 25.88841248 81.94696045 C24.62441675 85.2205043 23.31763806 88.47425421 22 91.7265625 C21.27114581 93.54148023 20.54229227 95.35639822 19.81347656 97.17133141 C18.80182349 99.68738317 17.78612872 102.20179539 16.77050781 104.71624756 C14.99107684 109.12437055 13.21854558 113.53527346 11.4453125 117.94589233 C10.50402861 120.28600438 9.5613889 122.62557166 8.6171875 124.96450806 C6.33856757 130.61815255 4.10846355 136.28061924 2 142 C-10.92812451 138.55250013 -24.22064453 129.7001409 -31 118 C-32.27900819 116.28216892 -33.5714002 114.57424487 -34.875 112.875 C-46.46779418 97.00669824 -50.2254917 77.44088005 -47.22973633 58.13989258 C-45.33518383 47.37888652 -42.1657366 36.4375181 -35 28 C-33.72200152 26.21343718 -32.45131462 24.42162445 -31.1875 22.625 C-24.52487158 13.51412969 -12.31259817 0 0 0 Z " fill="#ED6A6A" transform="translate(211,186)"/>
<path d="M0 0 C8.98744572 1.66925729 16.03311752 6.72610239 22.9375 12.5 C23.48083984 12.95036621 24.02417969 13.40073242 24.58398438 13.86474609 C28.10597019 16.90536461 30.53787603 20.07502413 33 24 C34.30834723 25.71151586 35.62084518 27.41986683 36.9375 29.125 C45.98509602 41.55283171 49.58591562 56.09336875 49.4375 71.3125 C49.43065186 72.40191895 49.42380371 73.49133789 49.41674805 74.61376953 C49.161041 87.51404617 46.67843303 103.62695442 37 113 C35.58610645 114.88240265 34.19241181 116.78004669 32.8125 118.6875 C24.9958976 129.17637772 16.61479011 136.04793674 5 142 C4.01 142 3.02 142 2 142 C-5.68510729 124.8423596 -13.26394436 107.64516635 -20.56933594 90.32177734 C-21.58932884 87.95351397 -22.63429178 85.61344186 -23.71972656 83.27587891 C-24.00240387 82.65385086 -24.28508118 82.03182281 -24.57632446 81.39094543 C-25.36845908 79.65095312 -26.17524873 77.91765418 -26.98291016 76.18481445 C-28.67876119 70.87459439 -26.9705871 66.4872468 -24.94628906 61.46044922 C-24.30992523 59.86751541 -24.30992523 59.86751541 -23.66070557 58.24240112 C-23.20032898 57.10795563 -22.73995239 55.97351013 -22.265625 54.8046875 C-21.79058533 53.6208548 -21.31554565 52.43702209 -20.82611084 51.21731567 C-19.56322735 48.07360737 -18.29508213 44.9321275 -17.02441406 41.79156494 C-16.00087145 39.25844217 -14.98235964 36.72331282 -13.96417618 34.18803215 C-9.37607789 22.76386329 -4.75827421 11.35455847 0 0 Z " fill="#ED6A6A" transform="translate(300,186)"/>
<path d="M0 0 C0.66 0 1.32 0 2 0 C2.41660889 0.96373535 2.83321777 1.9274707 3.26245117 2.92041016 C4.51851012 5.8259822 5.77473127 8.73148408 7.03100586 11.63696289 C8.47630828 14.97969264 9.92106129 18.32265915 11.36547852 21.66577148 C14.87256745 29.78102063 18.38571184 37.89346656 21.921875 45.99609375 C22.81156148 48.03767478 23.70104773 50.07934294 24.59048462 52.12103271 C25.15281901 53.40997487 25.71626628 54.69843211 26.28085327 55.98638916 C27.06366506 57.77228332 27.84247845 59.55992851 28.62109375 61.34765625 C29.0586499 62.34804932 29.49620605 63.34844238 29.94702148 64.37915039 C30.83567765 66.59100384 31.50383937 68.67435478 32 71 C30.40066393 71.63725963 28.79511868 72.25893354 27.1875 72.875 C26.29417969 73.22304688 25.40085937 73.57109375 24.48046875 73.9296875 C21.39278653 74.87921043 18.45696921 75.5061452 15.2824707 76.06689453 C14.292939 76.24286163 13.30340729 76.41882874 12.28388977 76.60012817 C11.53020615 76.73208588 10.77652252 76.86404358 10 77 C9.86099936 86.57917186 9.75437976 96.15799682 9.68912697 105.737957 C9.65780902 110.186344 9.61532917 114.63404126 9.54736328 119.08203125 C9.48218506 123.37443061 9.44629745 127.66616652 9.43073654 131.95902252 C9.4196472 133.59698179 9.39799144 135.23490459 9.36561966 136.87258148 C9.32207188 139.16682963 9.31606447 141.45833496 9.31884766 143.75292969 C9.30552399 145.05864929 9.29220032 146.3643689 9.2784729 147.70965576 C9.69263012 151.25906277 9.69263012 151.25906277 12.92611694 153.31207275 C13.94049835 153.86908875 14.95487976 154.42610474 16 155 C17.86328125 157.25390625 17.86328125 157.25390625 19.3125 159.5625 C19.80363281 160.32691406 20.29476562 161.09132813 20.80078125 161.87890625 C23.83444206 167.24463204 23.66922859 173.0073622 23 179 C20.60751915 185.3111995 15.72934358 190.25553019 9.63671875 193.10546875 C3.26090382 195.268523 -3.18165651 194.74821694 -9.3125 192.0625 C-15.35728848 188.70321468 -18.8397173 183.4808481 -21 177 C-22.25135149 168.25841599 -18.68477053 162.15706404 -14.0625 155 C-12 153 -12 153 -6 151 C-6 126.58 -6 102.16 -6 77 C-10.29 76.34 -14.58 75.68 -19 75 C-22.0239729 74.07502005 -25.03700843 73.10484431 -28 72 C-25.74759767 63.75114666 -22.6899777 55.88955337 -19.4921875 47.96875 C-18.96043083 46.64276076 -18.4290347 45.31662687 -17.89797974 43.99035645 C-16.51147269 40.53073805 -15.11965986 37.07327825 -13.72680664 33.61621094 C-12.58664549 30.78361796 -11.45040278 27.94946109 -10.31432915 25.11522675 C-8.95829705 21.73252621 -7.60046677 18.35054874 -6.2421875 14.96875 C-5.98364864 14.32485825 -5.72510979 13.68096649 -5.45873642 13.01756287 C-4.72981195 11.20337449 -3.99946253 9.38975883 -3.26904297 7.57617188 C-2.85395477 6.54488159 -2.43886658 5.51359131 -2.01119995 4.4510498 C-1.39027562 2.94598995 -0.7281143 1.4562286 0 0 Z " fill="#64B5F5" transform="translate(255,273)"/>
<path d="M0 0 C5.47900849 3.21547989 10.5555708 8.03389991 12.5859375 14.125 C13.45692321 23.76295666 11.95966591 29.93507424 6.0859375 37.5 C3.5859375 40.125 3.5859375 40.125 -0.4140625 42.125 C-0.7440625 66.545 -1.0740625 90.965 -1.4140625 116.125 C1.8859375 116.455 5.1859375 116.785 8.5859375 117.125 C11.71484375 117.73828125 11.71484375 117.73828125 14.1484375 118.4375 C14.97472656 118.66050781 15.80101562 118.88351563 16.65234375 119.11328125 C18.5859375 120.125 18.5859375 120.125 19.33837891 121.8059082 C19.68720245 125.07363487 18.69078575 127.19436663 17.48046875 130.2421875 C17.24510406 130.84362076 17.00973938 131.44505402 16.76724243 132.06471252 C15.98818452 134.04748873 15.19346669 136.02357977 14.3984375 138 C13.85266099 139.37991987 13.30783321 140.76021533 12.76391602 142.14086914 C11.33939174 145.74792216 9.90103446 149.34927687 8.45788574 152.94891357 C7.59776386 155.09548544 6.74027899 157.24308993 5.88378906 159.39111328 C1.59674153 170.14204952 1.59674153 170.14204952 -0.4909668 175.32568359 C-2.86932218 181.23474721 -5.2140184 187.1471024 -7.4140625 193.125 C-8.0740625 193.125 -8.7340625 193.125 -9.4140625 193.125 C-16.39072287 177.63105228 -23.23431694 162.07699357 -29.98614502 146.48382568 C-30.81394006 144.57598275 -31.64512637 142.66960773 -32.47967529 140.76470947 C-33.66109512 138.06580508 -34.83004416 135.3618237 -35.99609375 132.65625 C-36.5373716 131.42979263 -36.5373716 131.42979263 -37.08958435 130.17855835 C-37.41169388 129.42418488 -37.73380341 128.6698114 -38.06567383 127.89257812 C-38.35146805 127.234552 -38.63726227 126.57652588 -38.93171692 125.89855957 C-39.4140625 124.125 -39.4140625 124.125 -38.4140625 121.125 C-35.7890625 119.9921875 -35.7890625 119.9921875 -32.4140625 119 C-30.774375 118.50113281 -30.774375 118.50113281 -29.1015625 117.9921875 C-26.2297044 117.31681409 -23.59997588 116.87531323 -20.68359375 116.57080078 C-19.88155518 116.48581329 -19.0795166 116.40082581 -18.25317383 116.31326294 C-17.64626709 116.25113617 -17.03936035 116.1890094 -16.4140625 116.125 C-16.40576197 106.54535172 -16.42955045 96.96647784 -16.4943409 87.387043 C-16.52341699 82.93887591 -16.54142575 78.49123673 -16.53417969 74.04296875 C-16.52759352 69.75021839 -16.55002938 65.45851183 -16.59261703 61.16597748 C-16.60376121 59.52816229 -16.60443649 57.8902414 -16.59448624 56.25241852 C-16.58233223 53.95781067 -16.60735106 51.66639819 -16.64111328 49.37207031 C-16.6455545 48.06635071 -16.64999573 46.7606311 -16.65457153 45.41534424 C-17.1137787 41.86655516 -17.1137787 41.86655516 -20.34811401 39.79486084 C-21.86575851 38.96827972 -21.86575851 38.96827972 -23.4140625 38.125 C-28.84690903 32.28585084 -31.95051877 26.58295403 -31.72265625 18.52734375 C-30.82932359 11.57291864 -27.65464228 6.68287356 -22.29296875 2.31640625 C-15.77755859 -1.81498689 -7.28507842 -2.64054622 0 0 Z " fill="#64B5F5" transform="translate(265.4140625,47.875)"/>
<path d="M0 0 C1.859375 1.9609375 1.859375 1.9609375 3.75 4.375 C4.38421875 5.16648437 5.0184375 5.95796875 5.671875 6.7734375 C6.11015625 7.50820313 6.5484375 8.24296875 7 9 C5.7220314 12.8339058 4.52549332 13.10636815 1.03125 15.00390625 C-0.00588135 15.57431641 -1.0430127 16.14472656 -2.11157227 16.73242188 C-3.22975342 17.33634766 -4.34793457 17.94027344 -5.5 18.5625 C-7.81195773 19.83325402 -10.12315501 21.10539255 -12.43359375 22.37890625 C-13.56522949 23.00039551 -14.69686523 23.62188477 -15.86279297 24.26220703 C-20.46076515 26.80916158 -24.99551903 29.45372346 -29.49780273 32.16577148 C-33.73349796 34.70739521 -38.02421376 37.10503941 -42.375 39.4453125 C-43.48029053 40.05375 -44.58558105 40.6621875 -45.72436523 41.2890625 C-47.91373564 42.4931922 -50.11621657 43.67384841 -52.33227539 44.828125 C-57.65363929 47.47418392 -57.65363929 47.47418392 -60.67529297 52.20996094 C-60.75542988 54.6721875 -60.75542988 54.6721875 -60 58 C-58.9790625 58.55945313 -57.958125 59.11890625 -56.90625 59.6953125 C-47.00197797 65.14753535 -37.20288134 70.76256796 -27.44677734 76.4753418 C-20.02161248 80.82310157 -12.58005904 85.14120282 -5.125 89.4375 C-4.04541016 90.05971436 -2.96582031 90.68192871 -1.85351562 91.32299805 C0.3368252 92.58511517 2.52725502 93.84707785 4.71777344 95.10888672 C11.21564623 98.85275184 17.71088783 102.60118277 24.20556641 106.35058594 C29.26347279 109.26999691 34.32278742 112.18687167 39.38757324 115.09432983 C41.76923502 116.46174766 44.1500302 117.83067039 46.53076172 119.19970703 C48.20326021 120.16064553 49.87700336 121.11941672 51.55078125 122.078125 C56.47613151 124.91129108 61.33262961 127.7569823 66 131 C65.04258894 132.60471728 64.08403595 134.20875329 63.125 135.8125 C62.59132812 136.70582031 62.05765625 137.59914063 61.5078125 138.51953125 C60.38116908 140.37294724 59.20313389 142.19529917 58 144 C34.95717344 130.85688066 11.95001043 117.65522295 -10.95532227 104.2734375 C-19.43800871 99.32061392 -27.9323989 94.38807127 -36.45385742 89.50219727 C-41.71037275 86.4878465 -46.94348459 83.4452411 -52.1328125 80.31640625 C-53.09292236 79.7455127 -54.05303223 79.17461914 -55.04223633 78.58642578 C-56.84255444 77.5148343 -58.63465455 76.42927022 -60.41674805 75.32763672 C-64.80679997 72.53349277 -64.80679997 72.53349277 -69.76171875 72.56640625 C-70.50035156 73.03949219 -71.23898438 73.51257813 -72 74 C-78.21600734 76.74206917 -84.16226935 77.13262538 -90.7265625 75.1953125 C-97.21616681 72.35243448 -100.92067103 68.35182618 -104 62 C-106.16431639 54.9860117 -105.20978465 48.94561845 -102.33203125 42.3359375 C-99.64792884 37.62891921 -95.98729847 34.97156814 -91.1875 32.625 C-83.89048465 31.19421268 -75.56781747 30.99905707 -69.12744141 35.23022461 C-66.94649417 36.27964864 -66.94649417 36.27964864 -64.57177734 35.08813477 C-63.21753662 34.27300415 -63.21753662 34.27300415 -61.8359375 33.44140625 C-60.80871582 32.83490234 -59.78149414 32.22839844 -58.72314453 31.60351562 C-57.61825684 30.92998047 -56.51336914 30.25644531 -55.375 29.5625 C-54.21958879 28.87396757 -53.0631589 28.18714195 -51.90576172 27.50195312 C-49.48853681 26.06920524 -47.07593163 24.62908659 -44.66601562 23.18408203 C-38.86255256 19.71421836 -32.9896713 16.36501045 -27.125 13 C-25.06464218 11.81330175 -23.00473004 10.62582929 -20.9453125 9.4375 C-19.97239258 8.87933594 -18.99947266 8.32117188 -17.99707031 7.74609375 C-15.87840065 6.51175639 -13.774857 5.25128146 -11.68261719 3.97265625 C-10.60915039 3.32167969 -9.53568359 2.67070312 -8.4296875 2 C-7.46015137 1.401875 -6.49061523 0.80375 -5.49169922 0.1875 C-3 -1 -3 -1 0 0 Z " fill="#64B5F6" transform="translate(176,297)"/>
<path d="M0 0 C1.52835083 3.91451588 0.40413886 6.31569288 -1.10546875 10.1171875 C-1.34083344 10.71862076 -1.57619812 11.32005402 -1.81869507 11.93971252 C-2.59775298 13.92248873 -3.39247081 15.89857977 -4.1875 17.875 C-4.73327651 19.25491987 -5.27810429 20.63521533 -5.82202148 22.01586914 C-7.24654576 25.62292216 -8.68490304 29.22427687 -10.12805176 32.82391357 C-10.98817364 34.97048544 -11.84565851 37.11808993 -12.70214844 39.26611328 C-16.98919597 50.01704952 -16.98919597 50.01704952 -19.0769043 55.20068359 C-21.45525968 61.10974721 -23.7999559 67.0221024 -26 73 C-26.66 73 -27.32 73 -28 73 C-34.97666037 57.50605228 -41.82025444 41.95199357 -48.57208252 26.35882568 C-49.39987756 24.45098275 -50.23106387 22.54460773 -51.06561279 20.63970947 C-52.24703262 17.94080508 -53.41598166 15.2368237 -54.58203125 12.53125 C-54.94288315 11.71361176 -55.30373505 10.89597351 -55.67552185 10.05355835 C-56.15868614 8.92199814 -56.15868614 8.92199814 -56.65161133 7.76757812 C-56.93740555 7.109552 -57.22319977 6.45152588 -57.51765442 5.77355957 C-58 4 -58 4 -57 1 C-54.234375 -0.1328125 -54.234375 -0.1328125 -50.75 -1.125 C-49.04070312 -1.62386719 -49.04070312 -1.62386719 -47.296875 -2.1328125 C-31.74667477 -6.22303105 -15.18244066 -4.93594587 0 0 Z " fill="#EA7C7C" transform="translate(284,168)"/>
<path d="M0 0 C0.66 0 1.32 0 2 0 C2.41660889 0.96373535 2.83321777 1.9274707 3.26245117 2.92041016 C4.51851012 5.8259822 5.77473127 8.73148408 7.03100586 11.63696289 C8.47630828 14.97969264 9.92106129 18.32265915 11.36547852 21.66577148 C14.87256745 29.78102063 18.38571184 37.89346656 21.921875 45.99609375 C22.81156148 48.03767478 23.70104773 50.07934294 24.59048462 52.12103271 C25.15281901 53.40997487 25.71626628 54.69843211 26.28085327 55.98638916 C27.06366506 57.77228332 27.84247845 59.55992851 28.62109375 61.34765625 C29.0586499 62.34804932 29.49620605 63.34844238 29.94702148 64.37915039 C30.83567765 66.59100384 31.50383937 68.67435478 32 71 C11.98428721 79.26299967 -7.76598213 78.74467262 -28 72 C-25.74759767 63.75114666 -22.6899777 55.88955337 -19.4921875 47.96875 C-18.96043083 46.64276076 -18.4290347 45.31662687 -17.89797974 43.99035645 C-16.51147269 40.53073805 -15.11965986 37.07327825 -13.72680664 33.61621094 C-12.58664549 30.78361796 -11.45040278 27.94946109 -10.31432915 25.11522675 C-8.95829705 21.73252621 -7.60046677 18.35054874 -6.2421875 14.96875 C-5.98364864 14.32485825 -5.72510979 13.68096649 -5.45873642 13.01756287 C-4.72981195 11.20337449 -3.99946253 9.38975883 -3.26904297 7.57617188 C-2.85395477 6.54488159 -2.43886658 5.51359131 -2.01119995 4.4510498 C-1.39027562 2.94598995 -0.7281143 1.4562286 0 0 Z " fill="#EA7C7C" transform="translate(255,273)"/>
<path d="M0 0 C4.95 0 9.9 0 15 0 C15 48.18 15 96.36 15 146 C10.05 146 5.1 146 0 146 C0 97.82 0 49.64 0 0 Z " fill="#D4DFE1" transform="translate(86,184)"/>
<path d="M0 0 C8.96451601 4.29046567 17.54982929 8.99545427 26.08203125 14.08203125 C31.83363018 17.50869311 37.63554776 20.84703417 43.4375 24.1875 C44.54383789 24.82494141 45.65017578 25.46238281 46.79003906 26.11914062 C49.06155677 27.42779629 51.33320497 28.73622549 53.60498047 30.04443359 C60.14820118 33.81339648 66.68780234 37.58863499 73.22802734 41.36279297 C79.88798298 45.20565468 86.55000155 49.04491059 93.21337891 52.88183594 C96.47630099 54.76280896 99.73643274 56.64853896 102.99609375 58.53515625 C106.7895921 60.73005663 110.59320353 62.90476722 114.41015625 65.05859375 C115.98182477 65.95563468 117.55344333 66.85276314 119.125 67.75 C120.1914978 68.34131714 120.1914978 68.34131714 121.27954102 68.94458008 C123.1953125 70.046875 123.1953125 70.046875 126 72 C126 75.36325923 125.42212241 76.25757043 123.625 79 C123.18414062 79.680625 122.74328125 80.36125 122.2890625 81.0625 C121.19363983 82.70895346 120.0969552 84.3545672 119 86 C95.95635925 72.85641627 72.94555758 59.65878267 50.04248047 46.27124023 C42.66968626 41.96469024 35.27548735 37.6962504 27.875 33.4375 C16.19637645 26.71496049 4.58287787 19.88602266 -7 13 C-5.53016692 10.03847759 -3.98799216 7.13640703 -2.375 4.25 C-1.92898437 3.45078125 -1.48296875 2.6515625 -1.0234375 1.828125 C-0.68570313 1.22484375 -0.34796875 0.6215625 0 0 Z " fill="#D5E0E2" transform="translate(115,355)"/>
<path d="M0 0 C0.84324672 1.578076 1.67423918 3.1627042 2.5 4.75 C2.9640625 5.63171875 3.428125 6.5134375 3.90625 7.421875 C5 10 5 10 5 14 C3.20947266 15.5012207 3.20947266 15.5012207 0.6640625 16.92578125 C-0.28452637 17.46710693 -1.23311523 18.00843262 -2.21044922 18.56616211 C-3.25475098 19.14245361 -4.29905273 19.71874512 -5.375 20.3125 C-7.59375551 21.57030279 -9.81250532 22.82811562 -12.03125 24.0859375 C-13.19636446 24.73970377 -14.36173065 25.39302162 -15.52734375 26.04589844 C-21.00459529 29.12800764 -26.43678739 32.28720989 -31.875 35.4375 C-34.05952824 36.69725224 -36.24442643 37.95636316 -38.4296875 39.21484375 C-44.95486246 42.97355383 -51.47761008 46.73645979 -58 50.5 C-60.16015357 51.74609839 -62.32030983 52.99219214 -64.48046875 54.23828125 C-69.99116716 57.41743473 -75.5004571 60.59902191 -81.00952148 63.78100586 C-84.25257636 65.6529118 -87.49723843 67.52200503 -90.7421875 69.390625 C-94.90003142 71.7853571 -99.05013746 74.19278681 -103.1953125 76.609375 C-105.10930773 77.71886605 -107.02336692 78.82824679 -108.9375 79.9375 C-109.8138208 80.45207764 -110.6901416 80.96665527 -111.59301758 81.49682617 C-112.79800903 82.19255737 -112.79800903 82.19255737 -114.02734375 82.90234375 C-114.72593506 83.30960693 -115.42452637 83.71687012 -116.14428711 84.13647461 C-118 85 -118 85 -121 85 C-123 81 -125 77 -127 73 C-120.66496859 68.63141346 -114.1628182 64.73389013 -107.4375 61 C-99.31054156 56.44743174 -91.22572089 51.83252148 -83.1875 47.125 C-74.84864146 42.24396549 -66.49634516 37.3876329 -58.125 32.5625 C-57.0515332 31.94366943 -55.97806641 31.32483887 -54.87207031 30.68725586 C-50.44732162 28.13723813 -46.0218853 25.58841595 -41.59619141 23.04003906 C-38.20961328 21.0897955 -34.82350416 19.13873988 -31.4375 17.1875 C-30.35936035 16.56681641 -29.2812207 15.94613281 -28.17041016 15.30664062 C-23.31788853 12.5090324 -18.47446329 9.69889147 -13.66015625 6.8359375 C-12.86359619 6.36260986 -12.06703613 5.88928223 -11.24633789 5.40161133 C-9.7938606 4.5357448 -8.34365882 3.66604464 -6.89624023 2.79174805 C-2.21802943 0 -2.21802943 0 0 0 Z " fill="#D5E0E2" transform="translate(398,355)"/>
<path d="M0 0 C0.50660156 1.03060547 0.50660156 1.03060547 1.0234375 2.08203125 C1.46945313 2.98308594 1.91546875 3.88414063 2.375 4.8125 C2.81585938 5.70582031 3.25671875 6.59914063 3.7109375 7.51953125 C5.01866905 10.14556381 5.01866905 10.14556381 7 13 C-51.5 46.75 -51.5 46.75 -54.75097656 48.62548828 C-56.91447476 49.87371034 -59.07788643 51.12208239 -61.24121094 52.37060547 C-66.70565017 55.52405256 -72.17163645 58.67476096 -77.640625 61.8203125 C-91.4833929 69.78647208 -105.27150141 77.8384055 -119 86 C-120.9783589 84.0216411 -121.81176825 82.55500176 -123 80.0625 C-124.21370791 77.52604011 -125.42772299 75.35841552 -127 73 C-120.23385809 68.29701879 -113.21427503 64.22230179 -106 60.25 C-98.81107379 56.25824176 -91.63363437 52.26001356 -84.5625 48.0625 C-77.59230021 43.92681946 -70.58492254 39.85890804 -63.5625 35.8125 C-62.45817627 35.17594482 -61.35385254 34.53938965 -60.21606445 33.88354492 C-54.5868953 30.63989915 -48.95590412 27.39943081 -43.32421875 24.16015625 C-41.13271275 22.89861077 -38.94130552 21.63689368 -36.75 20.375 C-35.68531494 19.76237305 -34.62062988 19.14974609 -33.52368164 18.51855469 C-28.1774432 15.4355531 -22.8489206 12.3264454 -17.546875 9.16796875 C-16.52754883 8.56098145 -15.50822266 7.95399414 -14.45800781 7.32861328 C-12.52780456 6.17616278 -10.59995149 5.01976421 -8.67480469 3.85888672 C-7.39718262 3.09535889 -7.39718262 3.09535889 -6.09375 2.31640625 C-5.34802734 1.86724854 -4.60230469 1.41809082 -3.83398438 0.95532227 C-2 0 -2 0 0 0 Z " fill="#D5E0E2" transform="translate(235,73)"/>
<path d="M0 0 C7.48581755 3.54819098 14.64049273 7.47251844 21.75390625 11.70385742 C28.28325474 15.58771837 34.85395338 19.39629196 41.4375 23.1875 C42.54222656 23.82413574 43.64695312 24.46077148 44.78515625 25.11669922 C48.18977333 27.07837447 51.59484279 29.03926251 55 31 C68.77520462 38.93344873 82.53708841 46.88771282 96.26025391 54.91088867 C106.13410342 60.67628414 116.06019445 66.34924564 126 72 C125.17132137 75.99664799 123.29270853 78.63258434 121 82 C120.505 83.485 120.505 83.485 120 85 C116.19439766 84.41933397 113.473423 83.33578266 110.17578125 81.3671875 C109.24330566 80.81619385 108.31083008 80.2652002 107.35009766 79.69750977 C105.84648682 78.79536743 105.84648682 78.79536743 104.3125 77.875 C102.13974019 76.58913841 99.96654843 75.30400648 97.79296875 74.01953125 C96.67067871 73.3538916 95.54838867 72.68825195 94.39208984 72.00244141 C88.99305852 68.81524874 83.5594716 65.68875325 78.125 62.5625 C75.94005632 61.30346844 73.75516075 60.04435339 71.5703125 58.78515625 C70.48524414 58.16012207 69.40017578 57.53508789 68.28222656 56.89111328 C61.77412081 53.14135226 55.26873565 49.38687124 48.76367188 45.63183594 C43.27515754 42.46411293 37.78433215 39.30052284 32.2890625 36.14453125 C19.10726544 28.56802393 5.99902474 20.8863723 -7 13 C-5.53016692 10.03847759 -3.98799216 7.13640703 -2.375 4.25 C-1.92898438 3.45078125 -1.48296875 2.6515625 -1.0234375 1.828125 C-0.68570312 1.22484375 -0.34796875 0.6215625 0 0 Z " fill="#D5E0E2" transform="translate(278,73)"/>
<path d="M0 0 C4.62 0 9.24 0 14 0 C14 48.18 14 96.36 14 146 C9.38 146 4.76 146 0 146 C0 97.82 0 49.64 0 0 Z " fill="#D4DFE2" transform="translate(412,184)"/>
<path d="M0 0 C1.859375 1.9609375 1.859375 1.9609375 3.75 4.375 C4.38421875 5.16648437 5.0184375 5.95796875 5.671875 6.7734375 C6.11015625 7.50820313 6.5484375 8.24296875 7 9 C5.7220314 12.8339058 4.52549332 13.10636815 1.03125 15.00390625 C-0.00588135 15.57431641 -1.0430127 16.14472656 -2.11157227 16.73242188 C-3.22975342 17.33634766 -4.34793457 17.94027344 -5.5 18.5625 C-7.81195773 19.83325402 -10.12315501 21.10539255 -12.43359375 22.37890625 C-13.56522949 23.00039551 -14.69686523 23.62188477 -15.86279297 24.26220703 C-19.80193083 26.44421351 -23.69202124 28.69893685 -27.5625 31 C-28.87497996 31.77867961 -30.18748063 32.55732432 -31.5 33.3359375 C-32.19222656 33.74682617 -32.88445312 34.15771484 -33.59765625 34.58105469 C-38.73947728 37.61807337 -43.90294471 40.6182468 -49.0625 43.625 C-50.14152588 44.2540625 -51.22055176 44.883125 -52.33227539 45.53125 C-54.88801835 47.02111716 -57.44392412 48.51070411 -60 50 C-62.04943169 47.95056831 -63.21078802 46.08078976 -64.625 43.5625 C-65.07101563 42.78003906 -65.51703125 41.99757813 -65.9765625 41.19140625 C-67 39 -67 39 -67 36 C-64.35823839 34.47590676 -61.71647546 32.9518158 -59.07470703 31.42773438 C-56.75014113 30.08662601 -54.42559365 28.74548578 -52.10107422 27.40429688 C-46.61756461 24.24050871 -41.13393256 21.07693453 -35.64932251 17.91505432 C-33.91899312 16.91750278 -32.18874431 15.91981148 -30.45849609 14.92211914 C-28.30010617 13.67757514 -26.14158597 12.43325704 -23.98291016 11.18920898 C-22.98050293 10.61114502 -21.9780957 10.03308105 -20.9453125 9.4375 C-19.97239258 8.87933594 -18.99947266 8.32117188 -17.99707031 7.74609375 C-15.87840065 6.51175639 -13.774857 5.25128146 -11.68261719 3.97265625 C-10.60915039 3.32167969 -9.53568359 2.67070312 -8.4296875 2 C-6.9753833 1.1028125 -6.9753833 1.1028125 -5.49169922 0.1875 C-3 -1 -3 -1 0 0 Z " fill="#D5E0E2" transform="translate(176,297)"/>
<path d="M0 0 C0.84324672 1.578076 1.67423918 3.1627042 2.5 4.75 C3.19609375 6.07257813 3.19609375 6.07257813 3.90625 7.421875 C5 10 5 10 5 14 C3.24121094 15.48535156 3.24121094 15.48535156 0.734375 16.890625 C-0.67473145 17.69584595 -0.67473145 17.69584595 -2.11230469 18.51733398 C-3.14774414 19.08911377 -4.18318359 19.66089355 -5.25 20.25 C-6.31379883 20.85336182 -7.37759766 21.45672363 -8.47363281 22.07836914 C-10.7696069 23.3795431 -13.06788555 24.67519434 -15.37109375 25.96337891 C-19.06220116 28.03032414 -22.73587621 30.12697369 -26.40625 32.23046875 C-27.02006531 32.58221161 -27.63388062 32.93395447 -28.26629639 33.2963562 C-29.4939086 33.99983644 -30.72150881 34.70333763 -31.94909668 35.40686035 C-34.81234501 37.04546983 -37.68004207 38.67626615 -40.546875 40.30859375 C-46.7223271 43.83114494 -52.86625857 47.40533901 -59 51 C-62.25326479 47.83710367 -65.36725392 44.70534633 -68 41 C-68 40.01 -68 39.02 -68 38 C-67.36835938 37.64921387 -66.73671875 37.29842773 -66.0859375 36.93701172 C-48.51081569 27.16496542 -31.0638322 17.1944386 -13.7890625 6.8984375 C-12.99564453 6.42696289 -12.20222656 5.95548828 -11.38476562 5.46972656 C-9.92009851 4.59814203 -8.45770387 3.72272276 -6.99804688 2.84277344 C-2.2221875 0 -2.2221875 0 0 0 Z " fill="#D5DFE2" transform="translate(398,167)"/>
<path d="M0 0 C7.90533871 3.84380895 15.56520936 7.9551577 23.125 12.4375 C25.20664963 13.66210726 27.28869609 14.88604017 29.37109375 16.109375 C30.44601074 16.74166016 31.52092773 17.37394531 32.62841797 18.02539062 C38.46395235 21.44304465 44.32603397 24.81457637 50.1875 28.1875 C52.34784917 29.43065438 54.50801849 30.6741214 56.66796875 31.91796875 C57.57828857 32.44156982 58.4886084 32.9651709 59.42651367 33.50463867 C61.9654359 34.97991603 64.48582646 36.48299726 67 38 C65.40956621 43.08938811 62.2553049 46.87456643 59 51 C50.58208157 46.61337002 42.29340089 42.06664313 34.13330078 37.21655273 C26.16441055 32.48429911 18.12503581 27.87482028 10.0847168 23.26538086 C4.31667703 19.94951389 -1.38676291 16.57205997 -7 13 C-4.80882809 8.5850737 -2.40389588 4.30170842 0 0 Z " fill="#D5E0E2" transform="translate(115,167)"/>
<path d="M0 0 C3.39002721 1.29108191 6.52160831 2.75781541 9.67578125 4.546875 C10.57433838 5.05516846 11.47289551 5.56346191 12.39868164 6.0871582 C13.3602417 6.635896 14.32180176 7.18463379 15.3125 7.75 C16.31853271 8.32129639 17.32456543 8.89259277 18.36108398 9.48120117 C27.79413624 14.85222241 37.16743145 20.32470603 46.53515625 25.80859375 C52.99568728 29.58815558 59.48866671 33.30871599 66 37 C65.17132137 40.99664799 63.29270853 43.63258434 61 47 C60.67 47.99 60.34 48.98 60 50 C56.19439766 49.41933397 53.473423 48.33578266 50.17578125 46.3671875 C48.77549683 45.53985107 48.77549683 45.53985107 47.34692383 44.69580078 C46.34556396 44.09493652 45.3442041 43.49407227 44.3125 42.875 C42.1567255 41.59815518 40.00045773 40.32214288 37.84375 39.046875 C36.72355469 38.38236328 35.60335937 37.71785156 34.44921875 37.03320312 C28.76917009 33.67497912 23.03617252 30.408067 17.3125 27.125 C8.78561967 22.22152537 0.30953442 17.26494792 -8 12 C-6.85573734 10.186508 -5.70954608 8.37423275 -4.5625 6.5625 C-3.60537109 5.04849609 -3.60537109 5.04849609 -2.62890625 3.50390625 C-1 1 -1 1 0 0 Z " fill="#D5DFE1" transform="translate(338,296)"/>
<path d="M0 0 C4.62 0 9.24 0 14 0 C15 1 15 1 15.12025452 3.92958069 C15.1169236 5.89815285 15.1169236 5.89815285 15.11352539 7.90649414 C15.11367142 8.62840439 15.11381744 9.35031464 15.1139679 10.09410095 C15.11326869 12.49114947 15.10547595 14.88812123 15.09765625 17.28515625 C15.0957921 18.94282489 15.09436818 20.60049407 15.09336853 22.25816345 C15.08954312 26.62954214 15.07971265 31.00088781 15.06866455 35.37225342 C15.05845092 39.82954461 15.05387101 44.28684111 15.04882812 48.74414062 C15.0380904 57.49611062 15.02049342 66.2480474 15 75 C10.05 75 5.1 75 0 75 C0 50.25 0 25.5 0 0 Z " fill="#D5DFE0" transform="translate(249,349)"/>
<path d="M0 0 C4.95 0 9.9 0 15 0 C15 24.42 15 48.84 15 74 C10.05 74 5.1 74 0 74 C0 49.58 0 25.16 0 0 Z " fill="#D4DFE1" transform="translate(249,90)"/>
</svg>
