<?xml version="1.0" encoding="UTF-8"?>
<svg version="1.1" xmlns="http://www.w3.org/2000/svg" width="512" height="512">
<path d="M0 0 C0.91056355 -0.00507454 1.8211271 -0.01014909 2.75928348 -0.0153774 C3.75586808 -0.01587516 4.75245267 -0.01637292 5.77923679 -0.01688576 C6.84085028 -0.02126801 7.90246376 -0.02565027 8.99624735 -0.03016531 C12.5652341 -0.04355516 16.13419616 -0.04973253 19.70320225 -0.0558567 C22.25722458 -0.06375727 24.8112458 -0.0720262 27.36526585 -0.08063698 C35.0359092 -0.10459082 42.70655132 -0.11978131 50.37722024 -0.13269705 C52.54340546 -0.13640992 54.70959004 -0.14038304 56.87577462 -0.14444971 C70.32720823 -0.16967965 83.77864287 -0.19173278 97.23009491 -0.20417786 C100.3441776 -0.20710753 103.45826026 -0.21006921 106.57234287 -0.21308327 C107.34632916 -0.21382932 108.12031544 -0.21457537 108.91775585 -0.21534403 C121.46572075 -0.2280073 134.01354427 -0.26124568 146.56144302 -0.3028851 C159.44260611 -0.3452805 172.32369673 -0.36886982 185.20492941 -0.37409842 C192.43802614 -0.37751452 199.67090161 -0.38929347 206.90392971 -0.42220116 C213.70425 -0.45308984 220.50411662 -0.45863215 227.3045187 -0.4468174 C229.80351289 -0.44659578 232.30252447 -0.4549728 234.80145741 -0.47247124 C238.20687506 -0.4950241 241.6108744 -0.48693123 245.01629734 -0.47098732 C246.50782815 -0.49181045 246.50782815 -0.49181045 248.02949089 -0.51305425 C252.66660736 -0.45936956 254.77969785 -0.37598257 258.57891273 2.48360825 C260.46125889 5.13701439 260.46125889 5.13701439 261.02375889 8.19951439 C260.30439731 11.9561804 259.58789752 12.9254895 256.46125889 15.13701439 C255.00569985 15.48226084 253.54698424 15.81432464 252.08625889 16.13701439 C248.8016079 17.12186856 247.6609227 17.86263495 245.61360264 20.67607689 C240.37065241 30.85281075 239.11439391 40.11594401 239.14875889 51.44951439 C239.13264561 52.50074486 239.11653233 53.55197533 239.09993076 54.63506126 C239.09341214 65.2408582 240.6388486 75.67296162 247.46125889 84.13701439 C249.81871416 86.41842272 251.38208153 87.11116056 254.52375889 88.13701439 C258.83285422 89.60394046 258.83285422 89.60394046 260.46125889 92.13701439 C260.96125889 95.01201439 260.96125889 95.01201439 260.46125889 98.13701439 C258.43915128 100.98986186 256.82334252 102.84709084 253.30758905 103.59542942 C250.55623473 103.77861148 247.84526478 103.7934433 245.08790684 103.75847435 C243.5045637 103.76805758 243.5045637 103.76805758 241.88923383 103.77783442 C238.34612667 103.79311551 234.8041321 103.77260089 231.26106358 103.75224876 C228.72323326 103.75574908 226.18540514 103.76140664 223.64758396 103.76906395 C217.46546714 103.78185394 211.2837642 103.77135348 205.10168281 103.74995071 C197.89871304 103.72593038 190.69581836 103.72765586 183.49281743 103.73025662 C170.63571287 103.73394741 157.77876282 103.71311924 144.92170811 103.67900658 C132.45519699 103.6459425 119.98884813 103.63174358 107.52229404 103.63799095 C93.94291638 103.64476254 80.3636067 103.64227083 66.78423905 103.62263155 C66.06534411 103.62159206 65.34644917 103.62055258 64.60576953 103.61948159 C63.16201319 103.61739073 61.71825688 103.61527976 60.27450059 103.61314842 C55.25824368 103.60626481 50.24200775 103.60558157 45.22574711 103.60703087 C38.46565574 103.60862515 31.70578528 103.5936651 24.94573498 103.56780434 C22.4661824 103.56065008 19.98660922 103.55855533 17.50704861 103.56192207 C14.11867185 103.56564472 10.73085742 103.55086086 7.34254551 103.53142357 C6.36441607 103.53675149 5.38628664 103.54207942 4.37851691 103.5475688 C-3.41600983 103.47059007 -11.20372915 102.283833 -17.13639736 96.76201439 C-29.90819154 81.96238659 -31.80108748 60.8820488 -30.53874111 42.13701439 C-29.14995157 28.58717959 -25.37256497 15.03374117 -15.53874111 5.13701439 C-10.71003999 1.49271166 -5.97876238 0.01773747 0 0 Z M30.46125889 15.13701439 C30.46125889 19.75701439 30.46125889 24.37701439 30.46125889 29.13701439 C94.81125889 29.13701439 159.16125889 29.13701439 225.46125889 29.13701439 C228.91421201 22.32760501 228.91421201 22.32760501 230.46125889 15.13701439 C164.46125889 15.13701439 98.46125889 15.13701439 30.46125889 15.13701439 Z M30.46125889 44.13701439 C30.46125889 49.08701439 30.46125889 54.03701439 30.46125889 59.13701439 C94.15125889 59.13701439 157.84125889 59.13701439 223.46125889 59.13701439 C223.46125889 54.18701439 223.46125889 49.23701439 223.46125889 44.13701439 C159.77125889 44.13701439 96.08125889 44.13701439 30.46125889 44.13701439 Z M30.46125889 74.13701439 C30.46125889 78.75701439 30.46125889 83.37701439 30.46125889 88.13701439 C96.46125889 88.13701439 162.46125889 88.13701439 230.46125889 88.13701439 C228.02525692 78.97944183 228.02525692 78.97944183 225.46125889 74.13701439 C161.11125889 74.13701439 96.76125889 74.13701439 30.46125889 74.13701439 Z " fill="#000000" transform="translate(111.53874111175537,88.86298561096191)"/>
<path d="M0 0 C0.9090712 -0.00507454 1.8181424 -0.01014909 2.75476122 -0.0153774 C3.74454202 -0.01587516 4.73432282 -0.01637292 5.75409698 -0.01688576 C6.81248134 -0.02126801 7.8708657 -0.02565027 8.96132231 -0.03016531 C12.51338345 -0.04353698 16.0654198 -0.04972841 19.61750031 -0.0558567 C22.16181805 -0.06375863 24.70613468 -0.07202764 27.25045013 -0.08063698 C34.88656352 -0.10457433 42.52267565 -0.11977739 50.15881467 -0.13269705 C52.31546079 -0.13641085 54.47210627 -0.14038389 56.62875175 -0.14444971 C70.02370945 -0.1696775 83.41866821 -0.19172844 96.81364441 -0.20417786 C99.9134649 -0.20710747 103.01328536 -0.21006916 106.11310577 -0.21308327 C106.88353594 -0.21382932 107.65396611 -0.21457537 108.44774264 -0.21534403 C120.94067876 -0.22800992 133.43347296 -0.26125321 145.92634267 -0.3028851 C158.75329682 -0.34528023 171.5801782 -0.36886966 184.40720224 -0.37409842 C191.60898537 -0.37751424 198.81054625 -0.38929015 206.01226044 -0.42220116 C212.78222583 -0.45308913 219.55173552 -0.45863236 226.32178307 -0.4468174 C228.80949027 -0.44659579 231.29721494 -0.45497247 233.78486061 -0.47247124 C237.17490016 -0.49502466 240.56351501 -0.48693105 243.95355988 -0.47098732 C244.94334068 -0.48486941 245.93312148 -0.49875149 246.95289564 -0.51305425 C251.57988646 -0.45924518 253.678252 -0.37193408 257.46868896 2.48360825 C259.35382843 5.13701439 259.35382843 5.13701439 259.91632843 8.19951439 C259.21058241 11.88507695 258.39322839 12.95488109 255.35382843 15.13701439 C251.79132843 16.32451439 251.79132843 16.32451439 248.35382843 17.13701439 C247.36382843 17.46701439 246.37382843 17.79701439 245.35382843 18.13701439 C244.21586722 20.40934926 244.21586722 20.40934926 243.35382843 23.13701439 C243.01222687 24.03420189 242.67062531 24.93138939 242.31867218 25.85576439 C241.97964874 26.77357689 241.64062531 27.69138939 241.29132843 28.63701439 C240.94972687 29.55482689 240.60812531 30.47263939 240.25617218 31.41826439 C238.07615002 37.98664286 238.13608828 44.34026356 238.10382843 51.19951439 C238.08320343 52.26879173 238.06257843 53.33806908 238.04132843 54.43974876 C237.99227042 64.58862502 239.21293967 77.24003152 246.35382843 85.13701439 C248.88319235 86.52108233 251.2906692 87.45539505 254.04914093 88.28545189 C256.54890323 89.20909287 257.72761846 90.04469328 259.35382843 92.13701439 C259.85382843 95.01201439 259.85382843 95.01201439 259.35382843 98.13701439 C257.33074137 100.99375365 255.71363057 102.84755688 252.19477522 103.59660637 C249.43493853 103.78159624 246.7152077 103.79826266 243.94924164 103.76520348 C242.89030156 103.77229786 241.83136148 103.77939225 240.74033231 103.78670162 C237.18575605 103.80432792 233.63226652 103.78615176 230.07770538 103.7681179 C227.5316442 103.77325506 224.98558656 103.78053479 222.43953705 103.78980064 C216.23704183 103.80642519 210.03495051 103.79965854 203.83247051 103.78171242 C198.78879295 103.76768346 193.74520086 103.76379425 188.70150566 103.76715469 C187.6244618 103.76787086 187.6244618 103.76787086 186.52565947 103.76860149 C185.06690443 103.76962784 183.60814941 103.7706832 182.14939442 103.77176725 C169.24685441 103.78033672 156.34446624 103.76365485 143.4419632 103.73393822 C130.93376019 103.70513023 118.42577619 103.69800269 105.91754913 103.7134304 C92.29164235 103.73021372 78.66583958 103.73420276 65.03993005 103.71672004 C63.58503005 103.71487572 62.13013004 103.713041 60.67523003 103.71121597 C59.95944342 103.71030388 59.24365681 103.70939179 58.50617969 103.70845206 C53.47384944 103.70285757 48.44157011 103.70614396 43.40924263 103.71276093 C36.62530075 103.72132694 29.84172021 103.70826093 23.05781364 103.68091202 C20.57061827 103.67403742 18.08339346 103.67392023 15.59619904 103.68112755 C12.19489511 103.68984622 8.79455685 103.6738234 5.39333344 103.65167809 C4.41422589 103.65991885 3.43511835 103.66815962 2.42634088 103.67665011 C-4.92966416 103.5885569 -11.99896551 102.25868928 -17.73293132 97.35093886 C-30.33973016 84.37388401 -32.08922919 64.30230982 -31.86101532 47.13701439 C-31.41766244 32.79551258 -28.0718038 16.66008243 -17.64617157 6.13701439 C-12.07564128 1.75077006 -7.10518757 0.02117139 0 0 Z M29.35382843 15.13701439 C29.35382843 19.75701439 29.35382843 24.37701439 29.35382843 29.13701439 C93.70382843 29.13701439 158.05382843 29.13701439 224.35382843 29.13701439 C227.80678156 22.32760501 227.80678156 22.32760501 229.35382843 15.13701439 C163.35382843 15.13701439 97.35382843 15.13701439 29.35382843 15.13701439 Z M29.35382843 44.13701439 C29.35382843 49.08701439 29.35382843 54.03701439 29.35382843 59.13701439 C93.04382843 59.13701439 156.73382843 59.13701439 222.35382843 59.13701439 C222.35382843 54.18701439 222.35382843 49.23701439 222.35382843 44.13701439 C158.66382843 44.13701439 94.97382843 44.13701439 29.35382843 44.13701439 Z M29.35382843 74.13701439 C29.35382843 78.75701439 29.35382843 83.37701439 29.35382843 88.13701439 C95.35382843 88.13701439 161.35382843 88.13701439 229.35382843 88.13701439 C227.78680719 83.43595068 226.19420154 78.73794716 224.35382843 74.13701439 C160.00382843 74.13701439 95.65382843 74.13701439 29.35382843 74.13701439 Z " fill="#000000" transform="translate(112.64617156982422,319.8629856109619)"/>
<path d="M0 0 C1.60762117 -0.00935994 1.60762117 -0.00935994 3.24771953 -0.01890898 C6.85138268 -0.03490745 10.45437585 -0.02220725 14.05804443 -0.00964355 C16.63675838 -0.01506173 19.21546923 -0.02218266 21.79417419 -0.03088379 C28.07961046 -0.04868642 34.36485584 -0.04482066 40.65029964 -0.03323323 C45.76027786 -0.02420278 50.87020255 -0.02297322 55.98018646 -0.02732849 C56.70725473 -0.02794142 57.43432299 -0.02855436 58.18342362 -0.02918586 C59.66046265 -0.03046477 61.13750167 -0.03176162 62.61454067 -0.03307623 C76.4719218 -0.04448796 90.32919717 -0.03136074 104.18656096 -0.00987476 C116.07069576 0.00798173 127.9546742 0.00490528 139.83880615 -0.0135498 C153.64010497 -0.03497207 167.44131092 -0.0433734 181.24262404 -0.03110075 C182.71547809 -0.02982657 184.18833215 -0.02856909 185.66118622 -0.02732849 C186.38584157 -0.02671139 187.11049692 -0.02609429 187.85711153 -0.02545848 C192.95750065 -0.02200852 198.05783077 -0.02782661 203.15821075 -0.0372467 C210.02993349 -0.04965923 216.90135657 -0.04077834 223.77305031 -0.01766968 C226.29495313 -0.01238198 228.81688079 -0.01389734 231.33877373 -0.02272034 C234.7824176 -0.03365679 238.22511738 -0.01993329 241.66870117 0 C242.66598936 -0.00892289 243.66327755 -0.01784577 244.6907866 -0.02703905 C252.04548819 0.05548812 257.2451078 1.7579641 262.94378662 6.44543457 C275.47291832 20.5507257 277.70405029 40.02281172 276.7567749 58.26281738 C275.64257186 73.11239885 272.24902079 86.17271988 262.06488037 97.44934082 C255.72305254 102.72086017 249.72125856 102.94327854 241.78895569 102.89561462 C240.71182271 102.90100016 239.63468973 102.9063857 238.52491635 102.91193444 C234.92134035 102.92622406 231.31813115 102.91910768 227.71453857 102.9119873 C225.12889307 102.91769017 222.54325009 102.92465411 219.95761108 102.93278503 C213.66794604 102.94995914 207.37838095 102.9508163 201.08869854 102.94557213 C195.97780988 102.94152815 190.86695072 102.94297667 185.75606346 102.94832039 C185.02824678 102.94906881 184.30043009 102.94981723 183.55055835 102.95058833 C182.07198101 102.95211982 180.59340367 102.95365817 179.11482634 102.9552033 C165.25852872 102.96892223 151.4022876 102.96349396 137.54599126 102.95201809 C124.86499084 102.94207678 112.18413614 102.95504289 99.50315819 102.97895228 C86.48063917 103.00332074 73.45818809 103.01295731 60.43564671 103.00629956 C53.12499099 103.00280354 45.81444748 103.00506504 38.50380898 103.02255058 C31.63453356 103.03877701 24.76554201 103.03412637 17.89627457 103.01524544 C15.37107206 103.01154461 12.84584908 103.01471113 10.32066536 103.02513123 C6.8823596 103.03823971 3.44499356 103.02688319 0.00672913 103.00914001 C-1.50361067 103.02354752 -1.50361067 103.02354752 -3.04446238 103.0382461 C-9.75898987 102.96660038 -9.75898987 102.96660038 -13.03548908 100.66410923 C-14.91288317 97.72266902 -14.91158755 95.93585748 -14.41168213 92.50793457 C-13.47418213 90.32043457 -13.47418213 90.32043457 -11.41168213 88.50793457 C-9.96477994 88.03399744 -8.50427439 87.60079283 -7.03668213 87.19543457 C-2.72054348 85.88517819 -0.75092327 84.36340375 1.59613037 80.53527832 C9.19643085 65.0055305 9.10164124 43.49951753 3.85394287 27.27746582 C1.67535986 22.51013448 -0.06962293 19.16676363 -4.84918213 16.82043457 C-6.61261963 16.17074707 -6.61261963 16.17074707 -8.41168213 15.50793457 C-13.21765228 12.89599427 -13.21765228 12.89599427 -14.41168213 10.50793457 C-14.7751089 7.16440824 -14.86381145 5.22258324 -13.04288101 2.34436798 C-8.92351088 -0.53072785 -4.90906056 -0.04353261 0 0 Z M15.58831787 15.50793457 C17.23831787 20.12793457 18.88831787 24.74793457 20.58831787 29.50793457 C85.26831787 29.50793457 149.94831787 29.50793457 216.58831787 29.50793457 C216.58831787 24.88793457 216.58831787 20.26793457 216.58831787 15.50793457 C150.25831787 15.50793457 83.92831787 15.50793457 15.58831787 15.50793457 Z M22.58831787 44.50793457 C22.58831787 49.12793457 22.58831787 53.74793457 22.58831787 58.50793457 C86.60831787 58.50793457 150.62831787 58.50793457 216.58831787 58.50793457 C216.58831787 53.88793457 216.58831787 49.26793457 216.58831787 44.50793457 C152.56831787 44.50793457 88.54831787 44.50793457 22.58831787 44.50793457 Z M20.58831787 73.50793457 C18.93831787 78.12793457 17.28831787 82.74793457 15.58831787 87.50793457 C81.91831787 87.50793457 148.24831787 87.50793457 216.58831787 87.50793457 C216.58831787 82.88793457 216.58831787 78.26793457 216.58831787 73.50793457 C151.90831787 73.50793457 87.22831787 73.50793457 20.58831787 73.50793457 Z " fill="#000000" transform="translate(154.41168212890625,204.4920654296875)"/>
</svg>
