<?xml version="1.0" encoding="UTF-8"?>
<svg version="1.1" xmlns="http://www.w3.org/2000/svg" width="512" height="512">
<path d="M0 0 C0.95003906 0.47953125 1.90007812 0.9590625 2.87890625 1.453125 C21.57516218 11.49596391 35.4921944 28.8440288 42 49 C44.54520869 57.84132905 45.52010845 66.19158334 45.4375 75.375 C45.43065186 76.55384766 45.42380371 77.73269531 45.41674805 78.94726562 C45.01468726 100.81214434 35.96877061 119.34117968 21 135 C20.45859375 135.61617187 19.9171875 136.23234375 19.359375 136.8671875 C5.39821877 152.16805064 -15.54133961 158.71052933 -35.58984375 160.28125 C-58.7546838 160.91808409 -79.81262701 153.04786659 -96.72265625 137.1796875 C-97.47417969 136.46039063 -98.22570312 135.74109375 -99 135 C-99.63808594 134.42507813 -100.27617187 133.85015625 -100.93359375 133.2578125 C-114.39859189 120.72246902 -122.54112746 100.75992697 -123.3828125 82.60546875 C-124.04474102 57.11406457 -118.05084659 36.25832227 -101 17 C-75.14330142 -10.04949271 -33.26283609 -17.80687165 0 0 Z M-67 53 C-74.09212226 62.26495383 -74.87531536 71.70953989 -74 83 C-71.98687332 92.10126135 -66.23823439 99.93631813 -58.75 105.375 C-50.57240818 110.39021815 -41.31356394 112.35118311 -31.93359375 110.34375 C-21.30542332 107.48658251 -13.93908967 102.72868229 -8.21875 93.2265625 C-7.8165625 92.49179687 -7.414375 91.75703125 -7 91 C-6.6596875 90.40960938 -6.319375 89.81921875 -5.96875 89.2109375 C-2.54962898 82.02445165 -2.78231735 71.85009191 -4.69140625 64.24609375 C-5.62643507 61.99654743 -6.67992726 60.04570279 -8 58 C-8.43570313 57.30519531 -8.87140625 56.61039063 -9.3203125 55.89453125 C-14.81214431 47.89686362 -22.54319856 42.3380766 -32 40 C-46.05201581 38.23525154 -57.52082696 42.49132661 -67 53 Z " fill="#3FC2FC" transform="translate(295,182)"/>
<path d="M0 0 C2.82701338 0.91421168 4.11754041 1.89141547 6.21127319 3.97384644 C6.88902802 4.63899261 7.56678284 5.30413879 8.26507568 5.98944092 C8.98289215 6.71535431 9.70070862 7.4412677 10.4402771 8.18917847 C11.19346222 8.93853668 11.94664734 9.6878949 12.72265625 10.45996094 C14.31607176 12.0506546 15.90444747 13.64641032 17.48812866 15.24679565 C19.88728422 17.66717415 22.3067531 20.06571757 24.7293396 22.46261597 C37.51172937 35.22185375 48.16875708 47.01070034 48.7918396 65.94699097 C48.53188556 83.38754411 39.45926096 94.58220929 27.55233765 106.22311401 C25.83576036 107.90266951 24.13623827 109.59819891 22.43832397 111.29660034 C21.34486956 112.38023867 20.25050167 113.4629562 19.15512085 114.54464722 C18.39876091 115.29766869 18.39876091 115.29766869 17.62712097 116.06590271 C13.88417316 119.70885759 11.36967982 121.61889761 6.1668396 122.19699097 C1.71815929 121.73678266 -0.08746988 120.7530262 -3.4581604 117.82199097 C-8.13463737 110.94023417 -11.76356101 103.52113272 -15.4737854 96.09152222 C-16.13667761 94.76963248 -16.79974634 93.44783125 -17.46298218 92.12611389 C-18.84397386 89.37154833 -20.22190149 86.61547639 -21.59780884 83.85836792 C-23.35849661 80.33117108 -25.12828866 76.80863053 -26.90054703 73.28723621 C-28.26876966 70.56553097 -29.63143389 67.84107169 -30.99251556 65.11578941 C-31.64290075 63.81553103 -32.29516765 62.51621205 -32.94937897 61.21787453 C-33.8620214 59.40495562 -34.76623046 57.58779873 -35.67007446 55.77047729 C-36.1857196 54.73981644 -36.70136475 53.70915558 -37.2326355 52.64726257 C-38.40012104 49.95579237 -39.20490875 47.74341312 -39.4581604 44.82199097 C-38.7981604 43.83199097 -38.1381604 42.84199097 -37.4581604 41.82199097 C-35.9731604 42.00761597 -35.9731604 42.00761597 -34.4581604 42.19699097 C-30.47360865 42.33723399 -28.59842818 40.6966564 -25.6456604 38.13449097 C-16.48377402 29.2375602 -9.63099249 19.49240483 -4.4581604 7.82199097 C-4.9531604 7.32699097 -4.9531604 7.32699097 -5.4581604 6.82199097 C-5.7081604 4.38449097 -5.7081604 4.38449097 -5.4581604 1.82199097 C-2.4581604 -0.17800903 -2.4581604 -0.17800903 0 0 Z " fill="#FED63F" transform="translate(345.4581604003906,290.1780090332031)"/>
<path d="M0 0 C2.98192882 2.2808341 5.71773544 4.7475124 8.43359375 7.33203125 C9.18608398 8.04359375 9.93857422 8.75515625 10.71386719 9.48828125 C13.30601604 11.95909548 15.87372632 14.45280268 18.43359375 16.95703125 C19.27164551 17.76865723 20.10969727 18.5802832 20.97314453 19.41650391 C30.31021582 28.73076011 30.31021582 28.73076011 30.5 35.80859375 C30.33371094 36.51757812 30.16742188 37.2265625 29.99609375 37.95703125 C29.85300781 38.67117187 29.70992188 39.3853125 29.5625 40.12109375 C26.84248023 45.44819129 20.92354183 48.34328037 15.7890625 50.94482422 C15.15408844 51.26902847 14.51911438 51.59323273 13.86489868 51.92726135 C11.78776917 52.98465518 9.70494189 54.03013506 7.62109375 55.07421875 C6.16418992 55.809105 4.70740471 56.54422644 3.25073242 57.27957153 C0.20741035 58.81316451 -2.83911107 60.34017791 -5.88769531 61.86328125 C-9.789774 63.81411669 -13.68035129 65.78679899 -17.5684967 67.76522636 C-20.56907428 69.28775806 -23.57681634 70.79568025 -26.58676147 72.29959488 C-28.02463226 73.02088663 -29.45991846 73.74735526 -30.89248657 74.47912216 C-32.89500277 75.50000437 -34.90667268 76.50005378 -36.921875 77.49560547 C-38.06293701 78.06898651 -39.20399902 78.64236755 -40.37963867 79.23312378 C-43.94889739 80.4639274 -45.95520664 80.27827845 -49.56640625 79.33203125 C-49.71078125 78.58953125 -49.85515625 77.84703125 -50.00390625 77.08203125 C-50.18953125 76.17453125 -50.37515625 75.26703125 -50.56640625 74.33203125 C-50.66566406 73.71070313 -50.76492188 73.089375 -50.8671875 72.44921875 C-54.22599678 62.27896943 -68.80167634 52.81717755 -77.81640625 47.70703125 C-82.26604788 46.07549599 -85.89108864 45.94242145 -90.56640625 46.33203125 C-91.50390625 43.83203125 -91.50390625 43.83203125 -91.56640625 40.33203125 C-86.6966769 32.84902534 -78.92023144 26.46543734 -72.62475586 20.15014648 C-70.76142399 18.27708823 -68.90906287 16.39360566 -67.05664062 14.50976562 C-48.58744287 -4.12460006 -24.76573324 -16.09584185 0 0 Z " fill="#FDD63F" transform="translate(380.56640625,126.66796875)"/>
<path d="M0 0 C1.11181641 -0.02513672 1.11181641 -0.02513672 2.24609375 -0.05078125 C5.50606899 0.46047962 6.91428339 1.24311678 9.5625 3.3125 C11.69535689 6.53501057 13.36627973 9.9675924 15.07421875 13.4296875 C15.59038254 14.4482785 16.10654633 15.46686951 16.63835144 16.5163269 C17.73357649 18.67947603 18.82320691 20.84546552 19.90765381 23.01403809 C21.5189434 26.2256824 23.15407839 29.42379668 24.79931641 32.61816406 C27.48133021 37.82760348 30.13602811 43.05021088 32.77661133 48.28076172 C33.85994475 50.42029145 34.94899724 52.55693323 36.04321289 54.69091797 C37.65283028 57.83164637 39.24428901 60.98098107 40.83203125 64.1328125 C41.32451859 65.08479523 41.81700592 66.03677795 42.32441711 67.01760864 C42.76625839 67.90399017 43.20809967 68.7903717 43.66333008 69.70361328 C44.05571365 70.47585236 44.44809723 71.24809143 44.85237122 72.04373169 C45.72730728 74.83903763 45.39470729 76.53385265 44.5625 79.3125 C44.2325 79.6425 43.9025 79.9725 43.5625 80.3125 C41.98082031 80.19648438 41.98082031 80.19648438 40.3671875 80.078125 C33.44875487 80.50431182 29.04637495 86.41734241 24.5625 91.3125 C18.72682503 98.00705027 14.13890146 105.18921628 10.5625 113.3125 C10.8925 113.6425 11.2225 113.9725 11.5625 114.3125 C11.27519945 116.65194736 10.94313221 118.9864143 10.5625 121.3125 C8.10546875 121.81005859 8.10546875 121.81005859 4.5625 121.3125 C1.33109599 119.00577006 -1.35614828 116.18568164 -4.125 113.3515625 C-4.94572998 112.53182953 -5.76645996 111.71209656 -6.61206055 110.86752319 C-8.3472271 109.12767514 -10.07500913 107.38043582 -11.79589844 105.62646484 C-14.41055016 102.96493305 -17.05048019 100.33072324 -19.6953125 97.69921875 C-21.38179329 96.00157306 -23.06673888 94.30240062 -24.75 92.6015625 C-25.53141357 91.82197174 -26.31282715 91.04238098 -27.11791992 90.23916626 C-36.77135396 80.33736386 -42.3293892 69.80258371 -42.8125 55.8125 C-42.26857039 40.06120518 -35.11598652 29.28808544 -24.4375 18.3125 C-23.80859863 17.66313477 -23.17969727 17.01376953 -22.53173828 16.34472656 C-20.40527623 14.15816128 -18.26766447 11.98318578 -16.125 9.8125 C-15.43100098 9.10528809 -14.73700195 8.39807617 -14.02197266 7.66943359 C-13.02689697 6.67290771 -13.02689697 6.67290771 -12.01171875 5.65625 C-11.41963623 5.06005859 -10.82755371 4.46386719 -10.2175293 3.84960938 C-6.99408635 1.06606846 -4.23564503 0.02202242 0 0 Z " fill="#FDD53F" transform="translate(160.4375,102.6875)"/>
<path d="M0 0 C0.99 0.99 0.99 0.99 2 2 C1.855625 2.99 1.71125 3.98 1.5625 5 C1.48042443 8.96425013 3.14169923 10.8732573 5.6875 13.8125 C13.01244183 21.379684 22.92204324 30.53570236 33 34 C36.77376551 33.78384744 36.77376551 33.78384744 40 33 C41.485 33.99 41.485 33.99 43 35 C43.51411268 38.05326592 43.36182971 39.47231786 41.60015869 42.04148865 C40.94352234 42.70511917 40.28688599 43.36874969 39.61035156 44.05249023 C38.86827454 44.81355576 38.12619751 45.57462128 37.3616333 46.35874939 C36.54620056 47.16719803 35.73076782 47.97564667 34.890625 48.80859375 C34.05343933 49.65293472 33.21625366 50.4972757 32.35369873 51.36720276 C30.57424406 53.15444902 28.7883413 54.9352947 26.99658203 56.71020508 C24.28292899 59.40480224 21.59963536 62.12712987 18.91796875 64.85351562 C17.18145971 66.59031539 15.44322955 68.32539635 13.703125 70.05859375 C12.91198303 70.86501816 12.12084106 71.67144257 11.3057251 72.50230408 C1.08441753 82.51804249 -10.55016723 87.42842507 -24.79516602 87.36572266 C-41.25866554 86.95370993 -52.16686259 77.40833417 -63.25024414 66.3605957 C-64.94182252 64.68321376 -66.65833447 63.03437524 -68.37695312 61.38476562 C-78.602537 51.3759389 -78.602537 51.3759389 -79.2097168 45.06933594 C-78.80034051 41.02990236 -77.62281586 38.11191705 -75 35 C-72.25444942 32.83950407 -69.27857258 31.41903259 -66.125 29.9375 C-64.08723471 28.93099946 -62.04947484 27.92448792 -60.01171875 26.91796875 C-59.13843681 26.49410385 -59.13843681 26.49410385 -58.24751282 26.06167603 C-53.30946735 23.66444506 -48.41649863 21.18454211 -43.52960205 18.68482971 C-39.38519754 16.56506325 -35.23504022 14.45670702 -31.08416748 12.34963989 C-28.98905929 11.28457068 -26.89550425 10.21644062 -24.80352783 9.14523315 C-21.82150943 7.62133383 -18.831841 6.11356726 -15.83984375 4.609375 C-14.48630547 3.9118084 -14.48630547 3.9118084 -13.10542297 3.20014954 C-5.02547666 -0.82706998 -5.02547666 -0.82706998 0 0 Z " fill="#FDD63F" transform="translate(180,308)"/>
<path d="M0 0 C0.70021271 0.23087311 1.40042542 0.46174622 2.12185669 0.69961548 C4.41033642 1.4575453 6.6926333 2.23246298 8.97509766 3.00830078 C10.57283751 3.54247198 12.17087529 4.07575281 13.76919556 4.60818481 C17.10518503 5.72225933 20.43834426 6.84430493 23.76953125 7.97265625 C28.04274556 9.41980139 32.32110938 10.85093175 36.60149193 12.27671623 C39.89557252 13.37510513 43.18753355 14.47972858 46.47880936 15.58649063 C48.05642091 16.11660622 49.63452236 16.64526617 51.21311569 17.17245102 C53.41239442 17.90842778 55.6088598 18.65223763 57.8046875 19.3984375 C59.0551889 19.8203537 60.30569031 20.2422699 61.59408569 20.67697144 C64.51416016 21.82861328 64.51416016 21.82861328 66.51416016 23.82861328 C66.76416016 26.32861328 66.76416016 26.32861328 66.51416016 28.82861328 C65.85416016 29.48861328 65.19416016 30.14861328 64.51416016 30.82861328 C63.52416016 30.82861328 62.53416016 30.82861328 61.51416016 30.82861328 C61.7180178 45.95274174 62.45423236 60.21287323 66.51416016 74.82861328 C68.16416016 75.15861328 69.81416016 75.48861328 71.51416016 75.82861328 C72.20166016 77.57861328 72.20166016 77.57861328 72.51416016 79.82861328 C71.35289001 81.93788147 71.35289001 81.93788147 69.51416016 83.82861328 C67.18409729 84.32981873 67.18409729 84.32981873 64.40698242 84.33032227 C62.84373985 84.34439369 62.84373985 84.34439369 61.24891663 84.35874939 C60.12086105 84.34751541 58.99280548 84.33628143 57.83056641 84.32470703 C56.08174416 84.32688988 56.08174416 84.32688988 54.29759216 84.32911682 C51.82361359 84.32745464 49.34962502 84.31585798 46.87573242 84.29516602 C43.1225886 84.26646451 39.37087979 84.27450135 35.61767578 84.28759766 C33.20946588 84.2813522 30.80126042 84.27295499 28.39306641 84.26220703 C27.28322891 84.26514267 26.17339142 84.26807831 25.02992249 84.27110291 C10.40907539 84.097868 -1.54715082 80.18490103 -12.34130859 70.20361328 C-20.79104929 60.8457948 -23.7918181 50.95374018 -23.82177734 38.69580078 C-23.82843414 37.74093781 -23.83509094 36.78607483 -23.84194946 35.80227661 C-23.85203105 33.79365963 -23.85676788 31.78500945 -23.85644531 29.77636719 C-23.86083645 26.70598621 -23.89725275 23.63702339 -23.93505859 20.56689453 C-23.94092413 18.60986817 -23.94489528 16.65283502 -23.94677734 14.69580078 C-23.96114838 13.7811203 -23.97551941 12.86643982 -23.99032593 11.92404175 C-23.95998025 7.6929801 -23.87434963 5.44285605 -21.56640625 1.79394531 C-15.22442859 -4.19677519 -7.704925 -2.65832253 0 0 Z " fill="#FED63F" transform="translate(99.48583984375,214.17138671875)"/>
<path d="M0 0 C1.99954746 -0.04254356 4.00041636 -0.04080783 6 0 C7.73298788 1.73298788 7.1544439 4.08539385 7.17700195 6.44677734 C7.19625481 8.19527481 7.19625481 8.19527481 7.21589661 9.97909546 C7.22328354 11.25185333 7.23067047 12.52461121 7.23828125 13.8359375 C7.246353 15.14019684 7.25442474 16.44445618 7.26274109 17.78823853 C7.277795 20.56081005 7.28761563 23.33335578 7.29516602 26.10595703 C7.30614806 29.63068907 7.34043802 33.15477525 7.38033772 36.67928123 C7.41306151 40.06480508 7.41730793 43.45026788 7.42578125 46.8359375 C7.44328934 48.08845306 7.46079742 49.34096863 7.47883606 50.63143921 C7.44615836 64.00364988 3.19754686 74.1772425 -5.84375 84.00390625 C-15.40614245 93.07642203 -27.85292612 96.29726637 -40.7265625 96.3359375 C-41.51847992 96.3425943 -42.31039734 96.3492511 -43.12631226 96.35610962 C-44.78503117 96.36615081 -46.44378979 96.37092932 -48.10253906 96.37060547 C-50.62632601 96.37500231 -53.14839347 96.41147437 -55.671875 96.44921875 C-57.29426493 96.45508428 -58.91666306 96.45905544 -60.5390625 96.4609375 C-61.28402985 96.47530853 -62.02899719 96.48967957 -62.79653931 96.50448608 C-68.27453002 96.45709017 -71.52620079 95.20947998 -76 92 C-78.8194058 87.47355082 -78.62378461 83.1719827 -78 78 C-76.66127882 72.58906231 -74.90250194 67.34494427 -73.109375 62.0703125 C-72.60232788 60.54751098 -72.09626151 59.02438258 -71.59112549 57.50094604 C-70.53463716 54.32579299 -69.46779267 51.1543764 -68.39306641 47.98535156 C-67.01834535 43.92959265 -65.66801193 39.86620848 -64.32500839 35.79985237 C-63.28558091 32.66041632 -62.23447302 29.52499061 -61.17969513 26.39068222 C-60.67719626 24.89352354 -60.17806706 23.39522939 -59.68242645 21.89578629 C-58.98841969 19.80283593 -58.27909331 17.71571064 -57.56542969 15.62939453 C-57.1657196 14.44266144 -56.76600952 13.25592834 -56.35418701 12.03323364 C-54.95634966 8.90222792 -53.66037869 7.13866721 -51 5 C-48.875 5 -48.875 5 -47 6 C-46.289999 7.31077107 -45.6180971 8.64346832 -45 10 C-30.59439987 10.40222462 -15.59501907 10.53569639 -2 5 C-0.56076801 2.49004504 -0.56076801 2.49004504 0 0 Z " fill="#FDD63F" transform="translate(289,342)"/>
<path d="M0 0 C7.35489734 -0.09333035 14.70966372 -0.16408039 22.06503677 -0.20724869 C25.48172407 -0.22798401 28.89800158 -0.25603762 32.31445312 -0.30175781 C36.25645777 -0.35417147 40.19830569 -0.37306136 44.140625 -0.390625 C45.95074066 -0.42159271 45.95074066 -0.42159271 47.79742432 -0.45318604 C59.6885036 -0.45628229 69.64957545 2.56668377 79 10 C79.61488281 10.47824219 80.22976563 10.95648438 80.86328125 11.44921875 C87.50974742 17.29987744 93.5335393 28.09213462 94.14044189 37.07981873 C94.1472699 37.81974564 94.1540979 38.55967255 94.16113281 39.32202148 C94.17074036 40.16647324 94.1803479 41.01092499 94.19024658 41.88096619 C94.19449646 42.78520828 94.19874634 43.68945038 94.203125 44.62109375 C94.20882507 45.55800552 94.21452515 46.4949173 94.22039795 47.46022034 C94.2298331 49.439696 94.23637602 51.41918726 94.24023438 53.39868164 C94.2499533 56.42296713 94.28099612 59.44657664 94.3125 62.47070312 C94.31902921 64.39582931 94.32428 66.32096034 94.328125 68.24609375 C94.3404718 69.14831161 94.3528186 70.05052948 94.36553955 70.98008728 C94.34845727 75.80465557 94.18509878 79.10946713 91 83 C86.85609422 85.9599327 83.84127356 86.21846468 78.86468506 85.57321167 C72.46287811 84.29223649 66.30681668 82.03142076 60.1328125 79.94140625 C58.60608517 79.43130307 57.07913413 78.92186898 55.55197144 78.41307068 C52.36803563 77.35020225 49.18619375 76.2813592 46.00585938 75.20776367 C41.93017233 73.83213883 37.85059155 72.46852932 33.76953316 71.10893345 C30.62337493 70.05994229 27.47880133 69.00627022 24.3347435 67.95100212 C22.83040223 67.44637583 21.32569667 66.94283419 19.82062149 66.44040108 C17.72277444 65.7389514 15.62700894 65.03161228 13.53173828 64.32250977 C12.33976837 63.92137466 11.14779846 63.52023956 9.91970825 63.10694885 C7 62 7 62 4 60 C3.6875 57.5 3.6875 57.5 4 55 C4.66 54.34 5.32 53.68 6 53 C6.99 53 7.98 53 9 53 C8.87893638 34.90880442 8.87893638 34.90880442 6.25 17.0625 C6.10530273 16.37873291 5.96060547 15.69496582 5.81152344 14.99047852 C4.95528219 11.63773185 4.32351894 10.22009092 1.421875 8.24609375 C0.62265625 7.83488281 -0.1765625 7.42367187 -1 7 C-2 4 -2 4 -1.0625 1.8125 C-0.5365625 0.9153125 -0.5365625 0.9153125 0 0 Z " fill="#FDD53F" transform="translate(342,217)"/>
<path d="M0 0 C1.32885475 -0.0099852 1.32885475 -0.0099852 2.68455505 -0.02017212 C4.54773903 -0.03024899 6.41095873 -0.03499069 8.27416992 -0.03466797 C11.11632597 -0.03905514 13.95694476 -0.07546478 16.79882812 -0.11328125 C18.61588015 -0.11914778 20.43293948 -0.12311827 22.25 -0.125 C23.09389786 -0.13937103 23.93779572 -0.15374207 24.80726624 -0.16854858 C30.19788175 -0.12697213 33.30156401 0.72255006 37.55859375 4.3359375 C40.49006242 8.73314051 40.19919794 12.16337547 39.55859375 17.3359375 C38.11847324 23.0035344 36.24284384 28.49977693 34.34375 34.02734375 C33.80683141 35.62450115 33.27116134 37.22207875 32.73667908 38.8200531 C31.61999353 42.14886267 30.49382448 45.47423877 29.35961914 48.79711914 C27.90333589 53.06359397 26.46287928 57.33518919 25.02835941 61.609025 C23.65901897 65.68755148 22.28340467 69.76395014 20.90625 73.83984375 C20.5116241 75.00898913 20.5116241 75.00898913 20.10902596 76.20175362 C19.36783318 78.3929201 18.62235141 80.58257266 17.87524414 82.77172852 C17.23903893 84.64176292 17.23903893 84.64176292 16.58998108 86.54957581 C15.55859375 89.3359375 15.55859375 89.3359375 14.55859375 90.3359375 C11.74609375 90.6484375 11.74609375 90.6484375 8.55859375 90.3359375 C8.03136719 89.67980469 7.50414062 89.02367187 6.9609375 88.34765625 C3.24658606 85.2372644 -0.36763332 85.74140497 -5.06640625 85.8359375 C-5.99050293 85.84367187 -6.91459961 85.85140625 -7.86669922 85.859375 C-15.83133401 86.05546107 -23.26156903 87.45840719 -30.94921875 89.4609375 C-34.44140625 90.3359375 -34.44140625 90.3359375 -37.44140625 90.3359375 C-37.77140625 91.9859375 -38.10140625 93.6359375 -38.44140625 95.3359375 C-40.81640625 95.9609375 -40.81640625 95.9609375 -43.44140625 96.3359375 C-46.06885591 93.70848784 -45.70428227 92.53262007 -45.73193359 88.86743164 C-45.7446933 87.72186295 -45.757453 86.57629425 -45.77059937 85.39601135 C-45.77282501 84.15028854 -45.77505066 82.90456573 -45.77734375 81.62109375 C-45.78400055 80.3404454 -45.79065735 79.05979706 -45.79751587 77.74034119 C-45.8095103 75.02078899 -45.81319522 72.3013639 -45.81201172 69.58178711 C-45.81181005 66.12541117 -45.83894133 62.66987171 -45.87355614 59.21369267 C-45.90141133 55.89115054 -45.89998191 52.5687507 -45.90234375 49.24609375 C-45.91671478 48.01858902 -45.93108582 46.79108429 -45.94589233 45.52638245 C-45.87523118 32.04542633 -41.28595927 21.6218821 -32.31640625 11.6484375 C-23.4946693 3.21877775 -11.84573072 0.03131636 0 0 Z " fill="#FDD53F" transform="translate(261.44140625,76.6640625)"/>
<path d="M0 0 C0.95003906 0.47953125 1.90007812 0.9590625 2.87890625 1.453125 C21.57516218 11.49596391 35.4921944 28.8440288 42 49 C44.54520869 57.84132905 45.52010845 66.19158334 45.4375 75.375 C45.43065186 76.55384766 45.42380371 77.73269531 45.41674805 78.94726562 C45.01468726 100.81214434 35.96877061 119.34117968 21 135 C20.45859375 135.61617187 19.9171875 136.23234375 19.359375 136.8671875 C5.39821877 152.16805064 -15.54133961 158.71052933 -35.58984375 160.28125 C-58.7546838 160.91808409 -79.81262701 153.04786659 -96.72265625 137.1796875 C-97.47417969 136.46039063 -98.22570312 135.74109375 -99 135 C-99.63808594 134.42507813 -100.27617187 133.85015625 -100.93359375 133.2578125 C-114.39859189 120.72246902 -122.54112746 100.75992697 -123.3828125 82.60546875 C-124.04474102 57.11406457 -118.05084659 36.25832227 -101 17 C-75.14330142 -10.04949271 -33.26283609 -17.80687165 0 0 Z M-69 5 C-70.64548828 5.74443359 -70.64548828 5.74443359 -72.32421875 6.50390625 C-91.87229041 16.10443849 -104.5887888 32.25118495 -112.3203125 52.44921875 C-118.62497769 72.48747279 -115.59955876 93.008377 -106.13256836 111.42749023 C-103.26848341 116.75214736 -100.07470164 121.5143306 -96 126 C-95.03707031 127.10021484 -95.03707031 127.10021484 -94.0546875 128.22265625 C-82.84325431 140.28218679 -65.99873828 149.99341045 -49.36865234 151.18920898 C-46.45134856 151.26799381 -43.54322016 151.27291796 -40.625 151.25 C-39.64789063 151.25773438 -38.67078125 151.26546875 -37.6640625 151.2734375 C-16.1282597 151.21616143 2.0273749 141.9505741 17 127 C17.89525391 126.12214844 17.89525391 126.12214844 18.80859375 125.2265625 C30.9147436 112.3002128 37.25073535 93.53515467 37.125 76.125 C37.12016602 75.41956055 37.11533203 74.71412109 37.11035156 73.98730469 C36.90115934 55.82105233 30.8061941 39.92263926 19 26 C17.84177734 24.54207031 17.84177734 24.54207031 16.66015625 23.0546875 C9.1569966 14.07802087 -1.22496794 8.13430487 -12 4 C-13.45792969 3.38125 -13.45792969 3.38125 -14.9453125 2.75 C-31.36638899 -3.17640355 -53.30494746 -2.60561732 -69 5 Z " fill="#26333A" transform="translate(295,182)"/>
<path d="M0 0 C1 1 1 1 1.1875 3.9375 C1 7 1 7 -1 9 C-3.43237305 9.34716797 -3.43237305 9.34716797 -6.51171875 9.4921875 C-7.6505249 9.5550293 -8.78933105 9.61787109 -9.96264648 9.68261719 C-11.19184814 9.74610352 -12.4210498 9.80958984 -13.6875 9.875 C-46.7866653 11.94567871 -77.73860785 20.36384976 -107 36 C-108.15886719 36.61488281 -109.31773437 37.22976562 -110.51171875 37.86328125 C-136.13136164 51.97307317 -159.30122401 71.76521858 -176.72509766 95.28515625 C-177.95870539 96.94445551 -179.21730975 98.58189604 -180.48046875 100.21875 C-206.32488188 134.33419627 -220.54748478 178.29283637 -221.4296875 220.890625 C-221.60693872 225.7354917 -221.92426248 229.01963379 -225 233 C-229.875 232.125 -229.875 232.125 -231 231 C-234.62251329 192.35652719 -222.03428835 152.71121196 -204 119 C-203.38640625 117.84371094 -202.7728125 116.68742187 -202.140625 115.49609375 C-187.44182504 88.80137234 -166.30912492 64.1903379 -141.66796875 46.21923828 C-139.98216213 44.98696102 -138.31905295 43.72793445 -136.65625 42.46484375 C-127.61972504 35.69820004 -118.00593691 30.20073087 -108 25 C-107.26716797 24.61457031 -106.53433594 24.22914062 -105.77929688 23.83203125 C-73.47283245 7.03381638 -36.40781997 -1.59261064 0 0 Z " fill="#253137" transform="translate(259,29)"/>
<path d="M0 0 C1.99954746 -0.04254356 4.00041636 -0.04080783 6 0 C8.77648939 2.77648939 7.31186302 10.90508442 7.31689453 14.61694336 C6.81419535 57.46739387 -8.50478601 100.10049282 -33 135 C-33.46486816 135.66692871 -33.92973633 136.33385742 -34.40869141 137.02099609 C-41.60244049 147.24031512 -49.67554078 156.40334206 -58.390625 165.34814453 C-59.7182363 166.71079896 -61.0327957 168.08615681 -62.34375 169.46484375 C-75.75147955 183.33964584 -92.27247007 194.52327027 -109 204 C-109.59216309 204.3412793 -110.18432617 204.68255859 -110.79443359 205.03417969 C-142.58669561 223.26348768 -185.92924867 236.85445121 -223 233 C-225 231 -225 231 -225.1875 227.9375 C-225 225 -225 225 -224 224 C-221.70122799 223.75840506 -219.39599162 223.57808922 -217.08984375 223.421875 C-215.62231811 223.31601346 -214.15487286 223.20903293 -212.6875 223.10107422 C-211.91277344 223.04465759 -211.13804687 222.98824097 -210.33984375 222.93011475 C-163.51193048 219.41921098 -119.4923866 204.162417 -83 174 C-82.41879395 173.52030762 -81.83758789 173.04061523 -81.23876953 172.54638672 C-70.02276463 163.22916609 -60.05288823 153.47311893 -51 142 C-50.20722656 141.02417969 -49.41445313 140.04835938 -48.59765625 139.04296875 C-19.83240633 102.9159961 -3.61839184 57.0850718 -2.42871094 11.05419922 C-2.40067383 10.19713379 -2.37263672 9.34006836 -2.34375 8.45703125 C-2.32505859 7.69366455 -2.30636719 6.93029785 -2.28710938 6.14379883 C-1.96654077 3.75016543 -1.18687917 2.08799527 0 0 Z " fill="#253137" transform="translate(477,253)"/>
<path d="M0 0 C4.55555556 0.55555556 4.55555556 0.55555556 6 2 C6.07313567 4.53049402 6.09247527 7.03304837 6.0625 9.5625 C6.05798828 10.27341797 6.05347656 10.98433594 6.04882812 11.71679688 C6.03700864 13.47790013 6.01907263 15.23896036 6 17 C7.299375 17.0825 8.59875 17.165 9.9375 17.25 C16.26336118 17.94733903 21.54772791 20.36515194 26.8125 23.875 C28.89449217 25.24170446 28.89449217 25.24170446 30.9375 24.5625 C32.85130167 23.11265025 34.30738507 21.62571017 35.9375 19.875 C38.63988133 17.05601846 38.63988133 17.05601846 41.8125 16.5625 C44 17 44 17 45 18 C45.3125 20.29296875 45.3125 20.29296875 45 23 C43.25 25.23828125 43.25 25.23828125 41 27.3125 C40.2575 28.00988281 39.515 28.70726562 38.75 29.42578125 C37.88375 30.20501953 37.88375 30.20501953 37 31 C38.29295418 34.39776332 39.80327482 37.51039185 41.5625 40.6875 C44.15825133 45.76448422 44.86760952 50.34331595 45 56 C46.05960937 55.97679687 47.11921875 55.95359375 48.2109375 55.9296875 C49.5989513 55.91093056 50.9869727 55.89273028 52.375 55.875 C53.07367188 55.85824219 53.77234375 55.84148437 54.4921875 55.82421875 C56.32897486 55.80655733 58.16601963 55.89696739 60 56 C60.66 56.66 61.32 57.32 62 58 C61.44444444 62.55555556 61.44444444 62.55555556 60 64 C57.65012738 64.23527773 55.29443961 64.41386417 52.9375 64.5625 C51.64714844 64.64628906 50.35679687 64.73007812 49.02734375 64.81640625 C48.02832031 64.87699219 47.02929688 64.93757813 46 65 C45.82984375 65.7734375 45.6596875 66.546875 45.484375 67.34375 C43.99588803 73.741077 42.21037778 79.28110841 39 85 C38.32771738 86.33051054 37.65962142 87.66316725 37 89 C37.86625 89.76183594 37.86625 89.76183594 38.75 90.5390625 C44.89022298 96.23156089 44.89022298 96.23156089 45.5 100.5 C45.335 101.325 45.17 102.15 45 103 C42.75 103.75 42.75 103.75 40 104 C37.68849262 102.10876669 35.97779929 99.97350237 34.0625 97.6875 C32.12811284 95.72399357 32.12811284 95.72399357 29.5546875 96.09765625 C26.92906734 97.0250542 24.57641808 98.11780688 22.125 99.4375 C16.68534523 102.23827463 12.21108225 104 6 104 C6.02320313 104.98742187 6.04640625 105.97484375 6.0703125 106.9921875 C6.08835937 108.27351563 6.10640625 109.55484375 6.125 110.875 C6.14820313 112.15117187 6.17140625 113.42734375 6.1953125 114.7421875 C6 118 6 118 4 120 C-0.55555556 119.44444444 -0.55555556 119.44444444 -2 118 C-2.07271741 115.64686445 -2.08370868 113.29166332 -2.0625 110.9375 C-2.05347656 109.64714844 -2.04445312 108.35679687 -2.03515625 107.02734375 C-2.02355469 106.02832031 -2.01195312 105.02929688 -2 104 C-3.2375 103.95875 -4.475 103.9175 -5.75 103.875 C-11.21974897 103.30379204 -15.43505292 100.99870104 -20.203125 98.375 C-22.96371894 97.0178365 -24.92050031 96.0805098 -28 96 C-30.16641665 97.66545339 -30.16641665 97.66545339 -32 100 C-33.9375 102.3125 -33.9375 102.3125 -36 104 C-38.75 103.75 -38.75 103.75 -41 103 C-41.5 100.5 -41.5 100.5 -41 97 C-38.58622266 94.04629878 -35.86095001 91.51610335 -33 89 C-33.39832031 88.27296875 -33.79664063 87.5459375 -34.20703125 86.796875 C-37.96529112 79.66441102 -40.40358525 72.8980519 -42 65 C-42.98742187 64.95101562 -43.97484375 64.90203125 -44.9921875 64.8515625 C-46.27351562 64.77679688 -47.55484375 64.70203125 -48.875 64.625 C-50.15117187 64.55539062 -51.42734375 64.48578125 -52.7421875 64.4140625 C-56 64 -56 64 -58 62 C-57.44444444 57.44444444 -57.44444444 57.44444444 -56 56 C-53.46950598 55.92686433 -50.96695163 55.90752473 -48.4375 55.9375 C-47.72658203 55.94201172 -47.01566406 55.94652344 -46.28320312 55.95117188 C-44.52209987 55.96299136 -42.76103964 55.98092737 -41 56 C-40.99742187 55.41734375 -40.99484375 54.8346875 -40.9921875 54.234375 C-40.67024665 47.409229 -38.60386109 42.59700402 -35.27734375 36.6640625 C-33.71177055 33.89127095 -33.71177055 33.89127095 -34 30 C-35.52287734 28.18090067 -35.52287734 28.18090067 -37.5 26.5625 C-40.94155844 23.33603896 -40.94155844 23.33603896 -41.5 20.125 C-41 18 -41 18 -40 17 C-37.70703125 16.6875 -37.70703125 16.6875 -35 17 C-32.76171875 18.75 -32.76171875 18.75 -30.6875 21 C-29.99011719 21.7425 -29.29273438 22.485 -28.57421875 23.25 C-27.79498047 24.11625 -27.79498047 24.11625 -27 25 C-23.60223668 23.70704582 -20.48960815 22.19672518 -17.3125 20.4375 C-12.23551578 17.84174867 -7.65668405 17.13239048 -2 17 C-2.02320313 15.94039062 -2.04640625 14.88078125 -2.0703125 13.7890625 C-2.08906944 12.4010487 -2.10726972 11.0130273 -2.125 9.625 C-2.14175781 8.92632812 -2.15851563 8.22765625 -2.17578125 7.5078125 C-2.19344267 5.67102514 -2.10303261 3.83398037 -2 2 C-1.34 1.34 -0.68 0.68 0 0 Z M-26 38 C-33.09212226 47.26495383 -33.87531536 56.70953989 -33 68 C-30.98687332 77.10126135 -25.23823439 84.93631813 -17.75 90.375 C-9.57240818 95.39021815 -0.31356394 97.35118311 9.06640625 95.34375 C19.69457668 92.48658251 27.06091033 87.72868229 32.78125 78.2265625 C33.1834375 77.49179687 33.585625 76.75703125 34 76 C34.3403125 75.40960938 34.680625 74.81921875 35.03125 74.2109375 C38.45037102 67.02445165 38.21768265 56.85009191 36.30859375 49.24609375 C35.37356493 46.99654743 34.32007274 45.04570279 33 43 C32.56429687 42.30519531 32.12859375 41.61039063 31.6796875 40.89453125 C26.18785569 32.89686362 18.45680144 27.3380766 9 25 C-5.05201581 23.23525154 -16.52082696 27.49132661 -26 38 Z " fill="#26343B" transform="translate(254,197)"/>
<path d="M0 0 C2.82701338 0.91421168 4.11754041 1.89141547 6.21127319 3.97384644 C6.88902802 4.63899261 7.56678284 5.30413879 8.26507568 5.98944092 C8.98289215 6.71535431 9.70070862 7.4412677 10.4402771 8.18917847 C11.19346222 8.93853668 11.94664734 9.6878949 12.72265625 10.45996094 C14.31607176 12.0506546 15.90444747 13.64641032 17.48812866 15.24679565 C19.88728422 17.66717415 22.3067531 20.06571757 24.7293396 22.46261597 C37.51172937 35.22185375 48.16875708 47.01070034 48.7918396 65.94699097 C48.53188556 83.38754411 39.45926096 94.58220929 27.55233765 106.22311401 C25.83576036 107.90266951 24.13623827 109.59819891 22.43832397 111.29660034 C21.34486956 112.38023867 20.25050167 113.4629562 19.15512085 114.54464722 C18.39876091 115.29766869 18.39876091 115.29766869 17.62712097 116.06590271 C13.88417316 119.70885759 11.36967982 121.61889761 6.1668396 122.19699097 C1.71815929 121.73678266 -0.08746988 120.7530262 -3.4581604 117.82199097 C-8.13463737 110.94023417 -11.76356101 103.52113272 -15.4737854 96.09152222 C-16.13667761 94.76963248 -16.79974634 93.44783125 -17.46298218 92.12611389 C-18.84397386 89.37154833 -20.22190149 86.61547639 -21.59780884 83.85836792 C-23.35849661 80.33117108 -25.12828866 76.80863053 -26.90054703 73.28723621 C-28.26876966 70.56553097 -29.63143389 67.84107169 -30.99251556 65.11578941 C-31.64290075 63.81553103 -32.29516765 62.51621205 -32.94937897 61.21787453 C-33.8620214 59.40495562 -34.76623046 57.58779873 -35.67007446 55.77047729 C-36.1857196 54.73981644 -36.70136475 53.70915558 -37.2326355 52.64726257 C-38.40012104 49.95579237 -39.20490875 47.74341312 -39.4581604 44.82199097 C-38.7981604 43.83199097 -38.1381604 42.84199097 -37.4581604 41.82199097 C-35.4781604 41.82199097 -33.4981604 41.82199097 -31.4581604 41.82199097 C-19.9081604 64.92199097 -8.3581604 88.02199097 3.5418396 111.82199097 C9.40590922 111.82199097 9.85565042 111.15406831 13.85043335 107.21261597 C14.3396376 106.73056702 14.82884186 106.24851807 15.33287048 105.75186157 C16.36685342 104.7256579 17.39447832 103.69301383 18.41610718 102.6545105 C19.95226804 101.09939653 21.51498119 99.57550905 23.08285522 98.05245972 C32.10451922 89.10472749 38.73494685 79.36851239 38.8543396 66.25949097 C38.8406236 52.65016918 33.14397891 45.46640193 23.79107666 36.06149292 C21.82758047 34.11446737 19.85644643 32.17555591 17.88168335 30.23995972 C16.86159935 29.23853943 16.86159935 29.23853943 15.82090759 28.21688843 C12.98478757 25.43562899 10.14769484 22.65576415 7.29208374 19.89450073 C5.18553058 17.85430317 3.09505462 15.79874248 1.00668335 13.73995972 C0.35682968 13.11904953 -0.29302399 12.49813934 -0.96257019 11.8584137 C-5.30670769 7.54075063 -5.30670769 7.54075063 -6.04971313 4.01461792 C-5.13492289 0.62389104 -3.41781025 -0.2475026 0 0 Z " fill="#293437" transform="translate(345.4581604003906,290.1780090332031)"/>
<path d="M0 0 C2.98192882 2.2808341 5.71773544 4.7475124 8.43359375 7.33203125 C9.18608398 8.04359375 9.93857422 8.75515625 10.71386719 9.48828125 C13.30601604 11.95909548 15.87372632 14.45280268 18.43359375 16.95703125 C19.27164551 17.76865723 20.10969727 18.5802832 20.97314453 19.41650391 C30.31021582 28.73076011 30.31021582 28.73076011 30.5 35.80859375 C30.33371094 36.51757812 30.16742188 37.2265625 29.99609375 37.95703125 C29.85300781 38.67117187 29.70992188 39.3853125 29.5625 40.12109375 C26.84248023 45.44819129 20.92354183 48.34328037 15.7890625 50.94482422 C15.15408844 51.26902847 14.51911438 51.59323273 13.86489868 51.92726135 C11.78776917 52.98465518 9.70494189 54.03013506 7.62109375 55.07421875 C6.16418992 55.809105 4.70740471 56.54422644 3.25073242 57.27957153 C0.20741035 58.81316451 -2.83911107 60.34017791 -5.88769531 61.86328125 C-9.789774 63.81411669 -13.68035129 65.78679899 -17.5684967 67.76522636 C-20.56907428 69.28775806 -23.57681634 70.79568025 -26.58676147 72.29959488 C-28.02463226 73.02088663 -29.45991846 73.74735526 -30.89248657 74.47912216 C-32.89500277 75.50000437 -34.90667268 76.50005378 -36.921875 77.49560547 C-38.06293701 78.06898651 -39.20399902 78.64236755 -40.37963867 79.23312378 C-43.94889739 80.4639274 -45.95520664 80.27827845 -49.56640625 79.33203125 C-50.69140625 74.58203125 -50.69140625 74.58203125 -49.56640625 72.33203125 C-47.72836304 71.28366089 -47.72836304 71.28366089 -45.29443359 70.14794922 C-44.38553375 69.71934601 -43.47663391 69.2907428 -42.54019165 68.84915161 C-41.54595184 68.38717377 -40.55171204 67.92519592 -39.52734375 67.44921875 C-37.41336694 66.45228168 -35.29977225 65.45453399 -33.18652344 64.45605469 C-32.09110229 63.94022827 -30.99568115 63.42440186 -29.86706543 62.89294434 C-21.61709636 58.99145558 -13.4182947 54.98511309 -5.23291016 50.95019531 C-3.16924115 49.93707927 -1.10204554 48.93112137 0.96826172 47.93164062 C4.01481047 46.45962234 7.04923854 44.96495689 10.08203125 43.46484375 C11.01091156 43.02206085 11.93979187 42.57927795 12.89682007 42.12307739 C13.74346222 41.69848236 14.59010437 41.27388733 15.46240234 40.83642578 C16.20799408 40.47211456 16.95358582 40.10780334 17.72177124 39.73245239 C19.65065158 38.40192376 19.65065158 38.40192376 20.30821228 35.84945679 C20.70908869 33.09913851 20.70908869 33.09913851 18.41088867 30.54882812 C17.42833292 29.53336381 16.42797817 28.53493499 15.4140625 27.55078125 C14.88146317 27.01481323 14.34886383 26.47884521 13.80012512 25.92663574 C12.66641386 24.79322362 11.52519442 23.66727987 10.37719727 22.54833984 C8.64636244 20.85672733 6.94630936 19.13829987 5.24804688 17.4140625 C-2.48766882 9.68420987 -10.10730144 2.94591187 -21.56640625 2.33203125 C-22.33726562 2.28175781 -23.108125 2.23148438 -23.90234375 2.1796875 C-34.19834395 1.78368749 -42.7646098 5.30708261 -50.53253174 12.03489685 C-52.54587191 13.9673208 -54.51027802 15.93793019 -56.4609375 17.93359375 C-57.17497238 18.65187347 -57.88900726 19.3701532 -58.62467957 20.11019897 C-60.8832958 22.3854685 -63.13121098 24.67097776 -65.37890625 26.95703125 C-66.90620012 28.4993923 -68.43418873 30.04106573 -69.96289062 31.58203125 C-73.31725836 34.96574472 -76.66492585 38.35592448 -80.00666809 41.75210571 C-80.52138168 42.27348114 -81.03609528 42.79485657 -81.56640625 43.33203125 C-82.06254929 43.89103119 -82.55869232 44.45003113 -83.06987 45.02597046 C-85.39593281 47.0559777 -87.60749224 46.52929218 -90.56640625 46.33203125 C-91.50390625 43.83203125 -91.50390625 43.83203125 -91.56640625 40.33203125 C-86.6966769 32.84902534 -78.92023144 26.46543734 -72.62475586 20.15014648 C-70.76142399 18.27708823 -68.90906287 16.39360566 -67.05664062 14.50976562 C-48.58744287 -4.12460006 -24.76573324 -16.09584185 0 0 Z " fill="#293438" transform="translate(380.56640625,126.66796875)"/>
<path d="M0 0 C0.70021271 0.23087311 1.40042542 0.46174622 2.12185669 0.69961548 C4.41033642 1.4575453 6.6926333 2.23246298 8.97509766 3.00830078 C10.57283751 3.54247198 12.17087529 4.07575281 13.76919556 4.60818481 C17.10518503 5.72225933 20.43834426 6.84430493 23.76953125 7.97265625 C28.04274556 9.41980139 32.32110938 10.85093175 36.60149193 12.27671623 C39.89557252 13.37510513 43.18753355 14.47972858 46.47880936 15.58649063 C48.05642091 16.11660622 49.63452236 16.64526617 51.21311569 17.17245102 C53.41239442 17.90842778 55.6088598 18.65223763 57.8046875 19.3984375 C59.0551889 19.8203537 60.30569031 20.2422699 61.59408569 20.67697144 C64.51416016 21.82861328 64.51416016 21.82861328 66.51416016 23.82861328 C66.76416016 26.32861328 66.76416016 26.32861328 66.51416016 28.82861328 C65.85416016 29.48861328 65.19416016 30.14861328 64.51416016 30.82861328 C56.87311498 30.5271931 49.11953465 27.18299463 41.97290802 24.72803879 C39.92265813 24.02423126 37.86969639 23.32890846 35.81585693 22.63565063 C29.98462709 20.66562275 24.15875881 18.67993976 18.33398438 16.69091797 C14.75237242 15.4685209 11.16785229 14.25498659 7.58150482 13.04655838 C6.22321093 12.58677557 4.86609329 12.12350186 3.51023102 11.65659714 C1.61623685 11.00438883 -0.28190061 10.36425065 -2.18017578 9.72460938 C-3.2558783 9.35757904 -4.33158081 8.99054871 -5.43988037 8.61239624 C-8.58128182 7.80405426 -11.2567929 7.68177654 -14.48583984 7.82861328 C-14.58564691 13.03892601 -14.65774545 18.24866713 -14.70556641 23.4597168 C-14.72552746 25.22771921 -14.75270636 26.99565694 -14.78759766 28.76342773 C-15.04377233 42.08827819 -14.4732996 53.12447692 -5.54052734 63.82080078 C3.84923162 72.99634471 14.15814579 74.12333204 26.66650391 74.24267578 C27.92177383 74.26204193 29.17704376 74.28140808 30.47035217 74.30136108 C33.78617072 74.35083685 37.1018836 74.39218005 40.41784668 74.42950439 C43.81007637 74.46971599 47.20214234 74.52072949 50.59423828 74.57080078 C57.23410649 74.66663644 63.87404674 74.75174383 70.51416016 74.82861328 C71.70166016 77.07861328 71.70166016 77.07861328 72.51416016 79.82861328 C71.45835876 82.10975647 71.45835876 82.10975647 69.51416016 83.82861328 C67.18409729 84.32981873 67.18409729 84.32981873 64.40698242 84.33032227 C62.84373985 84.34439369 62.84373985 84.34439369 61.24891663 84.35874939 C60.12086105 84.34751541 58.99280548 84.33628143 57.83056641 84.32470703 C56.08174416 84.32688988 56.08174416 84.32688988 54.29759216 84.32911682 C51.82361359 84.32745464 49.34962502 84.31585798 46.87573242 84.29516602 C43.1225886 84.26646451 39.37087979 84.27450135 35.61767578 84.28759766 C33.20946588 84.2813522 30.80126042 84.27295499 28.39306641 84.26220703 C27.28322891 84.26514267 26.17339142 84.26807831 25.02992249 84.27110291 C10.40907539 84.097868 -1.54715082 80.18490103 -12.34130859 70.20361328 C-20.79104929 60.8457948 -23.7918181 50.95374018 -23.82177734 38.69580078 C-23.82843414 37.74093781 -23.83509094 36.78607483 -23.84194946 35.80227661 C-23.85203105 33.79365963 -23.85676788 31.78500945 -23.85644531 29.77636719 C-23.86083645 26.70598621 -23.89725275 23.63702339 -23.93505859 20.56689453 C-23.94092413 18.60986817 -23.94489528 16.65283502 -23.94677734 14.69580078 C-23.96114838 13.7811203 -23.97551941 12.86643982 -23.99032593 11.92404175 C-23.95998025 7.6929801 -23.87434963 5.44285605 -21.56640625 1.79394531 C-15.22442859 -4.19677519 -7.704925 -2.65832253 0 0 Z " fill="#2A3538" transform="translate(99.48583984375,214.17138671875)"/>
<path d="M0 0 C2 2 2 2 2.25244141 4.80419922 C0.52231058 9.21889952 -1.8311045 9.91568279 -6.0262146 11.83444214 C-7.02045441 12.26290436 -8.01469421 12.69136658 -9.0390625 13.1328125 C-11.15326535 14.0927638 -13.26685286 15.05407126 -15.37988281 16.01660156 C-16.47530396 16.50729126 -17.5707251 16.99798096 -18.69934082 17.50354004 C-27.00192287 21.26778255 -35.1576538 25.35162194 -43.33349609 29.38183594 C-45.3971651 30.39495198 -47.46436071 31.40090988 -49.53466797 32.40039062 C-52.58121672 33.87240891 -55.61564479 35.36707436 -58.6484375 36.8671875 C-59.57731781 37.3099704 -60.50619812 37.7527533 -61.46322632 38.20895386 C-62.30986847 38.63354889 -63.15651062 39.05814392 -64.02880859 39.49560547 C-64.77440033 39.85991669 -65.51999207 40.22422791 -66.28817749 40.59957886 C-68.22006088 41.93026175 -68.22006088 41.93026175 -68.86314392 44.49504089 C-69.27129944 47.18715203 -69.27129944 47.18715203 -67.16088867 49.58374023 C-65.80314331 50.93254272 -65.80314331 50.93254272 -64.41796875 52.30859375 C-63.92976151 52.797798 -63.44155426 53.28700226 -62.93855286 53.79103088 C-61.89888816 54.8260132 -60.85182733 55.85361057 -59.7980957 56.87426758 C-58.21404291 58.41173765 -56.65771785 59.97344286 -55.10351562 61.54101562 C-46.31074528 70.28316119 -37.23523844 77.71338002 -24.375 78.375 C-9.67331806 78.01642239 -0.16467666 70.51644251 9.67578125 60.51953125 C10.36762009 59.82486252 11.05945892 59.13019379 11.77226257 58.41447449 C13.9571348 56.21851711 16.13491336 54.01567974 18.3125 51.8125 C19.79184996 50.32310297 21.27166369 48.83416643 22.75195312 47.34570312 C25.99833489 44.07977689 29.24027176 40.80951382 32.47822571 37.53523254 C32.98041122 37.0286058 33.48259674 36.52197906 34 36 C34.50585129 35.43419724 35.01170258 34.86839447 35.53288269 34.28544617 C36.0170314 33.86124893 36.50118011 33.4370517 37 33 C41.42105263 33.42105263 41.42105263 33.42105263 43 35 C43.35788685 38.01232044 43.33753671 39.50774608 41.60015869 42.04148865 C40.94352234 42.70511917 40.28688599 43.36874969 39.61035156 44.05249023 C38.86827454 44.81355576 38.12619751 45.57462128 37.3616333 46.35874939 C36.54620056 47.16719803 35.73076782 47.97564667 34.890625 48.80859375 C34.05343933 49.65293472 33.21625366 50.4972757 32.35369873 51.36720276 C30.57424406 53.15444902 28.7883413 54.9352947 26.99658203 56.71020508 C24.28292899 59.40480224 21.59963536 62.12712987 18.91796875 64.85351562 C17.18145971 66.59031539 15.44322955 68.32539635 13.703125 70.05859375 C12.91198303 70.86501816 12.12084106 71.67144257 11.3057251 72.50230408 C1.08441753 82.51804249 -10.55016723 87.42842507 -24.79516602 87.36572266 C-41.25866554 86.95370993 -52.16686259 77.40833417 -63.25024414 66.3605957 C-64.94182252 64.68321376 -66.65833447 63.03437524 -68.37695312 61.38476562 C-78.602537 51.3759389 -78.602537 51.3759389 -79.2097168 45.06933594 C-78.80034051 41.02990236 -77.62281586 38.11191705 -75 35 C-72.25444942 32.83950407 -69.27857258 31.41903259 -66.125 29.9375 C-64.08723471 28.93099946 -62.04947484 27.92448792 -60.01171875 26.91796875 C-59.13843681 26.49410385 -59.13843681 26.49410385 -58.24751282 26.06167603 C-53.30946735 23.66444506 -48.41649863 21.18454211 -43.52960205 18.68482971 C-39.38519754 16.56506325 -35.23504022 14.45670702 -31.08416748 12.34963989 C-28.98905929 11.28457068 -26.89550425 10.21644062 -24.80352783 9.14523315 C-21.82150943 7.62133383 -18.831841 6.11356726 -15.83984375 4.609375 C-14.48630547 3.9118084 -14.48630547 3.9118084 -13.10542297 3.20014954 C-5.02547666 -0.82706998 -5.02547666 -0.82706998 0 0 Z " fill="#283337" transform="translate(180,308)"/>
<path d="M0 0 C1.11181641 -0.02513672 1.11181641 -0.02513672 2.24609375 -0.05078125 C5.50606899 0.46047962 6.91428339 1.24311678 9.5625 3.3125 C11.69535689 6.53501057 13.36627973 9.9675924 15.07421875 13.4296875 C15.59038254 14.4482785 16.10654633 15.46686951 16.63835144 16.5163269 C17.73357649 18.67947603 18.82320691 20.84546552 19.90765381 23.01403809 C21.5189434 26.2256824 23.15407839 29.42379668 24.79931641 32.61816406 C27.48133021 37.82760348 30.13602811 43.05021088 32.77661133 48.28076172 C33.85994475 50.42029145 34.94899724 52.55693323 36.04321289 54.69091797 C37.65283028 57.83164637 39.24428901 60.98098107 40.83203125 64.1328125 C41.32451859 65.08479523 41.81700592 66.03677795 42.32441711 67.01760864 C42.76625839 67.90399017 43.20809967 68.7903717 43.66333008 69.70361328 C44.05571365 70.47585236 44.44809723 71.24809143 44.85237122 72.04373169 C45.72730728 74.83903763 45.39470729 76.53385265 44.5625 79.3125 C43.5625 80.3125 43.5625 80.3125 40.5 80.375 C39.530625 80.354375 38.56125 80.33375 37.5625 80.3125 C37.29244644 79.74308182 37.02239288 79.17366364 36.74415588 78.58699036 C29.97515537 64.33164727 23.07372544 50.1485007 16.01586914 36.03393555 C14.46521176 32.93037309 12.92105636 29.82362448 11.37695312 26.71679688 C10.38580529 24.73157676 9.39428399 22.74654305 8.40234375 20.76171875 C7.944077 19.83799973 7.48581024 18.9142807 7.01365662 17.96257019 C6.58883499 17.11600357 6.16401337 16.26943695 5.72631836 15.3972168 C5.35534531 14.65384567 4.98437225 13.91047455 4.60215759 13.14457703 C3.57809574 11.15076466 3.57809574 11.15076466 1.5625 9.3125 C-2.63297584 9.46010264 -5.1075286 12.51493062 -7.90234375 15.30859375 C-8.67512413 16.06995384 -8.67512413 16.06995384 -9.46351624 16.84669495 C-10.55237311 17.92475464 -11.63728666 19.0068097 -12.71850586 20.0925293 C-14.35219308 21.72717964 -16.00586807 23.33941997 -17.66210938 24.95117188 C-26.41129658 33.60197331 -32.62328356 41.96969595 -32.8125 54.75 C-32.85605269 71.5386159 -22.86584824 80.91062151 -11.7578125 92.125 C-9.97091007 93.91739926 -8.18049312 95.70617359 -6.38769531 97.49267578 C-4.54112672 99.33381038 -2.70005973 101.18032862 -0.859375 103.02734375 C0.31999141 104.20605052 1.49966735 105.38444769 2.6796875 106.5625 C3.22656219 107.11139893 3.77343689 107.66029785 4.33688354 108.22583008 C6.65557836 110.53022972 8.83231558 112.49237705 11.5625 114.3125 C11.2325 116.6225 10.9025 118.9325 10.5625 121.3125 C8.10546875 121.81005859 8.10546875 121.81005859 4.5625 121.3125 C1.33109599 119.00577006 -1.35614828 116.18568164 -4.125 113.3515625 C-4.94572998 112.53182953 -5.76645996 111.71209656 -6.61206055 110.86752319 C-8.3472271 109.12767514 -10.07500913 107.38043582 -11.79589844 105.62646484 C-14.41055016 102.96493305 -17.05048019 100.33072324 -19.6953125 97.69921875 C-21.38179329 96.00157306 -23.06673888 94.30240062 -24.75 92.6015625 C-25.53141357 91.82197174 -26.31282715 91.04238098 -27.11791992 90.23916626 C-36.77135396 80.33736386 -42.3293892 69.80258371 -42.8125 55.8125 C-42.26857039 40.06120518 -35.11598652 29.28808544 -24.4375 18.3125 C-23.80859863 17.66313477 -23.17969727 17.01376953 -22.53173828 16.34472656 C-20.40527623 14.15816128 -18.26766447 11.98318578 -16.125 9.8125 C-15.43100098 9.10528809 -14.73700195 8.39807617 -14.02197266 7.66943359 C-13.02689697 6.67290771 -13.02689697 6.67290771 -12.01171875 5.65625 C-11.41963623 5.06005859 -10.82755371 4.46386719 -10.2175293 3.84960938 C-6.99408635 1.06606846 -4.23564503 0.02202242 0 0 Z " fill="#283337" transform="translate(160.4375,102.6875)"/>
<path d="M0 0 C3 0.125 3 0.125 4 1.125 C4.11480277 2.93791956 4.15964942 4.75530937 4.17700195 6.57177734 C4.19625481 8.32027481 4.19625481 8.32027481 4.21589661 10.10409546 C4.22328354 11.37685333 4.23067047 12.64961121 4.23828125 13.9609375 C4.246353 15.26519684 4.25442474 16.56945618 4.26274109 17.91323853 C4.277795 20.68581005 4.28761563 23.45835578 4.29516602 26.23095703 C4.30614806 29.75568907 4.34043802 33.27977525 4.38033772 36.80428123 C4.41306151 40.18980508 4.41730793 43.57526788 4.42578125 46.9609375 C4.44328934 48.21345306 4.46079742 49.46596863 4.47883606 50.75643921 C4.44615836 64.12864988 0.19754686 74.3022425 -8.84375 84.12890625 C-18.40614245 93.20142203 -30.85292612 96.42226637 -43.7265625 96.4609375 C-44.51847992 96.4675943 -45.31039734 96.4742511 -46.12631226 96.48110962 C-47.78503117 96.49115081 -49.44378979 96.49592932 -51.10253906 96.49560547 C-53.62632601 96.50000231 -56.14839347 96.53647437 -58.671875 96.57421875 C-60.29426493 96.58008428 -61.91666306 96.58405544 -63.5390625 96.5859375 C-64.28402985 96.60030853 -65.02899719 96.61467957 -65.79653931 96.62948608 C-71.27453002 96.58209017 -74.52620079 95.33447998 -79 92.125 C-81.8194058 87.59855082 -81.62378461 83.2969827 -81 78.125 C-79.66127882 72.71406231 -77.90250194 67.46994427 -76.109375 62.1953125 C-75.60232788 60.67251098 -75.09626151 59.14938258 -74.59112549 57.62594604 C-73.53463716 54.45079299 -72.46779267 51.2793764 -71.39306641 48.11035156 C-70.01834535 44.05459265 -68.66801193 39.99120848 -67.32500839 35.92485237 C-66.28558091 32.78541632 -65.23447302 29.64999061 -64.17969513 26.51568222 C-63.67719626 25.01852354 -63.17806706 23.52022939 -62.68242645 22.02078629 C-61.98841969 19.92783593 -61.27909331 17.84071064 -60.56542969 15.75439453 C-60.1657196 14.56766144 -59.76600952 13.38092834 -59.35418701 12.15823364 C-57.95634966 9.02722792 -56.66037869 7.26366721 -54 5.125 C-51.875 5.125 -51.875 5.125 -50 6.125 C-48.72558594 7.66845703 -48.72558594 7.66845703 -48 10.125 C-48.69775167 13.02775299 -49.49819889 15.64004325 -50.515625 18.4296875 C-50.80253708 19.25367035 -51.08944916 20.0776532 -51.38505554 20.92660522 C-52.00455424 22.70001759 -52.63092338 24.47104174 -53.26339722 26.23986816 C-54.25277348 29.00775913 -55.22378009 31.78146007 -56.18969727 34.55761719 C-57.49194386 38.29623644 -58.80052629 42.03251807 -60.11572266 45.76660156 C-62.53923882 52.65157317 -64.93893867 59.54409418 -67.28283691 66.456604 C-67.92563517 68.34023183 -68.58329064 70.21876857 -69.24121094 72.09716797 C-69.62438477 73.22525879 -70.00755859 74.35334961 -70.40234375 75.515625 C-70.73741943 76.48532227 -71.07249512 77.45501953 -71.41772461 78.45410156 C-72.05562409 81.38014783 -71.79842388 83.26406234 -71 86.125 C-65.66561134 86.24986865 -60.33209842 86.33992871 -54.99658203 86.3996582 C-53.18686071 86.42459214 -51.37723786 86.45855243 -49.56787109 86.50219727 C-37.35251688 86.78918044 -26.89403718 86.41830509 -16.625 78.875 C-6.87001489 68.65549178 -4.5610418 58.65274621 -4.5234375 44.8125 C-4.50785797 43.56243164 -4.49227844 42.31236328 -4.47622681 41.02441406 C-4.43695168 37.73035158 -4.40948407 34.4364953 -4.38873291 31.14227295 C-4.3569575 26.47467769 -4.30570087 21.80728409 -4.25234985 17.13989258 C-4.22506453 14.65932072 -4.20373898 12.17867506 -4.18881226 9.69799805 C-4.17855011 8.58593994 -4.16828796 7.47388184 -4.15771484 6.328125 C-4.14797134 4.85327637 -4.14797134 4.85327637 -4.13803101 3.34863281 C-3.924288 -0.09469468 -3.51989195 0.14666216 0 0 Z " fill="#283338" transform="translate(292,341.875)"/>
<path d="M0 0 C7.35489734 -0.09333035 14.70966372 -0.16408039 22.06503677 -0.20724869 C25.48172407 -0.22798401 28.89800158 -0.25603762 32.31445312 -0.30175781 C36.25645777 -0.35417147 40.19830569 -0.37306136 44.140625 -0.390625 C45.95074066 -0.42159271 45.95074066 -0.42159271 47.79742432 -0.45318604 C59.6885036 -0.45628229 69.64957545 2.56668377 79 10 C79.61488281 10.47824219 80.22976563 10.95648438 80.86328125 11.44921875 C87.50974742 17.29987744 93.5335393 28.09213462 94.14044189 37.07981873 C94.1472699 37.81974564 94.1540979 38.55967255 94.16113281 39.32202148 C94.17074036 40.16647324 94.1803479 41.01092499 94.19024658 41.88096619 C94.19449646 42.78520828 94.19874634 43.68945038 94.203125 44.62109375 C94.20882507 45.55800552 94.21452515 46.4949173 94.22039795 47.46022034 C94.2298331 49.439696 94.23637602 51.41918726 94.24023438 53.39868164 C94.2499533 56.42296713 94.28099612 59.44657664 94.3125 62.47070312 C94.31902921 64.39582931 94.32428 66.32096034 94.328125 68.24609375 C94.3404718 69.14831161 94.3528186 70.05052948 94.36553955 70.98008728 C94.34845727 75.80465557 94.18509878 79.10946713 91 83 C86.85609422 85.9599327 83.84127356 86.21846468 78.86468506 85.57321167 C72.46287811 84.29223649 66.30681668 82.03142076 60.1328125 79.94140625 C58.60608517 79.43130307 57.07913413 78.92186898 55.55197144 78.41307068 C52.36803563 77.35020225 49.18619375 76.2813592 46.00585938 75.20776367 C41.93017233 73.83213883 37.85059155 72.46852932 33.76953316 71.10893345 C30.62337493 70.05994229 27.47880133 69.00627022 24.3347435 67.95100212 C22.83040223 67.44637583 21.32569667 66.94283419 19.82062149 66.44040108 C17.72277444 65.7389514 15.62700894 65.03161228 13.53173828 64.32250977 C12.33976837 63.92137466 11.14779846 63.52023956 9.91970825 63.10694885 C7 62 7 62 4 60 C3.6875 57.5 3.6875 57.5 4 55 C4.66 54.34 5.32 53.68 6 53 C10.84957128 53.36608344 15.1862018 54.57172206 19.77392578 56.13305664 C20.41065216 56.34778122 21.04737854 56.5625058 21.70339966 56.78373718 C23.07324371 57.24649945 24.44216056 57.71201396 25.810215 58.18004036 C27.97768346 58.92122579 30.14771262 59.65441814 32.318573 60.38560486 C37.70524613 62.20156366 43.08782333 64.0295247 48.46960449 65.85992432 C53.0288534 67.410402 57.59002565 68.95492704 62.15417099 70.49093437 C64.28828525 71.21183746 66.4192759 71.94149279 68.55032349 72.67140198 C69.86168052 73.11351096 71.17318604 73.55517984 72.48486328 73.99633789 C73.6251297 74.38414932 74.76539612 74.77196075 75.94021606 75.17152405 C78.81388814 75.94960781 81.04541297 76.25734715 84 76 C86.80940989 73.19059011 85.32298672 63.3128133 85.35009766 59.34838867 C85.36651618 57.59402063 85.39361514 55.83971544 85.43212891 54.08569336 C85.71874311 40.95751649 84.75180627 30.75898943 76.3125 20.0625 C72.15173925 15.72083661 67.56608731 13.17234442 62 11 C61.21665283 10.6503418 60.43330566 10.30068359 59.6262207 9.94042969 C54.23998735 8.5435556 49.02484447 8.85662195 43.48828125 8.98046875 C41.01498413 9.01061238 38.54167625 9.03988324 36.06835938 9.06835938 C32.17701462 9.12430562 28.28620621 9.18803587 24.39526367 9.26733398 C20.63454456 9.3396236 16.87449004 9.38099794 13.11328125 9.41796875 C11.94452957 9.45004929 10.77577789 9.48212982 9.5716095 9.5151825 C8.49006088 9.52201553 7.40851227 9.52884857 6.29418945 9.53588867 C4.86572441 9.56159187 4.86572441 9.56159187 3.40840149 9.58781433 C1 9 1 9 -0.95588684 6.71650696 C-2 4 -2 4 -1.1875 1.6875 C-0.795625 1.130625 -0.40375 0.57375 0 0 Z " fill="#273237" transform="translate(342,217)"/>
<path d="M0 0 C1.32885475 -0.0099852 1.32885475 -0.0099852 2.68455505 -0.02017212 C4.54773903 -0.03024899 6.41095873 -0.03499069 8.27416992 -0.03466797 C11.11632597 -0.03905514 13.95694476 -0.07546478 16.79882812 -0.11328125 C18.61588015 -0.11914778 20.43293948 -0.12311827 22.25 -0.125 C23.09389786 -0.13937103 23.93779572 -0.15374207 24.80726624 -0.16854858 C30.19788175 -0.12697213 33.30156401 0.72255006 37.55859375 4.3359375 C40.49006242 8.73314051 40.19919794 12.16337547 39.55859375 17.3359375 C38.11847324 23.0035344 36.24284384 28.49977693 34.34375 34.02734375 C33.80683141 35.62450115 33.27116134 37.22207875 32.73667908 38.8200531 C31.61999353 42.14886267 30.49382448 45.47423877 29.35961914 48.79711914 C27.90333589 53.06359397 26.46287928 57.33518919 25.02835941 61.609025 C23.65901897 65.68755148 22.28340467 69.76395014 20.90625 73.83984375 C20.5116241 75.00898913 20.5116241 75.00898913 20.10902596 76.20175362 C19.36783318 78.3929201 18.62235141 80.58257266 17.87524414 82.77172852 C17.23903893 84.64176292 17.23903893 84.64176292 16.58998108 86.54957581 C15.55859375 89.3359375 15.55859375 89.3359375 14.55859375 90.3359375 C12.55901011 90.37674533 10.55814121 90.37848106 8.55859375 90.3359375 C7.43508911 88.7734375 7.43508911 88.7734375 6.55859375 86.3359375 C7.08007833 83.85730173 7.69399926 81.70463619 8.53466797 79.3359375 C8.76846161 78.63952148 9.00225525 77.94310547 9.24313354 77.22558594 C10.01941386 74.92410735 10.81642702 72.63036494 11.61328125 70.3359375 C12.15570525 68.73748049 12.6966295 67.13851383 13.2361145 65.5390625 C14.66022661 61.32759891 16.10118138 57.12210788 17.54675293 52.91796875 C19.85757779 46.19001728 22.14528671 39.45421056 24.42834854 32.71679688 C25.22882257 30.36374201 26.03790731 28.01378123 26.84811401 25.6640625 C27.34022538 24.22143575 27.83210975 22.77873153 28.32373047 21.3359375 C28.55129028 20.68334961 28.7788501 20.03076172 29.01330566 19.35839844 C30.11221092 16.10971486 30.55859375 13.82650746 30.55859375 10.3359375 C27.48613303 8.79970714 24.24884196 9.131216 20.875 9.09765625 C19.71979103 9.08554863 19.71979103 9.08554863 18.54124451 9.07319641 C16.90455375 9.05934724 15.26783401 9.04862882 13.63110352 9.04077148 C11.97378959 9.02932617 10.31651031 9.00899442 8.65942383 8.97924805 C-4.36445177 8.74548953 -15.02245958 9.63199378 -25.4375 18.3515625 C-33.62653123 26.46077861 -36.7494092 35.56884677 -36.88246155 46.88156128 C-36.88257736 48.08080231 -36.88269318 49.28004333 -36.8828125 50.515625 C-36.89602036 51.76473663 -36.90922821 53.01384827 -36.9228363 54.30081177 C-36.95667749 57.59780748 -36.97915971 60.89458493 -36.99438477 64.19171143 C-37.01638062 68.85638446 -37.04894173 73.52083999 -37.09568787 78.18533325 C-37.12011852 80.66480873 -37.13491702 83.14440096 -37.13929749 85.62399292 C-37.1494841 86.73920319 -37.15967072 87.85441345 -37.17016602 89.00341797 C-37.17444107 89.98744598 -37.17871613 90.971474 -37.18312073 91.98532104 C-37.44140625 94.3359375 -37.44140625 94.3359375 -39.44140625 96.3359375 C-43.99696181 95.78038194 -43.99696181 95.78038194 -45.44140625 94.3359375 C-45.55614294 92.55365853 -45.60104858 90.76684098 -45.6184082 88.98095703 C-45.63124344 87.83531281 -45.64407867 86.68966858 -45.65730286 85.50930786 C-45.66468979 84.25842377 -45.67207672 83.00753967 -45.6796875 81.71875 C-45.68775925 80.43668671 -45.69583099 79.15462341 -45.70414734 77.83370972 C-45.71920131 75.10821666 -45.72902181 72.38274986 -45.73657227 69.65722656 C-45.74755247 66.19302347 -45.78184005 62.72947786 -45.82174397 59.26550484 C-45.85447525 55.93744872 -45.85871486 52.60945447 -45.8671875 49.28125 C-45.88469559 48.05060822 -45.90220367 46.81996643 -45.92024231 45.55203247 C-45.8866936 32.05297854 -41.29640714 21.63349932 -32.31640625 11.6484375 C-23.4946693 3.21877775 -11.84573072 0.03131636 0 0 Z " fill="#273338" transform="translate(261.44140625,76.6640625)"/>
<path d="M0 0 C3 0.125 3 0.125 4 1.125 C4.07313567 3.65549402 4.09247527 6.15804837 4.0625 8.6875 C4.05798828 9.39841797 4.05347656 10.10933594 4.04882812 10.84179688 C4.03700864 12.60290013 4.01907263 14.36396036 4 16.125 C5.07121094 16.11339844 6.14242187 16.10179687 7.24609375 16.08984375 C8.64322743 16.08046701 10.04036299 16.07136669 11.4375 16.0625 C12.14455078 16.05412109 12.85160156 16.04574219 13.58007812 16.03710938 C15.38693559 16.02846412 17.19387603 16.07279989 19 16.125 C20 17.125 20 17.125 20.1875 20.0625 C20 23.125 20 23.125 18 25.125 C14.7421875 25.3203125 14.7421875 25.3203125 10.875 25.25 C8.95300781 25.22292969 8.95300781 25.22292969 6.9921875 25.1953125 C6.00476563 25.17210937 5.01734375 25.14890625 4 25.125 C4.02320312 26.11242187 4.04640625 27.09984375 4.0703125 28.1171875 C4.09738281 30.03917969 4.09738281 30.03917969 4.125 32 C4.14820312 33.27617187 4.17140625 34.55234375 4.1953125 35.8671875 C4 39.125 4 39.125 2 41.125 C-2.55555556 40.56944444 -2.55555556 40.56944444 -4 39.125 C-4.07271741 36.77186445 -4.08370868 34.41666332 -4.0625 32.0625 C-4.05347656 30.77214844 -4.04445313 29.48179687 -4.03515625 28.15234375 C-4.02355469 27.15332031 -4.01195313 26.15429688 -4 25.125 C-4.98742187 25.14820313 -5.97484375 25.17140625 -6.9921875 25.1953125 C-8.27351563 25.21335937 -9.55484375 25.23140625 -10.875 25.25 C-12.15117188 25.27320313 -13.42734375 25.29640625 -14.7421875 25.3203125 C-18 25.125 -18 25.125 -20 23.125 C-20.1875 20.0625 -20.1875 20.0625 -20 17.125 C-19 16.125 -19 16.125 -15.62109375 16.02734375 C-14.22652923 16.03401631 -12.83198257 16.04597468 -11.4375 16.0625 C-10.72658203 16.06701172 -10.01566406 16.07152344 -9.28320312 16.07617188 C-7.52209987 16.08799136 -5.76103964 16.10592737 -4 16.125 C-4.01160156 15.05378906 -4.02320312 13.98257812 -4.03515625 12.87890625 C-4.04453299 11.48177257 -4.05363331 10.08463701 -4.0625 8.6875 C-4.07506836 7.62692383 -4.07506836 7.62692383 -4.08789062 6.54492188 C-4.09653588 4.73806441 -4.05220011 2.93112397 -4 1.125 C-3 0.125 -3 0.125 0 0 Z " fill="#253237" transform="translate(108,436.875)"/>
<path d="M0 0 C3 0.125 3 0.125 4 1.125 C4.07313567 3.65549402 4.09247527 6.15804837 4.0625 8.6875 C4.05798828 9.39841797 4.05347656 10.10933594 4.04882812 10.84179688 C4.03700864 12.60290013 4.01907263 14.36396036 4 16.125 C5.07121094 16.11339844 6.14242187 16.10179687 7.24609375 16.08984375 C8.64322743 16.08046701 10.04036299 16.07136669 11.4375 16.0625 C12.14455078 16.05412109 12.85160156 16.04574219 13.58007812 16.03710938 C15.38693559 16.02846412 17.19387603 16.07279989 19 16.125 C20 17.125 20 17.125 20.1875 20.0625 C20 23.125 20 23.125 18 25.125 C14.7421875 25.3203125 14.7421875 25.3203125 10.875 25.25 C8.95300781 25.22292969 8.95300781 25.22292969 6.9921875 25.1953125 C6.00476563 25.17210937 5.01734375 25.14890625 4 25.125 C4.02320312 26.11242187 4.04640625 27.09984375 4.0703125 28.1171875 C4.09738281 30.03917969 4.09738281 30.03917969 4.125 32 C4.14820312 33.27617187 4.17140625 34.55234375 4.1953125 35.8671875 C4 39.125 4 39.125 2 41.125 C-2.55555556 40.56944444 -2.55555556 40.56944444 -4 39.125 C-4.07271741 36.77186445 -4.08370868 34.41666332 -4.0625 32.0625 C-4.05347656 30.77214844 -4.04445313 29.48179687 -4.03515625 28.15234375 C-4.02355469 27.15332031 -4.01195312 26.15429688 -4 25.125 C-4.98742188 25.14820313 -5.97484375 25.17140625 -6.9921875 25.1953125 C-8.27351563 25.21335937 -9.55484375 25.23140625 -10.875 25.25 C-12.15117188 25.27320313 -13.42734375 25.29640625 -14.7421875 25.3203125 C-18 25.125 -18 25.125 -20 23.125 C-20.1875 20.0625 -20.1875 20.0625 -20 17.125 C-19 16.125 -19 16.125 -15.62109375 16.02734375 C-14.22652923 16.03401631 -12.83198257 16.04597468 -11.4375 16.0625 C-10.72658203 16.06701172 -10.01566406 16.07152344 -9.28320312 16.07617188 C-7.52209987 16.08799136 -5.76103964 16.10592737 -4 16.125 C-4.01160156 15.05378906 -4.02320313 13.98257812 -4.03515625 12.87890625 C-4.04453299 11.48177257 -4.05363331 10.08463701 -4.0625 8.6875 C-4.07506836 7.62692383 -4.07506836 7.62692383 -4.08789062 6.54492188 C-4.09653588 4.73806441 -4.05220011 2.93112397 -4 1.125 C-3 0.125 -3 0.125 0 0 Z " fill="#253237" transform="translate(56,380.875)"/>
<path d="M0 0 C1.27875 0.00257813 2.5575 0.00515625 3.875 0.0078125 C5.15375 0.00523437 6.4325 0.00265625 7.75 0 C10.875 0.1328125 10.875 0.1328125 11.875 1.1328125 C12.0625 4.0703125 12.0625 4.0703125 11.875 7.1328125 C9.875 9.1328125 9.875 9.1328125 7.125 9.3984375 C6.0525 9.39328125 4.98 9.388125 3.875 9.3828125 C2.26625 9.39054687 2.26625 9.39054687 0.625 9.3984375 C-2.125 9.1328125 -2.125 9.1328125 -4.125 7.1328125 C-4.3125 4.0703125 -4.3125 4.0703125 -4.125 1.1328125 C-3.125 0.1328125 -3.125 0.1328125 0 0 Z " fill="#253237" transform="translate(232.125,476.8671875)"/>
<path d="M0 0 C1.27875 0.00257812 2.5575 0.00515625 3.875 0.0078125 C5.15375 0.00523438 6.4325 0.00265625 7.75 0 C10.875 0.1328125 10.875 0.1328125 11.875 1.1328125 C12.0625 4.0703125 12.0625 4.0703125 11.875 7.1328125 C9.875 9.1328125 9.875 9.1328125 7.125 9.3984375 C6.0525 9.39328125 4.98 9.388125 3.875 9.3828125 C2.26625 9.39054687 2.26625 9.39054687 0.625 9.3984375 C-2.125 9.1328125 -2.125 9.1328125 -4.125 7.1328125 C-4.3125 4.0703125 -4.3125 4.0703125 -4.125 1.1328125 C-3.125 0.1328125 -3.125 0.1328125 0 0 Z " fill="#253237" transform="translate(272.125,28.8671875)"/>
</svg>
