<?xml version="1.0" encoding="UTF-8"?>
<svg version="1.1" xmlns="http://www.w3.org/2000/svg" width="512" height="512">
<path d="M0 0 C9.99452155 8.63211124 18.68615678 17.83513663 26.3125 28.625 C26.84093506 28.42342285 27.36937012 28.2218457 27.91381836 28.01416016 C30.35684555 27.08640133 32.80335551 26.16817485 35.25 25.25 C36.08080078 24.93289062 36.91160156 24.61578125 37.76757812 24.2890625 C60.84401921 15.66906894 85.72109247 16.97080859 108.3125 26.625 C117.82019464 31.20989526 125.80132508 37.22074572 133.3125 44.625 C133.99570312 45.23601562 134.67890625 45.84703125 135.3828125 46.4765625 C149.90541097 59.86013364 159.39984192 81.42572018 160.4387207 101.00366211 C161.19396054 126.43966019 156.05584557 149.48677617 138.75 169 C137.27834979 170.54884337 135.79986437 172.09124077 134.3125 173.625 C133.52166016 174.52605469 133.52166016 174.52605469 132.71484375 175.4453125 C118.8782606 190.6620152 96.54225147 199.56723522 76.3125 200.625 C58.45575072 201.38084124 42.68408593 197.36814826 26.3125 190.625 C25.66925781 191.48480469 25.02601563 192.34460938 24.36328125 193.23046875 C3.25573641 221.01982369 -24.50029809 240.43826429 -58.6875 248.625 C-60.43160156 249.07359375 -60.43160156 249.07359375 -62.2109375 249.53125 C-81.73208336 253.80768763 -105.36139337 253.7993942 -124.6875 248.625 C-125.86046631 248.32698486 -125.86046631 248.32698486 -127.05712891 248.02294922 C-139.0572309 244.92487609 -149.8849797 240.67274302 -160.6875 234.625 C-161.31994629 234.28098145 -161.95239258 233.93696289 -162.60400391 233.58251953 C-172.68915792 228.06820514 -181.27275162 221.43211884 -189.6875 213.625 C-190.59371094 212.7896875 -191.49992188 211.954375 -192.43359375 211.09375 C-198.94886618 204.83258336 -204.34343991 197.87927731 -209.6875 190.625 C-210.21593506 190.82657715 -210.74437012 191.0281543 -211.28881836 191.23583984 C-213.73184555 192.16359867 -216.17835551 193.08182515 -218.625 194 C-219.45580078 194.31710937 -220.28660156 194.63421875 -221.14257812 194.9609375 C-244.61194589 203.72770523 -268.95603173 201.93298664 -291.87890625 192.28125 C-314.9554086 181.45003638 -331.05939805 162.26211531 -339.6875 138.625 C-347.70227855 113.85776276 -344.40609461 88.50062206 -333.12890625 65.4375 C-328.75176429 57.37600114 -323.03130608 51.14000324 -316.6875 44.625 C-316.12675781 43.97917969 -315.56601562 43.33335937 -314.98828125 42.66796875 C-303.83864129 30.17217803 -284.99598162 22.0920984 -268.6875 19.625 C-268.00042969 19.51542969 -267.31335938 19.40585938 -266.60546875 19.29296875 C-246.5429057 16.58181158 -228.11932395 21.03327845 -209.6875 28.625 C-209.04425781 27.76519531 -208.40101563 26.90539062 -207.73828125 26.01953125 C-186.72192889 -1.64976329 -159.38783763 -20.49112387 -125.6875 -29.375 C-124.49125 -29.69597656 -123.295 -30.01695313 -122.0625 -30.34765625 C-79.58384136 -39.70514765 -33.13888344 -27.86555971 0 0 Z " fill="#000101" transform="translate(347.6875,146.375)"/>
<path d="M0 0 C1.41442383 -0.01836914 1.41442383 -0.01836914 2.85742188 -0.03710938 C23.1564957 -0.07896314 41.14071464 8.56162528 55.6640625 22.43359375 C69.94719354 37.37934427 77.05440385 56.83163923 76.65234375 77.40625 C75.63297354 97.9459253 65.73823717 116.63288808 50.875 130.5 C33.25473378 145.43759593 11.86300851 149.9476552 -10.6875 148.1875 C-30.26233567 145.26646404 -46.40108313 133.64289552 -58.5 118.4375 C-70.45411932 101.66702044 -75.09918528 82.51971086 -72.41064453 62.08300781 C-69.86955541 47.68710716 -62.47275811 33.9132635 -52.6875 23.1875 C-52.17058594 22.5790625 -51.65367187 21.970625 -51.12109375 21.34375 C-38.25182764 7.1520781 -18.72317911 0.01254064 0 0 Z " fill="#FDD200" transform="translate(415.6875,181.8125)"/>
<path d="M0 0 C3.53714557 2.46822795 6.79396193 5.11803798 10 8 C10.61101562 8.51820313 11.22203125 9.03640625 11.8515625 9.5703125 C24.87519047 21.40456805 33.36233318 40.40253294 34.3203125 57.74609375 C35.02765063 78.92343048 28.36942974 98.24945942 14 114 C13.48308594 114.6084375 12.96617187 115.216875 12.43359375 115.84375 C1.21639391 128.21359443 -16.71299075 136.03358016 -33.26660156 137.15332031 C-46.12022757 137.75423099 -57.07929583 136.93506216 -69 132 C-69.9178125 131.62746094 -70.835625 131.25492188 -71.78125 130.87109375 C-88.18032551 123.42404522 -101.85933207 109.50821463 -109 93 C-116.28360686 73.18314201 -117.76826033 53.41093976 -109.234375 33.79296875 C-100.04924833 13.9388575 -84.78715013 -0.30668998 -64.23828125 -7.95703125 C-42.72412392 -14.88619893 -19.22945818 -11.70902651 0 0 Z " fill="#FCD200" transform="translate(135,193)"/>
<path d="M0 0 C4.55857045 2.94530581 5.89085376 5.427868 7.35546875 10.59375 C7.55375778 11.27739624 7.75204681 11.96104248 7.9563446 12.66540527 C8.65678421 15.10521785 9.32809085 17.55218187 10 20 C10.56777186 22.01713842 11.13633999 24.03405282 11.70556641 26.05078125 C13.28679589 31.68726555 14.82989947 37.33344995 16.35864258 42.984375 C17.31886985 46.5234773 18.29319342 50.05852312 19.26757812 53.59375 C19.88368335 55.86434722 20.49894817 58.13517267 21.11328125 60.40625 C21.40382889 61.45220337 21.69437653 62.49815674 21.99372864 63.57580566 C23.80406492 70.35265231 25.40805007 76.51339983 22.6875 83.25 C16.2750205 89.81160693 4.70427343 91.32810641 -3.9375 93.671875 C-5.13882568 93.99915588 -6.34015137 94.32643677 -7.57788086 94.66363525 C-10.10164682 95.34860006 -12.62615563 96.03083316 -15.15136719 96.71044922 C-18.99271093 97.74803116 -22.82826219 98.8054172 -26.6640625 99.86328125 C-29.12987653 100.52987442 -31.59601219 101.19527924 -34.0625 101.859375 C-35.1961499 102.17493347 -36.3297998 102.49049194 -37.49780273 102.81561279 C-45.1107945 104.83250436 -53.63100372 107.05075336 -61.0625 103.5625 C-63.81702693 99.91941599 -64.81309034 96.55592302 -65 92 C-64.17274405 89.20801118 -63.41731028 87.45959345 -62 85 C-61.49082031 84.04996094 -60.98164063 83.09992188 -60.45703125 82.12109375 C-58.99428773 79.40059927 -57.50664523 76.69635861 -56 74 C-82.87187226 64.73383715 -107.42225244 62.26748081 -134 74 C-135.77729081 74.92519961 -137.54865852 75.86191062 -139.3125 76.8125 C-143.92245804 79.17351579 -146.84678264 79.7729826 -152 79 C-155.13180809 77.37609951 -157.24339744 75.99733974 -159.375 73.1875 C-160.80678589 68.17624939 -160.4406123 64.33401648 -158.0625 59.75 C-143.8180972 36.15645395 -119.87339425 19.43268594 -93.30859375 12.70703125 C-71.07566032 7.95595575 -43.48286479 7.53808603 -23 19 C-22.72800781 18.27941406 -22.45601562 17.55882813 -22.17578125 16.81640625 C-17.8528238 6.46141516 -12.48964021 -2.65404854 0 0 Z " fill="#000100" transform="translate(324,0)"/>
<path d="M0 0 C2.75452693 3.64308401 3.75059034 7.00657698 3.9375 11.5625 C3.11024405 14.35448882 2.35481028 16.10290655 0.9375 18.5625 C0.42832031 19.51253906 -0.08085937 20.46257812 -0.60546875 21.44140625 C-2.06821227 24.16190073 -3.55585477 26.86614139 -5.0625 29.5625 C22.4325031 39.04353555 48.08654902 41.47866307 74.9375 28.5625 C76.35592666 27.79491009 77.77278066 27.02440149 79.1875 26.25 C83.35024971 24.13407951 86.28825147 23.96259696 90.9375 24.5625 C94.06930809 26.18640049 96.18089744 27.56516026 98.3125 30.375 C99.74428589 35.38625061 99.3781123 39.22848352 97 43.8125 C82.7555972 67.40604605 58.81089425 84.12981406 32.24609375 90.85546875 C8.10040505 96.01529125 -15.24099155 94.0240083 -38.0625 84.5625 C-38.33449219 85.28308594 -38.60648438 86.00367188 -38.88671875 86.74609375 C-41.4459202 92.87627397 -44.93955926 100.50102963 -51.0625 103.5625 C-55.75801908 104.29325959 -59.48719395 104.58168945 -63.5715332 101.93920898 C-66.60107095 99.04863269 -67.27476359 97.01907246 -68.41796875 93.00390625 C-68.61625778 92.32139297 -68.81454681 91.6388797 -69.0188446 90.9356842 C-69.72189064 88.48359114 -70.39308663 86.02398349 -71.0625 83.5625 C-71.33467346 82.57965027 -71.60684692 81.59680054 -71.88726807 80.58416748 C-73.7744369 73.76585302 -75.61137613 66.93518639 -77.42114258 60.09594727 C-78.38198594 56.47366371 -79.35589317 52.85504322 -80.33007812 49.23632812 C-80.94611316 46.91687917 -81.56137571 44.59722488 -82.17578125 42.27734375 C-82.46632889 41.20435532 -82.75687653 40.13136688 -83.05622864 39.02586365 C-86.31095236 26.59445573 -86.31095236 26.59445573 -83.75 20.375 C-77.40580964 13.73573102 -65.76770451 12.23464611 -57.125 9.890625 C-55.92367432 9.56334412 -54.72234863 9.23606323 -53.48461914 8.89886475 C-50.96085318 8.21389994 -48.43634437 7.53166684 -45.91113281 6.85205078 C-42.06978907 5.81446884 -38.23423781 4.7570828 -34.3984375 3.69921875 C-31.93262347 3.03262558 -29.46648781 2.36722076 -27 1.703125 C-25.8663501 1.38756653 -24.7327002 1.07200806 -23.56469727 0.74688721 C-15.9517055 -1.27000436 -7.43149628 -3.48825336 0 0 Z " fill="#000100" transform="translate(249.0625,408.4375)"/>
<path d="M0 0 C3.29129285 2.21185475 6.02715571 4.6690619 8.6875 7.625 C9.863125 8.800625 9.863125 8.800625 11.0625 10 C12.6875 12.625 12.6875 12.625 12.625 16.25 C11.2875 21.065 11.2875 21.065 8.6875 22.625 C5.5 23.8125 5.5 23.8125 1.6875 23.625 C-0.53237748 21.82245948 -2.35864716 19.81842605 -4.28515625 17.70703125 C-8.67162087 13.20224195 -13.19221546 11.42123071 -19.4375 11.1875 C-25.94457941 11.47648209 -30.6298314 14.18246825 -35.3125 18.625 C-37.12122931 21.21386804 -38.74823341 23.88254113 -40.3125 26.625 C-39.27609375 26.56699219 -38.2396875 26.50898438 -37.171875 26.44921875 C-35.80212844 26.40230962 -34.43233308 26.35681068 -33.0625 26.3125 C-32.38058594 26.27060547 -31.69867188 26.22871094 -30.99609375 26.18554688 C-27.20866012 26.09361887 -25.65178966 26.31082311 -22.83203125 28.921875 C-21.3125 31.625 -21.3125 31.625 -21.25 35.1875 C-22.5555702 39.41140358 -23.53842832 40.37131212 -27.3125 42.625 C-30.43579517 43.0968595 -33.47559325 43.00425742 -36.625 42.875 C-37.87893555 42.84792969 -37.87893555 42.84792969 -39.15820312 42.8203125 C-41.21013228 42.77341126 -43.26146756 42.70167411 -45.3125 42.625 C-45.3125 45.925 -45.3125 49.225 -45.3125 52.625 C-43.46785156 52.53798828 -43.46785156 52.53798828 -41.5859375 52.44921875 C-39.95316312 52.40229995 -38.32034748 52.35680206 -36.6875 52.3125 C-35.87925781 52.27060547 -35.07101563 52.22871094 -34.23828125 52.18554688 C-29.99277709 52.09925614 -27.16748819 52.26241612 -23.765625 54.95703125 C-21.3125 57.625 -21.3125 57.625 -20.6875 60.625 C-21.47401984 64.40029522 -22.51978649 65.9616614 -25.3125 68.625 C-28.12489326 68.99898847 -30.28842155 69.10793015 -33.0625 68.9375 C-33.75988281 68.91494141 -34.45726562 68.89238281 -35.17578125 68.86914062 C-36.88894935 68.81047048 -38.60100623 68.72079256 -40.3125 68.625 C-36.13496922 75.54277604 -32.23503629 81.04888117 -24.3125 83.625 C-18.44193182 84.63685259 -13.45789074 83.93457234 -8.24609375 81.05078125 C-5.95014523 79.35780911 -4.17130689 77.41819334 -2.25 75.3125 C1.21539557 71.65647363 1.21539557 71.65647363 5.4375 71.375 C8.91823245 72.71374325 10.60082506 73.53672109 12.6875 76.625 C13.46760635 80.52553173 12.8010906 82.87938461 10.6875 86.125 C4.5606515 93.92124261 -4.55515876 99.06264627 -14.3125 100.625 C-25.25285952 101.56893484 -33.79871678 99.30474208 -42.375 92.37109375 C-48.1772178 87.14207892 -52.08476465 82.44818038 -54.9375 75.125 C-56.19835198 71.99451225 -56.19835198 71.99451225 -58.3125 69.625 C-62.06439717 68.71770711 -65.22411846 68.67442178 -69.0703125 68.91015625 C-72.3125 68.625 -72.3125 68.625 -74.73828125 66.34375 C-76.3125 63.625 -76.3125 63.625 -76.375 60.0625 C-75.3125 56.625 -75.3125 56.625 -73.3125 54.1875 C-69.09252572 51.98959673 -66.03654486 52.34296747 -61.3125 52.625 C-61.3125 49.325 -61.3125 46.025 -61.3125 42.625 C-62.694375 42.7075 -64.07625 42.79 -65.5 42.875 C-68.86246211 42.85911435 -70.24788124 42.6586556 -73.3125 41.0625 C-75.96822297 37.82583763 -76.38567145 35.79577279 -76.3125 31.625 C-74.73828125 28.90625 -74.73828125 28.90625 -72.3125 26.625 C-69.0703125 26.33984375 -69.0703125 26.33984375 -65.4375 26.5625 C-61.69381327 26.5574687 -61.69381327 26.5574687 -58.3125 25.625 C-56.05719722 22.86396266 -55.01126336 20.21637954 -53.71875 16.90234375 C-49.7311839 7.60909941 -41.10835197 0.82806284 -32.1328125 -3.40234375 C-21.32477158 -7.57555528 -9.8294706 -5.83509772 0 0 Z " fill="#040300" transform="translate(126.3125,208.375)"/>
<path d="M0 0 C0.66 0 1.32 0 2 0 C2.29132813 1.20011719 2.58265625 2.40023438 2.8828125 3.63671875 C5.36991976 13.77836108 8.01667099 23.84346633 11.03173828 33.8425293 C12.52852008 38.9119689 13.49056599 43.7358486 14 49 C5.9548638 51.92699061 -2.16198274 54.1145544 -10.47338867 56.13012695 C-16.83801534 57.68013692 -23.09209853 59.44961928 -29.34765625 61.3984375 C-32 62 -32 62 -35 61 C-34.6390625 60.34773438 -34.278125 59.69546875 -33.90625 59.0234375 C-30.19975908 52.39162629 -30.19975908 52.39162629 -30 45 C-32.19562278 40.11118524 -35.45700266 38.22232275 -40.125 36 C-40.82713623 35.6582373 -41.52927246 35.31647461 -42.25268555 34.96435547 C-49.91502185 31.36783523 -57.80654633 29.04422531 -66 27 C-66.90492188 26.75378906 -67.80984375 26.50757812 -68.7421875 26.25390625 C-85.57743991 22.35436695 -102.75103531 25.10201725 -119.10253906 29.65454102 C-121 30 -121 30 -123 29 C-104.03878664 10.50960683 -81.74081016 2.47598411 -55.54931641 2.50341797 C-42.88333194 2.79469944 -31.21822215 5.71248479 -19.84765625 11.2734375 C-15.59495314 12.94574781 -11.60296 12.55917209 -7.3125 11.0625 C-3.85101681 7.97523121 -2.03188593 4.12429613 0 0 Z " fill="#6ED73F" transform="translate(316,24)"/>
<path d="M0 0 C-0.3609375 0.56847656 -0.721875 1.13695312 -1.09375 1.72265625 C-4.03918676 6.62353574 -5.90483547 10.11856946 -5 16 C-2.82025728 20.96981339 0.59433041 22.82795798 5.3125 25.0625 C6.0245459 25.40756592 6.7365918 25.75263184 7.47021484 26.1081543 C14.1168424 29.23063685 20.85805258 31.30460652 28 33 C29.0828125 33.29777344 30.165625 33.59554687 31.28125 33.90234375 C50.76043205 38.84040742 70.05736618 35.65871053 89 30 C86.25121184 38.24636448 73.59355392 44.60804294 66.125 48.375 C44.79968181 58.72431915 19.98250005 61.57832429 -3 55 C-6.94080539 53.60204131 -10.74045258 51.96138807 -14.53515625 50.20703125 C-18.76102531 48.73488521 -21.54982795 48.63263992 -26 49 C-29.1820097 51.45882568 -30.97415494 53.9608632 -33.1875 57.3125 C-33.785625 58.199375 -34.38375 59.08625 -35 60 C-35.66 60 -36.32 60 -37 60 C-40.43898843 47.92552828 -43.86033789 35.84383279 -47 23.6875 C-47.21938232 22.86540039 -47.43876465 22.04330078 -47.66479492 21.19628906 C-48.62585413 17.40337287 -49.16453734 14.74159609 -48 11 C-46.8346875 10.72027344 -45.669375 10.44054687 -44.46875 10.15234375 C-33.49482448 7.47914991 -22.65635122 4.51671309 -11.87304688 1.14819336 C-10.90431641 0.85436768 -9.93558594 0.56054199 -8.9375 0.2578125 C-8.08027344 -0.0088623 -7.22304687 -0.27553711 -6.33984375 -0.55029297 C-3.8431998 -1.03013626 -2.38232549 -0.81496989 0 0 Z " fill="#6ED73F" transform="translate(231,427)"/>
<path d="M0 0 C3.74032618 0.77923462 5.33125538 1.89814202 8 4.625 C8.48828125 7.859375 8.48828125 7.859375 8.3125 11.375 C8.26738281 12.54546875 8.22226562 13.7159375 8.17578125 14.921875 C8.08876953 16.25992188 8.08876953 16.25992188 8 17.625 C8.90621094 17.74488281 9.81242187 17.86476562 10.74609375 17.98828125 C16.43507629 19.10149152 21.01979908 22.32742073 25.0625 26.4375 C26.99074293 29.60977062 27.3175466 30.33111386 27.0625 33.8125 C26 37.625 26 37.625 24.3125 39.625 C21.29654777 40.92919556 19.25769753 41.03221219 16 40.625 C13.625 39.25 13.625 39.25 12 37.625 C12 36.965 12 36.305 12 35.625 C8.55641981 34.47713994 5.69064088 34.34898391 2.0625 34.25 C0.83660156 34.20101562 -0.38929688 34.15203125 -1.65234375 34.1015625 C-5.14049424 34.32165389 -5.14049424 34.32165389 -7.41796875 36.92578125 C-9.46325026 40.41538502 -9.43497178 42.63775867 -9 46.625 C-7.81232145 50.00531589 -7.10174775 50.55716817 -4 52.625 C-1.94724986 52.97882561 0.11809189 53.26224854 2.1875 53.5 C11.28801026 54.8332601 16.70393606 57.33462607 22.5234375 64.5625 C27.09366097 70.94630422 27.94559358 76.97619863 27 84.625 C24.91219987 92.43741338 21.41079373 98.73408717 14.375 103 C11 104.625 11 104.625 8 104.625 C8.05800781 105.58921875 8.11601562 106.5534375 8.17578125 107.546875 C8.22089844 108.81015625 8.26601563 110.0734375 8.3125 111.375 C8.37050781 112.62796875 8.42851562 113.8809375 8.48828125 115.171875 C8 118.625 8 118.625 5.66796875 121.0390625 C2.3553392 123.00820979 0.78505238 123.41355258 -3 122.625 C-5.6434125 120.49877691 -6.69483318 119.61388853 -8 116.625 C-8.4017743 112.91748782 -8.2972647 109.33750586 -8 105.625 C-8.825 105.58375 -9.65 105.5425 -10.5 105.5 C-16.34616936 104.03845766 -20.30330128 100.32169872 -24.5 96.125 C-26.41748559 92.92919068 -26.68736463 91.29094469 -26 87.625 C-23.9375 84.6875 -23.9375 84.6875 -21 82.625 C-16.59747168 82.46490806 -14.00066087 83.36133898 -10.6875 86.125 C-9.3571875 87.3625 -9.3571875 87.3625 -8 88.625 C-4.51455491 90.36772254 -0.81040283 90.05974395 3 89.625 C6.61155365 88.41219938 6.61155365 88.41219938 9 85.625 C10.06238463 82.56350449 10.52984932 79.83112903 10 76.625 C7.89917338 72.98814185 6.6846824 71.82062354 2.609375 70.65625 C1.33578125 70.4809375 0.0621875 70.305625 -1.25 70.125 C-10.24673022 68.64122625 -16.08765651 65.63753884 -21.74609375 58.421875 C-26.54485471 51.5451459 -27.02925295 44.8786284 -26 36.625 C-23.88428647 29.760685 -20.1073421 24.4554821 -14 20.625 C-10.5625 19.25 -10.5625 19.25 -8 18.625 C-8.05800781 17.82835937 -8.11601562 17.03171875 -8.17578125 16.2109375 C-8.59067026 6.4669728 -8.59067026 6.4669728 -5.875 2.875 C-3 0.625 -3 0.625 0 0 Z " fill="#040400" transform="translate(417,194.375)"/>
<path d="M0 0 C18.64212692 10.65264395 26.93404167 31.48573055 33.0546875 51.24609375 C34.04974678 55.19754817 34.57867777 58.95261728 35 63 C31.66393269 64.66803366 27.92063605 64.67596656 24.25 65.0625 C23.08017578 65.19881836 23.08017578 65.19881836 21.88671875 65.33789062 C14.48047093 66.12844517 7.58069672 66 0 66 C0 44.22 0 22.44 0 0 Z " fill="#00C9FC" transform="translate(264,132)"/>
<path d="M0 0 C0 21.78 0 43.56 0 66 C-7.92095135 66 -15.33869406 65.96535291 -23.125 65.0625 C-23.94742188 64.97548828 -24.76984375 64.88847656 -25.6171875 64.79882812 C-28.93557977 64.43282898 -31.81750847 64.06083051 -35 63 C-32.95099468 40.84513 -21.73103164 16.7677911 -4.69921875 2.3125 C-1.70535714 0 -1.70535714 0 0 0 Z " fill="#00C9FC" transform="translate(248,132)"/>
<path d="M0 0 C0.3403125 1.21171875 0.680625 2.4234375 1.03125 3.671875 C6.13445989 21.47035052 12.29917484 38.17870411 22 54 C22.33 54.66 22.66 55.32 23 56 C16.61087096 55.51254601 11.6014436 53.28484469 5.875 50.5 C4.94647217 50.05148682 4.01794434 49.60297363 3.0612793 49.14086914 C-10.81478935 42.28549511 -22.22120952 33.07010914 -33 22 C-33.61101562 21.41089844 -34.22203125 20.82179688 -34.8515625 20.21484375 C-35.49867188 19.58707031 -36.14578125 18.95929688 -36.8125 18.3125 C-37.41707031 17.73113281 -38.02164063 17.14976562 -38.64453125 16.55078125 C-40 15 -40 15 -40 13 C-10.90322581 0 -10.90322581 0 0 0 Z " fill="#00C8FA" transform="translate(197,320)"/>
<path d="M0 0 C16.20478723 0 16.20478723 0 24.25 0.9375 C25.07628906 1.02451172 25.90257812 1.11152344 26.75390625 1.20117188 C32.72070312 1.86035156 32.72070312 1.86035156 35 3 C30.94875166 25.61997302 22.294717 50.90646758 3 65 C1.515 65.495 1.515 65.495 0 66 C0 44.22 0 22.44 0 0 Z " fill="#00CAFC" transform="translate(264,314)"/>
<path d="M0 0 C0 21.78 0 43.56 0 66 C-20.95354817 54.02654391 -28.24568123 29.91677606 -34.56030273 7.92260742 C-35 6 -35 6 -35 3 C-31.45093109 1.81697703 -27.944988 1.38527682 -24.25 0.9375 C-23.24259766 0.80118164 -23.24259766 0.80118164 -22.21484375 0.66210938 C-14.69595302 -0.2519788 -7.75714145 0 0 0 Z " fill="#00CAFC" transform="translate(248,314)"/>
<path d="M0 0 C-0.49628906 0.7528125 -0.99257812 1.505625 -1.50390625 2.28125 C-12.00021163 18.69293051 -17.72681839 36.35818894 -23 55 C-36.487097 53.2769788 -50.17650968 48.71384124 -62 42 C-60.35388692 31.72918179 -46.52189149 22.95787334 -38.6875 17.1875 C-10.1885652 -3.29266321 -10.1885652 -3.29266321 0 0 Z " fill="#00C8FB" transform="translate(220,137)"/>
<path d="M0 0 C13.75324956 2.77008913 27.34069131 6.9047773 40 13 C36.36159368 21.14047476 28.84842039 27.51461474 22 33 C21.51241211 33.39944824 21.02482422 33.79889648 20.52246094 34.21044922 C12.88928442 40.4000695 4.99341279 45.31339462 -3.875 49.5625 C-4.74213623 49.97991455 -5.60927246 50.3973291 -6.50268555 50.82739258 C-11.94906082 53.33825859 -17.10409695 54.89824034 -23 56 C-22.25556641 54.77990234 -22.25556641 54.77990234 -21.49609375 53.53515625 C-11.53828749 36.87792357 -5.20910944 18.63540562 0 0 Z " fill="#00C9FB" transform="translate(315,320)"/>
<path d="M0 0 C4.95431757 0.59144566 9.175155 2.15024432 13.6875 4.1875 C14.39302002 4.50356201 15.09854004 4.81962402 15.82543945 5.14526367 C33.17341458 13.01202401 50.46015575 24.51050667 62 40 C62.33 40.99 62.66 41.98 63 43 C53.27462888 47.06752466 43.56595832 51.04146208 33.4375 54 C32.37704468 54.31070435 32.37704468 54.31070435 31.29516602 54.62768555 C28.43126039 55.43473183 25.99084767 56 23 56 C22.63648438 54.741875 22.27296875 53.48375 21.8984375 52.1875 C16.44868824 33.53117947 10.13043069 16.65405169 0 0 Z " fill="#00C9FB" transform="translate(292,136)"/>
<path d="M0 0 C13.86 0 27.72 0 42 0 C42 11.25 42 11.25 41.34375 16.8828125 C41.20839844 18.06875 41.07304687 19.2546875 40.93359375 20.4765625 C40.79050781 21.68054688 40.64742188 22.88453125 40.5 24.125 C40.35691406 25.36765625 40.21382813 26.6103125 40.06640625 27.890625 C39.71597384 30.92770585 39.36039867 33.9640885 39 37 C33.75366474 37.0610039 28.66563934 36.86656393 23.4375 36.34375 C22.19871094 36.22193359 20.95992188 36.10011719 19.68359375 35.97460938 C18.13800781 35.81798828 16.59242188 35.66136719 15 35.5 C10.05 35.005 5.1 34.51 0 34 C0 22.78 0 11.56 0 0 Z " fill="#00CAFC" transform="translate(264,264)"/>
<path d="M0 0 C0.51233099 3.91515349 1.00751508 7.83230465 1.5 11.75 C1.64308594 12.84183594 1.78617187 13.93367187 1.93359375 15.05859375 C2.06894531 16.14785156 2.20429688 17.23710937 2.34375 18.359375 C2.46943359 19.34389648 2.59511719 20.32841797 2.72460938 21.34277344 C3.116559 26.54792007 3 31.78011725 3 37 C-10.86 37 -24.72 37 -39 37 C-39 25.78 -39 14.56 -39 3 C-27.4375 2.0625 -27.4375 2.0625 -23.83374023 1.77368164 C-19.60494511 1.42588024 -15.42028005 1.06302028 -11.22265625 0.43359375 C-7.42725958 -0.07705962 -3.82701912 -0.06714069 0 0 Z " fill="#00CAFD" transform="translate(303,211)"/>
<path d="M0 0 C13.86 0 27.72 0 42 0 C42 11.22 42 22.44 42 34 C36.67875 34.495 31.3575 34.99 25.875 35.5 C23.37268799 35.73493164 23.37268799 35.73493164 20.81982422 35.97460938 C19.48146526 36.09787304 18.14308755 36.2209333 16.8046875 36.34375 C16.122854 36.40852539 15.44102051 36.47330078 14.73852539 36.54003906 C10.8113762 36.89743942 6.94285171 37.06437309 3 37 C2.49065371 32.7093897 1.99424636 28.41737379 1.5 24.125 C1.35691406 22.92101562 1.21382812 21.71703125 1.06640625 20.4765625 C0.93105469 19.290625 0.79570312 18.1046875 0.65625 16.8828125 C0.53056641 15.80402832 0.40488281 14.72524414 0.27539062 13.61376953 C-0.06949674 9.08804018 0 4.53885155 0 0 Z " fill="#00CAFD" transform="translate(206,264)"/>
<path d="M0 0 C13.028324 0.71854327 26.00355967 1.83960354 39 3 C39 14.22 39 25.44 39 37 C25.14 37 11.28 37 -3 37 C-3 23.5 -3 23.5 -2.34375 18.359375 C-2.20839844 17.27011719 -2.07304687 16.18085938 -1.93359375 15.05859375 C-1.79050781 13.96675781 -1.64742187 12.87492188 -1.5 11.75 C-1.35691406 10.61175781 -1.21382812 9.47351563 -1.06640625 8.30078125 C-0.7175194 5.53294558 -0.36197404 2.76614911 0 0 Z " fill="#00CAFD" transform="translate(209,211)"/>
<path d="M0 0 C0 3.66886309 -0.8401942 4.34978643 -3.0625 7.1875 C-11.82220486 19.34092418 -16.78248028 34.14625939 -18 49 C-20.31 49 -22.62 49 -25 49 C-25.01981934 48.4423999 -25.03963867 47.8847998 -25.06005859 47.31030273 C-25.45115912 36.79272379 -25.99136422 26.44283629 -27.59765625 16.03125 C-27.95939063 13.30595024 -28.07678475 10.74377507 -28 8 C-26.47632813 7.63648438 -26.47632813 7.63648438 -24.921875 7.265625 C-16.46685984 5.21779726 -8.20506399 2.92150006 0 0 Z " fill="#00C3F4" transform="translate(346,199)"/>
<path d="M0 0 C1.98 0 3.96 0 6 0 C6.12375 1.00675781 6.2475 2.01351563 6.375 3.05078125 C8.46281532 17.95785435 13.34426618 32.3390345 22.75 44.28515625 C24 46 24 46 24 48 C17.55351486 46.68885048 11.3724449 44.92759206 5.11328125 42.90234375 C2.0815205 42.02362765 -0.87910954 41.45386263 -4 41 C-3.87882812 39.88367188 -3.75765625 38.76734375 -3.6328125 37.6171875 C-2.28675581 25.08965185 -1.10934421 12.55057103 0 0 Z " fill="#00C6F7" transform="translate(322,264)"/>
<path d="M0 0 C1.98 0 3.96 0 6 0 C6.41055809 3.91015058 6.81940547 7.82047625 7.22680664 11.73095703 C7.43224419 13.69963434 7.63895693 15.66817844 7.84570312 17.63671875 C8.65546016 25.41828632 9.38831238 33.20029909 10 41 C8.90042969 41.25394531 7.80085938 41.50789063 6.66796875 41.76953125 C-1.60121305 43.69055028 -9.83365096 45.67179682 -18 48 C-16.87135856 45.62179125 -15.63405436 43.39750842 -14.265625 41.14453125 C-6.47183651 28.26061346 -1.51758794 15.04505282 0 0 Z " fill="#00C6F8" transform="translate(184,264)"/>
<path d="M0 0 C5.35673947 0.93345163 10.48338461 2.59699529 15.67382812 4.18359375 C19.76835687 5.41377216 23.75258971 6.40765118 28 7 C27.44435898 14.58888653 26.651636 22.12941328 25.73535156 29.68115234 C25.00464453 35.77635191 24.44829212 41.8772734 24 48 C22.02 48 20.04 48 18 48 C17.90203125 47.28457031 17.8040625 46.56914062 17.703125 45.83203125 C16.02763999 34.6669458 13.0070301 24.60656885 8 14.5 C7.50185791 13.49404785 7.50185791 13.49404785 6.99365234 12.46777344 C5.00850328 8.59892764 2.74999145 5.38838233 0 2 C0 1.34 0 0.68 0 0 Z " fill="#00C7F9" transform="translate(166,200)"/>
<path d="M0 0 C0.66 0.33 1.32 0.66 2 1 C1.319375 1.763125 0.63875 2.52625 -0.0625 3.3125 C-16.35558649 23.01148593 -21.82703766 45.12997592 -19.83300781 70.09033203 C-18.06028617 87.03495668 -9.01100974 103.21005179 3 115 C2.67 115.66 2.34 116.32 2 117 C-13.64072865 103.99991385 -25.26070657 86.36153424 -27.22314453 65.64428711 C-28.22075371 44.67506032 -22.7683795 25.28314314 -8.96484375 9.12890625 C-6.06679558 5.98887394 -3.10783675 2.93302094 0 0 Z " fill="#DCB700" transform="translate(370,198)"/>
<path d="M0 0 C0 3 0 3 -1.37890625 4.45483398 C-1.91386719 4.96473877 -2.44882812 5.47464355 -3 6 C-4.06034392 7.78070598 -4.06034392 7.78070598 -4.9375 9.72265625 C-6.23023964 12.41688786 -7.5586135 15.06578151 -9 17.68359375 C-19.55657032 37.25420999 -22.41979677 58.44598355 -16 80 C-11.61729989 93.67787726 -5.02339448 104.72658888 5 115 C4.67 115.66 4.34 116.32 4 117 C-3.38946877 110.61763453 -9.97784571 104.49106499 -15 96 C-15.52078125 95.13375 -16.0415625 94.2675 -16.578125 93.375 C-25.93269641 76.36668834 -28.94576487 56.75824573 -23.9777832 37.96166992 C-19.527451 23.00448272 -11.26508881 10.70183437 0 0 Z " fill="#DCB600" transform="translate(46,199)"/>
<path d="M0 0 C0.66 0.33 1.32 0.66 2 1 C-1.96 4.96 -5.92 8.92 -10 13 C-10 9.28115772 -9.1259934 8.63852271 -6.6875 5.9375 C-5.76517578 4.89916016 -5.76517578 4.89916016 -4.82421875 3.83984375 C-3 2 -3 2 0 0 Z " fill="#ECC400" transform="translate(53,194)"/>
<path d="M0 0 C0.66 0.33 1.32 0.66 2 1 C-1.3 4.3 -4.6 7.6 -8 11 C-8.66 10.67 -9.32 10.34 -10 10 C-8.90033225 8.70450101 -7.79508199 7.41373929 -6.6875 6.125 C-6.07261719 5.40570313 -5.45773437 4.68640625 -4.82421875 3.9453125 C-3 2 -3 2 0 0 Z " fill="#E9C200" transform="translate(377,193)"/>
</svg>
