<?xml version="1.0" encoding="UTF-8"?>
<svg version="1.1" xmlns="http://www.w3.org/2000/svg" width="512" height="512">
<path d="M0 0 C9.74823362 6.51481683 13.97181654 14.50729897 16.73706055 25.70458984 C21.63688092 56.0061106 7.3731922 88.59541398 -2.81762695 116.45849609 C-1.9989917 116.60359619 -1.18035645 116.74869629 -0.33691406 116.89819336 C40.10220078 124.15591606 78.62310017 135.63554554 109.18237305 164.45849609 C109.95581055 165.15587891 110.72924805 165.85326172 111.52612305 166.57177734 C123.39388273 177.6876413 132.48089848 193.98525633 133.40356445 210.39160156 C133.52633113 214.28337595 133.55375574 218.17312127 133.55297852 222.06665039 C133.55732044 224.49161741 133.59363358 226.91471279 133.6315918 229.33935547 C133.81268021 254.08132793 124.80286815 272.24022947 107.8894043 289.84521484 C66.39750324 329.62316474 1.90839294 338.64161849 -52.9471283 337.66589355 C-86.65924766 336.87840366 -123.6532832 330.26505702 -153.75512695 314.33349609 C-160.87778644 310.93504546 -168.20646942 310.10310512 -175.96508789 308.98828125 C-214.46095824 303.35793287 -251.89551912 287.97357611 -279.81762695 260.45849609 C-280.55754883 259.73146484 -281.2974707 259.00443359 -282.05981445 258.25537109 C-296.09901868 243.50601257 -301.37190507 225.73320501 -301.0949707 205.84521484 C-300.43635859 187.11245128 -289.19828428 169.83431122 -275.8371582 157.19287109 C-232.06303009 119.59961601 -173.96986945 108.94069878 -117.81762695 109.45849609 C-118.14118164 108.29318359 -118.46473633 107.12787109 -118.7980957 105.92724609 C-124.92419103 81.27120197 -113.26704633 53.25098186 -100.81762695 32.45849609 C-88.21263154 12.20082362 -69.48684054 -7.37832882 -45.73168945 -13.73681641 C-27.59913413 -17.4646671 -14.8100167 -9.3754949 0 0 Z " fill="#C17DFD" transform="translate(339.817626953125,94.54150390625)"/>
<path d="M0 0 C8.08164764 0.63566173 15.5491493 1.86513917 23.375 4 C24.50115723 4.30615234 25.62731445 4.61230469 26.78759766 4.92773438 C53.70380133 12.53457011 82.57421925 26.52813125 97.5 51.30078125 C106.57929988 67.63879223 107.92738956 87.66408848 103.5 105.8125 C97.04768957 127.23776774 79.83239028 141.61782674 60.859375 151.98828125 C42.17024133 161.8896487 22.80639704 167.54331676 2 171 C0.93378418 171.18022705 -0.13243164 171.3604541 -1.23095703 171.54614258 C-12.04235043 173.19199268 -22.70871576 173.35682923 -33.625 173.3125 C-35.02013321 173.30976578 -35.02013321 173.30976578 -36.44345093 173.30697632 C-49.84757314 173.26270402 -62.86025447 172.86497323 -76 170 C-76.84643066 169.82839355 -77.69286133 169.65678711 -78.56494141 169.47998047 C-106.33178973 163.80489311 -133.50119776 153.12793575 -154 133 C-154.78375 132.24074219 -155.5675 131.48148438 -156.375 130.69921875 C-168.37104122 118.31816945 -172.37449596 104.30741767 -172.37060547 87.38378906 C-172.37496282 85.26805073 -172.41132126 83.15443122 -172.44921875 81.0390625 C-172.59827549 63.1961479 -165.59146956 48.63506339 -153.140625 35.94921875 C-140.92186764 24.13229153 -125.98995506 16.19832077 -110.3125 10 C-109.54574951 9.69674805 -108.77899902 9.39349609 -107.98901367 9.08105469 C-107.26689697 8.80680664 -106.54478027 8.53255859 -105.80078125 8.25 C-104.84425659 7.88648438 -104.84425659 7.88648438 -103.8684082 7.515625 C-102 7 -102 7 -98 7 C-97.47792969 7.969375 -96.95585937 8.93875 -96.41796875 9.9375 C-87.08423377 27.03748894 -75.67988842 42.36409245 -63.73583984 57.72412109 C-62.31642308 59.58513418 -60.96230621 61.46151371 -59.64453125 63.39453125 C-53.18420953 72.40803401 -43.64001632 76.97202381 -34 82 C-30.76296708 77.14445062 -28.80510229 71.6834665 -26.5625 66.3125 C-26.1542247 65.33879959 -26.1542247 65.33879959 -25.73770142 64.34542847 C-16.81493073 43.03748677 -8.4451798 21.50035145 0 0 Z " fill="#BBC2F0" transform="translate(332,222)"/>
<path d="M0 0 C43.45271596 1.60935985 88.82683792 21.2862568 118.98046875 52.6015625 C132.69568177 67.51145065 137.37453541 84.92113145 137.37060547 104.6081543 C137.3749474 107.03312132 137.41126053 109.4562167 137.44921875 111.88085938 C137.63030716 136.62283183 128.6204951 154.78173338 111.70703125 172.38671875 C70.21513019 212.16466864 5.72601989 221.18312239 -49.12950134 220.20739746 C-86.48279614 219.33485243 -123.38496361 210.23191826 -157 194 C-157 193.34 -157 192.68 -157 192 C-157.87269531 191.74347656 -158.74539062 191.48695313 -159.64453125 191.22265625 C-179.76612018 183.89080836 -198.76409547 163.43990768 -207.875 144.375 C-208.9296875 142.0234375 -208.9296875 142.0234375 -210 139 C-210.25821533 138.28642334 -210.51643066 137.57284668 -210.7824707 136.83764648 C-213.35788392 128.80122653 -213.49205769 121.02256953 -213.44604492 112.66821289 C-213.43757522 110.33323641 -213.46632027 108.00074961 -213.49804688 105.66601562 C-213.59751068 84.63836891 -207.37873645 66.6858943 -193 51 C-192.25105469 50.16984375 -191.50210938 49.3396875 -190.73046875 48.484375 C-170.84426342 27.50986987 -139.46216615 10.96090931 -111 6 C-108.77734375 6.16796875 -108.77734375 6.16796875 -107 7 C-105.734375 8.77734375 -105.734375 8.77734375 -104.75 10.9375 C-104.24726563 12.00291016 -104.24726563 12.00291016 -103.734375 13.08984375 C-103 15 -103 15 -103 17 C-103.95777344 17.3403125 -104.91554688 17.680625 -105.90234375 18.03125 C-121.90413354 23.81091601 -136.64299125 30.31934156 -150 41 C-150.98871094 41.78117187 -151.97742188 42.56234375 -152.99609375 43.3671875 C-163.70310228 52.42582163 -172.14099829 65.10563466 -175 79 C-175.24547701 83.41757043 -175.27075463 87.83607795 -175.29516602 92.25952148 C-175.30659457 93.69549485 -175.32689885 95.13142887 -175.35668945 96.56713867 C-175.72940908 114.56803909 -170.79174452 128.36507239 -158.33984375 141.625 C-150.94508065 149.13086972 -143.20072151 154.84034019 -134 160 C-133.41927734 160.33 -132.83855469 160.66 -132.24023438 161 C-107.64988143 174.75984777 -78.00922404 181.96710608 -49.8828125 182.23828125 C-48.61314384 182.25304001 -48.61314384 182.25304001 -47.31782532 182.26809692 C-12.23392834 182.59151361 21.18065962 178.9646624 53 163 C54.56427734 162.22849609 54.56427734 162.22849609 56.16015625 161.44140625 C74.99838955 151.66460163 90.46087163 137.51646034 97.97265625 117.39453125 C102.32170315 102.40549055 102.67757296 82.27619048 96 68 C95.59910156 67.07960938 95.19820313 66.15921875 94.78515625 65.2109375 C82.79375606 40.53298349 55.38910105 26.97023531 30.6875 18.3125 C19.41901035 14.71487614 7.70115955 11.76766285 -4 10 C-2.68 6.7 -1.36 3.4 0 0 Z " fill="#FEB74F" transform="translate(336,212)"/>
<path d="M0 0 C1.65 4.62 3.3 9.24 5 14 C3.60652344 14.38929688 2.21304688 14.77859375 0.77734375 15.1796875 C-34.50309203 25.30882611 -71.16283021 41.91320758 -90.62109375 74.734375 C-97.65777704 87.71977558 -99.69903312 101.16876923 -99.57641602 115.70898438 C-99.56249899 118.0001667 -99.59686202 120.28728028 -99.63476562 122.578125 C-99.73845157 142.70599105 -92.35949026 159.00693723 -79 174 C-78.32324219 174.76054687 -77.64648438 175.52109375 -76.94921875 176.3046875 C-67.64316106 186.15403669 -56.11846588 194.02894716 -44 200 C-44 200.33 -44 200.66 -44 201 C-70.05188929 201.99959287 -98.93492381 191.45074704 -122 180 C-122.65500488 179.68063477 -123.31000977 179.36126953 -123.98486328 179.03222656 C-138.68238126 171.80634425 -151.34875851 162.48139832 -163 151 C-163.73992187 150.27296875 -164.47984375 149.5459375 -165.2421875 148.796875 C-179.28139172 134.04751648 -184.55427812 116.27470892 -184.27734375 96.38671875 C-183.61873163 77.65395519 -172.38065732 60.37581513 -159.01953125 47.734375 C-114.90102796 9.84537024 -56.52687 -0.49296689 0 0 Z " fill="#B7BBD6" transform="translate(223,204)"/>
<path d="M0 0 C1.58795585 0.0019789 3.17591808 0.00085765 4.76387024 -0.00309753 C9.03839054 -0.00509101 13.31151198 0.03581583 17.58570957 0.08492017 C22.06591601 0.12893274 26.54616102 0.13281111 31.02655029 0.14109802 C39.49441489 0.16278101 47.96164045 0.22012305 56.42922473 0.29054445 C66.07614541 0.36901772 75.72309797 0.40733196 85.37025881 0.4424125 C105.19999419 0.51541301 125.02915592 0.63839234 144.85839844 0.79467773 C142.82762136 6.01405537 140.10957488 10.24934367 136.85839844 14.79467773 C136.45105469 15.37217773 136.04371094 15.94967773 135.62402344 16.54467773 C123.91143706 31.58306025 104.20108926 41.1123528 86.85839844 47.79467773 C85.74851562 48.22393555 84.63863281 48.65319336 83.49511719 49.09545898 C75.7579324 51.87533739 67.95545461 53.78156574 59.92089844 55.48217773 C58.96908691 55.68464111 58.01727539 55.88710449 57.03662109 56.09570312 C41.70872245 59.19879417 26.82725756 60.17248611 11.23339844 60.10717773 C10.30675385 60.10502258 9.38010925 60.10286743 8.42538452 60.10064697 C-22.6289816 59.98477622 -53.53522564 54.79237235 -81.14160156 39.79467773 C-78.84161169 37.28087553 -76.45854245 35.6653601 -73.51269531 33.96655273 C-72.57264648 33.42135986 -71.63259766 32.87616699 -70.6640625 32.31445312 C-69.64602539 31.73042725 -68.62798828 31.14640137 -67.57910156 30.54467773 C-66.52368164 29.93422607 -65.46826172 29.32377441 -64.38085938 28.69482422 C-61.55174377 27.05961869 -58.72030067 25.42854354 -55.88763428 23.79949951 C-52.98740821 22.13045271 -50.0899971 20.45653458 -47.19238281 18.78295898 C-35.0382419 11.76489221 -35.0382419 11.76489221 -31.29310226 9.64980412 C-28.17874135 7.87051781 -28.17874135 7.87051781 -25.49661636 5.95223904 C-17.1204673 0.33683346 -9.75042423 -0.17202092 0 0 Z " fill="#DADBF9" transform="translate(287.1416015625,319.205322265625)"/>
<path d="M0 0 C0.52207031 0.969375 1.04414063 1.93875 1.58203125 2.9375 C10.90725395 20.0218939 22.30066832 35.3484397 34.22460938 50.70214844 C35.72584942 52.64517254 37.20406208 54.60205628 38.671875 56.5703125 C43.3667737 62.68034024 48.07650935 66.57438981 55 70 C52.08252244 73.16451682 49.18463869 75.23294119 45.43359375 77.328125 C44.32242188 77.95460938 43.21125 78.58109375 42.06640625 79.2265625 C41.47617676 79.5555957 40.88594727 79.88462891 40.27783203 80.22363281 C37.10299013 81.99426632 33.94069985 83.78707698 30.77734375 85.578125 C30.12675995 85.94587036 29.47617615 86.31361572 28.80587769 86.69250488 C22.3152881 90.36975693 15.90471027 94.17508978 9.5 98 C-1.31185375 104.44788375 -12.20595781 110.73670048 -23.15429688 116.94921875 C-24.26869141 117.58214844 -25.38308594 118.21507812 -26.53125 118.8671875 C-27.51673828 119.42519043 -28.50222656 119.98319336 -29.51757812 120.55810547 C-31.38343094 121.64187088 -33.20463015 122.80308677 -35 124 C-44.18195003 123.37775215 -52.59968193 114.03151015 -58.64453125 107.765625 C-69.91586898 94.53161653 -75.37926362 79.31961026 -74 62 C-69.78897881 41.93423036 -55.4259939 27.19293162 -38.92626953 16.234375 C-30.48654036 10.82610242 -21.62400569 6.68144568 -12.3125 3 C-11.54574951 2.69674805 -10.77899902 2.39349609 -9.98901367 2.08105469 C-9.26689697 1.80680664 -8.54478027 1.53255859 -7.80078125 1.25 C-6.84425659 0.88648438 -6.84425659 0.88648438 -5.8684082 0.515625 C-4 0 -4 0 0 0 Z " fill="#DADBF9" transform="translate(234,229)"/>
<path d="M0 0 C0.33 0 0.66 0 1 0 C1.20753906 0.99257813 1.41507812 1.98515625 1.62890625 3.0078125 C4.65832605 16.67491548 9.73309551 28.29652298 19 39 C19.56976563 39.71285156 20.13953125 40.42570312 20.7265625 41.16015625 C45.19789575 70.68195615 88.11749394 84.73808239 124.5625 91.1875 C125.87081787 91.41977295 125.87081787 91.41977295 127.20556641 91.65673828 C142.36938062 94.20204335 157.31487185 95.33179631 172.68579102 95.26074219 C175.4320285 95.25002136 178.17761021 95.26071333 180.92382812 95.2734375 C197.79525993 95.28852308 214.23482272 93.68399833 230.8125 90.5 C231.45632629 90.37639099 232.10015259 90.25278198 232.76348877 90.12542725 C264.29310431 83.96696171 295.44018238 72.16503054 320 51 C321.22589844 50.00806641 321.22589844 50.00806641 322.4765625 48.99609375 C336.65416317 37.07900835 345.29156542 21.05422096 349 3 C349.33 3 349.66 3 350 3 C350.92571658 26.65720144 345.92170218 45.29612861 329.76171875 63.08203125 C296.02077354 99.05608969 239.93688383 114.52850224 192.04888916 116.0625 C144.72960872 117.37963037 98.93180415 110.73076844 56 90 C56 89.34 56 88.68 56 88 C55.12730469 87.74347656 54.25460938 87.48695313 53.35546875 87.22265625 C33.23387982 79.89080836 14.23590453 59.43990768 5.125 40.375 C0.83593958 30.8119838 -0.43593438 21.71489353 -0.1875 11.3125 C-0.17396484 10.21744141 -0.16042969 9.12238281 -0.14648438 7.99414062 C-0.11156837 5.32888586 -0.06253717 2.66472496 0 0 Z " fill="#FC9500" transform="translate(123,316)"/>
<path d="M0 0 C8.07399532 0.46399973 15.58044728 1.87367714 23.375 4 C24.50115723 4.30615234 25.62731445 4.61230469 26.78759766 4.92773438 C55.186774 12.95367562 83.87337771 27.64114327 99 54 C99.639375 55.11375 100.27875 56.2275 100.9375 57.375 C102.06608738 60.1632747 102.084402 62.03103536 102 65 C101.27554688 64.51789063 100.55109375 64.03578125 99.8046875 63.5390625 C98.83789062 62.90742188 97.87109375 62.27578125 96.875 61.625 C95.92367187 60.99851562 94.97234375 60.37203125 93.9921875 59.7265625 C86.27086773 55.27117955 77.70548442 54.56841368 69 56 C63.24797046 57.98510791 58.22177988 60.91004274 53 64 C51.10894182 65.08875018 49.2169546 66.17588773 47.32421875 67.26171875 C43.38406815 69.53444875 39.45758169 71.82811677 35.54296875 74.14453125 C34.52227295 74.72759033 33.50157715 75.31064941 32.44995117 75.91137695 C29.85216879 77.42976391 27.43384697 79.11124756 24.99731445 80.87573242 C11.04340714 90.53720629 -1.64885866 90.32667984 -18.1875 89.6875 C-20.70236524 89.63218367 -23.21734927 89.58201847 -25.73242188 89.53710938 C-31.82425749 89.41731393 -37.91155388 89.23445542 -44 89 C-41.35539526 86.74430772 -39.13060837 85.05457214 -35.90551758 83.70703125 C-32.05969048 81.44755532 -31.02498522 78.69026991 -29.51171875 74.6875 C-29.2108284 73.94190323 -28.90993805 73.19630646 -28.59992981 72.42811584 C-27.6093527 69.95944891 -26.64853649 67.48029947 -25.6875 65 C-25.00180994 63.27458886 -24.31427778 61.54990876 -23.625 59.82592773 C-22.16410188 56.16060389 -20.71635337 52.49046307 -19.27880859 48.81591797 C-16.93225278 42.81806285 -14.55554493 36.83239777 -12.17578125 30.84765625 C-8.09452931 20.57397791 -4.03965428 10.29009843 0 0 Z " fill="#DADBF9" transform="translate(332,222)"/>
<path d="M0 0 C6.32078639 5.85307492 9.74855636 12.71583335 10.37109375 21.2890625 C11.06845268 42.83454785 2.69901777 62.70744945 -11.90234375 78.5234375 C-12.53785156 79.25046875 -13.17335938 79.9775 -13.828125 80.7265625 C-20.95836783 88.46206404 -30.85590863 94.86331395 -41.48828125 95.859375 C-50.02424753 95.94737465 -56.06674635 95.79280569 -62.5703125 90.05078125 C-70.45561359 81.81502233 -71.52905619 72.5902134 -71.44311523 61.62646484 C-70.84882369 44.39960975 -63.27369888 28.3692709 -51.90234375 15.5234375 C-51.11214844 14.62753906 -50.32195312 13.73164063 -49.5078125 12.80859375 C-37.58571932 0.08354846 -16.51028766 -12.8149666 0 0 Z " fill="#FCFDFE" transform="translate(328.90234375,121.4765625)"/>
<path d="M0 0 C4.4205084 1.22318796 8.3686389 3.82610671 12.3125 6.125 C12.95767578 6.49753906 13.60285156 6.87007813 14.26757812 7.25390625 C15.84675945 8.16632213 17.42361864 9.08275509 19 10 C19 10.66 19 11.32 19 12 C17.1640625 13.41015625 17.1640625 13.41015625 14.625 15.0625 C8.95107456 18.92525715 3.9845151 23.29468344 -1 28 C-1.68964844 28.62519531 -2.37929688 29.25039062 -3.08984375 29.89453125 C-9.09824064 35.54599367 -13.54228693 42.11961678 -18 49 C-18.6084375 49.91265625 -19.216875 50.8253125 -19.84375 51.765625 C-25.75290831 61.16655867 -29.41256168 71.54524119 -33 82 C-33.38671875 83.10988281 -33.7734375 84.21976562 -34.171875 85.36328125 C-41.10193934 109.52043949 -34.06201761 132.57949433 -22.67797852 153.90625 C-10.47813714 175.82647226 4.74245194 195.95334663 21 215 C13.95693587 215 5.50295744 209.08461864 0.30322266 204.50585938 C-3.51197262 200.643293 -6.75741101 196.3434552 -10 192 C-10.55397461 191.27458008 -11.10794922 190.54916016 -11.67871094 189.80175781 C-60.98588053 125.20469068 -60.98588053 125.20469068 -56.52734375 88.0625 C-51.02468549 54.84885013 -32.95776518 23.87978343 -5.71484375 3.92578125 C-3.82982542 2.58863875 -1.92296241 1.28197494 0 0 Z " fill="#9951E5" transform="translate(277,88)"/>
<path d="M0 0 C0.33 0 0.66 0 1 0 C1.13535156 0.70382812 1.27070313 1.40765625 1.41015625 2.1328125 C5.62454513 21.46348247 16.17974938 34.64314297 32 46 C32.78117187 46.56976563 33.56234375 47.13953125 34.3671875 47.7265625 C54.0342482 61.14427681 78.61115628 68.60597231 102 72 C103.02061523 72.16628906 104.04123047 72.33257812 105.09277344 72.50390625 C115.83329301 74.13081752 126.40401596 74.39917136 137.25 74.375 C138.17108551 74.37445618 139.09217102 74.37391235 140.04116821 74.37335205 C155.66836367 74.331094 170.6779361 73.29998229 186 70 C187.00498535 69.78569336 188.0099707 69.57138672 189.04541016 69.35058594 C208.38963725 65.07675284 225.78258428 57.67675383 243 48 C243.41467261 61.96617359 243.41467261 61.96617359 240.52734375 66.1171875 C238.10836867 67.76712426 235.69929342 68.85758936 233 70 C231.74745581 70.62780083 230.49902573 71.26384958 229.25390625 71.90625 C213.98708839 79.6341678 197.76400446 84.71602708 181 88 C180.27119629 88.15098145 179.54239258 88.30196289 178.79150391 88.45751953 C152.77566654 93.6405587 121.92839655 93.65339427 96 88 C95.15356934 87.82839355 94.30713867 87.65678711 93.43505859 87.47998047 C65.66821027 81.80489311 38.49880224 71.12793575 18 51 C17.21625 50.24074219 16.4325 49.48148437 15.625 48.69921875 C5.77082269 38.52877561 -0.28651094 25.82709819 -0.17578125 11.54296875 C-0.15902344 10.70378906 -0.14226562 9.86460937 -0.125 9 C-0.11597656 8.12988281 -0.10695312 7.25976562 -0.09765625 6.36328125 C-0.07434619 4.2420658 -0.03848579 2.12099438 0 0 Z " fill="#C7CAE0" transform="translate(160,304)"/>
<path d="M0 0 C8.07405747 0.4640033 15.58034257 1.87391641 23.375 4 C25.06206055 4.45814087 25.06206055 4.45814087 26.78320312 4.92553711 C41.16789221 8.98772945 55.60814146 14.48268483 68 23 C64.57142523 25.86477513 61.12061062 28.20603564 57.23046875 30.3984375 C56.10688965 31.03531494 54.98331055 31.67219238 53.82568359 32.32836914 C53.23325867 32.66160187 52.64083374 32.99483459 52.03045654 33.33816528 C48.86545706 35.1187723 45.70876003 36.91401229 42.55078125 38.70703125 C41.91043945 39.07007858 41.27009766 39.43312592 40.61035156 39.80717468 C34.67057175 43.17789212 28.76800776 46.61069698 22.875 50.0625 C13.31856042 55.6568455 3.73094332 61.19514065 -5.86962891 66.71337891 C-12.57297118 70.57443034 -19.24145288 74.48429431 -25.81469727 78.5637207 C-29.78867235 81 -29.78867235 81 -32 81 C-30.11899259 75.14130255 -28.03570824 69.42672843 -25.6640625 63.75 C-25.01106138 62.17065691 -24.35806686 60.5913111 -23.70507812 59.01196289 C-23.36549072 58.19390167 -23.02590332 57.37584045 -22.67602539 56.5329895 C-16.82260453 42.42614325 -11.07736301 28.28078646 -5.5 14.0625 C-5.21715149 13.34151123 -4.93430298 12.62052246 -4.6428833 11.87768555 C-3.09129745 7.91999748 -1.54370881 3.96076848 0 0 Z " fill="#DADBF9" transform="translate(332,222)"/>
<path d="M0 0 C3.02696675 1.79439506 5.50822127 3.80281324 8.0625 6.22265625 C8.7225 5.89265625 9.3825 5.56265625 10.0625 5.22265625 C12.16602956 13.63677448 11.0625 22.5495817 11.0625 31.22265625 C-19.9575 31.22265625 -50.9775 31.22265625 -82.9375 31.22265625 C-79.42443186 28.41220174 -76.59904393 26.3335306 -72.75390625 24.2265625 C-71.2541626 23.39765503 -71.2541626 23.39765503 -69.72412109 22.55200195 C-68.66016113 21.96894287 -67.59620117 21.38588379 -66.5 20.78515625 C-56.92906703 15.49359532 -47.46493184 10.06000061 -38.10766602 4.39868164 C-26.05519788 -2.83141615 -13.47547304 -6.35077192 0 0 Z " fill="#CCCFED" transform="translate(424.9375,279.77734375)"/>
<path d="M0 0 C1.40378906 -0.03867187 1.40378906 -0.03867187 2.8359375 -0.078125 C9.05661947 0.65371994 13.56246355 5.55418786 18.22265625 9.41015625 C22.88364443 12.9797911 26.55638527 13.61101748 32.375 13.875 C33.42107422 13.93300781 33.42107422 13.93300781 34.48828125 13.9921875 C36.20010818 14.08598624 37.91251682 14.16906174 39.625 14.25 C39.625 15.24 39.625 16.23 39.625 17.25 C37.63024051 18.8083098 35.71139471 20.12262781 33.5625 21.4375 C32.63087036 22.02144531 32.63087036 22.02144531 31.68041992 22.6171875 C16.16435859 32.20251891 2.68540584 38.4128491 -15.96484375 34.49609375 C-21.44639109 32.57868007 -26.20763104 30.24303332 -29.6875 25.4375 C-30.74236011 22.08112692 -30.85107715 19.76106897 -30.375 16.25 C-24.97135984 6.96249348 -10.50993393 0.17276604 0 0 Z " fill="#CCCFED" transform="translate(306.375,333.75)"/>
<path d="M0 0 C0.78310547 1.4540625 0.78310547 1.4540625 1.58203125 2.9375 C12.08564745 22.18078485 24.98128353 40.54272594 39.48046875 56.99609375 C42 60 42 60 42 62 C38.36367377 60.62551133 35.02935879 58.99565142 31.640625 57.09375 C30.61654541 56.52019775 29.59246582 55.94664551 28.53735352 55.35571289 C27.45252686 54.74332764 26.3677002 54.13094238 25.25 53.5 C24.12327881 52.86634521 22.99655762 52.23269043 21.83569336 51.57983398 C15.05886613 47.75791449 8.3171546 43.8841147 1.62646484 39.91357422 C-5.09197813 35.92860744 -11.85722106 32.02534534 -18.625 28.125 C-19.74060303 27.48183838 -20.85620605 26.83867676 -22.00561523 26.17602539 C-27.33152207 23.10756349 -32.66042963 20.04462608 -38 17 C-34.39846636 12.68208501 -29.93971582 10.79035268 -24.9375 8.5 C-24.08857178 8.10562744 -23.23964355 7.71125488 -22.36499023 7.30493164 C-6.46156111 0 -6.46156111 0 0 0 Z " fill="#DADAF8" transform="translate(234,229)"/>
<path d="M0 0 C3.02907239 1.65741697 5.28259679 3.05433213 7.375 5.8125 C9.37765297 12.82178538 7.29426198 18.79158319 4 25 C0.64895419 29.90502819 -2.49504631 32.78668257 -7.875 35.25 C-10.34978843 36.52465709 -10.34978843 36.52465709 -12 39 C-12.81671255 43.2776044 -12.80042809 47.58804647 -12.66357422 51.92871094 C-12.61315006 54.36088143 -12.58561599 56.6019978 -13 59 C-15.34375 61.16015625 -15.34375 61.16015625 -18 62 C-20.43028072 61.33719617 -22.2010972 60.7989028 -24 59 C-24.15042361 57.47362335 -24.23322299 55.94050413 -24.28808594 54.40771484 C-24.32351501 53.42934662 -24.35894409 52.45097839 -24.39544678 51.44296265 C-24.51921854 46.94457707 -24.61005247 42.44631917 -24.6796875 37.94677734 C-24.72636139 35.57580852 -24.79454073 33.2051604 -24.88476562 30.83544922 C-25.62384211 11.09273067 -25.62384211 11.09273067 -21.61230469 5.92285156 C-18.75431559 4.10155623 -16.22495713 2.99772841 -13 2 C-11.9275 1.34 -10.855 0.68 -9.75 0 C-6.03378093 -1.35135239 -3.80300159 -1.01866114 0 0 Z " fill="#4F7AFA" transform="translate(317,132)"/>
<path d="M0 0 C2.20276438 1.41549887 3.18230452 2.16148403 4.359375 4.515625 C1.71859266 6.03915327 -0.92219231 7.562677 -3.56298828 9.08618164 C-5.89734142 10.43294923 -8.23165735 11.77978107 -10.56591797 13.12670898 C-16.48040989 16.53939798 -22.39550941 19.95101906 -28.3125 23.359375 C-38.85124448 29.43135106 -49.38264946 35.51552299 -59.890625 41.640625 C-60.86225586 42.20676514 -61.83388672 42.77290527 -62.83496094 43.35620117 C-67.89110673 46.30787198 -72.93364819 49.28066894 -77.9609375 52.28125 C-78.97768555 52.88694824 -79.99443359 53.49264648 -81.04199219 54.11669922 C-82.98509427 55.27586011 -84.92595483 56.43878899 -86.86425781 57.60595703 C-88.15734863 58.37721924 -88.15734863 58.37721924 -89.4765625 59.1640625 C-90.23501465 59.61958496 -90.9934668 60.07510742 -91.77490234 60.54443359 C-93.640625 61.515625 -93.640625 61.515625 -95.640625 61.515625 C-94.91233809 59.28706706 -94.17507138 57.0627236 -93.41796875 54.84375 C-92.83730028 53.10466253 -92.31690172 51.34524084 -91.828125 49.578125 C-90.10093622 46.5782708 -87.88267275 46.5733933 -84.640625 45.515625 C-82.77517609 44.52503506 -80.93954511 43.47683506 -79.1328125 42.3828125 C-78.07819824 41.74980225 -77.02358398 41.11679199 -75.93701172 40.46459961 C-75.38076111 40.12733856 -74.8245105 39.79007751 -74.25140381 39.44259644 C-71.24305437 37.6193816 -68.22287635 35.81596511 -65.203125 34.01171875 C-64.57840302 33.63799637 -63.95368103 33.26427399 -63.31002808 32.87922668 C-55.62177575 28.29177724 -47.83289852 23.8811756 -40.02978516 19.49267578 C-34.11428301 16.14717963 -28.31350989 12.71375257 -22.6015625 9.03515625 C-21.46144995 8.3113792 -20.32099325 7.58814395 -19.18017578 6.86547852 C-17.03865867 5.49846139 -14.9134094 4.10550526 -12.80810547 2.68334961 C-4.90344617 -2.3277229 -4.90344617 -2.3277229 0 0 Z " fill="#BAC2F0" transform="translate(395.640625,241.484375)"/>
<path d="M0 0 C0.33 0 0.66 0 1 0 C1.92598775 23.6641314 -3.09056198 42.23009322 -19.1953125 60.0546875 C-25.14823788 66.4113407 -31.62658545 72.33518671 -39 77 C-39.99 77 -40.98 77 -42 77 C-43.83096078 60.33486623 -43.83096078 60.33486623 -39.71484375 55.0859375 C-36.56989408 52.85403773 -33.33726946 50.93026735 -30 49 C-14.04931883 36.55803817 -4.06193118 19.77519129 0 0 Z " fill="#E98603" transform="translate(472,319)"/>
<path d="M0 0 C4.57142857 3.14285714 4.57142857 3.14285714 6 6 C6.375 8.8125 6.375 8.8125 6 12 C2.81678575 16.14782462 -0.87974224 18.89245672 -6 20 C-14.15411654 20.74541534 -22.29054391 21.3123714 -29 16 C-31.567872 13.4963248 -32.77799049 11.98670895 -33.5625 8.5 C-32.71059316 4.71374736 -31.02350588 3.40646387 -28 1 C-18.91876543 -4.50594537 -9.55053698 -4.4644522 0 0 Z " fill="#DBD6F3" transform="translate(236,285)"/>
<path d="M0 0 C0.86512207 0.51916992 1.73024414 1.03833984 2.62158203 1.57324219 C3.59321289 2.14107422 4.56484375 2.70890625 5.56591797 3.29394531 C6.57686523 3.89658203 7.5878125 4.49921875 8.62939453 5.12011719 C10.60780876 6.22510687 12.58961079 7.32405213 14.57470703 8.41699219 C26.08869365 14.8423314 37.56680744 21.31279629 48.875 28.09521484 C50.07402806 28.79567682 51.28768162 29.4715336 52.51269531 30.12548828 C56.27106319 32.14495422 58.78037199 34.02173578 61.25439453 37.49511719 C61.82544922 38.27757812 62.39650391 39.06003906 62.98486328 39.86621094 C63.52755859 40.61 64.07025391 41.35378906 64.62939453 42.12011719 C65.59836622 43.27458471 66.57616498 44.42176669 67.56689453 45.55761719 C69.62939453 48.12011719 69.62939453 48.12011719 69.62939453 50.12011719 C65.9930683 48.74562852 62.65875332 47.11576861 59.27001953 45.21386719 C58.24593994 44.64031494 57.22186035 44.0667627 56.16674805 43.47583008 C55.08192139 42.86344482 53.99709473 42.25105957 52.87939453 41.62011719 C51.75267334 40.9864624 50.62595215 40.35280762 49.46508789 39.69995117 C42.68826066 35.87803168 35.94654913 32.00423188 29.25585938 28.03369141 C22.5374164 24.04872463 15.77217347 20.14546252 9.00439453 16.24511719 C7.8887915 15.60195557 6.77318848 14.95879395 5.6237793 14.29614258 C0.29787247 11.22768068 -5.0310351 8.16474327 -10.37060547 5.12011719 C-4.15311085 -1.54148419 -4.15311085 -1.54148419 0 0 Z " fill="#BAC2EF" transform="translate(206.37060546875,240.8798828125)"/>
<path d="M0 0 C1.60712465 1.60712465 1.15151668 3.33958936 1.17700195 5.56396484 C1.18983719 6.53522308 1.20267242 7.50648132 1.21589661 8.50717163 C1.22697701 10.09303574 1.22697701 10.09303574 1.23828125 11.7109375 C1.246353 12.79001373 1.25442474 13.86908997 1.26274109 14.98086548 C1.27660002 17.26912825 1.28731404 19.55741186 1.29516602 21.84570312 C1.31239323 25.35326069 1.35626579 28.85987961 1.40039062 32.3671875 C1.41051561 34.58593054 1.41903232 36.80468162 1.42578125 39.0234375 C1.44328934 40.07663177 1.46079742 41.12982605 1.47883606 42.2149353 C1.47591049 43.19249786 1.47298492 44.17006042 1.4699707 45.17724609 C1.47583694 46.03804779 1.48170319 46.89884949 1.48774719 47.78573608 C1 50 1 50 -0.83406067 51.81704712 C-3.86829843 53.47423126 -5.72778571 52.85362112 -9 52 C-9.66 51.67 -10.32 51.34 -11 51 C-11.12658532 43.93435759 -11.21426063 36.86900654 -11.2746582 29.80249023 C-11.29983101 27.39775668 -11.33397182 24.99309985 -11.37719727 22.58862305 C-11.43772467 19.13571267 -11.46618244 15.68381205 -11.48828125 12.23046875 C-11.51408768 11.15226364 -11.5398941 10.07405853 -11.56648254 8.96318054 C-11.56751829 6.21837558 -11.52869335 3.69318155 -11 1 C-7.12789926 -2.74131123 -4.72260574 -2.14663897 0 0 Z " fill="#3679E7" transform="translate(288,149)"/>
<path d="M0 0 C-3.42780148 1.14260049 -4.53484861 0.72311983 -8 0 C-19.06190122 -0.73186114 -27.75047706 0.23107188 -37.75 5.4296875 C-42.77362311 6.31123675 -45.71651513 3.90015307 -49.875 1.25 C-50.65875 0.78078125 -51.4425 0.3115625 -52.25 -0.171875 C-56.40910188 -2.72240438 -56.40910188 -2.72240438 -58 -4 C-58 -4.66 -58 -5.32 -58 -6 C-35.55479581 -16.81000643 -20.42667559 -12.90105826 0 0 Z " fill="#B05BFD" transform="translate(337,93)"/>
<path d="M0 0 C0.33 0 0.66 0 1 0 C1.74773166 25.12378369 0.10743463 43.61748329 -17.69897461 62.80664062 C-22.30422925 67.54539249 -27.40273261 71.48879906 -33 75 C-33.33 75 -33.66 75 -34 75 C-34.13563775 72.77252674 -34.23227853 70.54265677 -34.3125 68.3125 C-34.37050781 67.07113281 -34.42851562 65.82976562 -34.48828125 64.55078125 C-33.73832618 59.097108 -30.60464847 57.26202768 -26.45703125 54 C-25.58433594 53.34 -24.71164062 52.68 -23.8125 52 C-13.2573777 43.42218498 -5.31336061 31.94008184 -1 19 C-0.85426942 17.52034074 -0.75336732 16.03596157 -0.68359375 14.55078125 C-0.62075195 13.27944336 -0.62075195 13.27944336 -0.55664062 11.98242188 C-0.51732422 11.10134766 -0.47800781 10.22027344 -0.4375 9.3125 C-0.37272461 7.97348633 -0.37272461 7.97348633 -0.30664062 6.60742188 C-0.20064647 4.40509892 -0.09857949 2.20266527 0 0 Z " fill="#B5B8CC" transform="translate(436,293)"/>
<path d="M0 0 C1 2 1 2 -0.1796875 5.5546875 C-0.73717636 6.99775676 -1.30264816 8.43776094 -1.875 9.875 C-2.4368511 11.30913135 -2.99680781 12.7440066 -3.5546875 14.1796875 C-3.93343018 15.13464111 -3.93343018 15.13464111 -4.31982422 16.10888672 C-8.0066937 26.35960136 -8.10953125 41.10637194 -3.5 51 C-0.12698853 56.56546892 4.23166556 60.11583278 10 63 C22.36392447 64.24203807 30.37782701 62.42270925 41 56 C42.32587366 55.31861812 43.65578419 54.64444245 45 54 C39.7303266 61.71630749 30.9476638 66.61849253 22 69 C13.89414695 69.75937185 5.62648453 70.32965462 -1 65 C-7.65636906 59.12306526 -10.80600637 52.04031674 -11.41796875 43.25 C-12.0673848 27.00257259 -8.57383588 13.90670286 0 0 Z " fill="#DCDBFA" transform="translate(269,148)"/>
<path d="M0 0 C0.33 0.99 0.66 1.98 1 3 C0.46632813 3.13535156 -0.06734375 3.27070313 -0.6171875 3.41015625 C-7.20101004 5.31240255 -13.1637109 8.03785048 -18 13 C-19.37889917 16.74906943 -19.31152651 20.22182948 -19.1953125 24.18359375 C-19.20335907 25.23909927 -19.21140564 26.2946048 -19.21969604 27.38209534 C-19.2346336 30.73579487 -19.18083441 34.08430649 -19.125 37.4375 C-19.12305727 39.71809962 -19.12561253 41.9987078 -19.1328125 44.27929688 C-19.14062411 49.85401744 -19.09208652 55.42608232 -19 61 C-20.65 60.34 -22.3 59.68 -24 59 C-24.2795778 52.0083649 -24.47179445 45.01817471 -24.60424805 38.0222168 C-24.65947101 35.64439037 -24.73447081 33.26693592 -24.82983398 30.89038086 C-25.6048738 11.07505809 -25.6048738 11.07505809 -21.61669922 5.91845703 C-18.75673296 4.09667505 -16.22772533 2.99514476 -13 2 C-11.9275 1.34 -10.855 0.68 -9.75 0 C-6.1838129 -1.29679531 -3.65811619 -0.80478556 0 0 Z " fill="#2971E5" transform="translate(317,132)"/>
<path d="M0 0 C0.66 0.33 1.32 0.66 2 1 C2.10127533 7.92329438 2.17141266 14.84639836 2.21972656 21.77026367 C2.23986357 24.12645608 2.26717516 26.48259839 2.30175781 28.83862305 C2.35018287 32.22196806 2.37294796 35.6046534 2.390625 38.98828125 C2.41127014 40.04461258 2.43191528 41.10094391 2.45318604 42.18928528 C2.45363922 43.66047066 2.45363922 43.66047066 2.45410156 45.16137695 C2.46298401 46.02519485 2.47186646 46.88901276 2.48101807 47.77900696 C2 50 2 50 0.09661865 51.80241394 C-2 53 -2 53 -4 53 C-4.10137822 46.09501681 -4.1714562 39.19022535 -4.21972656 32.28466797 C-4.23984814 29.93531116 -4.26714851 27.58600446 -4.30175781 25.23681641 C-4.3502504 21.86087685 -4.37296357 18.48559914 -4.390625 15.109375 C-4.41127014 14.05820496 -4.43191528 13.00703491 -4.45318604 11.92401123 C-4.45544041 4.60615538 -4.45544041 4.60615538 -1.97558594 1.30566406 C-1.32364258 0.87479492 -0.67169922 0.44392578 0 0 Z " fill="#567FFB" transform="translate(287,149)"/>
<path d="M0 0 C2.4375 1.875 2.4375 1.875 3.3125 5.0625 C3.35375 5.990625 3.395 6.91875 3.4375 7.875 C-2.72808546 12.90481972 -6.61402682 13.68104235 -14.5625 12.875 C-18.31588441 11.12773484 -19.99065938 10.14575694 -21.6875 6.375 C-21.5625 3.875 -21.5625 3.875 -19.875 1.625 C-14.33105955 -2.57041439 -6.35193648 -2.00587468 0 0 Z " fill="#F05A62" transform="translate(231.5625,288.125)"/>
<path d="M0 0 C3.875 0.875 3.875 0.875 5 2 C5.6117723 7.99536853 4.36955292 12.13286801 1 17 C-2.45518312 20.78268863 -5.686864 23.67799176 -11 24 C-11.3125 21.75 -11.3125 21.75 -11 19 C-10.278125 18.443125 -9.55625 17.88625 -8.8125 17.3125 C-3.59977028 13.02647779 -1.08165162 6.57220928 0 0 Z " fill="#2D72E6" transform="translate(314,141)"/>
<path d="M0 0 C4.57142857 3.14285714 4.57142857 3.14285714 6 6 C6.375 8.8125 6.375 8.8125 6 12 C2.81678575 16.14782462 -0.87974224 18.89245672 -6 20 C-14.15411654 20.74541534 -22.29054391 21.3123714 -29 16 C-31.567872 13.4963248 -32.77799049 11.98670895 -33.5625 8.5 C-32.71059316 4.71374736 -31.02350588 3.40646387 -28 1 C-18.91876543 -4.50594537 -9.55053698 -4.4644522 0 0 Z M-28.8125 3.8125 C-31.08324673 6.74227791 -31.08324673 6.74227791 -31.6875 9.5625 C-30.64164923 13.27051637 -28.1294987 15.02423354 -25 17 C-18.45088101 20.12571588 -11.04633404 19.82442465 -4.1875 17.8125 C-0.1952119 16.29500505 2.50720923 14.5730001 5 11 C5.32908167 7.89072953 5.32908167 7.89072953 4 5 C-0.02130615 0.97869385 -3.94052498 -0.84777793 -9.59375 -1.265625 C-11.52734375 -1.25789063 -11.52734375 -1.25789063 -13.5 -1.25 C-14.7890625 -1.25515625 -16.078125 -1.2603125 -17.40625 -1.265625 C-22.64589429 -0.87834694 -25.09513836 0.09513836 -28.8125 3.8125 Z " fill="#D1687D" transform="translate(236,285)"/>
<path d="M0 0 C0.33 0.99 0.66 1.98 1 3 C0.46632813 3.13535156 -0.06734375 3.27070313 -0.6171875 3.41015625 C-6.61765948 5.14385663 -10.81391467 7.81825368 -15.640625 11.76953125 C-18 13 -18 13 -20.796875 12.19921875 C-21.52390625 11.80347656 -22.2509375 11.40773437 -23 11 C-23 10.01 -23 9.02 -23 8 C-20.91489224 6.47111927 -18.91231144 5.16591078 -16.6875 3.875 C-15.79514648 3.33552734 -15.79514648 3.33552734 -14.88476562 2.78515625 C-9.30762877 -0.54243155 -6.40570145 -1.08776062 0 0 Z " fill="#4171DE" transform="translate(317,132)"/>
<path d="M0 0 C0.66 0.33 1.32 0.66 2 1 C1.12859375 1.81339844 0.2571875 2.62679687 -0.640625 3.46484375 C-16.88314211 18.95456368 -29.52723456 37.73135989 -37 59 C-38.38776138 54.83671585 -36.80902932 52.17465672 -35.1875 48.3125 C-34.87417725 47.56154053 -34.56085449 46.81058105 -34.23803711 46.03686523 C-26.37558768 27.89610876 -14.03133756 13.64633135 0 0 Z " fill="#C59DF0" transform="translate(283,108)"/>
<path d="M0 0 C0.71589017 6.56232652 -0.6507876 9.82570166 -4.39453125 15.21484375 C-6 17 -6 17 -9 18 C-9.4663583 13.57607333 -9.71973045 9.40368411 -9 5 C-6.79847164 2.5078896 -3.51754402 0 0 0 Z " fill="#F9FBFE" transform="translate(313,141)"/>
<path d="M0 0 C-2 2 -2 2 -5.30078125 2.16015625 C-6.63822565 2.13753281 -7.97552567 2.10455925 -9.3125 2.0625 C-15.73097678 1.85277396 -15.73097678 1.85277396 -22 3 C-23.16666667 4.91666667 -23.16666667 4.91666667 -24 7 C-24.99 7.66 -25.98 8.32 -27 9 C-27 6.75 -27 6.75 -26 4 C-18.20129799 -1.3157072 -9.07507916 -2.42002111 0 0 Z " fill="#D38198" transform="translate(232,283)"/>
<path d="M0 0 C1.11375 0.556875 1.11375 0.556875 2.25 1.125 C1.92 2.115 1.59 3.105 1.25 4.125 C-0.5625 4.9375 -0.5625 4.9375 -2.75 5.125 C-5 4.1875 -5 4.1875 -6.75 3.125 C-6.75 2.465 -6.75 1.805 -6.75 1.125 C-4.02098495 -0.69434337 -3.21400584 -1.02263822 0 0 Z " fill="#3E6FDD" transform="translate(284.75,147.875)"/>
<path d="M0 0 C0.33 0 0.66 0 1 0 C1 6.27 1 12.54 1 19 C0.67 19 0.34 19 0 19 C-0.22786458 17.01432292 -0.45572917 15.02864583 -0.68359375 13.04296875 C-0.97170735 10.80603607 -0.97170735 10.80603607 -2 8 C-1.54451823 5.26187393 -0.74685247 2.6798824 0 0 Z " fill="#F08E08" transform="translate(472,319)"/>
</svg>
