<?xml version="1.0" encoding="UTF-8"?>
<svg version="1.1" xmlns="http://www.w3.org/2000/svg" width="512" height="512">
<path d="M0 0 C0.94338226 0.00182281 1.88676453 0.00364563 2.85873413 0.00552368 C17.02981531 0.05155657 30.87749852 0.51901579 44.8125 3.3125 C46.16746582 3.57788574 46.16746582 3.57788574 47.54980469 3.84863281 C54.02137377 5.14743299 60.42284813 6.65944981 66.8125 8.3125 C67.63250488 8.52213379 68.45250977 8.73176758 69.29736328 8.94775391 C95.12339387 15.70193424 128.75906939 27.36932518 147.609375 47.203125 C149.17744607 49.95234052 148.80456801 51.4625247 148.375 54.5625 C148.26233121 58.24627949 148.31328217 59.73159198 150.74609375 62.5625 C153.36370593 64.60240478 156.06698534 66.44961167 158.8125 68.3125 C160.95796123 70.2215665 163.04347711 72.1779625 165.12109375 74.16015625 C165.67925781 74.54042969 166.23742187 74.92070313 166.8125 75.3125 C168.2975 74.8175 168.2975 74.8175 169.8125 74.3125 C174.25104063 73.8100237 176.30307646 74.01061939 180.1875 76.3125 C183.64404368 80.26283563 183.73018091 82.12639726 183.8125 87.3125 C183.56242187 87.95316406 183.31234375 88.59382813 183.0546875 89.25390625 C182.55152234 91.51896943 182.55152234 91.51896943 184.54296875 93.6796875 C185.35378906 94.50726563 186.16460937 95.33484375 187 96.1875 C192.02172403 101.38609946 192.02172403 101.38609946 193.6875 104.9375 C195.55793074 107.58059135 195.55793074 107.58059135 198.28125 107.49609375 C200.23321337 107.41476194 202.18503969 107.33007768 204.13671875 107.2421875 C207.29973802 107.32530333 209.14256461 108.12057908 211.37109375 110.40625 C214.48185249 114.52020735 217.12702518 118.89013675 219.68994141 123.35693359 C220.45336803 124.68686992 221.22417055 126.01259353 222.00146484 127.33447266 C235.24695583 149.87338322 244.96122806 174.39767615 250.625 199.9375 C250.80772461 200.75718262 250.99044922 201.57686523 251.17871094 202.42138672 C254.84121457 220.13477073 256.34126753 237.68848101 256.1875 255.75 C256.18284729 256.73207428 256.17819458 257.71414856 256.17340088 258.72598267 C256.0937114 273.10088539 255.70920751 287.1878237 252.8125 301.3125 C252.50650879 302.84946533 252.50650879 302.84946533 252.19433594 304.41748047 C239.70131993 365.81874473 206.18844602 424.19159141 154.8125 461.3125 C153.66475242 462.16584392 152.51762638 463.02002439 151.37109375 463.875 C143.17998631 469.91997076 134.67187821 475.30438169 125.8125 480.3125 C125.10528809 480.7146875 124.39807617 481.116875 123.66943359 481.53125 C97.52189144 496.25254051 68.50083558 505.95171333 38.8125 510.3125 C37.60787109 510.48982666 36.40324219 510.66715332 35.16210938 510.84985352 C23.50482646 512.448825 11.94063902 512.6709053 0.1875 512.625 C-1.26733292 512.62226578 -1.26733292 512.62226578 -2.7515564 512.61947632 C-17.10306055 512.57408309 -31.06692918 512.0687347 -45.1875 509.3125 C-46.08452637 509.15152832 -46.98155273 508.99055664 -47.90576172 508.82470703 C-96.59343124 500.01471851 -141.61755908 476.57143453 -177.1875 442.3125 C-177.84685547 441.68037598 -178.50621094 441.04825195 -179.18554688 440.39697266 C-188.67205518 431.25420975 -197.4227263 421.96011354 -205.1875 411.3125 C-205.61611328 410.7340332 -206.04472656 410.15556641 -206.48632812 409.55957031 C-222.16068867 388.38399978 -234.75896222 365.30415061 -243.1875 340.3125 C-243.60056396 339.08998535 -243.60056396 339.08998535 -244.02197266 337.84277344 C-247.26005506 328.07192323 -249.79235473 318.19031263 -251.9375 308.125 C-252.13625732 307.20033936 -252.33501465 306.27567871 -252.53979492 305.32299805 C-255.83249027 289.11638823 -256.56280278 273.1821298 -256.5 256.6875 C-256.49784485 255.66926147 -256.4956897 254.65102295 -256.49346924 253.60192871 C-256.44377396 238.98002576 -256.13811242 224.68116068 -253.1875 210.3125 C-252.98882324 209.29994141 -252.79014648 208.28738281 -252.58544922 207.24414062 C-244.37077709 166.16462668 -226.92390507 129.19028596 -201.1875 96.3125 C-200.76307617 95.76803223 -200.33865234 95.22356445 -199.90136719 94.66259766 C-188.2055529 79.83013613 -174.34439035 65.60238313 -159.1875 54.3125 C-158.09074763 53.46405616 -156.99442223 52.61506022 -155.8984375 51.765625 C-145.8463209 44.08427768 -135.15019813 37.60309884 -124.1875 31.3125 C-123.52782227 30.92964844 -122.86814453 30.54679687 -122.18847656 30.15234375 C-100.07104172 17.40630475 -75.66412922 9.82506313 -50.8125 4.5 C-49.91160645 4.3050293 -49.01071289 4.11005859 -48.08251953 3.90917969 C-32.14219608 0.67722424 -16.22373386 -0.06532951 0 0 Z " fill="#FEEF89" transform="translate(256.1875,-0.3125)"/>
<path d="M0 0 C1.14020426 -0.0095088 2.28040853 -0.01901761 3.45516443 -0.02881455 C7.27885679 -0.05206755 11.10054813 -0.0252471 14.92419434 0.00140381 C17.66411112 -0.00094217 20.40395672 -0.01375629 23.1438446 -0.02603149 C29.81483299 -0.04944473 36.48523743 -0.03530282 43.15619123 -0.00809297 C50.92539667 0.02240077 58.69445965 0.01753765 66.46370798 0.01167962 C80.32646936 0.00261233 94.18895183 0.02844415 108.05163574 0.07269287 C121.50192864 0.11561756 134.95186894 0.12978465 148.40222168 0.1137085 C163.05027833 0.09623926 177.69817521 0.09449165 192.34622526 0.12029243 C193.90832232 0.12302554 195.47041939 0.12575188 197.03251648 0.12847137 C197.80108905 0.12983273 198.56966161 0.13119408 199.36152425 0.13259669 C204.77646372 0.14121687 210.19133679 0.1389747 215.60627747 0.13282013 C222.20577674 0.12576944 228.80495298 0.13699082 235.40437138 0.17132798 C238.77141447 0.18843816 242.13757046 0.1949539 245.50470543 0.18519211 C249.15494914 0.17603524 252.8037511 0.19756357 256.45385742 0.22705078 C257.51786223 0.21726141 258.58186704 0.20747204 259.67811441 0.19738603 C264.29794027 0.26465862 267.68160467 0.32043615 271.38828278 3.26800156 C273.93813242 6.11090453 274.48149675 7.01383094 274.28942871 10.75042725 C273.11201841 30.34776752 266.02332496 48.80579927 256.72692871 65.87542725 C255.86067871 67.4977124 255.86067871 67.4977124 254.97692871 69.152771 C250.95059053 76.39458758 246.16331367 82.63876227 240.72692871 88.87542725 C239.66151855 90.12452881 239.66151855 90.12452881 238.57458496 91.39886475 C228.52760656 102.91746204 217.63782808 111.80046568 204.72692871 119.87542725 C203.33280762 120.757146 203.33280762 120.757146 201.91052246 121.65667725 C199.72692871 122.87542725 199.72692871 122.87542725 197.72692871 122.87542725 C197.73595215 123.41167725 197.74497559 123.94792725 197.75427246 124.50042725 C197.14088097 140.71529803 186.61297767 155.92145205 175.24255371 166.75042725 C160.08736424 179.55232642 142.66618212 184.42716741 123.0994873 183.08343506 C108.10293211 181.76865166 94.95733252 175.9025735 83.72692871 165.87542725 C82.97927246 165.23218506 82.23161621 164.58894287 81.46130371 163.9262085 C70.9864508 154.28863125 65.20551754 141.48875086 61.72692871 127.87542725 C61.72692871 126.55542725 61.72692871 125.23542725 61.72692871 123.87542725 C60.88259277 123.63695068 60.03825684 123.39847412 59.16833496 123.152771 C55.29536924 121.7152457 52.05824269 119.74467061 48.66442871 117.43792725 C48.01321045 116.99835693 47.36199219 116.55878662 46.69104004 116.105896 C12.9238215 92.88657758 -9.00193823 58.28105686 -16.82775879 18.2074585 C-18.13057345 8.45920495 -18.13057345 8.45920495 -14.94980621 4.21065903 C-10.67000094 -0.52074469 -6.04915582 -0.09653188 0 0 Z " fill="#020101" transform="translate(127.2730712890625,273.12457275390625)"/>
<path d="M0 0 C0.94338226 0.00182281 1.88676453 0.00364563 2.85873413 0.00552368 C17.02981531 0.05155657 30.87749852 0.51901579 44.8125 3.3125 C46.16746582 3.57788574 46.16746582 3.57788574 47.54980469 3.84863281 C54.02137377 5.14743299 60.42284813 6.65944981 66.8125 8.3125 C67.63250488 8.52213379 68.45250977 8.73176758 69.29736328 8.94775391 C92.70038426 15.06825406 135.20225941 27.44341373 148.8125 49.3125 C149.42814661 54.16071706 149.57330042 56.1590284 146.875 60.25 C142.69058231 63.06807722 139.86393049 64.27432761 134.8125 63.3125 C130.56453109 61.08556732 126.72174612 58.36975833 122.78417969 55.64160156 C108.86817327 46.26087608 93.44949102 40.17980109 77.8125 34.3125 C76.8733374 33.95389893 75.9341748 33.59529785 74.96655273 33.22583008 C68.96773241 30.97607483 62.99202138 29.18558103 56.75 27.75 C55.84878418 27.54020508 54.94756836 27.33041016 54.01904297 27.11425781 C48.18384026 25.78430292 42.33504201 24.58146745 36.4375 23.5625 C35.46091431 23.38932251 35.46091431 23.38932251 34.46459961 23.21264648 C8.18911859 18.9565542 -19.16456195 20.40085682 -45.1875 25.3125 C-46.01991211 25.46203125 -46.85232422 25.6115625 -47.70996094 25.765625 C-87.68904963 33.05602868 -124.85129367 52.59978498 -155.1875 79.3125 C-156.239375 80.19808594 -156.239375 80.19808594 -157.3125 81.1015625 C-167.60085002 89.80379189 -177.0314152 99.59500013 -185.1875 110.3125 C-185.66654785 110.93688965 -186.1455957 111.5612793 -186.63916016 112.20458984 C-218.53421882 154.05257556 -235.35887378 203.58647757 -235.5 256.125 C-235.50376648 256.8946106 -235.50753296 257.66422119 -235.51141357 258.45715332 C-235.54897048 273.58249162 -234.38915068 288.59019752 -231.0625 303.375 C-230.85077148 304.32487793 -230.63904297 305.27475586 -230.42089844 306.25341797 C-220.1544988 350.50289994 -199.31708338 388.41654446 -168.1875 421.3125 C-167.31222656 422.24191406 -166.43695313 423.17132813 -165.53515625 424.12890625 C-159.14232198 430.7282638 -152.32869224 436.43400859 -145.00244141 441.94189453 C-143.22118202 443.28706405 -141.45973912 444.65519526 -139.69921875 446.02734375 C-92.13087255 482.59665905 -29.0406535 497.26601156 30 489.5625 C40.77428881 488.09556121 51.38700679 486.42566811 61.8125 483.3125 C62.75351562 483.03873535 63.69453125 482.7649707 64.6640625 482.48291016 C89.57818122 475.10681639 113.64588528 464.52486976 134.8125 449.3125 C135.86695313 448.56742187 136.92140625 447.82234375 138.0078125 447.0546875 C155.13019381 434.58172566 170.81351059 420.05615241 183.8125 403.3125 C184.97458984 401.89324219 184.97458984 401.89324219 186.16015625 400.4453125 C212.76689264 367.30284847 228.31130319 325.11092973 233.8125 283.3125 C233.91344971 282.63791748 234.01439941 281.96333496 234.1184082 281.26831055 C237.24727397 258.11470386 235.59395784 233.04587502 230.8125 210.3125 C230.62526367 209.38743652 230.43802734 208.46237305 230.24511719 207.50927734 C223.89164144 176.6362134 210.80828697 148.89995349 193.96484375 122.40625 C192.19007774 119.1815904 192.30574128 116.92315588 192.8125 113.3125 C194.75 109.875 194.75 109.875 197.8125 107.3125 C202.40144709 106.13152097 205.75785359 106.7313683 209.875 109 C214.02057995 113.08879118 216.81261806 118.34217004 219.68994141 123.35693359 C220.45336803 124.68686992 221.22417055 126.01259353 222.00146484 127.33447266 C235.24695583 149.87338322 244.96122806 174.39767615 250.625 199.9375 C250.80772461 200.75718262 250.99044922 201.57686523 251.17871094 202.42138672 C254.84121457 220.13477073 256.34126753 237.68848101 256.1875 255.75 C256.18284729 256.73207428 256.17819458 257.71414856 256.17340088 258.72598267 C256.0937114 273.10088539 255.70920751 287.1878237 252.8125 301.3125 C252.50650879 302.84946533 252.50650879 302.84946533 252.19433594 304.41748047 C239.70131993 365.81874473 206.18844602 424.19159141 154.8125 461.3125 C153.66475242 462.16584392 152.51762638 463.02002439 151.37109375 463.875 C143.17998631 469.91997076 134.67187821 475.30438169 125.8125 480.3125 C125.10528809 480.7146875 124.39807617 481.116875 123.66943359 481.53125 C97.52189144 496.25254051 68.50083558 505.95171333 38.8125 510.3125 C37.60787109 510.48982666 36.40324219 510.66715332 35.16210938 510.84985352 C23.50482646 512.448825 11.94063902 512.6709053 0.1875 512.625 C-1.26733292 512.62226578 -1.26733292 512.62226578 -2.7515564 512.61947632 C-17.10306055 512.57408309 -31.06692918 512.0687347 -45.1875 509.3125 C-46.08452637 509.15152832 -46.98155273 508.99055664 -47.90576172 508.82470703 C-96.59343124 500.01471851 -141.61755908 476.57143453 -177.1875 442.3125 C-177.84685547 441.68037598 -178.50621094 441.04825195 -179.18554688 440.39697266 C-188.67205518 431.25420975 -197.4227263 421.96011354 -205.1875 411.3125 C-205.61611328 410.7340332 -206.04472656 410.15556641 -206.48632812 409.55957031 C-222.16068867 388.38399978 -234.75896222 365.30415061 -243.1875 340.3125 C-243.60056396 339.08998535 -243.60056396 339.08998535 -244.02197266 337.84277344 C-247.26005506 328.07192323 -249.79235473 318.19031263 -251.9375 308.125 C-252.13625732 307.20033936 -252.33501465 306.27567871 -252.53979492 305.32299805 C-255.83249027 289.11638823 -256.56280278 273.1821298 -256.5 256.6875 C-256.49784485 255.66926147 -256.4956897 254.65102295 -256.49346924 253.60192871 C-256.44377396 238.98002576 -256.13811242 224.68116068 -253.1875 210.3125 C-252.98882324 209.29994141 -252.79014648 208.28738281 -252.58544922 207.24414062 C-244.37077709 166.16462668 -226.92390507 129.19028596 -201.1875 96.3125 C-200.76307617 95.76803223 -200.33865234 95.22356445 -199.90136719 94.66259766 C-188.2055529 79.83013613 -174.34439035 65.60238313 -159.1875 54.3125 C-158.09074763 53.46405616 -156.99442223 52.61506022 -155.8984375 51.765625 C-145.8463209 44.08427768 -135.15019813 37.60309884 -124.1875 31.3125 C-123.52782227 30.92964844 -122.86814453 30.54679687 -122.18847656 30.15234375 C-100.07104172 17.40630475 -75.66412922 9.82506313 -50.8125 4.5 C-49.91160645 4.3050293 -49.01071289 4.11005859 -48.08251953 3.90917969 C-32.14219608 0.67722424 -16.22373386 -0.06532951 0 0 Z " fill="#010100" transform="translate(256.1875,-0.3125)"/>
<path d="M0 0 C81.18 0 162.36 0 246 0 C245.24735127 6.02118981 244.47670601 10.43152285 242.5 15.9375 C242.10796387 17.02949707 242.10796387 17.02949707 241.70800781 18.14355469 C236.5989953 31.83617856 229.42878988 43.87630681 220 55 C219.57493164 55.50869629 219.14986328 56.01739258 218.71191406 56.54150391 C211.74249035 64.81408924 203.90606394 71.84451635 195 78 C194.34 78 193.68 78 193 78 C192.99191315 77.43259094 192.98382629 76.86518188 192.97549438 76.28057861 C192.88944543 70.37562625 192.78994162 64.47100945 192.68261719 58.56640625 C192.64433114 56.36268753 192.60947763 54.15890639 192.578125 51.95507812 C192.5324667 48.78753348 192.47447298 45.62041838 192.4140625 42.453125 C192.39673569 40.97480194 192.39673569 40.97480194 192.37905884 39.46661377 C192.3492543 38.08563507 192.3492543 38.08563507 192.31884766 36.67675781 C192.29886215 35.46430389 192.29886215 35.46430389 192.2784729 34.22735596 C191.96045702 31.68371685 191.42965165 30.1300593 190 28 C186.87897489 26.04421269 184.4490649 25.74597023 180.80041504 25.73257446 C179.74892776 25.72404449 178.69744049 25.71551453 177.61408997 25.70672607 C176.46591293 25.70763245 175.3177359 25.70853882 174.13476562 25.70947266 C172.92141037 25.70275543 171.70805511 25.69603821 170.45793152 25.68911743 C167.13354908 25.67337518 163.80941645 25.66676256 160.48501396 25.66548586 C158.40782985 25.66406358 156.33067188 25.65979263 154.25349426 25.65449142 C147.00638162 25.63599668 139.7593425 25.62782042 132.51220703 25.62939453 C125.75697115 25.63059694 119.00205426 25.60947406 112.24689913 25.5779072 C106.4455148 25.55176336 100.64423483 25.54102638 94.84279203 25.54230535 C91.37846372 25.5428154 87.91441916 25.53710875 84.45014954 25.51594925 C80.58838395 25.49300465 76.72705709 25.50207618 72.86523438 25.51416016 C71.71705734 25.50292114 70.56888031 25.49168213 69.38591003 25.48010254 C68.33442276 25.48849152 67.28293549 25.49688049 66.19958496 25.50552368 C64.83021915 25.50388938 64.83021915 25.50388938 63.43318939 25.50222206 C60.23754496 26.15598182 59.05289077 27.52582182 57 30 C55.80177128 32.39645744 55.84372685 33.95662027 55.79467773 36.63330078 C55.77473251 37.59414581 55.75478729 38.55499084 55.73423767 39.54495239 C55.70916893 41.10438065 55.70916893 41.10438065 55.68359375 42.6953125 C55.66281265 43.75789276 55.64203156 44.82047302 55.62062073 45.91525269 C55.55509739 49.31843438 55.49622727 52.72169489 55.4375 56.125 C55.39431743 58.42839366 55.35070323 60.73177926 55.30664062 63.03515625 C55.19941318 68.69002021 55.09765198 74.34496303 55 80 C48.32787925 75.95004703 42.14644621 71.83851673 36.5 66.4375 C35.86763428 65.83744141 35.23526855 65.23738281 34.58374023 64.61914062 C18.60623864 49.12433691 4.29969853 27.15368482 0 5 C0 3.35 0 1.7 0 0 Z " fill="#FD9DB0" transform="translate(133,294)"/>
<path d="M0 0 C12.87 0 25.74 0 39 0 C39.3125 18.1875 39.3125 18.1875 39.38793945 23.90307617 C39.42024282 25.40806535 39.45361844 26.91303206 39.48828125 28.41796875 C39.49452515 29.1912854 39.50076904 29.96460205 39.50720215 30.76135254 C39.62857914 35.33027657 40.13384472 38.38402029 43 42 C46.23627302 44.15751534 46.83578838 44.2536352 50.5 43.875 C51.66015625 43.77832031 51.66015625 43.77832031 52.84375 43.6796875 C55.85645772 42.73002963 56.45878357 41.77435116 58 39 C58.4743145 36.03101327 58.48890249 33.0804502 58.51171875 30.078125 C58.52835571 29.3154834 58.54499268 28.5528418 58.56213379 27.76708984 C58.61980563 24.92833813 58.65215402 22.08911747 58.6875 19.25 C58.790625 12.8975 58.89375 6.545 59 0 C71.87 0 84.74 0 98 0 C98.11548497 7.70156441 98.21482117 15.40006266 98.2746582 23.10180664 C98.29963048 25.7155176 98.3336203 28.32915997 98.37719727 30.94262695 C98.72153934 52.14194546 98.02503948 67.64702808 83.19921875 83.984375 C72.62796112 94.21608474 59.72457478 97.28921575 45.48999023 97.31689453 C39.03896758 97.2039755 33.78743459 95.93011626 28 93 C27.13890625 92.56429687 26.2778125 92.12859375 25.390625 91.6796875 C12.29640305 84.41834624 5.03612054 73.7074952 0.82043457 59.54580688 C-0.50063631 53.83631782 -0.49466559 48.31534417 -0.390625 42.48046875 C-0.38496521 41.25588455 -0.37930542 40.03130035 -0.37347412 38.76960754 C-0.35131755 34.90848503 -0.30115927 31.04833581 -0.25 27.1875 C-0.22990828 24.54884165 -0.21166224 21.91016856 -0.1953125 19.27148438 C-0.15494497 12.84699156 -0.07660962 6.42456824 0 0 Z " fill="#FD7C96" transform="translate(208,339)"/>
<path d="M0 0 C3.27371352 2.6724192 4.78236726 4.06474275 5.25390625 8.2578125 C5.03309124 12.31277897 4.84048046 14.22248236 1.7578125 17.07421875 C-0.85736294 18.9003965 -3.50609115 20.56281713 -6.25 22.1875 C-16.00482481 28.36293345 -22.23740617 36.08685628 -28 46 C-27.46632813 45.80664062 -26.93265625 45.61328125 -26.3828125 45.4140625 C-25.26519531 45.02347656 -25.26519531 45.02347656 -24.125 44.625 C-23.40570313 44.36976563 -22.68640625 44.11453125 -21.9453125 43.8515625 C-13.7952401 41.49517552 -6.03338404 40.65916928 2.4375 40.6875 C3.87706055 40.66333008 3.87706055 40.66333008 5.34570312 40.63867188 C21.27341076 40.62794615 39.66175603 47.26896203 51.859375 57.5703125 C54.04735429 59.91808803 54.97221236 61.86661933 55.625 65 C54.75004681 69.19977529 52.99012644 70.93868007 50 74 C46.90582664 75.54708668 44.32321504 75.73782572 41 75 C38.26787165 73.43057352 35.71620797 71.66160516 33.11328125 69.88671875 C19.91310388 61.88711314 2.59804372 59.37757203 -12.453125 62.90625 C-21.34981849 65.37524358 -29.65858684 69.08213934 -36.5625 75.3125 C-40.16241762 77.80475066 -43.64792476 78.47421558 -48 78 C-51.12831275 76.34804275 -53.39775813 74.20448375 -55 71 C-56.62824171 51.78674787 -45.66831229 32.07628406 -33.6875 17.80859375 C-25.62398047 9.38174703 -12.39306799 -3.92447153 0 0 Z " fill="#030302" transform="translate(364,158)"/>
<path d="M0 0 C18.66745917 8.56602022 33.2777165 25.73733295 40.75 44.625 C41.51792634 46.74358777 42.27006056 48.86802594 43 51 C43.24878906 51.70898438 43.49757813 52.41796875 43.75390625 53.1484375 C45.55701519 59.12517622 45.92832958 65.85571692 45 72 C43.28690564 74.70112904 41.94822599 76.48026107 39.1328125 78.0234375 C32.59431688 79.16831027 28.54367796 76.20321255 23.37890625 72.62036133 C9.50758704 62.99974945 -6.44850725 59.84932935 -23.06152344 62.3046875 C-32.47899207 64.20270688 -40.56873378 68.534803 -48.58984375 73.65234375 C-51.97399007 75.54461357 -54.18457327 75.54506096 -58 75 C-61.87949018 71.79520377 -63.80826445 69.69366403 -64.375 64.6875 C-63.89526462 59.97010209 -62.49595304 59.09312717 -59 56 C-41.12968578 43.02128486 -18.96684154 38.15830568 2.828125 41.60546875 C8.00149784 42.76888707 12.98168126 44.29258386 18 46 C12.24689331 34.03122527 4.21316724 26.77848606 -7 20 C-13.50262637 15.83020493 -13.50262637 15.83020493 -14.59765625 11.80078125 C-14.88125364 7.4013858 -14.41284944 5.52149402 -11.625 2 C-7.4744811 -1.16230011 -4.95533808 -1.50476235 0 0 Z " fill="#030301" transform="translate(160,158)"/>
<path d="M0 0 C3.21430325 1.90477229 5.43594535 3.3244259 6.6640625 6.97265625 C7.13344632 9.89266022 7.1477724 12.45324213 6.375 15.3125 C4.04616841 18.1706115 1.7322418 19.67739626 -1.9296875 20.359375 C-5.90364153 20.62930395 -7.59634236 20.28341919 -10.9375 17.9375 C-13.43209094 14.38459775 -14.07615714 12.34095695 -14 8 C-10.57517533 1.51729616 -7.40020316 -0.87799021 0 0 Z " fill="#040402" transform="translate(433,74)"/>
</svg>
