<?xml version="1.0" encoding="UTF-8"?>
<svg version="1.1" xmlns="http://www.w3.org/2000/svg" width="512" height="512">
<path d="M0 0 C0.97485352 0.19867676 1.94970703 0.39735352 2.95410156 0.60205078 C46.22381524 9.65329926 86.42519334 28.03770671 120 57 C120.74507813 57.63421875 121.49015625 58.2684375 122.2578125 58.921875 C135.76279833 70.73301515 148.43418743 83.48360228 159 98 C159.85649066 99.14994831 160.71326433 100.29968589 161.5703125 101.44921875 C167.61034209 109.63934258 172.99367614 118.14379618 178 127 C178.4021875 127.70721191 178.804375 128.41442383 179.21875 129.14306641 C192.2441741 152.27845836 200.99301461 177.44962409 206.3125 203.4375 C206.45985596 204.15639404 206.60721191 204.87528809 206.7590332 205.6159668 C209.71015207 221.14262092 210.40707988 236.54313408 210.375 252.3125 C210.37418427 253.82677582 210.37418427 253.82677582 210.37335205 255.37164307 C210.33258601 271.88123539 209.42529309 287.79782001 206 304 C205.78037598 305.04188477 205.56075195 306.08376953 205.33447266 307.15722656 C195.23685215 353.45049311 172.87771242 395.86413721 140 430 C139.36787598 430.65935547 138.73575195 431.31871094 138.08447266 431.99804688 C128.94002521 441.48630305 119.64265991 450.2262044 109 458 C107.84894983 458.85806152 106.69790823 459.71613451 105.546875 460.57421875 C97.35724019 466.61177396 88.85461724 471.99457302 80 477 C79.29278809 477.4021875 78.58557617 477.804375 77.85693359 478.21875 C51.65402993 492.97120951 22.7137648 502.50595735 -7 507 C-8.12172607 507.17660156 -9.24345215 507.35320312 -10.39916992 507.53515625 C-22.03325467 509.19579155 -33.57312935 509.39873309 -45.3125 509.375 C-46.32645844 509.37445618 -47.34041687 509.37391235 -48.38510132 509.37335205 C-64.59432821 509.33345968 -80.10641944 508.41683573 -96 505 C-97.05864258 504.78037598 -98.11728516 504.56075195 -99.20800781 504.33447266 C-140.89998259 495.53394078 -179.67738051 476.88213183 -212 449 C-212.74507813 448.36578125 -213.49015625 447.7315625 -214.2578125 447.078125 C-227.76279833 435.26698485 -240.43418743 422.51639772 -251 408 C-251.85649066 406.85005169 -252.71326433 405.70031411 -253.5703125 404.55078125 C-259.61034209 396.36065742 -264.99367614 387.85620382 -270 379 C-270.4021875 378.29278809 -270.804375 377.58557617 -271.21875 376.85693359 C-285.97220851 350.65225553 -295.50170334 321.71453614 -300 292 C-300.17732666 290.88117432 -300.35465332 289.76234863 -300.53735352 288.60961914 C-302.21876346 276.88764016 -302.35733932 265.26500982 -302.3125 253.4375 C-302.31034485 252.41676392 -302.3081897 251.39602783 -302.30596924 250.34436035 C-302.25630099 235.70170002 -301.94579688 221.39011101 -299 207 C-298.70996094 205.50509033 -298.70996094 205.50509033 -298.4140625 203.97998047 C-289.23523807 157.52634665 -268.30693716 114.72359782 -236 80 C-234.7868031 78.60839179 -233.57823786 77.21272812 -232.375 75.8125 C-226.72376641 69.34281189 -220.58027551 63.51489757 -214 58 C-213.24251465 57.36384766 -213.24251465 57.36384766 -212.46972656 56.71484375 C-197.76726668 44.44713173 -181.97291744 33.86737291 -165 25 C-164.25540527 24.60603027 -163.51081055 24.21206055 -162.74365234 23.80615234 C-140.68725094 12.27760444 -116.44943457 4.49955302 -92 0 C-91.19933105 -0.16081055 -90.39866211 -0.32162109 -89.57373047 -0.48730469 C-61.57783464 -5.96341256 -27.91677188 -5.84707699 0 0 Z " fill="#D2D7E4" transform="translate(302,3)"/>
<path d="M0 0 C0.97485352 0.19867676 1.94970703 0.39735352 2.95410156 0.60205078 C46.22381524 9.65329926 86.42519334 28.03770671 120 57 C120.74507813 57.63421875 121.49015625 58.2684375 122.2578125 58.921875 C135.76279833 70.73301515 148.43418743 83.48360228 159 98 C159.85649066 99.14994831 160.71326433 100.29968589 161.5703125 101.44921875 C167.61034209 109.63934258 172.99367614 118.14379618 178 127 C178.4021875 127.70721191 178.804375 128.41442383 179.21875 129.14306641 C192.2441741 152.27845836 200.99301461 177.44962409 206.3125 203.4375 C206.45985596 204.15639404 206.60721191 204.87528809 206.7590332 205.6159668 C209.71015207 221.14262092 210.40707988 236.54313408 210.375 252.3125 C210.37418427 253.82677582 210.37418427 253.82677582 210.37335205 255.37164307 C210.33258601 271.88123539 209.42529309 287.79782001 206 304 C205.78037598 305.04188477 205.56075195 306.08376953 205.33447266 307.15722656 C194.09884773 358.66775614 167.95888357 401.96665538 131.0625 439.0625 C129.96107666 440.17105347 129.96107666 440.17105347 128.83740234 441.30200195 C128.13953613 441.99769287 127.44166992 442.69338379 126.72265625 443.41015625 C126.10140869 444.03027588 125.48016113 444.65039551 124.84008789 445.28930664 C119.77308406 450 119.77308406 450 117 450 C116.63648438 449.28714844 116.27296875 448.57429688 115.8984375 447.83984375 C110.91246207 438.34092132 105.81476639 432.10769347 97 426 C99.36153509 423.57099248 101.60824427 421.27835275 104.375 419.3125 C113.76251744 411.04254416 119.16292907 398.73645658 120.22265625 386.41015625 C120.65701301 373.24725784 116.23140667 362.35224721 108.6875 351.75 C105.09800299 348.07702631 101.12941699 345.04083429 97 342 C99.55126446 339.37369835 101.92141986 337.05808098 104.875 334.875 C113.46439259 327.79096488 118.21762526 315.74469301 120 305 C121.00960609 292.70998735 118.1099349 281.12537506 111 271 C107.84182172 267.46264075 104.47770202 264.21945682 101 261 C99.66100503 259.67235245 98.32567509 258.34094784 97 257 C97.65226562 256.5153125 98.30453125 256.030625 98.9765625 255.53125 C104.62108685 251.20211628 109.21958842 247.04627341 113 241 C113.56654297 240.09701172 113.56654297 240.09701172 114.14453125 239.17578125 C119.99997378 228.71493448 121.64765469 216.06743115 118.8125 204.5 C114.03110736 188.83377803 104.78926759 179.35288967 91 171 C91.804375 170.0925 92.60875 169.185 93.4375 168.25 C100.65337125 159.7687864 107.03869534 151.48580646 111 141 C111.31839844 140.20207031 111.63679688 139.40414062 111.96484375 138.58203125 C114.92084106 130.23167939 115.77269997 120.39326227 112.375 112.0625 C108.51592544 104.80312198 103.83753945 99.80882917 96 97 C81.67388164 93.57368919 69.3834671 98.33909309 56.875 105.21875 C53.93494506 106.92634559 53.93494506 106.92634559 51.4375 109.28125 C49 111 49 111 46.44140625 110.84765625 C44.25284149 110.08778656 42.09782971 109.27336589 39.9375 108.4375 C26.96923149 104.5353713 12.95661256 105.90172771 1 112 C0.34 112.33 -0.32 112.66 -1 113 C-1.52787109 111.948125 -1.52787109 111.948125 -2.06640625 110.875 C-7.81515277 99.82780042 -13.96910472 92.96060689 -25 87 C-25.80824219 86.56300781 -26.61648438 86.12601562 -27.44921875 85.67578125 C-38.0289405 80.94231076 -52.2388434 81.18521064 -63.0625 85 C-76.23655411 91.07254735 -84.85436116 99.88081242 -91 113 C-91.79664063 112.65066406 -92.59328125 112.30132812 -93.4140625 111.94140625 C-94.47367188 111.48636719 -95.53328125 111.03132813 -96.625 110.5625 C-97.66914063 110.11003906 -98.71328125 109.65757813 -99.7890625 109.19140625 C-109.50019979 105.58812538 -122.54903715 105.23490922 -132.25 109.0625 C-133.05953125 109.44535156 -133.8690625 109.82820313 -134.703125 110.22265625 C-137.62368627 111.21107749 -139.08102977 110.95488794 -142 110 C-144.47265625 108.546875 -144.47265625 108.546875 -147.0625 106.75 C-152.77722192 102.99417062 -158.5997201 100.36773361 -165 98 C-166.155 97.566875 -167.31 97.13375 -168.5 96.6875 C-176.69687932 95.07739871 -185.50166771 94.9333369 -193 99 C-200.1232057 104.14643092 -204.51015843 109.20102118 -206 118 C-207.43996671 135.37402451 -200.79231437 149.66764289 -189.90234375 162.8359375 C-188.32230655 164.63335148 -186.71749292 166.33602669 -185 168 C-183 170 -183 170 -183 172 C-184.77850597 173.05927936 -186.60041839 174.04591017 -188.4375 175 C-198.35795137 180.65044577 -204.76007485 188.44275665 -209 199 C-209.36351562 199.88042969 -209.72703125 200.76085937 -210.1015625 201.66796875 C-213.35898224 213.74874718 -212.10096923 228.13404021 -206 239 C-201.28955418 246.97955788 -195.93242808 252.23729216 -188 257 C-190.49263522 259.5534312 -193.04259386 261.87974003 -195.8125 264.125 C-204.80488976 271.99543424 -210.60250389 281.92493178 -211.4140625 293.91015625 C-211.98259647 308.20768487 -209.9146965 320.04799948 -200 331 C-196.26510389 335.02474393 -192.38397637 338.67880578 -188 342 C-188.56847656 342.4125 -189.13695312 342.825 -189.72265625 343.25 C-199.88848343 350.85315622 -208.29712391 360.15872675 -211 373 C-212.24083112 387.71882427 -211.05627203 400.5342712 -202.00390625 412.67578125 C-199.25501377 415.86406785 -196.23966355 418.60874329 -193.015625 421.30859375 C-191.24159627 422.79726515 -189.6080192 424.33600545 -188 426 C-189.26700723 426.9841125 -190.5387619 427.96211497 -191.8125 428.9375 C-192.87404297 429.75541016 -192.87404297 429.75541016 -193.95703125 430.58984375 C-196 432 -196 432 -199 433 C-200.05866849 434.82454952 -200.05866849 434.82454952 -201 437 C-202.48251559 439.28823058 -204.02183351 441.53187692 -205.5625 443.78125 C-206.87331116 445.80445853 -207.97081281 447.82287326 -209 450 C-225.63070866 442.403483 -240.43542429 422.56740929 -251 408 C-251.85491814 406.85115255 -252.71039429 405.70272016 -253.56640625 404.5546875 C-259.60890768 396.36407279 -264.99277903 387.85779081 -270 379 C-270.4021875 378.29278809 -270.804375 377.58557617 -271.21875 376.85693359 C-285.97220851 350.65225553 -295.50170334 321.71453614 -300 292 C-300.17732666 290.88117432 -300.35465332 289.76234863 -300.53735352 288.60961914 C-302.21876346 276.88764016 -302.35733932 265.26500982 -302.3125 253.4375 C-302.31034485 252.41676392 -302.3081897 251.39602783 -302.30596924 250.34436035 C-302.25630099 235.70170002 -301.94579688 221.39011101 -299 207 C-298.70996094 205.50509033 -298.70996094 205.50509033 -298.4140625 203.97998047 C-289.23523807 157.52634665 -268.30693716 114.72359782 -236 80 C-234.7868031 78.60839179 -233.57823786 77.21272812 -232.375 75.8125 C-226.72376641 69.34281189 -220.58027551 63.51489757 -214 58 C-213.24251465 57.36384766 -213.24251465 57.36384766 -212.46972656 56.71484375 C-197.76726668 44.44713173 -181.97291744 33.86737291 -165 25 C-164.25540527 24.60603027 -163.51081055 24.21206055 -162.74365234 23.80615234 C-140.68725094 12.27760444 -116.44943457 4.49955302 -92 0 C-91.19933105 -0.16081055 -90.39866211 -0.32162109 -89.57373047 -0.48730469 C-61.57783464 -5.96341256 -27.91677188 -5.84707699 0 0 Z " fill="#FE6C52" transform="translate(302,3)"/>
<path d="M0 0 C0 50.49 0 100.98 0 153 C-7.425 153.99 -7.425 153.99 -15 155 C-20.01448582 158.2058055 -20.01448582 158.2058055 -20.59375 161.18359375 C-20.34592119 167.14181138 -19.32690736 170.67309264 -15 175 C-14.82467711 177.86888581 -14.76862386 180.63992645 -14.8046875 183.5078125 C-14.8075174 184.34843231 -14.81034729 185.18905212 -14.81326294 186.05514526 C-14.8244757 188.74524046 -14.84958197 191.4350051 -14.875 194.125 C-14.8850284 195.94660978 -14.89415449 197.76822477 -14.90234375 199.58984375 C-14.92441858 204.06002358 -14.95895566 208.52995571 -15 213 C-10.05 213 -5.1 213 0 213 C0 283.62 0 354.24 0 427 C-26.7131541 427 -26.7131541 427 -36.375 425.375 C-37.4894751 425.19751221 -38.6039502 425.02002441 -39.75219727 424.8371582 C-85.91373589 417.16580894 -127.61549862 398.43931166 -164 369 C-158.63805454 357.61277561 -152.98488894 350.63892474 -143 343 C-143.4846875 342.67128906 -143.969375 342.34257812 -144.46875 342.00390625 C-155.55872711 334.13428788 -162.8607101 324.3248462 -166 311 C-167.47824923 297.14521553 -166.13106631 284.71390822 -157.75 273.1875 C-153.65742397 268.32138212 -148.74538165 262.87269083 -143 260 C-143.79664063 259.29875 -144.59328125 258.5975 -145.4140625 257.875 C-156.42411591 248.07478534 -165.34352982 238.39960438 -166.484375 222.94921875 C-167.04322029 209.18718669 -165.09416931 197.91979802 -155.97265625 187.07421875 C-147.6535009 178.32675045 -147.6535009 178.32675045 -143 176 C-143.71285156 175.46632813 -144.42570312 174.93265625 -145.16015625 174.3828125 C-155.5560947 166.29552795 -163.01781882 157.0848126 -166 144 C-167.36745186 132.36151705 -167.07862742 121.29185594 -161 111 C-160.55398437 110.195625 -160.10796875 109.39125 -159.6484375 108.5625 C-154.71367524 100.40222275 -147.53392704 94.17988263 -139 90 C-138.34 90 -137.68 90 -137 90 C-137.60134766 89.34257812 -137.60134766 89.34257812 -138.21484375 88.671875 C-146.34882131 79.59723337 -153.66559361 70.49042635 -158 59 C-158.31839844 58.19046875 -158.63679688 57.3809375 -158.96484375 56.546875 C-162.02759283 47.79616333 -162.5130749 37.79652238 -159.109375 29.0625 C-155.2713005 21.92692487 -149.36823179 16.74729271 -141.875 13.75 C-126.6851171 10.81002266 -112.79298068 15.79994583 -100 24 C-99.071875 24.804375 -98.14375 25.60875 -97.1875 26.4375 C-95.07486462 28.27664968 -95.07486462 28.27664968 -92.25 27.9375 C-89.20967049 27.12891661 -89.20967049 27.12891661 -87.21484375 26.25 C-81.90625391 24.12247266 -77.09599801 23.70282804 -71.4375 23.6875 C-70.37535278 23.67964478 -70.37535278 23.67964478 -69.29174805 23.67163086 C-62.25868797 23.76366743 -56.00468217 25.41471576 -49.5 28.125 C-48.6440625 28.47820312 -47.788125 28.83140625 -46.90625 29.1953125 C-46.2771875 29.46085937 -45.648125 29.72640625 -45 30 C-44.505 28.88625 -44.01 27.7725 -43.5 26.625 C-36.84398686 13.47588314 -26.8949643 6.22852306 -13.46875 0.84765625 C-10 0 -10 0 0 0 Z " fill="#E9ECF4" transform="translate(256,85)"/>
<path d="M0 0 C30.66666667 30.66666667 61.33333333 61.33333333 92 92 C92.55749121 92.52981665 93.11498241 93.05963329 93.68936729 93.60550499 C95.38523781 95.40988768 95.56526765 96.69884284 95.9140625 99.1328125 C96.09582031 100.34324219 96.09582031 100.34324219 96.28125 101.578125 C96.3946875 102.41859375 96.508125 103.2590625 96.625 104.125 C96.80675781 105.35089844 96.80675781 105.35089844 96.9921875 106.6015625 C97.35092285 109.06591838 97.68973978 111.52901477 98 114 C98.08398544 114.64742661 98.16797089 115.29485321 98.25450134 115.9618988 C98.94645312 121.6374299 99.18855355 127.24237697 99.23828125 132.95703125 C99.2480751 133.88975357 99.25786896 134.82247589 99.26795959 135.78346252 C99.4405989 156.50093104 99.30428596 176.6400442 95 197 C94.78037598 198.04188477 94.56075195 199.08376953 94.33447266 200.15722656 C83.09884773 251.66775614 56.95888357 294.96665538 20.0625 332.0625 C19.32821777 332.80153564 18.59393555 333.54057129 17.83740234 334.30200195 C17.13953613 334.99769287 16.44166992 335.69338379 15.72265625 336.41015625 C15.10140869 337.03027588 14.48016113 337.65039551 13.84008789 338.28930664 C8.77308406 343 8.77308406 343 6 343 C5.63648438 342.28714844 5.27296875 341.57429688 4.8984375 340.83984375 C-0.08753793 331.34092132 -5.18523361 325.10769347 -14 319 C-11.63846491 316.57099248 -9.39175573 314.27835275 -6.625 312.3125 C2.76251744 304.04254416 8.16292907 291.73645658 9.22265625 279.41015625 C9.65701301 266.24725784 5.23140667 255.35224721 -2.3125 244.75 C-5.90199701 241.07702631 -9.87058301 238.04083429 -14 235 C-11.44873554 232.37369835 -9.07858014 230.05808098 -6.125 227.875 C2.46439259 220.79096488 7.21762526 208.74469301 9 198 C10.00960609 185.70998735 7.1099349 174.12537506 0 164 C-3.15817828 160.46264075 -6.52229798 157.21945682 -10 154 C-11.33899497 152.67235245 -12.67432491 151.34094784 -14 150 C-13.34773438 149.5153125 -12.69546875 149.030625 -12.0234375 148.53125 C-6.37891315 144.20211628 -1.78041158 140.04627341 2 134 C2.37769531 133.39800781 2.75539063 132.79601562 3.14453125 132.17578125 C8.99997378 121.71493448 10.64765469 109.06743115 7.8125 97.5 C3.03110736 81.83377803 -6.21073241 72.35288967 -20 64 C-18.7934375 62.63875 -18.7934375 62.63875 -17.5625 61.25 C-10.34662875 52.7687864 -3.96130466 44.48580646 0 34 C0.47759766 32.80310547 0.47759766 32.80310547 0.96484375 31.58203125 C4.65860935 21.14756897 3.96121567 10.23314049 0 0 Z " fill="#F82814" transform="translate(413,110)"/>
<path d="M0 0 C2.74170794 1.2063515 4.73336378 2.57202375 7.125 4.4375 C14.4830311 9.72902023 23.12617057 10.9560203 32 10 C35.73554601 9.19156094 39.3659942 8.18087616 43 7 C43.3403125 7.50789062 43.680625 8.01578125 44.03125 8.5390625 C49.97376332 16.97869578 57.05235033 22.07422068 67 25 C69.31 25.33 71.62 25.66 74 26 C74 42.83 74 59.66 74 77 C66.575 77.99 66.575 77.99 59 79 C53.98551418 82.2058055 53.98551418 82.2058055 53.40625 85.18359375 C53.65407881 91.14181138 54.67309264 94.67309264 59 99 C59.17532289 101.86888581 59.23137614 104.63992645 59.1953125 107.5078125 C59.1924826 108.34843231 59.18965271 109.18905212 59.18673706 110.05514526 C59.1755243 112.74524046 59.15041803 115.4350051 59.125 118.125 C59.1149716 119.94660978 59.10584551 121.76822477 59.09765625 123.58984375 C59.07558142 128.06002358 59.04104434 132.52995571 59 137 C63.95 137 68.9 137 74 137 C74 147.56 74 158.12 74 169 C51.71390125 169 31.98074334 161.57894089 15 147 C13.49373047 145.71802734 13.49373047 145.71802734 11.95703125 144.41015625 C-11.22596064 124.17772697 -27.80031414 94.56681974 -30.18457031 63.60302734 C-31.19509623 45.01007737 -28.20329807 28.16849659 -15.625 13.75 C-10.82696875 8.66019657 -5.8291973 3.88613153 0 0 Z " fill="#FEFEFE" transform="translate(182,161)"/>
<path d="M0 0 C2.12633159 1.58026978 4.04639382 3.20479432 6 5 C3.77087833 7.29878172 1.58931269 9.52322546 -0.90234375 11.5390625 C-9.51304555 18.51356569 -14.77974235 28.14094451 -17 39 C-17.07991104 40.80581755 -17.10769823 42.61431809 -17.09765625 44.421875 C-17.09443359 45.44667969 -17.09121094 46.47148437 -17.08789062 47.52734375 C-17.07951172 48.59082031 -17.07113281 49.65429688 -17.0625 50.75 C-17.05798828 51.82894531 -17.05347656 52.90789062 -17.04882812 54.01953125 C-17.03705727 56.67974383 -17.02061399 59.33984365 -17 62 C-33.53010383 65.84924797 -33.53010383 65.84924797 -38.7265625 64.0625 C-40.88714538 62.21311219 -42.36899038 60.33162807 -44 58 C-44.75410156 57.08863281 -45.50820312 56.17726563 -46.28515625 55.23828125 C-51.36076266 48.92472205 -55.14429823 42.57040941 -58 35 C-58.31839844 34.19046875 -58.63679688 33.3809375 -58.96484375 32.546875 C-62.02759283 23.79616333 -62.5130749 13.79652238 -59.109375 5.0625 C-55.2713005 -2.07307513 -49.36823179 -7.25270729 -41.875 -10.25 C-26.70063362 -13.18697414 -12.77088248 -8.21292442 0 0 Z " fill="#FEFDFD" transform="translate(156,109)"/>
<path d="M0 0 C6.98084128 5.58467303 11.14409188 11.36800857 12.1640625 20.34375 C12.89370332 37.39430382 5.30960747 52.48555182 -5.875 64.9375 C-6.3385791 65.45530029 -6.8021582 65.97310059 -7.27978516 66.5065918 C-9.71266044 69.09310854 -11.53892789 71.02391327 -15.1875 71.25 C-16.033125 70.96125 -16.87875 70.6725 -17.75 70.375 C-20.95874348 69.32486577 -23.56018301 68.95140789 -26.90234375 68.6796875 C-27.89226318 68.59702637 -28.88218262 68.51436523 -29.90209961 68.42919922 C-30.65628174 68.37006348 -31.41046387 68.31092773 -32.1875 68.25 C-32.17178955 67.60562988 -32.1560791 66.96125977 -32.13989258 66.29736328 C-32.07679099 63.32333471 -32.03827414 60.34944771 -32 57.375 C-31.97486328 56.36179688 -31.94972656 55.34859375 -31.92382812 54.3046875 C-31.78916616 40.29984344 -36.69367452 29.49923831 -46.1171875 19.26953125 C-48.9372861 16.51860488 -51.88119746 14.38532039 -55.1875 12.25 C-41.7248479 -3.00767238 -18.23012757 -10.00869749 0 0 Z " fill="#E9EBF3" transform="translate(405.1875,102.75)"/>
<path d="M0 0 C0.96421875 -0.020625 1.9284375 -0.04125 2.921875 -0.0625 C9.07431225 -0.09593716 13.6924557 0.53467014 19.25 3.25 C21.33344127 6.37516191 21.59215176 7.38798451 21.6875 11 C21.74744141 12.22976562 21.74744141 12.22976562 21.80859375 13.484375 C21.25 16.25 21.25 16.25 18.75927734 19.3605957 C15.6724085 23.58006761 15.51769209 27.13583986 15.54296875 32.24609375 C15.52784744 33.07963882 15.51272614 33.9131839 15.49714661 34.77198792 C15.45446798 37.41077139 15.44545125 40.04840664 15.4375 42.6875 C15.41434013 44.48635823 15.3889717 46.28518946 15.36132812 48.08398438 C15.29867231 52.47275686 15.26618219 56.8608201 15.25 61.25 C5.18645782 61.37847075 -4.71724089 61.04692838 -14.75 60.25 C-14.7593457 59.11981445 -14.76869141 57.98962891 -14.77832031 56.82519531 C-14.81822392 52.62785579 -14.88398326 48.43124896 -14.95751953 44.234375 C-14.9857271 42.41871561 -15.00694274 40.60293348 -15.02099609 38.78710938 C-15.04242909 36.17514211 -15.08907885 33.56465026 -15.140625 30.953125 C-15.14185364 30.14256653 -15.14308228 29.33200806 -15.14434814 28.49688721 C-15.23908904 24.84302426 -15.3342131 22.74594355 -17.72558594 19.89355469 C-18.39364258 19.35118164 -19.06169922 18.80880859 -19.75 18.25 C-21.10523978 14.18428065 -21.54590396 10.48986219 -20.75 6.25 C-15.68312818 -0.78090357 -7.73263015 0.04069805 0 0 Z " fill="#71788A" transform="translate(255.75,237.75)"/>
<path d="M0 0 C4.95 1.98 4.95 1.98 10 4 C11.65 4.33 13.3 4.66 15 5 C15 15.56 15 26.12 15 37 C10.05 37 5.1 37 0 37 C0 24.79 0 12.58 0 0 Z " fill="#9095A9" transform="translate(241,261)"/>
<path d="M0 0 C0.9796875 0.00322266 1.959375 0.00644531 2.96875 0.00976562 C3.98453125 0.01814453 5.0003125 0.02652344 6.046875 0.03515625 C7.59375 0.04192383 7.59375 0.04192383 9.171875 0.04882812 C11.71360073 0.06059537 14.25520819 0.07703614 16.796875 0.09765625 C16.796875 0.42765625 16.796875 0.75765625 16.796875 1.09765625 C13.166875 1.09765625 9.536875 1.09765625 5.796875 1.09765625 C5.796875 10.00765625 5.796875 18.91765625 5.796875 28.09765625 C-3.55176806 26.92907587 -8.02209558 25.18766059 -14.203125 18.09765625 C-15.55836478 14.0319369 -15.99902896 10.33751844 -15.203125 6.09765625 C-11.35611647 0.759462 -6.14229642 -0.03571103 0 0 Z " fill="#72798A" transform="translate(250.203125,237.90234375)"/>
<path d="M0 0 C3.5578125 -0.0928125 3.5578125 -0.0928125 7.1875 -0.1875 C8.29387817 -0.22846802 8.29387817 -0.22846802 9.42260742 -0.27026367 C13.827366 -0.32558339 16.5179177 0.29171377 20 3 C21.87371015 6.74742031 21.52616178 10.91918716 21 15 C18.917209 20.16804684 15.23748108 22.87927367 10.35546875 25.2734375 C7.01146693 26.30492065 3.47244884 26.56594389 0 27 C0 18.09 0 9.18 0 0 Z " fill="#565B67" transform="translate(256,239)"/>
<path d="M0 0 C3.32015872 2.08386162 6.2312203 4.46244061 8 8 C8.59639589 14.08323808 7.42872436 17.14264048 4 22 C-0.13203714 24.60742805 -4.25201525 24.69524062 -9 24 C-12.46868763 21.93354779 -14.80891972 19.89808091 -16 16 C-16.42161717 10.68762372 -16.53159711 7.26227237 -13 3 C-9.1171956 -0.21718079 -4.90806856 -1.17830758 0 0 Z " fill="#272B2F" transform="translate(318,211)"/>
<path d="M0 0 C4.16636339 1.75913121 6.24086879 3.83363661 8 8 C8.54333853 12.89004676 8.52109104 14.99503871 6.25 19.375 C2.82712823 23.3683504 1.33863337 23.89375926 -3.9375 24.3125 C-7.72776772 24.19273318 -10.05155934 23.52723485 -13 21 C-15.87313616 16.64075893 -16.81745174 13.17719438 -16 8 C-11.7268309 1.4268989 -7.95415852 -0.84130523 0 0 Z " fill="#444C55" transform="translate(202,211)"/>
</svg>
