<?xml version="1.0" encoding="UTF-8"?>
<svg version="1.1" xmlns="http://www.w3.org/2000/svg" width="512" height="512">
<path d="M0 0 C0.88042969 0.63808594 1.76085937 1.27617188 2.66796875 1.93359375 C18.59772762 14.20815214 32.52539306 29.54886862 44 46 C44.49902832 46.70801758 44.99805664 47.41603516 45.51220703 48.14550781 C78.16040923 94.76785234 99.63298976 150.41538699 106 207 C106.0942627 207.774646 106.18852539 208.54929199 106.28564453 209.34741211 C107.20596896 217.85670869 107.22114538 226.38142566 107.24023438 234.9309082 C107.2498907 237.53304635 107.28098208 240.13437584 107.3125 242.73632812 C107.4036269 257.15444867 105.77359686 271.15235793 101.8125 285.0625 C101.50276245 286.15510132 101.50276245 286.15510132 101.18676758 287.26977539 C97.35909298 300.06309988 91.44591595 311.64082554 83 322 C82.47148437 322.70253906 81.94296875 323.40507812 81.3984375 324.12890625 C72.49836454 335.33072222 59.0530056 342.46680364 45.0546875 344.6875 C37.48359048 345.46203678 29.91324424 345.69643656 22.45703125 344.0546875 C15.77849672 342.64324139 9.05211594 342.25909808 2.25 341.875 C1.5304715 341.83330688 0.81094299 341.79161377 0.0696106 341.74865723 C-30.13437453 340.05158807 -60.42909219 340.54563247 -90.61743164 342.28808594 C-91.42253174 342.33406921 -92.22763184 342.38005249 -93.05712891 342.4274292 C-94.52180546 342.51263764 -95.98628431 342.60138723 -97.45043945 342.69512939 C-103.96550604 343.08243903 -110.47540064 343.03949909 -117 343 C-116.85997055 344.09279266 -116.7199411 345.18558533 -116.57566833 346.31149292 C-115.25396719 356.63765484 -113.94405964 366.96525428 -112.64552212 377.29435539 C-111.97764412 382.60390581 -111.3057009 387.91287399 -110.62426758 393.22070312 C-109.96613068 398.34828053 -109.31893361 403.47713356 -108.67912483 408.60702896 C-108.43380513 410.55860267 -108.18462549 412.50969539 -107.93142509 414.4602623 C-107.57596143 417.20392086 -107.23457966 419.94900848 -106.89624023 422.69482422 C-106.78978683 423.49108719 -106.68333344 424.28735016 -106.57365417 425.10774231 C-105.74562052 432.0331272 -105.55479892 438.99842853 -108.625 445.375 C-112.4602019 449.61390736 -115.58443089 451.79401169 -121.35253906 452.28588867 C-127.40114448 452.22171745 -132.87259574 450.04950148 -138.53125 448.08984375 C-139.7217395 447.68472061 -140.912229 447.27959747 -142.13879395 446.86219788 C-144.64913652 446.00330174 -147.15702298 445.13934471 -149.66259766 444.2668457 C-152.84934793 443.15848143 -156.04499779 442.07884674 -159.24411774 441.00679684 C-162.32506866 439.9687611 -165.39628583 438.90268628 -168.46875 437.83984375 C-169.60542114 437.46037094 -170.74209229 437.08089813 -171.91320801 436.68992615 C-179.99752804 433.83246795 -186.05402844 430.39713673 -190.89526367 423.17114258 C-191.31525635 422.25486084 -191.73524902 421.3385791 -192.16796875 420.39453125 C-192.66224365 419.34209229 -193.15651855 418.28965332 -193.66577148 417.20532227 C-194.16794189 416.08569092 -194.6701123 414.96605957 -195.1875 413.8125 C-196.02140069 412.01867109 -196.85530615 410.22484439 -197.68946838 408.43113708 C-198.55486007 406.56086781 -199.41070909 404.68651428 -200.26367188 402.81054688 C-202.27993549 398.37704198 -204.33369353 393.96126496 -206.38887024 389.54570007 C-207.76865457 386.58041705 -209.1440619 383.61330881 -210.51049805 380.6418457 C-213.86627912 373.35397286 -217.36835414 366.15441493 -221 359 C-233.23105116 360.52115196 -245.37694272 362.33019498 -257.5 364.5625 C-259.22536987 364.87707153 -259.22536987 364.87707153 -260.9855957 365.19799805 C-262.07316162 365.40207275 -263.16072754 365.60614746 -264.28125 365.81640625 C-265.24095703 365.99631104 -266.20066406 366.17621582 -267.18945312 366.36157227 C-270.08152346 366.96880285 -270.08152346 366.96880285 -273.13061523 368.05297852 C-284.57361322 371.8296644 -297.48903783 368.53399137 -307.98046875 363.59765625 C-339.98993931 346.30323953 -358.14598308 310.58102817 -368.18212891 277.03515625 C-369.21910358 273.37883656 -370.13410515 269.70019022 -371 266 C-371.16371094 265.3203418 -371.32742188 264.64068359 -371.49609375 263.94042969 C-377.03132227 240.02687012 -376.97478589 212.04509979 -364.9609375 190.12109375 C-358.45208455 179.76138557 -351.14645759 174.71740599 -340 170 C-339.07445312 169.60731934 -338.14890625 169.21463867 -337.1953125 168.81005859 C-332.85395248 166.97423221 -328.50931323 165.14636887 -324.16137695 163.32617188 C-306.20259736 155.77428795 -288.86792016 147.16732819 -271.88818359 137.62304688 C-269.92537047 136.52002222 -267.95942394 135.4225588 -265.99072266 134.33007812 C-252.72036412 126.95509887 -239.86587812 119.12187998 -227.25 110.6875 C-226.63632568 110.27733643 -226.02265137 109.86717285 -225.39038086 109.44458008 C-213.46030506 101.44784915 -201.6916467 93.20434631 -190.3125 84.4375 C-189.59610352 83.88723145 -188.87970703 83.33696289 -188.14160156 82.77001953 C-182.33349763 78.29168636 -176.62363829 73.70835405 -171 69 C-170.50081055 68.58572754 -170.00162109 68.17145508 -169.48730469 67.74462891 C-161.63880796 61.22994247 -154.06885139 54.4701384 -146.62060547 47.50292969 C-145.02203868 46.0204384 -143.407152 44.55835041 -141.78515625 43.1015625 C-129.63445059 32.14585729 -117.53208311 20.22044861 -108.25 6.6875 C-97.56744451 -8.06171013 -84.53321609 -17.12240123 -66.5625 -20.1875 C-41.78480767 -23.56367517 -19.64513096 -14.63037387 0 0 Z M-81.97265625 27.3984375 C-92.91814136 43.0348448 -97.5752856 66.19258618 -97 85 C-95.5459375 85.185625 -95.5459375 85.185625 -94.0625 85.375 C-77.21462208 87.83640282 -64.72875918 94.79575058 -53 107 C-52.28585937 107.71800781 -51.57171875 108.43601562 -50.8359375 109.17578125 C-30.99277639 130.16526043 -18.58673626 159.26167076 -12 187 C-11.83628906 187.6487207 -11.67257812 188.29744141 -11.50390625 188.96582031 C-5.55154389 213.10732303 -6.31522289 242.12423755 -19 264 C-21.43706492 267.28066432 -24.01634197 270.21008599 -27 273 C-25.58295057 277.53126272 -23.08634823 280.38088127 -19.75 283.625 C-19.22422363 284.1420752 -18.69844727 284.65915039 -18.15673828 285.19189453 C-3.28721187 299.52927596 14.12760446 312.59644446 35.6171875 312.33203125 C45.27576929 311.38401803 51.9932335 305.2081198 58 298 C77.02654449 272.40064923 75.69998976 232.24529532 71.86645508 202.01269531 C62.64096569 139.59284159 32.55314622 68.28815623 -18 28 C-39.5840686 12.03505163 -62.67446404 3.93489292 -81.97265625 27.3984375 Z M-135.375 81.9375 C-139.78094576 85.93894509 -144.28550561 89.76346182 -148.9140625 93.50390625 C-151.14939817 95.31198156 -153.37188205 97.13112763 -155.5859375 98.96484375 C-181.35117499 120.23138898 -209.16791831 139.1405624 -238 156 C-238.74636719 156.43892578 -239.49273437 156.87785156 -240.26171875 157.33007812 C-264.40585231 171.48964748 -289.57552184 185.71944138 -315.8125 195.62109375 C-316.94864746 196.05260742 -318.08479492 196.48412109 -319.25537109 196.92871094 C-321.44158478 197.7454127 -323.63701834 198.53799717 -325.84228516 199.30175781 C-331.70866946 201.47773615 -335.25995181 203.32015782 -338.17089844 208.99438477 C-346.9349795 230.19489298 -341.952422 258.19762781 -334 279 C-329.15232625 290.66389016 -323.60819292 301.88141144 -316 312 C-315.34257812 312.87785156 -314.68515625 313.75570312 -314.0078125 314.66015625 C-303.26822419 328.87907485 -303.26822419 328.87907485 -287.80957031 336.27758789 C-279.8645532 336.58782332 -272.37776859 334.7813295 -264.70462036 332.98110962 C-191.99447921 316.01442578 -117.46090223 310.36168465 -43 309 C-43.40756531 308.52523224 -43.81513062 308.05046448 -44.23504639 307.56130981 C-45.04053925 306.62241409 -45.04053925 306.62241409 -45.86230469 305.66455078 C-46.39362 305.04540802 -46.9249353 304.42626526 -47.47235107 303.7883606 C-103.01862203 238.76245017 -126.32525795 162.40031434 -130 78 C-132.05730165 78 -133.98636777 80.65619108 -135.375 81.9375 Z M-95 118 C-94.014804 163.85639576 -72.18407145 210.93077726 -48 249 C-45.37176064 246.5220728 -44.36450699 244.75133243 -43.375 241.25 C-43.13523437 240.43015625 -42.89546875 239.6103125 -42.6484375 238.765625 C-35.60197886 208.71205443 -46.64306006 173.77556978 -62 148 C-65.62708937 142.34516775 -69.68931872 137.14383817 -74 132 C-74.61488281 131.16984375 -75.22976563 130.3396875 -75.86328125 129.484375 C-78.30189705 126.64898259 -80.82070077 124.80952433 -83.9375 122.75 C-84.95714844 122.06421875 -85.97679687 121.3784375 -87.02734375 120.671875 C-89.80806662 119.10794676 -91.86268252 118.3928869 -95 118 Z M-163.1484375 347.875 C-163.80582916 347.96378418 -164.46322083 348.05256836 -165.14053345 348.14404297 C-167.21921528 348.42564229 -169.29709539 348.71272764 -171.375 349 C-172.79291916 349.19307284 -174.21088753 349.38578474 -175.62890625 349.578125 C-179.08651611 350.04791203 -182.54342949 350.52261873 -186 351 C-182.74493514 359.59540566 -178.91597145 367.92102125 -175.08203125 376.26855469 C-173.99970709 378.6256379 -172.92145651 380.98455248 -171.84375 383.34375 C-171.14607242 384.86729701 -170.44816361 386.39073816 -169.75 387.9140625 C-169.43321289 388.60698395 -169.11642578 389.2999054 -168.79003906 390.01382446 C-168.17745928 391.34590829 -167.55937927 392.67547872 -166.93539429 394.0022583 C-166.28108178 395.39968759 -165.6435909 396.80506083 -165.01895142 398.21600342 C-164.68865936 398.93282288 -164.35836731 399.64964233 -164.01806641 400.38818359 C-163.72751373 401.03596771 -163.43696106 401.68375183 -163.13760376 402.35116577 C-160.87237184 405.63437567 -157.08262482 406.17262735 -153.375 407 C-152.59898437 407.20238281 -151.82296875 407.40476562 -151.0234375 407.61328125 C-147.06154308 408.64874163 -147.06154308 408.64874163 -143 409 C-143.60718297 395.76074231 -145.33787686 382.69448634 -147.0625 369.5625 C-147.34742811 367.36659129 -147.63193644 365.17062807 -147.91601562 362.97460938 C-148.60584366 357.64910209 -149.30083149 352.32428863 -150 347 C-154.47360651 346.90417978 -158.71701825 347.26899395 -163.1484375 347.875 Z " fill="#000000" transform="translate(390,41)"/>
</svg>
