<?xml version="1.0" encoding="UTF-8"?>
<svg version="1.1" xmlns="http://www.w3.org/2000/svg" width="512" height="512">
<path d="M0 0 C5.47262691 2.70744262 9.96053641 6.21898577 14.625 10.125 C16.04056013 11.29300902 17.457241 12.459661 18.875 13.625 C19.92107422 14.48544922 19.92107422 14.48544922 20.98828125 15.36328125 C23.8260051 17.67203133 26.71568265 19.90754074 29.625 22.125 C35.87444367 26.89492063 42.05902379 31.7429652 48.23388672 36.60888672 C51.15371048 38.90874237 54.07701893 41.20415945 57 43.5 C58.16668361 44.4166451 59.33335027 45.33331177 60.5 46.25 C61.36625 46.930625 61.36625 46.930625 62.25 47.625 C87.33333333 67.33333333 112.41666667 87.04166667 137.5 106.75 C138.07741943 107.20366943 138.65483887 107.65733887 139.24975586 108.12475586 C140.4173041 109.04215009 141.58478449 109.95963067 142.75219727 110.87719727 C145.6548279 113.15844245 148.55859274 115.43821214 151.46484375 117.71484375 C156.81695098 121.91000342 162.15642325 126.1182858 167.45507812 130.38085938 C173.38671411 135.15236466 179.37336132 139.83538133 185.4375 144.4375 C191.81563738 149.2793136 198.06223421 154.25771931 204.25708008 159.33129883 C209.35265102 163.49707177 214.53515763 167.52902585 219.765625 171.5234375 C244.08020385 190.09665772 244.08020385 190.09665772 246 195 C246.25299966 197.37272525 246.25299966 197.37272525 246.25726891 200.06135178 C246.2637178 201.08850068 246.27016669 202.11564958 246.276811 203.17392421 C246.2721652 204.86416992 246.2721652 204.86416992 246.26742554 206.58856201 C246.27195665 207.78689958 246.27648776 208.98523715 246.28115618 210.21988797 C246.29163925 213.54753988 246.29312385 216.87497595 246.29076743 220.20262909 C246.29035966 223.79103651 246.30139467 227.37941157 246.31088257 230.96780396 C246.32750302 237.99915179 246.33299261 245.03046609 246.33410732 252.06183192 C246.33505743 257.77772974 246.33916583 263.49361649 246.34550858 269.2095108 C246.36312484 285.41459188 246.372347 301.61964645 246.37084763 317.82473716 C246.37076772 318.69855046 246.3706878 319.57236376 246.37060547 320.47265625 C246.37052371 321.3475365 246.37044195 322.22241676 246.37035771 323.12380853 C246.36954498 337.29928791 246.38867815 351.47466099 246.4168822 365.65010962 C246.44561235 380.20484219 246.45942238 394.75952292 246.45769465 409.31428456 C246.45703073 417.48584178 246.46252368 425.6572876 246.48405075 433.82881927 C246.50226442 440.7872491 246.50660852 447.74551705 246.4930319 454.70396039 C246.48650274 458.25335965 246.48638266 461.80244838 246.5037384 465.35181808 C246.52237363 469.20252355 246.50991286 473.05277587 246.49447632 476.90350342 C246.50476344 478.02141101 246.51505057 479.13931859 246.52564943 480.29110217 C246.46886372 486.69709586 245.76741935 491.68560331 242 497 C236.98122477 501.77395692 232.86984489 502.14704943 226.20092392 502.13142776 C225.39420531 502.1334804 224.58748671 502.13553303 223.75632209 502.13764787 C221.03005821 502.14334063 218.30384449 502.14185782 215.57757568 502.14044189 C213.612445 502.14302423 211.64731484 502.14603701 209.68218541 502.1494453 C204.26392443 502.15753405 198.84567667 502.15930591 193.42741036 502.16004276 C187.59087024 502.16189006 181.75433704 502.16943575 175.9178009 502.17617798 C163.14725559 502.18977508 150.37671342 502.19578814 137.60616207 502.20018864 C129.63648092 502.2029487 121.66680099 502.20718561 113.69712067 502.21169281 C91.64376789 502.22394239 69.59041589 502.23422162 47.53705978 502.2375679 C46.11061103 502.23778954 44.68416227 502.23801132 43.25771351 502.23823325 C41.82779667 502.23845389 40.39787982 502.23867438 38.96796298 502.2388947 C36.09924745 502.23933726 33.23053193 502.23978437 30.36181641 502.24023438 C29.29490242 502.24039846 29.29490242 502.24039846 28.20643461 502.24056586 C5.14003463 502.244197 -17.92633393 502.26011885 -40.99272187 502.28342474 C-65.37337362 502.30801355 -89.75400741 502.3217403 -114.13467193 502.32293582 C-127.42750632 502.32378761 -140.72030632 502.3296317 -154.01313019 502.34775543 C-165.33110871 502.36313191 -176.64903339 502.3682914 -187.96702036 502.36001733 C-193.74400913 502.35610215 -199.52088939 502.35708273 -205.29786491 502.37107468 C-210.58421662 502.38376149 -215.8703777 502.38266212 -221.15672895 502.37048396 C-223.07128863 502.36851789 -224.98586157 502.37164714 -226.90040258 502.38032833 C-229.49968749 502.39137012 -232.09829361 502.38396853 -234.69755936 502.3719368 C-235.81659856 502.38332959 -235.81659856 502.38332959 -236.95824462 502.39495254 C-243.41212696 502.33031136 -247.90622289 500.81460683 -252.8125 496.5625 C-256.11994779 492.68806116 -257.24846234 490.05853333 -257.26285553 484.95985222 C-257.27053782 483.93742011 -257.27822011 482.914988 -257.2861352 481.8615731 C-257.28353575 480.17921017 -257.28353575 480.17921017 -257.28088379 478.46286011 C-257.28682603 477.27001722 -257.29276828 476.07717434 -257.29889059 474.8481847 C-257.3132512 471.5358034 -257.31860919 468.22362954 -257.32008553 464.91123199 C-257.32378836 461.33913856 -257.33888406 457.76709004 -257.35235596 454.19502258 C-257.37951861 446.38285994 -257.39157183 438.57071784 -257.40037727 430.75851583 C-257.40590368 425.87918888 -257.41437876 420.99986985 -257.42338562 416.12054825 C-257.4477721 402.6077798 -257.46836942 389.09501769 -257.4751358 375.58222771 C-257.47557494 374.71737372 -257.47601407 373.85251972 -257.47646651 372.96145803 C-257.47690306 372.09454527 -257.47733962 371.2276325 -257.4777894 370.33444965 C-257.47867633 368.57778414 -257.47956946 366.82111863 -257.48046875 365.06445312 C-257.48091161 364.19308811 -257.48135447 363.32172309 -257.48181075 362.42395307 C-257.48970329 348.31120698 -257.5246002 334.19866764 -257.57118779 320.08600138 C-257.61864647 305.59227917 -257.64354099 291.09866063 -257.64587164 276.60485947 C-257.64770358 268.4689401 -257.65916794 260.33329001 -257.69551086 252.19744492 C-257.7263561 245.26793505 -257.73652891 238.33877764 -257.72003466 231.40921216 C-257.71223589 227.87561487 -257.71400738 224.34272685 -257.74214935 220.80921745 C-257.7724281 216.97218866 -257.75585187 213.13615068 -257.73498535 209.29904175 C-257.75109816 208.19085079 -257.76721097 207.08265983 -257.78381205 205.94088733 C-257.68614541 198.2483194 -255.72715798 193.09045876 -251 187 C-248.09765625 184.2578125 -248.09765625 184.2578125 -245.0625 182.125 C-243.91137238 181.29228001 -242.76168993 180.45755947 -241.61328125 179.62109375 C-241.0198291 179.19554199 -240.42637695 178.76999023 -239.81494141 178.33154297 C-236.71043392 176.05390188 -233.73888482 173.61359929 -230.75 171.1875 C-225.41883957 166.89118749 -220.01711846 162.70070074 -214.5625 158.5625 C-208.18428039 153.72079872 -201.93776155 148.74227722 -195.74291992 143.66870117 C-190.63864755 139.49581456 -185.44752035 135.45686201 -180.20703125 131.45703125 C-176.80145877 128.8559742 -173.42960435 126.21308007 -170.0625 123.5625 C-169.19020752 122.87583252 -169.19020752 122.87583252 -168.30029297 122.17529297 C-167.1220986 121.24740379 -165.94403901 120.31934346 -164.76611328 119.39111328 C-161.84628952 117.09125763 -158.92298107 114.79584055 -156 112.5 C-154.83331639 111.5833549 -153.66664973 110.66668823 -152.5 109.75 C-145.5 104.25 -145.5 104.25 -143.75024414 102.87524414 C-142.5826959 101.95784991 -141.41521551 101.04036933 -140.24780273 100.12280273 C-137.3451721 97.84155755 -134.44140726 95.56178786 -131.53515625 93.28515625 C-126.18304902 89.08999658 -120.84357675 84.8817142 -115.54492188 80.61914062 C-109.61328589 75.84763534 -103.62663868 71.16461867 -97.5625 66.5625 C-91.18436262 61.7206864 -84.93776579 56.74228069 -78.74291992 51.66870117 C-73.63864755 47.49581456 -68.44752035 43.45686201 -63.20703125 39.45703125 C-59.80145877 36.8559742 -56.42960435 34.21308007 -53.0625 31.5625 C-52.48097168 31.10472168 -51.89944336 30.64694336 -51.30029297 30.17529297 C-50.1220986 29.24740379 -48.94403901 28.31934346 -47.76611328 27.39111328 C-46.01041097 26.0082004 -44.25351585 24.62682029 -42.49609375 23.24609375 C-41.91867432 22.79234375 -41.34125488 22.33859375 -40.74633789 21.87109375 C-39.5860235 20.96010177 -38.42505728 20.04993939 -37.26342773 19.140625 C-34.25425957 16.78294364 -31.2610059 14.40839372 -28.2890625 12.00390625 C-10.68023973 -2.19081841 -10.68023973 -2.19081841 0 0 Z " fill="#6C6CAA" transform="translate(261,5)"/>
<path d="M0 0 C4.93488515 1.13019223 8.47556674 4.62816988 12.25 7.8125 C17.90941775 12.50337724 23.63565643 17.06794597 29.5 21.5 C35.76910536 26.24899739 41.90080348 31.1365567 47.98046875 36.125 C52.74533052 40.01926816 57.59546292 43.78361216 62.5 47.5 C68.86035621 52.31970751 75.08661094 57.27676832 81.25952148 62.33374023 C85.31025191 65.64587594 89.401279 68.89040072 93.5625 72.0625 C98.17869514 75.58284562 102.72946911 79.17033813 107.25 82.8125 C112.58289974 87.10672048 117.98281081 91.2992456 123.4375 95.4375 C129.81571961 100.27920128 136.06223845 105.25772278 142.25708008 110.33129883 C147.36275578 114.5053327 152.55568926 118.54498441 157.796875 122.546875 C165.43705253 128.38273016 172.96900181 134.36011631 180.46020508 140.38549805 C190.49018521 148.45099281 200.68747221 156.29891335 211 164 C209.41737475 168.12898221 206.40344112 170.59922088 203.17504883 173.45385742 C196.88158242 179.14105728 190.84356948 185.03551175 184.86945152 191.05538368 C183.14228101 192.79565073 181.41171376 194.53248158 179.68037415 196.26860046 C176.01319716 199.94703287 172.35004455 203.62945591 168.6875 207.3125 C164.41777956 211.60599316 160.14633204 215.89774066 155.87064552 220.1852932 C154.18035595 221.88197892 152.49314585 223.58168411 150.80607605 225.28157043 C142.32583778 233.80179472 142.32583778 233.80179472 138.05859375 237.43701172 C132.6573147 242.05461888 127.74037056 247.18306936 122.75081825 252.23514748 C120.89111149 254.11711603 119.02726044 255.99488799 117.16215515 257.87150574 C111.86539693 263.20165037 106.57303053 268.5360987 101.29077148 273.88061523 C98.04604036 277.16299675 94.79403441 280.43801775 91.53725243 283.70844078 C90.30212007 284.95161459 89.06976805 286.1975573 87.84029579 287.44632912 C86.12473899 289.18837483 84.40008653 290.92091074 82.6730957 292.65161133 C82.17064835 293.16641556 81.66820099 293.68121979 81.15052795 294.21162415 C78.30216373 297.04392185 75.84920496 298.80559474 72 300 C71.319375 299.41734375 70.63875 298.8346875 69.9375 298.234375 C64.17257189 293.35871772 58.31896466 288.67984028 52.25 284.1875 C46.71697648 280.09062933 41.31767038 275.87265483 36 271.5 C30.57093594 267.05025454 25.09064986 262.68303109 19.5 258.4375 C18.86578125 257.94894531 18.2315625 257.46039063 17.578125 256.95703125 C11.91480198 252.69764125 5.51386287 248.01088764 -1.8984375 248.51171875 C-11.13432428 250.65760322 -18.87403015 258.81279475 -25.99609375 264.70703125 C-30.95432592 268.80654231 -36.05912625 272.69718473 -41.17333984 276.60009766 C-44.85832471 279.42416919 -48.5216695 282.27614324 -52.1875 285.125 C-52.95964844 285.72248047 -53.73179687 286.31996094 -54.52734375 286.93554688 C-57.80462886 289.47797682 -61.06591526 292.02494748 -64.23046875 294.70703125 C-65.10316406 295.44308594 -65.97585937 296.17914063 -66.875 296.9375 C-67.59429687 297.56527344 -68.31359375 298.19304687 -69.0546875 298.83984375 C-71 300 -71 300 -72.79829025 299.87367439 C-75.96785151 298.61594071 -77.76999329 296.59479885 -80.17266846 294.18136597 C-80.68088567 293.67500646 -81.18910289 293.16864695 -81.71272063 292.64694321 C-83.41627899 290.94598739 -85.10887944 289.23452974 -86.80175781 287.52294922 C-88.02022708 286.30199686 -89.23936506 285.08171153 -90.4591217 283.86204529 C-93.08647602 281.23198302 -95.70899546 278.59722394 -98.32788849 275.95873642 C-102.47325639 271.78236019 -106.62895775 267.61637035 -110.78607178 263.45169067 C-117.36604594 256.85721467 -123.93876563 250.25556022 -130.50856566 243.6509496 C-142.25700847 231.84070319 -154.01747833 220.04243942 -165.78085399 208.24706852 C-169.90624258 204.1098856 -174.02842513 199.96954222 -178.14791822 195.82648921 C-180.71981071 193.2406989 -183.2937476 190.65695033 -185.86813164 188.07364082 C-187.05575864 186.88097481 -188.2425023 185.68742839 -189.42826271 184.49290657 C-197.72259965 176.13817227 -197.72259965 176.13817227 -206.5854454 168.39343452 C-208 167 -208 167 -209 164 C-208.22398437 163.40574219 -207.44796875 162.81148437 -206.6484375 162.19921875 C-198.97810435 156.31698771 -191.35822626 150.37385757 -183.76611328 144.39111328 C-180.84628952 142.09125763 -177.92298107 139.79584055 -175 137.5 C-173.83331639 136.5833549 -172.66664973 135.66668823 -171.5 134.75 C-136.5 107.25 -136.5 107.25 -134.75024414 105.87524414 C-133.5826959 104.95784991 -132.41521551 104.04036933 -131.24780273 103.12280273 C-128.3451721 100.84155755 -125.44140726 98.56178786 -122.53515625 96.28515625 C-117.18304902 92.08999658 -111.84357675 87.8817142 -106.54492188 83.61914062 C-100.61328589 78.84763534 -94.62663868 74.16461867 -88.5625 69.5625 C-82.18355042 64.72006984 -75.93576688 59.74147209 -69.74072266 54.66650391 C-65.68994758 51.35424021 -61.59881232 48.10966889 -57.4375 44.9375 C-52.82130486 41.41715438 -48.27053089 37.82966187 -43.75 34.1875 C-38.4171049 29.89328325 -33.01731128 25.70058978 -27.5625 21.5625 C-20.95959577 16.55303393 -14.4888464 11.40222526 -8.08813477 6.13696289 C-7.46350342 5.62383545 -6.83887207 5.11070801 -6.1953125 4.58203125 C-5.64891113 4.13061768 -5.10250977 3.6792041 -4.53955078 3.21411133 C-3.08371818 2.06602133 -1.54267582 1.02845055 0 0 Z " fill="#AFBAD5" transform="translate(255,42)"/>
<path d="M0 0 C4.70816524 1.12833615 8.10756454 4.28413715 11.75 7.3125 C13.08846109 8.40534145 14.42835916 9.4964248 15.76953125 10.5859375 C16.46385254 11.15022461 17.15817383 11.71451172 17.87353516 12.29589844 C21.34385825 15.07693807 24.8913719 17.75427394 28.4375 20.4375 C34.8163778 25.27830139 41.06227262 30.25775076 47.25708008 35.33129883 C52.36135245 39.50418544 57.55247965 43.54313799 62.79296875 47.54296875 C67.98430911 51.5079328 73.10329566 55.56587334 78.23388672 59.60888672 C81.15371048 61.90874237 84.07701893 64.20415945 87 66.5 C88.16668361 67.4166451 89.33335027 68.33331177 90.5 69.25 C91.36625 69.930625 91.36625 69.930625 92.25 70.625 C153.5 118.75 153.5 118.75 155.25073242 120.12573242 C156.41475431 121.04021661 157.57897887 121.95444288 158.7434082 122.8684082 C161.70227472 125.19136889 164.65723326 127.51902598 167.60546875 129.85546875 C168.79924628 130.79977365 169.99325425 131.74378731 171.1875 132.6875 C171.76258301 133.1424585 172.33766602 133.59741699 172.93017578 134.06616211 C177.53835058 137.68930837 182.26732323 141.10170385 187.0859375 144.44140625 C188.03339844 145.21291016 188.03339844 145.21291016 189 146 C189 146.66 189 147.32 189 148 C64.92 148 -59.16 148 -187 148 C-187 147.34 -187 146.68 -187 146 C-185.15625 144.51171875 -185.15625 144.51171875 -182.5 142.6875 C-177.54563341 139.17868767 -172.81576818 135.47817113 -168.125 131.625 C-162.2301116 126.79263505 -156.26589529 122.08149098 -150.20703125 117.45703125 C-146.80145877 114.8559742 -143.42960435 112.21308007 -140.0625 109.5625 C-139.19020752 108.87583252 -139.19020752 108.87583252 -138.30029297 108.17529297 C-137.1220986 107.24740379 -135.94403901 106.31934346 -134.76611328 105.39111328 C-131.84628952 103.09125763 -128.92298107 100.79584055 -126 98.5 C-124.83331639 97.5833549 -123.66664973 96.66668823 -122.5 95.75 C-119 93 -119 93 -115.5 90.25 C-114.92282227 89.7964917 -114.34564453 89.3429834 -113.75097656 88.87573242 C-112.58109984 87.95656687 -111.41117777 87.03745905 -110.24121094 86.1184082 C-107.37328843 83.86543906 -104.5060901 81.61156277 -101.640625 79.35546875 C-94.34109862 73.61047113 -87.016951 67.89796383 -79.68164062 62.19873047 C-73.33216972 57.26341069 -67.00408164 52.30149252 -60.68554688 47.32666016 C-58.37782447 45.51029811 -56.06847668 43.69600891 -53.7590332 41.88183594 C-52.58818471 40.96205766 -51.41744866 40.04213622 -50.24682617 39.12207031 C-47.34454359 36.84104052 -44.44108704 34.56153702 -41.53515625 32.28515625 C-35.475595 27.53558601 -29.44072957 22.75812341 -23.4375 17.9375 C-6.4030441 4.26869607 -6.4030441 4.26869607 0 0 Z " fill="#FEC9D9" transform="translate(255,327)"/>
<path d="M0 0 C3.80201622 1.90100811 5.70183592 3.46331663 8.64160156 6.43041992 C9.55645325 7.34865036 10.47130493 8.2668808 11.41387939 9.2129364 C12.40615362 10.21875518 13.39840148 11.22459996 14.390625 12.23046875 C15.41898117 13.26510308 16.44785937 14.29921879 17.47723389 15.33283997 C20.18768352 18.05658456 22.89252026 20.78582941 25.59576416 23.51672363 C29.90634294 27.87040343 34.22350284 32.21752788 38.54418182 36.56118202 C40.04203811 38.06913852 41.53635906 39.58053083 43.03033447 41.09233093 C47.53135136 45.62504272 52.07342847 49.99405703 56.92303467 54.14912415 C60.94366745 57.73208821 64.70002423 61.59269888 68.49072266 65.41555786 C70.0369274 66.97473727 71.58641896 68.53058621 73.13671875 70.08569336 C76.98344225 73.94565803 80.82464716 77.81109902 84.66601562 81.6763916 C87.92425696 84.95449442 91.1846299 88.23044992 94.44775391 91.50369263 C95.96076052 93.02309466 97.4706797 94.54551703 98.98046875 96.06811523 C103.60587921 100.71742988 108.2667069 105.2525783 113.29492188 109.46875 C116.17678708 112.0568168 118.55362687 115.00319292 121 118 C112.48948763 124.97009871 103.9468354 131.87064292 95.203125 138.546875 C87.5639524 144.38196256 80.03311069 150.35867885 72.54272461 156.38305664 C66.61122365 161.15307933 60.62583684 165.83601442 54.5625 170.4375 C48.27912933 175.20713985 42.128596 180.11205344 36.03076172 185.1159668 C30.46309605 189.66689845 24.770337 194.03836709 19.03686523 198.37768555 C13.9002135 202.27559297 8.91694708 206.31032134 4.00390625 210.48828125 C2 212 2 212 0 212 C0 142.04 0 72.08 0 0 Z " fill="#FDC9D9" transform="translate(37,245)"/>
<path d="M0 0 C0 69.96 0 139.92 0 212 C-3.88593714 210.05703143 -7.01553739 207.75753556 -10.375 205.0625 C-11.6327379 204.06370814 -12.89055253 203.06501289 -14.1484375 202.06640625 C-14.7887793 201.55609863 -15.42912109 201.04579102 -16.08886719 200.52001953 C-19.04838767 198.16616484 -22.0244865 195.83357946 -25 193.5 C-26.16675716 192.58344852 -27.33342357 191.6667815 -28.5 190.75 C-29.0775 190.29625 -29.655 189.8425 -30.25 189.375 C-36.66666667 184.33333333 -43.08333333 179.29166667 -49.5 174.25 C-50.07741943 173.79633057 -50.65483887 173.34266113 -51.24975586 172.87524414 C-52.4173041 171.95784991 -53.58478449 171.04036933 -54.75219727 170.12280273 C-57.6548279 167.84155755 -60.55859274 165.56178786 -63.46484375 163.28515625 C-68.81704079 159.08992618 -74.15664526 154.88162548 -79.45532227 150.61889648 C-86.10344235 145.27121057 -92.83276254 140.04652162 -99.62597656 134.88452148 C-106.85097623 129.38090877 -113.93536895 123.70723469 -121 118 C-117.14110951 113.31004553 -113.09425333 109.0932106 -108.58984375 105.02734375 C-101.80570012 98.79459077 -95.25484204 92.34185897 -88.75390625 85.81640625 C-88.26085369 85.32182293 -87.76780113 84.82723961 -87.25980759 84.31766891 C-83.69046971 80.73615651 -80.12598236 77.14983713 -76.5625 73.5625 C-72.96937055 69.94552762 -69.37445628 66.33036215 -65.77531242 62.7193737 C-64.35978363 61.29747871 -62.9473661 59.87248849 -61.53504944 58.44740295 C-57.7827785 54.68091698 -54.03740224 50.96623865 -50.0012207 47.50341797 C-44.95380497 43.17072616 -40.33576108 38.42149785 -35.6640625 33.69140625 C-34.69416825 32.71455109 -33.72389552 31.7380716 -32.75326538 30.76194763 C-28.66692067 26.65135364 -24.58655674 22.53485808 -20.51025391 18.41430664 C-18.00246399 15.87981249 -15.48988582 13.35014885 -12.97425461 10.82343864 C-12.0194417 9.86241178 -11.06653129 8.89949087 -10.11555862 7.93466377 C-8.79462517 6.5946188 -7.46705715 5.2611234 -6.13916016 3.92797852 C-5.38607574 3.16743668 -4.63299133 2.40689484 -3.85708618 1.62330627 C-2 0 -2 0 0 0 Z " fill="#FDC9D9" transform="translate(475,245)"/>
<path d="M0 0 C3.4799264 1.7399632 5.13659188 2.88843174 7.78387451 5.54336548 C8.52140457 6.27814621 9.25893463 7.01292694 10.01881409 7.76997375 C10.81794724 8.57629745 11.61708038 9.38262115 12.44042969 10.21337891 C13.7141468 11.48665794 13.7141468 11.48665794 15.01359558 12.78565979 C17.33717119 15.11038921 19.65625126 17.43949345 21.97340679 19.77061892 C24.39749135 22.20721389 26.82724848 24.63813871 29.25640869 27.06967163 C33.85374743 31.67322422 38.44596453 36.28185087 43.03636193 40.89232385 C48.26335793 46.1416818 53.49604043 51.38535552 58.72920752 56.6285603 C69.49247673 67.41272936 80.24858507 78.20401184 91 89 C89.57567584 91.97816718 88.22096735 93.97931682 85.8125 96.25 C82.56332956 99.39784496 79.596569 102.70764906 76.64453125 106.1328125 C74.52869105 108.53512038 72.2975339 110.77208834 70 113 C67 112 67 112 60 104 C46.14 90.14 32.28 76.28 18 62 C17.67 102.59 17.34 143.18 17 185 C6.44 185 -4.12 185 -15 185 C-15.495 124.115 -15.495 124.115 -16 62 C-23.87875 69.858125 -31.7575 77.71625 -39.875 85.8125 C-42.36272949 88.29112549 -44.85045898 90.76975098 -47.41357422 93.32348633 C-49.64390318 95.55047056 -49.64390318 95.55047056 -51.87356567 97.77812195 C-52.86589069 98.76891282 -53.85920521 99.75871327 -54.853302 100.74772644 C-56.36011116 102.24721527 -57.86373672 103.74983076 -59.36669922 105.25317383 C-60.21497284 106.09922684 -61.06324646 106.94527985 -61.93722534 107.81697083 C-64.13504958 110.02027588 -64.13504958 110.02027588 -66 113 C-75.07929901 109.20130478 -84.63533362 97.72933275 -89 89 C-59.63 59.63 -30.26 30.26 0 0 Z " fill="#6C6CAA" transform="translate(255,84)"/>
<path d="M0 0 C0.59127686 0.44118164 1.18255371 0.88236328 1.79174805 1.33691406 C2.27683838 1.72588867 2.76192871 2.11486328 3.26171875 2.515625 C3.81843262 2.95849854 4.37514648 3.40137207 4.94873047 3.85766602 C5.52252441 4.31713623 6.09631836 4.77660645 6.6875 5.25 C12.03326787 9.50644428 17.46815839 13.54781583 23.0859375 17.44140625 C24.03339844 18.21291016 24.03339844 18.21291016 25 19 C25 19.66 25 20.32 25 21 C-99.08 21 -223.16 21 -351 21 C-351 20.34 -351 19.68 -351 19 C-349.15625 17.51171875 -349.15625 17.51171875 -346.5 15.6875 C-340.54948558 11.48257325 -334.92684064 6.94240649 -329.30859375 2.30541992 C-328.31859375 1.4910144 -328.31859375 1.4910144 -327.30859375 0.66015625 C-326.71876709 0.17168213 -326.12894043 -0.31679199 -325.52124023 -0.82006836 C-322.56418167 -3.11367517 -320.51741285 -3.13124928 -316.8355751 -3.14983845 C-315.7345402 -3.15777969 -314.63350529 -3.16572093 -313.49910569 -3.17390281 C-312.27948443 -3.1776094 -311.05986317 -3.18131598 -309.80328369 -3.18513489 C-308.51540569 -3.19289513 -307.22752769 -3.20065537 -305.90062308 -3.20865077 C-302.3138411 -3.23006078 -298.72705558 -3.24517628 -295.14023829 -3.2592448 C-291.27643697 -3.27543634 -287.41266679 -3.29727157 -283.54888916 -3.31826782 C-274.21185545 -3.3676796 -264.87478985 -3.40741962 -255.53770602 -3.44598415 C-251.14325555 -3.46432357 -246.74880935 -3.48363332 -242.35436249 -3.50281334 C-227.75051018 -3.56614759 -213.14665057 -3.62695134 -198.54275894 -3.6805315 C-194.75148766 -3.69447226 -190.96021642 -3.70842425 -187.16894531 -3.72241211 C-186.22661591 -3.72588646 -185.28428651 -3.72936082 -184.31340167 -3.73294046 C-169.04356535 -3.78970584 -153.77386191 -3.8635571 -138.50413683 -3.9445521 C-122.83533861 -4.02739111 -107.16653272 -4.095139 -91.49760413 -4.14799136 C-82.69670823 -4.17805103 -73.8959487 -4.21475686 -65.09516144 -4.26828957 C-57.60089297 -4.31382508 -50.10672442 -4.34571414 -42.61232784 -4.3596885 C-38.78772312 -4.36723887 -34.96343477 -4.38132619 -31.13894653 -4.41290474 C-26.99404092 -4.44694721 -22.84969604 -4.44991052 -18.70465088 -4.44978333 C-17.49395251 -4.46464352 -16.28325413 -4.47950371 -15.03586793 -4.49481422 C-8.69940487 -4.4657534 -4.81517694 -4.26987728 0 0 Z " fill="#FCB6CA" transform="translate(419,454)"/>
<path d="M0 0 C4.93488515 1.13019223 8.47556674 4.62816988 12.25 7.8125 C17.90941775 12.50337724 23.63565643 17.06794597 29.5 21.5 C35.76910536 26.24899739 41.90080348 31.1365567 47.98046875 36.125 C52.74533052 40.01926816 57.59546292 43.78361216 62.5 47.5 C68.86035621 52.31970751 75.08661094 57.27676832 81.25952148 62.33374023 C85.31025191 65.64587594 89.401279 68.89040072 93.5625 72.0625 C98.17869514 75.58284562 102.72946911 79.17033813 107.25 82.8125 C112.58289974 87.10672048 117.98281081 91.2992456 123.4375 95.4375 C129.81571961 100.27920128 136.06223845 105.25772278 142.25708008 110.33129883 C147.36275578 114.5053327 152.55568926 118.54498441 157.796875 122.546875 C165.43705253 128.38273016 172.96900181 134.36011631 180.46020508 140.38549805 C190.49018521 148.45099281 200.68747221 156.29891335 211 164 C209.49650623 167.66786393 207.36271208 169.68910393 204.375 172.25 C203.55773437 172.95640625 202.74046875 173.6628125 201.8984375 174.390625 C201.27195312 174.92171875 200.64546875 175.4528125 200 176 C196.2745267 174.3521945 193.19063316 171.99016903 190 169.5 C189.14233032 168.8356897 189.14233032 168.8356897 188.26733398 168.15795898 C183.44883525 164.40212021 178.76534252 160.49458832 174.08984375 156.5625 C169.08548774 152.38282585 163.92376215 148.39960156 158.78222656 144.39111328 C155.84894618 142.1015473 152.92490753 139.80024546 150 137.5 C148.83337853 136.58327582 147.66671184 135.66660917 146.5 134.75 C139.5 129.25 132.5 123.75 125.5 118.25 C124.92258057 117.79633057 124.34516113 117.34266113 123.75024414 116.87524414 C122.5826959 115.95784991 121.41521551 115.04036933 120.24780273 114.12280273 C117.3451721 111.84155755 114.44140726 109.56178786 111.53515625 107.28515625 C106.18304902 103.08999658 100.84357675 98.8817142 95.54492188 94.61914062 C89.61328649 89.84763582 83.62665005 85.16460272 77.5625 80.5625 C71.27538217 75.79001572 65.12158029 70.88171826 59.01977539 65.87524414 C54.2548771 61.98083924 49.4046361 58.21644557 44.5 54.5 C38.91331147 50.2667351 33.41979321 45.94489955 28 41.5 C22.29443935 36.83874799 16.5581942 32.22048175 10.75 27.6875 C10.03457031 27.11773437 9.31914062 26.54796875 8.58203125 25.9609375 C7.91042969 25.44144531 7.23882812 24.92195313 6.546875 24.38671875 C5.95745117 23.92483154 5.36802734 23.46294434 4.76074219 22.98706055 C2.75489975 21.67400173 2.75489975 21.67400173 -1 22 C-3.25053879 23.53499809 -5.28855205 25.07852389 -7.375 26.8125 C-8.63783599 27.83356198 -9.90086189 28.85438914 -11.1640625 29.875 C-12.12554199 30.66003906 -12.12554199 30.66003906 -13.10644531 31.4609375 C-15.95997196 33.78025571 -18.85425665 36.04628436 -21.75 38.3125 C-22.59957275 38.98019409 -22.59957275 38.98019409 -23.46630859 39.66137695 C-29.06708638 44.06265096 -34.69343341 48.43093426 -40.31835938 52.80126953 C-46.66783028 57.73658931 -52.99591836 62.69850748 -59.31445312 67.67333984 C-62.20808827 69.95086206 -65.10419323 72.22524007 -68 74.5 C-69.16667796 75.4166523 -70.33334464 76.33331895 -71.5 77.25 C-78.5 82.75 -85.5 88.25 -92.5 93.75 C-93.07717773 94.2035083 -93.65435547 94.6570166 -94.24902344 95.12426758 C-95.41890016 96.04343313 -96.58882223 96.96254095 -97.75878906 97.8815918 C-100.62671157 100.13456094 -103.4939099 102.38843723 -106.359375 104.64453125 C-113.65890138 110.38952887 -120.983049 116.10203617 -128.31835938 121.80126953 C-134.66783028 126.73658931 -140.99591836 131.69850748 -147.31445312 136.67333984 C-149.62208576 138.48963123 -151.93133557 140.30386009 -154.24072266 142.11791992 C-155.41245281 143.03842566 -156.58400268 143.95916094 -157.75537109 144.88012695 C-160.64363363 147.1507407 -163.53411605 149.41839982 -166.4296875 151.6796875 C-167.57832455 152.57786986 -168.72676165 153.476308 -169.875 154.375 C-170.44081787 154.81779297 -171.00663574 155.26058594 -171.58959961 155.71679688 C-174.84056313 158.27128804 -178.06217012 160.8578993 -181.26171875 163.4765625 C-181.9779541 164.06260254 -182.69418945 164.64864258 -183.43212891 165.25244141 C-184.81845526 166.3896548 -186.20237899 167.52980558 -187.58349609 168.67333984 C-190.9259243 171.41747935 -194.1991746 173.89896792 -198 176 C-199.83946539 174.38150935 -201.67151417 172.75581169 -203.5 171.125 C-204.02464844 170.66480469 -204.54929687 170.20460937 -205.08984375 169.73046875 C-206.43141755 168.52827924 -207.71999185 167.26754054 -209 166 C-209 165.34 -209 164.68 -209 164 C-207.15907101 162.43735098 -205.31460167 160.99407788 -203.375 159.5625 C-202.17260114 158.65701429 -200.97079776 157.7507374 -199.76953125 156.84375 C-199.1451416 156.37453125 -198.52075195 155.9053125 -197.87744141 155.421875 C-194.90892491 153.17367733 -191.98548343 150.86940083 -189.0625 148.5625 C-187.88674432 147.63668627 -186.71096292 146.71090522 -185.53515625 145.78515625 C-184.95137207 145.32512207 -184.36758789 144.86508789 -183.76611328 144.39111328 C-180.84628952 142.09125763 -177.92298107 139.79584055 -175 137.5 C-173.83331639 136.5833549 -172.66664973 135.66668823 -171.5 134.75 C-136.5 107.25 -136.5 107.25 -134.75024414 105.87524414 C-133.5826959 104.95784991 -132.41521551 104.04036933 -131.24780273 103.12280273 C-128.3451721 100.84155755 -125.44140726 98.56178786 -122.53515625 96.28515625 C-117.18304902 92.08999658 -111.84357675 87.8817142 -106.54492188 83.61914062 C-100.61328589 78.84763534 -94.62663868 74.16461867 -88.5625 69.5625 C-82.18355042 64.72006984 -75.93576688 59.74147209 -69.74072266 54.66650391 C-65.68994758 51.35424021 -61.59881232 48.10966889 -57.4375 44.9375 C-52.82130486 41.41715438 -48.27053089 37.82966187 -43.75 34.1875 C-38.4171049 29.89328325 -33.01731128 25.70058978 -27.5625 21.5625 C-20.95959577 16.55303393 -14.4888464 11.40222526 -8.08813477 6.13696289 C-7.46350342 5.62383545 -6.83887207 5.11070801 -6.1953125 4.58203125 C-5.64891113 4.13061768 -5.10250977 3.6792041 -4.53955078 3.21411133 C-3.08371818 2.06602133 -1.54267582 1.02845055 0 0 Z " fill="#C7CDDA" transform="translate(255,42)"/>
<path d="M0 0 C6.01953702 4.98881542 11.53483373 10.38962427 17.0546875 15.921875 C18.00621218 16.87272471 18.95788515 17.82342605 19.90969849 18.77398682 C21.88966767 20.75249168 23.86784168 22.73276896 25.84472656 24.71435547 C28.38004426 27.25540894 30.91987844 29.7918935 33.4610424 32.32709885 C35.42047697 34.28292674 37.3775322 36.24112144 39.33386612 38.20005035 C40.72463488 39.59180987 42.11741677 40.98155673 43.51022339 42.37127686 C44.76755783 43.63333954 44.76755783 43.63333954 46.05029297 44.92089844 C46.7908493 45.66225037 47.53140564 46.40360229 48.29440308 47.16741943 C50 49 50 49 51 51 C54.2239517 49.58460657 56.35666792 47.88585072 58.8125 45.375 C59.5034375 44.67117187 60.194375 43.96734375 60.90625 43.2421875 C63.54539004 40.41594425 66.02418456 37.47369128 68.45703125 34.46875 C70 33 70 33 73 33 C73.66 33.99 74.32 34.98 75 36 C67.74 43.26 60.48 50.52 53 58 C48.83990089 54.43420076 44.86969085 51.00144797 40.98266602 47.19140625 C40.06224014 46.290271 39.14181427 45.38913574 38.1934967 44.46069336 C37.21313793 43.49513153 36.23328612 42.52905473 35.25390625 41.5625 C34.75282789 41.06799347 34.25174953 40.57348694 33.73548698 40.06399536 C31.09311406 37.45396735 28.45465756 34.84004136 25.81860352 32.22363281 C23.64332023 30.06626353 21.45980526 27.91776439 19.26879883 25.77636719 C16.60846414 23.17615869 13.96309437 20.56158329 11.32780266 17.93600464 C10.32536669 16.94211916 9.3178099 15.95337042 8.30505562 14.97000122 C6.89327454 13.59706914 5.5019157 12.20323114 4.11157227 10.80859375 C3.31550064 10.02282959 2.51942902 9.23706543 1.69923401 8.42749023 C-0.40474672 5.42178729 -0.34195907 3.59222505 0 0 Z " fill="#919DC4" transform="translate(272,145)"/>
<path d="M0 0 C0.33 0 0.66 0 1 0 C1.39566578 4.18025183 1.47695801 6.31966314 -0.97412109 9.81590271 C-1.89789551 10.72413284 -2.82166992 11.63236298 -3.7734375 12.56811523 C-4.28062317 13.07632309 -4.78780884 13.58453094 -5.31036377 14.10813904 C-6.98251628 15.77543413 -8.67803311 17.41659375 -10.375 19.05859375 C-11.54237426 20.21290534 -12.70820737 21.36877744 -13.87255859 22.52613831 C-16.93490175 25.56180922 -20.0176801 28.57586983 -23.10522461 31.58587646 C-26.25466427 34.66359038 -29.38427539 37.76132351 -32.515625 40.85742188 C-38.65787471 46.92469461 -44.82186185 52.96927646 -51 59 C-54.8488174 55.7498913 -58.63349881 52.49349707 -62.18359375 48.9140625 C-63.23256836 47.86025391 -63.23256836 47.86025391 -64.30273438 46.78515625 C-65.35944336 45.71587891 -65.35944336 45.71587891 -66.4375 44.625 C-67.16904297 43.88894531 -67.90058594 43.15289062 -68.65429688 42.39453125 C-70.43852723 40.59863926 -72.22036124 38.80044015 -74 37 C-72.68 35.68 -71.36 34.36 -70 33 C-69.53625977 33.50450684 -69.07251953 34.00901367 -68.59472656 34.52880859 C-66.48575318 36.81642814 -64.36801573 39.09575124 -62.25 41.375 C-61.52039063 42.1690625 -60.79078125 42.963125 -60.0390625 43.78125 C-59.33007812 44.54179687 -58.62109375 45.30234375 -57.890625 46.0859375 C-57.24125977 46.7876709 -56.59189453 47.4894043 -55.92285156 48.21240234 C-54.0182194 49.98306216 -52.3307682 50.89863843 -50 52 C-49.60879974 51.53733734 -49.21759949 51.07467468 -48.81454468 50.59799194 C-43.85782235 44.82610998 -38.56728246 39.45379759 -33.1640625 34.1015625 C-31.75880581 32.70208996 -30.35355181 31.30261471 -28.94846153 29.90297508 C-26.50945846 27.47481828 -24.06711372 25.05002757 -21.625 22.625 C-18.68477374 19.70518364 -15.74517185 16.78475683 -12.80941772 13.86044312 C-10.98770657 12.04627735 -9.16373298 10.23438009 -7.33731079 8.42495728 C-6.51910858 7.61005829 -5.70090637 6.7951593 -4.85791016 5.95556641 C-4.13511871 5.23801178 -3.41232727 4.52045715 -2.66763306 3.78115845 C-0.92715505 2.09168115 -0.92715505 2.09168115 0 0 Z " fill="#919DC4" transform="translate(239,144)"/>
<path d="M0 0 C10.56 0 21.12 0 32 0 C32 1.98 32 3.96 32 6 C21.44 6 10.88 6 0 6 C0 4.02 0 2.04 0 0 Z " fill="#929FC5" transform="translate(240,269)"/>
<path d="M0 0 C2.31 0 4.62 0 7 0 C5.37660195 1.70884005 3.70680947 3.37446717 2 5 C1.34 5 0.68 5 0 5 C0 3.35 0 1.7 0 0 Z " fill="#F8B5CA" transform="translate(38,451)"/>
<path d="M0 0 C2.31 0 4.62 0 7 0 C7 1.65 7 3.3 7 5 C4.11562221 3.70700306 2.12780579 2.34058637 0 0 Z " fill="#FAB7CA" transform="translate(467,451)"/>
</svg>
