<?xml version="1.0" encoding="UTF-8"?>
<svg version="1.1" xmlns="http://www.w3.org/2000/svg" width="512" height="512">
<path d="M0 0 C168.96 0 337.92 0 512 0 C512 168.96 512 337.92 512 512 C343.04 512 174.08 512 0 512 C0 343.04 0 174.08 0 0 Z " fill="#000000" transform="translate(0,0)"/>
<path d="M0 0 C0.83530243 -0.00171204 1.67060486 -0.00342407 2.53121948 -0.00518799 C5.33699596 -0.0084965 8.14253332 0.00254562 10.94828796 0.01345825 C12.99140763 0.01407094 15.03452773 0.01380392 17.07764721 0.01272774 C22.5512642 0.01227604 28.02479383 0.02387159 33.4983902 0.03794861 C38.63375119 0.04933461 43.76909088 0.04987464 48.90446472 0.05130005 C63.92518757 0.06179661 78.94589414 0.08971889 93.96659851 0.11550903 C127.52347351 0.15675903 161.08034851 0.19800903 195.65409851 0.24050903 C195.65409851 74.82050903 195.65409851 149.40050903 195.65409851 226.24050903 C121.07409851 226.24050903 46.49409851 226.24050903 -30.34590149 226.24050903 C-30.44902649 192.78675903 -30.55215149 159.33300903 -30.65840149 124.86550903 C-30.70392151 114.3063147 -30.74944153 103.74712036 -30.79634094 92.86795044 C-30.81892395 79.96389771 -30.81892395 79.96389771 -30.82312012 73.92102051 C-30.82777436 69.7046592 -30.8464953 65.48861335 -30.8737793 61.27233887 C-30.90815367 55.88879595 -30.9183429 50.50570969 -30.91126287 45.12206721 C-30.91274266 43.14968138 -30.92261139 41.17727908 -30.94197714 39.20498776 C-31.05142713 27.51191771 -30.83867237 18.74510613 -22.97090149 9.42800903 C-15.48087304 3.18631866 -10.04031611 -0.07508439 0 0 Z " fill="#8BDFFE" transform="translate(50.34590148925781,19.759490966796875)"/>
<path d="M0 0 C74.58 0 149.16 0 226 0 C226 74.58 226 149.16 226 226 C192.54625 226.103125 159.0925 226.20625 124.625 226.3125 C114.06580566 226.35802002 103.50661133 226.40354004 92.62744141 226.45043945 C79.72338867 226.47302246 79.72338867 226.47302246 73.68051147 226.47721863 C69.46415017 226.48187287 65.24810432 226.50059381 61.03182983 226.52787781 C55.64828691 226.56225218 50.26520066 226.57244141 44.88155818 226.56536138 C42.90917235 226.56684117 40.93677005 226.5767099 38.96447873 226.59607565 C27.27140868 226.70552564 18.5045971 226.49277088 9.1875 218.625 C2.71677969 210.86013563 -0.31915501 204.99654175 -0.24050903 194.57180786 C-0.24222107 193.73972305 -0.24393311 192.90763824 -0.24569702 192.05033875 C-0.24899976 189.26149857 -0.23797284 186.47290015 -0.22705078 183.68408203 C-0.22643797 181.65085292 -0.22670534 179.61762338 -0.2277813 177.58439445 C-0.22823262 172.14191498 -0.21664496 166.69952353 -0.20256042 161.25706482 C-0.1911665 156.14915694 -0.19063396 151.04127042 -0.18920898 145.93334961 C-0.17871635 130.99722142 -0.15079402 116.0611096 -0.125 101.125 C-0.08375 67.75375 -0.0425 34.3825 0 0 Z " fill="#EDEDED" transform="translate(20,266)"/>
<path d="M0 0 C33.309375 -0.0825 66.61875 -0.165 100.9375 -0.25 C116.71163696 -0.30462402 116.71163696 -0.30462402 132.80444336 -0.36035156 C145.64953613 -0.37841797 145.64953613 -0.37841797 151.66358948 -0.3817749 C155.8624467 -0.38550032 160.06110147 -0.40048541 164.25990295 -0.42230225 C169.61939046 -0.4497802 174.97858443 -0.45795698 180.33813584 -0.4522891 C182.30279118 -0.45347394 184.26745701 -0.46138141 186.23205173 -0.47686052 C204.83505593 -0.61659966 204.83505593 -0.61659966 212 4 C213.5778125 4.8353125 213.5778125 4.8353125 215.1875 5.6875 C220.30761493 9.89737227 223.95470558 15.70006858 226 22 C226.18234868 24.8165497 226.26155802 27.5312216 226.24050903 30.34590149 C226.24222107 31.18120392 226.24393311 32.01650635 226.24569702 32.87712097 C226.24900554 35.68289745 226.23796341 38.48843481 226.22705078 41.29418945 C226.2264381 43.33730912 226.22670512 45.38042922 226.2277813 47.4235487 C226.228233 52.89716569 226.21663744 58.37069532 226.20256042 63.84429169 C226.19117443 68.97965268 226.19063439 74.11499237 226.18920898 79.25036621 C226.17871242 94.27108905 226.15079014 109.29179563 226.125 124.3125 C226.08375 157.869375 226.0425 191.42625 226 226 C151.42 226 76.84 226 0 226 C0 151.42 0 76.84 0 0 Z " fill="#FAC53F" transform="translate(266,20)"/>
<path d="M0 0 C74.58 0 149.16 0 226 0 C226.0825 33.309375 226.165 66.61875 226.25 100.9375 C226.28641602 111.45359131 226.32283203 121.96968262 226.36035156 132.80444336 C226.37841797 145.64953613 226.37841797 145.64953613 226.3817749 151.66358948 C226.38550032 155.8624467 226.40048541 160.06110147 226.42230225 164.25990295 C226.4497802 169.61939046 226.45795698 174.97858443 226.4522891 180.33813584 C226.45347394 182.30279118 226.46138141 184.26745701 226.47686052 186.23205173 C226.61659966 204.83505593 226.61659966 204.83505593 222 212 C221.443125 213.051875 220.88625 214.10375 220.3125 215.1875 C215.75452465 220.73098354 209.87649371 224.09753844 203 226 C200.15575263 226.17908063 197.41333474 226.261946 194.57180786 226.24050903 C193.73972305 226.24222107 192.90763824 226.24393311 192.05033875 226.24569702 C189.26149857 226.24899976 186.47290015 226.23797284 183.68408203 226.22705078 C181.65085292 226.22643797 179.61762338 226.22670534 177.58439445 226.2277813 C172.14191498 226.22823262 166.69952353 226.21664496 161.25706482 226.20256042 C156.14915694 226.1911665 151.04127042 226.19063396 145.93334961 226.18920898 C130.99722142 226.17871635 116.0611096 226.15079402 101.125 226.125 C67.75375 226.08375 34.3825 226.0425 0 226 C0 151.42 0 76.84 0 0 Z " fill="#CBCBCB" transform="translate(266,266)"/>
<path d="M0 0 C2.9375 2.4375 2.9375 2.4375 5 5 C5.495 5.495 5.495 5.495 6 6 C6.08700342 7.63472882 6.10701063 9.27314055 6.09765625 10.91015625 C6.09282227 12.39418945 6.09282227 12.39418945 6.08789062 13.90820312 C6.07532227 15.46958008 6.07532227 15.46958008 6.0625 17.0625 C6.05798828 18.10728516 6.05347656 19.15207031 6.04882812 20.22851562 C6.03699913 22.8190666 6.02051689 25.40950559 6 28 C6.65081543 28.1139209 7.30163086 28.2278418 7.97216797 28.34521484 C13.01298553 29.28042283 17.48393078 30.36396628 22.125 32.625 C23.05570312 33.07101563 23.98640625 33.51703125 24.9453125 33.9765625 C25.62335938 34.31429687 26.30140625 34.65203125 27 35 C27.83144531 34.15695313 28.66289062 33.31390625 29.51953125 32.4453125 C30.61705397 31.33840925 31.71471759 30.2316457 32.8125 29.125 C33.63331055 28.29162109 33.63331055 28.29162109 34.47070312 27.44140625 C35.26831055 26.63896484 35.26831055 26.63896484 36.08203125 25.8203125 C36.56905518 25.32805176 37.0560791 24.83579102 37.55786133 24.32861328 C40.94483458 21.20826311 43.43126851 20.57099488 47.99609375 20.671875 C51.12934234 21.18492155 52.83568496 22.77009966 55 25 C56.70040858 28.40081716 56.94320498 31.38337965 56 35 C53.34472076 38.68002453 50.19753271 41.7917732 47 45 C45.28937723 46.96838784 43.64859666 48.97913958 42 51 C42.63228516 52.16015625 42.63228516 52.16015625 43.27734375 53.34375 C43.82519531 54.3853125 44.37304688 55.426875 44.9375 56.5 C45.48277344 57.5209375 46.02804687 58.541875 46.58984375 59.59375 C48.2239116 63.54086126 48.63601968 66.76124179 49 71 C49.60996826 70.98428955 50.21993652 70.9685791 50.84838867 70.95239258 C53.6279971 70.88980187 56.40745692 70.85093378 59.1875 70.8125 C60.14720703 70.78736328 61.10691406 70.76222656 62.09570312 70.73632812 C71.09513128 70.64290846 71.09513128 70.64290846 75 74 C77.4434877 77.66523155 77.84707648 80.73970357 77 85 C74.5625 87.9375 74.5625 87.9375 72 90 C71.67 90.33 71.34 90.66 71 91 C69.36527118 91.08700342 67.72685945 91.10701063 66.08984375 91.09765625 C65.10048828 91.09443359 64.11113281 91.09121094 63.09179688 91.08789062 C62.05087891 91.07951172 61.00996094 91.07113281 59.9375 91.0625 C58.89271484 91.05798828 57.84792969 91.05347656 56.77148438 91.04882812 C54.1809334 91.03699913 51.59049441 91.02051689 49 91 C48.8860791 91.65081543 48.7721582 92.30163086 48.65478516 92.97216797 C47.71957717 98.01298553 46.63603372 102.48393078 44.375 107.125 C43.92898438 108.05570312 43.48296875 108.98640625 43.0234375 109.9453125 C42.68570313 110.62335938 42.34796875 111.30140625 42 112 C42.84304688 112.83144531 43.68609375 113.66289062 44.5546875 114.51953125 C45.66159075 115.61705397 46.7683543 116.71471759 47.875 117.8125 C48.43058594 118.35970703 48.98617187 118.90691406 49.55859375 119.47070312 C50.09355469 120.00244141 50.62851562 120.53417969 51.1796875 121.08203125 C51.67194824 121.56905518 52.16420898 122.0560791 52.67138672 122.55786133 C55.79173689 125.94483458 56.42900512 128.43126851 56.328125 132.99609375 C55.81507845 136.12934234 54.22990034 137.83568496 52 140 C48.59918284 141.70040858 45.61662035 141.94320498 42 141 C39.24985771 139.01566656 36.90254926 136.83973312 34.4921875 134.45703125 C31.78047099 131.7835678 28.9492029 129.4063786 26 127 C24.97519531 127.5053125 23.95039063 128.010625 22.89453125 128.53125 C21.53410017 129.18800983 20.17340927 129.84423163 18.8125 130.5 C18.13896484 130.83386719 17.46542969 131.16773438 16.77148438 131.51171875 C15.78051758 131.98544922 15.78051758 131.98544922 14.76953125 132.46875 C14.16729736 132.76201172 13.56506348 133.05527344 12.94458008 133.35742188 C10.56036825 134.14527442 8.49433638 134.10542101 6 134 C6.01571045 134.60996826 6.0314209 135.21993652 6.04760742 135.84838867 C6.11019813 138.6279971 6.14906622 141.40745692 6.1875 144.1875 C6.21263672 145.14720703 6.23777344 146.10691406 6.26367188 147.09570312 C6.35709154 156.09513128 6.35709154 156.09513128 3 160 C-0.66523155 162.4434877 -3.73970357 162.84707648 -8 162 C-10.9375 159.5625 -10.9375 159.5625 -13 157 C-13.33 156.67 -13.66 156.34 -14 156 C-14.08700342 154.36527118 -14.10701063 152.72685945 -14.09765625 151.08984375 C-14.09282227 149.60581055 -14.09282227 149.60581055 -14.08789062 148.09179688 C-14.07532227 146.53041992 -14.07532227 146.53041992 -14.0625 144.9375 C-14.05798828 143.89271484 -14.05347656 142.84792969 -14.04882812 141.77148438 C-14.03699913 139.1809334 -14.02051689 136.59049441 -14 134 C-15.175625 133.89816406 -16.35125 133.79632813 -17.5625 133.69140625 C-21.78688813 133.16335773 -25.16277742 131.81614022 -29 129.9375 C-30.7015625 129.11572266 -30.7015625 129.11572266 -32.4375 128.27734375 C-33.7059375 127.64505859 -33.7059375 127.64505859 -35 127 C-36.24716797 128.26457031 -36.24716797 128.26457031 -37.51953125 129.5546875 C-38.61705397 130.66159075 -39.71471759 131.7683543 -40.8125 132.875 C-41.35970703 133.43058594 -41.90691406 133.98617187 -42.47070312 134.55859375 C-43.00244141 135.09355469 -43.53417969 135.62851563 -44.08203125 136.1796875 C-44.56905518 136.67194824 -45.0560791 137.16420898 -45.55786133 137.67138672 C-49.2601206 141.08220354 -51.93651663 141.5636472 -56.76953125 141.4375 C-59 141 -59 141 -62.0625 138.5 C-63.98211575 135.59683554 -64.96451348 132.75729142 -64.75390625 129.2109375 C-63.38180357 125.18705088 -60.39864653 122.46795088 -57.45703125 119.4921875 C-54.7835678 116.78047099 -52.4063786 113.9492029 -50 111 C-50.5053125 109.97519531 -51.010625 108.95039063 -51.53125 107.89453125 C-52.18800983 106.53410017 -52.84423163 105.17340927 -53.5 103.8125 C-53.83386719 103.13896484 -54.16773438 102.46542969 -54.51171875 101.77148438 C-54.82753906 101.11083984 -55.14335937 100.45019531 -55.46875 99.76953125 C-55.90864258 98.86618042 -55.90864258 98.86618042 -56.35742188 97.94458008 C-57.14527442 95.56036825 -57.10542101 93.49433638 -57 91 C-57.96039185 91.03927612 -57.96039185 91.03927612 -58.94018555 91.0793457 C-61.85570502 91.18361281 -64.77083198 91.24841753 -67.6875 91.3125 C-68.69490234 91.35439453 -69.70230469 91.39628906 -70.74023438 91.43945312 C-78.27838589 91.56384506 -78.27838589 91.56384506 -82.14453125 88.54296875 C-82.75683594 87.70378906 -83.36914062 86.86460937 -84 86 C-84.33 85.67 -84.66 85.34 -85 85 C-85.29322866 82.06771337 -85.50004247 79.85508117 -85 77 C-82.5625 74.0625 -82.5625 74.0625 -80 72 C-79.505 71.505 -79.505 71.505 -79 71 C-77.36527118 70.91299658 -75.72685945 70.89298937 -74.08984375 70.90234375 C-73.10048828 70.90556641 -72.11113281 70.90878906 -71.09179688 70.91210938 C-70.05087891 70.92048828 -69.00996094 70.92886719 -67.9375 70.9375 C-66.37032227 70.94426758 -66.37032227 70.94426758 -64.77148438 70.95117188 C-62.1809334 70.96300087 -59.59049441 70.97948311 -57 71 C-56.89816406 69.824375 -56.79632813 68.64875 -56.69140625 67.4375 C-56.16335773 63.21311187 -54.81614022 59.83722258 -52.9375 56 C-52.38964844 54.865625 -51.84179688 53.73125 -51.27734375 52.5625 C-50.85582031 51.716875 -50.43429687 50.87125 -50 50 C-51.26457031 48.75283203 -51.26457031 48.75283203 -52.5546875 47.48046875 C-53.66159075 46.38294603 -54.7683543 45.28528241 -55.875 44.1875 C-56.43058594 43.64029297 -56.98617188 43.09308594 -57.55859375 42.52929688 C-58.36103516 41.73168945 -58.36103516 41.73168945 -59.1796875 40.91796875 C-59.91807861 40.18743286 -59.91807861 40.18743286 -60.67138672 39.44213867 C-63.79173689 36.05516542 -64.42900512 33.56873149 -64.328125 29.00390625 C-63.81507845 25.87065766 -62.22990034 24.16431504 -60 22 C-56.59918284 20.29959142 -53.61662035 20.05679502 -50 21 C-46.31997547 23.65527924 -43.2082268 26.80246729 -40 30 C-38.03161216 31.71062277 -36.02086042 33.35140334 -34 35 C-32.83984375 34.36771484 -32.83984375 34.36771484 -31.65625 33.72265625 C-30.6146875 33.17480469 -29.573125 32.62695312 -28.5 32.0625 C-27.4790625 31.51722656 -26.458125 30.97195312 -25.40625 30.41015625 C-21.45913874 28.7760884 -18.23875821 28.36398032 -14 28 C-14.01571045 27.42556152 -14.0314209 26.85112305 -14.04760742 26.25927734 C-14.11035513 23.63128691 -14.14911506 21.00345463 -14.1875 18.375 C-14.21263672 17.47136719 -14.23777344 16.56773438 -14.26367188 15.63671875 C-14.32171795 10.33517746 -14.07211599 6.54014344 -11 2 C-7.33476845 -0.4434877 -4.26029643 -0.84707648 0 0 Z " fill="#020200" transform="translate(383,52)"/>
<path d="M0 0 C10.7536932 8.98388475 14.64748271 18.26375145 16.4375 31.9765625 C16.96781379 34.82699912 17.34364335 36.64327032 19 39 C21.42281311 40.67676181 21.42281311 40.67676181 24.25 42.1875 C30.94413862 46.27592542 34.10502681 50.95164818 37.375 57.9375 C39.04335513 66.11244012 38.38379399 72.82299214 34 80 C29.53144124 86.36911034 24.53560384 90.58426431 16.92314148 92.53115845 C13.0280822 93.15588553 9.17179846 93.17236317 5.23754883 93.19287109 C4.3653067 93.20104858 3.49306458 93.20922607 2.59439087 93.21765137 C-0.28472218 93.24240957 -3.16378622 93.25899751 -6.04296875 93.2734375 C-7.52331321 93.28142302 -7.52331321 93.28142302 -9.03356361 93.28956985 C-14.25812629 93.31626083 -19.48266541 93.33564801 -24.70727539 93.35009766 C-29.01868951 93.36342857 -33.32962942 93.39127182 -37.64086914 93.43212891 C-42.85976704 93.48157848 -48.07823542 93.50623363 -53.29735756 93.51332474 C-55.27918504 93.52001511 -57.26100376 93.53517906 -59.24269676 93.55921555 C-80.7909702 93.80565615 -80.7909702 93.80565615 -89.11222839 86.0249939 C-95.07935364 79.8135887 -97.14814854 74.58304098 -97.375 66.0625 C-97.16134885 57.30280282 -95.36696365 51.36696365 -89 45 C-83.36494697 40.18558576 -77.25287272 38.9129666 -70.07421875 37.578125 C-66.97663015 37.06745895 -66.97663015 37.06745895 -64 36 C-63.85304687 35.05640625 -63.70609375 34.1128125 -63.5546875 33.140625 C-61.02223707 18.64452945 -56.12336912 7.24620105 -43.7734375 -1.59375 C-30.13360017 -9.88368647 -13.16743425 -8.52374662 0 0 Z " fill="#EDEDED" transform="translate(163,90)"/>
<path d="M0 0 C9.76529876 8.2400521 16.45820172 19.39267816 20 31.625 C20.22663986 34.33561275 20.0940868 36.89648292 20 39.625 C20.58136719 39.89441406 21.16273438 40.16382813 21.76171875 40.44140625 C31.5772962 45.63184249 37.55931915 55.26451448 41.4375 65.375 C45.46792823 78.84465625 42.97938032 91.31605002 36.5625 103.5 C29.50683804 115.36634057 18.80929459 122.50457956 5.60134888 125.99642944 C-2.5235187 127.4145238 -10.84413744 127.02969663 -19.06640625 126.98828125 C-21.11181132 126.98776164 -23.15721688 126.98828324 -25.20262146 126.98979187 C-29.47329235 126.98970254 -33.74377293 126.97935266 -38.0144043 126.96118164 C-43.4668629 126.93848173 -48.91904433 126.93795737 -54.37153721 126.94469929 C-58.58992441 126.94805293 -62.80824933 126.94138317 -67.02662468 126.93157005 C-69.03631196 126.92774291 -71.0460062 126.92655943 -73.05569649 126.9281559 C-75.87132925 126.92853 -78.68661679 126.91581116 -81.50219727 126.8996582 C-82.3185817 126.90213562 -83.13496613 126.90461304 -83.97608948 126.90716553 C-96.73737335 126.79130806 -109.01224382 123.15473155 -118.484375 114.234375 C-127.43406772 104.73109303 -132.21416939 92.89780116 -133.3125 79.9375 C-132.84819516 66.96275929 -128.54434123 55.31873864 -119.6875 45.75 C-114.08705653 40.61209316 -107.78028834 37.13713483 -100.5625 34.875 C-97.04616739 33.57589634 -97.04616739 33.57589634 -94.98828125 30.61328125 C-94.56317757 28.93182019 -94.1763463 27.2403975 -93.8203125 25.54296875 C-89.68998463 10.85080248 -77.53258386 0.21642176 -65 -7.375 C-43.31691162 -18.61222099 -19.06797086 -13.88860853 0 0 Z M-63 15.625 C-63.62648437 16.12773438 -64.25296875 16.63046875 -64.8984375 17.1484375 C-73.29930311 24.66886304 -76.51846281 34.7722938 -78 45.625 C-78.31415455 46.96298199 -78.64071879 48.29842324 -79 49.625 C-80.11117187 49.83253906 -81.22234375 50.04007813 -82.3671875 50.25390625 C-92.31373544 52.25395435 -101.02951774 54.42637993 -107.67578125 62.71484375 C-112.62953611 70.20827011 -112.82255459 77.77775585 -112 86.625 C-109.877177 93.97552263 -105.37561879 99.46650816 -99 103.625 C-93.47265534 106.43919282 -89.16610208 107.05933082 -83.01049805 107.01318359 C-82.13796387 107.01844055 -81.26542969 107.02369751 -80.36645508 107.02911377 C-77.49802446 107.0422566 -74.63015449 107.03359364 -71.76171875 107.0234375 C-69.75543614 107.02546042 -67.74915425 107.02837368 -65.74287415 107.03213501 C-61.54245996 107.0365511 -57.34223754 107.03015232 -53.1418457 107.01611328 C-47.77887725 106.99905511 -42.41636038 107.00884588 -37.05340862 107.02683067 C-32.9104935 107.03771614 -28.76768385 107.03419981 -24.6247654 107.0264473 C-22.64856728 107.02445671 -20.67235936 107.0268641 -18.69617271 107.03388596 C-0.2004932 107.40755117 -0.2004932 107.40755117 15.3125 98.453125 C21.16144905 92.11676353 23.50915347 85.81352678 23.31640625 77.28125 C22.45565495 70.05518969 19.24287448 63.63992342 14 58.625 C11.44681628 57.01968069 8.87101794 55.5310575 6.20703125 54.1171875 C3.68580345 52.41256976 2.97567971 51.48126443 2 48.625 C1.6535411 46.57099369 1.3672354 44.50638804 1.125 42.4375 C-0.519999 30.97391321 -5.8416144 20.91899996 -15 13.625 C-21.00074432 9.9886794 -26.87912175 6.89887993 -34 6.625 C-35.216875 6.5425 -36.43375 6.46 -37.6875 6.375 C-47.31157209 6.56151302 -55.57999126 9.58012802 -63 15.625 Z " fill="#010202" transform="translate(178,76.375)"/>
<path d="M0 0 C2.4983001 1.53964175 4.31249895 3.50140423 6.25 5.6875 C6.75273438 6.21794922 7.25546875 6.74839844 7.7734375 7.29492188 C10.68374811 10.39950714 13.38374453 13.64247215 16 17 C20.17101773 15.41244952 22.68742385 12.32557564 25.5625 9.0625 C27.37243852 7.03934248 29.18570975 5.01926349 31 3 C31.52851563 2.39027344 32.05703125 1.78054688 32.6015625 1.15234375 C34.81039068 -0.66778003 37.17308514 -0.52595411 39.9296875 -0.4140625 C43.76777121 0.35355424 45.39994663 2.08286695 48 5 C49.29374022 8.5768112 49.31069567 10.22600548 47.89453125 13.75390625 C45.58624843 17.7089228 42.79847338 20.72646215 39.625 24 C37.93034205 25.77203959 36.24161623 27.54616743 34.57983398 29.34912109 C33 31 33 31 30.13671875 33.4765625 C26.0597806 38.45691308 27.21096298 46.24476317 27.1875 52.375 C27.16433631 53.79300688 27.13896707 55.21097954 27.11132812 56.62890625 C27.04871974 60.08591045 27.01619247 63.54243093 27 67 C46.47105556 68.67727394 46.47105556 68.67727394 63.66162109 61.63256836 C65.79168161 59.36485087 67.80106018 57.04424605 69.70947266 54.58691406 C73.27786889 50.19898832 77.92857331 46.71703232 83.25 44.875 C87.32702527 45.06031933 89.56110538 46.76969207 92.58984375 49.359375 C94.82360538 51.95821125 94.90018706 54.03659504 94.8125 57.390625 C93.01682541 63.157503 87.44133332 67.15571835 83 71 C82.31808594 71.59683594 81.63617188 72.19367188 80.93359375 72.80859375 C79.64746811 73.90257532 78.32891655 74.95841676 77 76 C78.52410941 79.75492877 80.77268765 81.80785724 83.8125 84.4375 C84.70324219 85.22898437 85.59398437 86.02046875 86.51171875 86.8359375 C87.91057468 88.05252492 89.32126809 89.25673079 90.76953125 90.4140625 C93.63264967 92.83987464 94.02417336 94.15229217 94.625 97.9375 C94.40425991 100.92032116 93.7444695 103.02099965 92.0625 105.5 C88.59874366 108.3275562 86.92392209 109.07409481 82.53125 108.78125 C74.99877744 106.45641279 68.93120882 99.22287846 63.6328125 93.60546875 C59.09950672 89.14807957 56.44412816 87.50117665 49.94921875 87.390625 C49.29041214 87.37408875 48.63160553 87.35755249 47.95283508 87.34051514 C45.86429349 87.29222444 43.77647878 87.27070918 41.6875 87.25 C40.26493776 87.22182404 38.8424091 87.19189432 37.41992188 87.16015625 C33.94677175 87.08647437 30.47375928 87.03678285 27 87 C25.28535447 106.75754762 25.28535447 106.75754762 32.78466797 124.08374023 C35.16840459 126.32770683 37.64440246 128.40510808 40.21142578 130.43530273 C44.69301129 134.35592538 48.20432951 138.65422519 48.75 144.6875 C48.47611259 148.36905629 47.96093639 149.04668578 45.4375 152.0625 C41.33192394 154.37655196 39.6277476 154.95746502 35 154 C28.31266268 149.69708213 23.16739408 142.9448955 18 137 C13.21616335 138.81222988 10.39685419 142.81310923 7.15429688 146.56835938 C3.56630742 150.62674075 0.4948554 153.57534376 -4.9375 154.5 C-8.24754915 153.95958381 -10.38870783 153.00145014 -12.83984375 150.66796875 C-14.73103831 147.94897859 -15.00370434 145.7853097 -14.765625 142.51171875 C-12.7990334 136.06009425 -7.21614158 130.70162882 -1.98828125 126.6875 C2.79359722 122.68697422 5.52087525 119.86385014 6.57958984 113.53564453 C7.33320205 104.69565376 7.2861923 95.86436316 7 87 C-12.47120142 85.32216453 -12.47120142 85.32216453 -29.66088867 92.36767578 C-31.79280899 94.63605161 -33.81144194 96.95111909 -35.72265625 99.40869141 C-39.02731864 103.52562364 -43.20358533 107.26288905 -48.37109375 108.625 C-52.79979522 108.97406021 -54.56165041 108.34191268 -58.125 105.5625 C-60.33888662 102.22211276 -60.71452142 99.35781061 -60.0390625 95.4375 C-57.80649816 90.20020621 -53.22458958 86.65748782 -49 83 C-48.34128906 82.42507813 -47.68257812 81.85015625 -47.00390625 81.2578125 C-45.69220467 80.14428166 -44.35048014 79.06616853 -43 78 C-44.81222988 73.21616335 -48.81310923 70.39685419 -52.56835938 67.15429688 C-56.62674075 63.56630742 -59.57534376 60.4948554 -60.5 55.0625 C-59.80261456 50.79101418 -58.1339294 48.9295427 -55 46 C-51.39309153 44.69537353 -49.76033053 44.6890525 -46.2109375 46.140625 C-42.47960013 48.30135078 -39.64725213 50.83118866 -36.5625 53.8125 C-34.93181587 55.36450214 -33.29897692 56.91050666 -31.6394043 58.43164062 C-30 60 -30 60 -28.57348633 61.69335938 C-24.70085541 65.8716424 -21.3956558 66.45587061 -15.75390625 66.8046875 C-13.02251903 66.87921191 -10.29471307 66.88137697 -7.5625 66.875 C-6.14905151 66.89314814 -4.73563455 66.91395748 -3.32226562 66.9375 C0.11866533 66.98906824 3.55863263 67.00445073 7 67 C8.63588335 47.8108856 8.63588335 47.8108856 2.04101562 30.74780273 C-0.04892679 28.79564124 -2.18597611 26.9618686 -4.45947266 25.2265625 C-8.83973542 21.73901256 -13.1422082 17.01190943 -14.6953125 11.55859375 C-15.03087471 7.1306316 -14.3549836 5.43485491 -11.5 1.9375 C-8.22585446 -0.76367007 -4.01480228 -0.82446833 0 0 Z " fill="#010101" transform="translate(116,302)"/>
<path d="M0 0 C4.12352756 3.26975753 5.91145352 7.57579085 8.22265625 12.234375 C8.73932861 13.25337891 9.25600098 14.27238281 9.78833008 15.32226562 C11.42910436 18.57651346 13.04621411 21.84174799 14.66015625 25.109375 C15.18125977 26.1519043 15.70236328 27.19443359 16.23925781 28.26855469 C39.30980201 74.51114768 39.30980201 74.51114768 39.16015625 92.421875 C39.15371094 93.24292725 39.14726562 94.06397949 39.140625 94.90991211 C38.78113529 107.00130136 34.0699471 116.49637359 25.66015625 125.109375 C20.60590168 129.73411782 15.04227841 132.69688896 8.66015625 135.109375 C7.26216797 135.64884766 7.26216797 135.64884766 5.8359375 136.19921875 C-4.27159324 139.09596495 -16.52776373 137.82206813 -25.76953125 132.78515625 C-28.0507329 131.32196125 -30.19503594 129.76487304 -32.33984375 128.109375 C-33.26410156 127.44808594 -33.26410156 127.44808594 -34.20703125 126.7734375 C-43.10720596 119.93019206 -47.58316433 109.77488522 -50.02734375 99.109375 C-50.8175139 91.52374153 -50.19838543 85.13164263 -47.90234375 77.859375 C-47.63502441 76.99658936 -47.36770508 76.13380371 -47.09228516 75.24487305 C-41.07923019 56.47824041 -32.05428128 38.73317826 -23.33984375 21.109375 C-22.86804688 20.14966797 -22.39625 19.18996094 -21.91015625 18.20117188 C-20.59169361 15.53631306 -19.25211146 12.88349028 -17.90234375 10.234375 C-17.51377197 9.44981934 -17.1252002 8.66526367 -16.72485352 7.85693359 C-13.06881665 0.81947692 -8.19357252 -3.11875548 0 0 Z " fill="#020203" transform="translate(384.33984375,310.890625)"/>
<path d="M0 0 C7.4865075 4.85080823 12.67353827 12.43439092 15 21 C16.2807015 32.89030237 14.29983048 42.82923328 6.9375 52.375 C1.49045719 58.13467661 -7.32638582 62.65816491 -15.2578125 63.23828125 C-22.99670632 63.38680547 -29.28566942 63.23784179 -36 59 C-36.68449219 58.5875 -37.36898438 58.175 -38.07421875 57.75 C-45.87315477 52.52099909 -50.9257863 45.12849709 -53 36 C-53.80405068 27.26763559 -53.75755022 19.53774364 -49 12 C-48.5875 11.31550781 -48.175 10.63101563 -47.75 9.92578125 C-36.77666654 -6.44069621 -16.68926562 -9.52952025 0 0 Z " fill="#FD4E4E" transform="translate(398,104)"/>
<path d="M0 0 C0.66 0 1.32 0 2 0 C8.51940635 13.11608199 14.93220445 26.21578273 20.25 39.875 C20.80482056 41.29824585 20.80482056 41.29824585 21.37084961 42.75024414 C24.58997755 51.20845078 26.98981102 60.4033439 24.28125 69.3828125 C20.92639742 76.4983466 15.79421246 80.73441795 8.75 84.046875 C2.61124339 86.17451224 -3.45592897 86.0272619 -9.375 83.3125 C-15.72232399 79.62068911 -20.66540741 74.00377778 -23 67 C-26.26179476 44.47007746 -9.81959846 19.38682405 0 0 Z " fill="#8ADDFC" transform="translate(378,343)"/>
<path d="M0 0 C2.8100346 1.79363911 4.50940468 3.01880935 6 6 C6.11752391 8.15832215 6.1698275 10.32029283 6.19287109 12.48168945 C6.20104858 13.14694641 6.20922607 13.81220337 6.21765137 14.49761963 C6.24249694 16.70283101 6.25901942 18.90797804 6.2734375 21.11328125 C6.27876118 21.86645315 6.28408485 22.61962505 6.28956985 23.39562035 C6.31629832 27.38247027 6.33567378 31.36928892 6.35009766 35.35620117 C6.36674165 39.47234179 6.41151691 43.58768112 6.4624691 47.70351887 C6.49614121 50.86999928 6.50767494 54.03628951 6.51332474 57.20293236 C6.52003784 58.72000436 6.53526175 60.23706382 6.55921555 61.75396156 C6.59087194 63.88001214 6.59090499 66.00390215 6.58349609 68.13012695 C6.59562637 69.94309013 6.59562637 69.94309013 6.60800171 71.79267883 C5.83043459 75.8944888 4.13731119 77.35066572 1 80 C0.505 80.495 0.505 80.495 0 81 C-7.11943794 81.71194379 -7.11943794 81.71194379 -10.9375 78.625 C-14.01717325 74.70541587 -14.13174571 72.75882637 -14.16113281 67.80957031 C-14.17074036 66.5077179 -14.1803479 65.20586548 -14.19024658 63.86456299 C-14.19509532 62.4357521 -14.19937396 61.00693919 -14.203125 59.578125 C-14.20887751 58.11562091 -14.21463523 56.65311684 -14.22039795 55.19061279 C-14.23091081 52.1205612 -14.23675108 49.05053581 -14.24023438 45.98046875 C-14.24570893 42.05521265 -14.26971312 38.13030523 -14.29820633 34.20515823 C-14.31687684 31.18189501 -14.32204072 28.15871486 -14.32357025 25.13539886 C-14.32658917 23.6889735 -14.33459198 22.24254934 -14.34775543 20.79618073 C-14.36490052 18.76686011 -14.36107869 16.73739556 -14.35644531 14.70800781 C-14.36009094 13.55488098 -14.36373657 12.40175415 -14.36749268 11.21368408 C-13.94606676 7.5283596 -12.93817673 5.14926191 -11 2 C-7.31502204 -0.45665197 -4.28028214 -0.70086491 0 0 Z " fill="#020202" transform="translate(471,352)"/>
<path d="M0 0 C0.33 0 0.66 0 1 0 C1 12.87 1 25.74 1 39 C-11.87 39 -24.74 39 -38 39 C-35.08303012 37.54151506 -32.47540515 36.44602422 -29.4375 35.375 C-16.60556072 30.25738758 -8.88380246 21.57759707 -3.03515625 9.41015625 C-1.7035136 6.30969015 -0.78416923 3.27925313 0 0 Z " fill="#FFFFFF" transform="translate(511,473)"/>
<path d="M0 0 C1.45848494 2.91696988 2.55397578 5.52459485 3.625 8.5625 C8.74261242 21.39443928 17.42240293 29.11619754 29.58984375 34.96484375 C32.69030985 36.2964864 35.72074687 37.21583077 39 38 C39 38.33 39 38.66 39 39 C26.13 39 13.26 39 0 39 C0 26.13 0 13.26 0 0 Z " fill="#FFFFFF" transform="translate(0,473)"/>
<path d="M0 0 C12.87 0 25.74 0 39 0 C39 12.87 39 25.74 39 39 C37.54151506 36.08303012 36.44602422 33.47540515 35.375 30.4375 C30.25738758 17.60556072 21.57759707 9.88380246 9.41015625 4.03515625 C6.30969015 2.7035136 3.27925313 1.78416923 0 1 C0 0.67 0 0.34 0 0 Z " fill="#FFFFFF" transform="translate(473,0)"/>
<path d="M0 0 C12.87 0 25.74 0 39 0 C36.08303012 1.45848494 33.47540515 2.55397578 30.4375 3.625 C17.60556072 8.74261242 9.88380246 17.42240293 4.03515625 29.58984375 C2.7035136 32.69030985 1.78416923 35.72074687 1 39 C0.67 39 0.34 39 0 39 C0 26.13 0 13.26 0 0 Z " fill="#FFFFFF" transform="translate(0,0)"/>
<path d="M0 0 C3.24812693 0.84648156 4.88992576 2.9648036 6.93359375 5.50390625 C7.26359375 5.83390625 7.59359375 6.16390625 7.93359375 6.50390625 C8.44441846 10.84591629 8.16977302 13.07091092 6.05859375 16.94140625 C3.56696224 19.5972427 1.46140176 20.00048884 -2.12890625 20.19140625 C-5.60891308 19.95283648 -6.82330725 19.68333646 -9.69140625 17.56640625 C-11.5562766 13.41283138 -11.98077978 9.9786723 -11.06640625 5.50390625 C-8.08633833 0.94067725 -5.26609556 -0.30859917 0 0 Z " fill="#050505" transform="translate(469.06640625,322.49609375)"/>
<path d="M0 0 C3.4375 1.9375 3.4375 1.9375 6 5 C7.06862611 9.51107053 6.56649995 12.91232009 4.4375 17 C1.2014216 19.65524381 -0.83179 20 -5 20 C-8.24364693 18.83718318 -10.28060504 17.94829336 -12.375 15.1875 C-13.54396068 11.09613763 -13.53117655 8.11294135 -11.6875 4.25 C-8.31800675 -0.24265767 -5.37893057 -0.6381782 0 0 Z " fill="#060606" transform="translate(161,342)"/>
<path d="M0 0 C3.47924392 0.8645394 4.91967516 2.61216046 6.93359375 5.48046875 C7.90729008 9.1156017 8.14173276 11.56465709 7.30859375 15.23046875 C5.48942195 18.20729532 4.19569479 19.20399443 0.93359375 20.48046875 C-3.35807653 20.77056177 -6.18628971 20.18456198 -9.56640625 17.48046875 C-11.61944233 13.37439659 -11.98628176 9.98216042 -11.06640625 5.48046875 C-8.09658426 0.93292883 -5.26146035 -0.36800384 0 0 Z " fill="#060606" transform="translate(108.06640625,341.51953125)"/>
<path d="M0 0 C2.35695529 3.77112846 2.31028279 7.17519436 1.5625 11.5 C0 14.5 0 14.5 -2.4375 16.5 C-6.54303601 17.71645511 -8.7107225 17.76054288 -12.75 16.3125 C-15.54179148 14.42966388 -16.52610987 13.68986547 -17.4375 10.5 C-17.92841901 5.88536126 -17.36863465 3.13864991 -14.4375 -0.5 C-9.62321939 -3.44206037 -4.74067256 -2.91733696 0 0 Z " fill="#060606" transform="translate(165.4375,399.5)"/>
<path d="M0 0 C3.05543992 0.93090973 4.38009871 1.92962244 6.08984375 4.63671875 C7.0044902 8.22997267 7.28764906 10.76637539 6.46484375 14.38671875 C4.64567195 17.36354532 3.35194479 18.36024443 0.08984375 19.63671875 C-4.20182653 19.92681177 -7.03003971 19.34081198 -10.41015625 16.63671875 C-12.46578268 12.52546589 -12.82126276 9.14344204 -11.91015625 4.63671875 C-8.68693765 -0.56202093 -5.66198093 -1.02688173 0 0 Z " fill="#050505" transform="translate(108.91015625,397.36328125)"/>
</svg>
