<?xml version="1.0" encoding="UTF-8"?>
<svg version="1.1" xmlns="http://www.w3.org/2000/svg" width="512" height="512">
<path d="M0 0 C2.62842983 2.55478748 4.69120578 5.25424722 6.8125 8.25 C14.31808844 18.60253578 21.65152753 26.44157452 34 31 C36.5923198 31.3990217 39.19959751 31.70928771 41.8125 31.9375 C53.12049369 33.16230511 61.36772236 36.28575196 69 45 C73.71903202 51.80035182 76.22818968 58.96468479 78 67 C78.36351563 66.28714844 78.72703125 65.57429688 79.1015625 64.83984375 C84.95910472 53.68047485 90.82304396 46.72285025 102.75390625 41.8828125 C106.81817642 40.77748752 110.75044873 40.50177206 114.9375 40.1875 C130.22098136 38.75288035 145.18707835 33.84325873 156.26953125 22.72265625 C158 21 158 21 160 21 C158.27015979 50.50451111 152.32953625 80.26788219 132 103 C131.24976563 103.84433594 130.49953125 104.68867187 129.7265625 105.55859375 C121.79285294 113.9929743 113.11185324 119.90561994 101.9375 123.0625 C97.85849424 124.53192497 96.40331212 125.23100537 94.3671875 129.11328125 C93.25470371 133.0811401 92.55697274 136.92695327 92 141 C91.78214844 142.23878906 91.56429687 143.47757813 91.33984375 144.75390625 C87.7039795 167.45999888 89.96061457 189.99110629 103.015625 209.40625 C114.1715531 223.98801429 132.70678594 231.45121332 150.45361328 234.08251953 C185.94779276 238.60325385 214.06800593 218.655612 241.38989258 198.79077148 C254.55051659 189.22292477 267.95604973 180.22776884 282 172 C282.63228516 171.62746094 283.26457031 171.25492188 283.91601562 170.87109375 C313.83206422 153.45487642 350.58384836 144.9412265 385 144 C385.65629395 143.97953613 386.31258789 143.95907227 386.98876953 143.93798828 C413.75214211 143.1991409 443.26042848 145.92193504 465 163 C465.886875 163.598125 466.77375 164.19625 467.6875 164.8125 C472.9537007 169.7940412 477.16532173 176.33016877 480 183 C480 183.66 480 184.32 480 185 C480.969375 185.061875 481.93875 185.12375 482.9375 185.1875 C489.19910827 186.10197423 494.87530794 189.3446488 499 194.125 C504.50175211 202.03376867 502.70656866 214.39979705 501.1640625 223.49609375 C494.80975619 256.28647118 480.57542163 286.72165325 460.77148438 313.47192383 C455.27627011 321.10404491 451.18835956 329.60442653 447 338 C446.09636719 337.75507813 445.19273437 337.51015625 444.26171875 337.2578125 C440.99989671 336.64717627 440.99989671 336.64717627 438.83203125 338.5546875 C438.16558594 339.32039063 437.49914062 340.08609375 436.8125 340.875 C431.46717348 346.66052988 425.54368185 352.22377976 418.79077148 356.34985352 C411.14689391 361.36841895 409.89850011 367.02654912 408.0625 375.6875 C407.42143977 378.40092631 406.75035091 381.10664815 406.078125 383.8125 C405.91037064 384.49845749 405.74261627 385.18441498 405.56977844 385.89115906 C397.69882581 417.6392149 383.09095693 450.53170499 361 475 C360.56107422 475.48807129 360.12214844 475.97614258 359.66992188 476.47900391 C348.29773742 488.95440097 332.50631659 501.040249 314.90942383 502.12939453 C314.18263428 502.13052246 313.45584473 502.13165039 312.70703125 502.1328125 C311.5149707 502.13474609 311.5149707 502.13474609 310.29882812 502.13671875 C309.0680957 502.13091797 309.0680957 502.13091797 307.8125 502.125 C306.98041016 502.12886719 306.14832031 502.13273437 305.29101562 502.13671875 C299.12667092 502.12667092 299.12667092 502.12667092 298 501 C297.00509836 494.68186172 300.26020312 489.92013647 303.0625 484.5 C314.68219539 461.09237038 319.50436615 437.35999188 320.5625 411.375 C320.60568359 410.37082031 320.64886719 409.36664063 320.69335938 408.33203125 C320.79809859 405.88811617 320.90027256 403.44412383 321 401 C320.42894531 401.11069824 319.85789062 401.22139648 319.26953125 401.33544922 C306.70625316 403.73475571 294.33810988 405.56965118 281.54492188 406.14013672 C280.10536133 406.22545654 280.10536133 406.22545654 278.63671875 406.3125 C277.78811279 406.34988281 276.93950684 406.38726562 276.06518555 406.42578125 C273.8027612 406.80578191 273.8027612 406.80578191 272.71020508 409.04296875 C272.4758374 409.68878906 272.24146973 410.33460938 272 411 C271.2575 410.505 270.515 410.01 269.75 409.5 C266.93681812 407.68076525 266.93681812 407.68076525 263 408 C262.46632813 409.19753906 261.93265625 410.39507812 261.3828125 411.62890625 C244.87864843 447.98160786 215.09501697 479.62430764 177.58984375 494.72265625 C165.29743215 499.09656114 153.73939084 502.18410277 140.625 502.0625 C139.69816406 502.05798828 138.77132812 502.05347656 137.81640625 502.04882812 C135.54420291 502.03711574 133.27213612 502.02071372 131 502 C131.3979638 495.69890643 133.60158659 491.73974179 137 486.5 C138.01319667 484.88422483 139.02621532 483.26833802 140.0390625 481.65234375 C141.41892526 479.47939054 142.80226395 477.30876996 144.19042969 475.14111328 C158.96246944 451.95740255 170.48254689 425.99307829 176 399 C174.081875 398.690625 174.081875 398.690625 172.125 398.375 C132.49594231 390.37082592 95.47474708 365.54447502 72.96679688 332.09472656 C71.63165949 330.07118855 70.31261248 328.03820543 69 326 C68.30003906 324.92492187 67.60007812 323.84984375 66.87890625 322.7421875 C33.50195543 268.07651754 35.19738483 197.91583243 41.65234375 136.50878906 C42.19686882 131.01306272 42.60744967 125.50840475 43 120 C42.31478271 119.62230469 41.62956543 119.24460937 40.92358398 118.85546875 C21.84512242 108.18521403 12.70866921 88.29599565 6.76171875 68.03564453 C1.85322694 50.06591269 -0.19175555 31.44802781 -0.0625 12.875 C-0.05798828 11.63234375 -0.05347656 10.3896875 -0.04882812 9.109375 C-0.03714924 6.07286498 -0.0207714 3.03645912 0 0 Z " fill="#3279AF" transform="translate(5,5)"/>
<path d="M0 0 C3.58866288 -0.15710281 7.17445309 -0.25551994 10.765625 -0.33496094 C12.44313843 -0.39949463 12.44313843 -0.39949463 14.15454102 -0.46533203 C22.89396702 -0.53446996 29.93287155 1.76198404 36.45385742 7.78100586 C42.12130381 14.26197094 41.28481449 22.34858186 40.92089844 30.45849609 C38.08232111 65.7370479 20.20437359 100.63612677 -0.52539062 128.63696289 C-6.02060489 136.26908398 -10.10851544 144.76946559 -14.296875 153.16503906 C-15.20050781 152.92011719 -16.10414063 152.67519531 -17.03515625 152.42285156 C-20.29697829 151.81221534 -20.29697829 151.81221534 -22.46484375 153.71972656 C-23.13128906 154.48542969 -23.79773438 155.25113281 -24.484375 156.04003906 C-29.82970152 161.82556895 -35.75319315 167.38881883 -42.50610352 171.51489258 C-50.14998109 176.53345801 -51.39837489 182.19158818 -53.234375 190.85253906 C-53.87543523 193.56596537 -54.54652409 196.27168721 -55.21875 198.97753906 C-55.38650436 199.66349655 -55.55425873 200.34945404 -55.72709656 201.05619812 C-63.59804919 232.80425396 -78.20591807 265.69674405 -100.296875 290.16503906 C-100.73580078 290.65311035 -101.17472656 291.14118164 -101.62695312 291.64404297 C-112.99913758 304.11944003 -128.79055841 316.20528806 -146.38745117 317.29443359 C-147.11424072 317.29556152 -147.84103027 317.29668945 -148.58984375 317.29785156 C-149.7819043 317.29978516 -149.7819043 317.29978516 -150.99804688 317.30175781 C-152.2287793 317.29595703 -152.2287793 317.29595703 -153.484375 317.29003906 C-154.31646484 317.29390625 -155.14855469 317.29777344 -156.00585938 317.30175781 C-162.17020408 317.29170998 -162.17020408 317.29170998 -163.296875 316.16503906 C-164.29177664 309.84690078 -161.03667188 305.08517553 -158.234375 299.66503906 C-146.61467961 276.25740944 -141.79250885 252.52503094 -140.734375 226.54003906 C-140.66959961 225.03376953 -140.66959961 225.03376953 -140.60351562 223.49707031 C-140.49877641 221.05315523 -140.39660244 218.6091629 -140.296875 216.16503906 C-140.86792969 216.2757373 -141.43898438 216.38643555 -142.02734375 216.50048828 C-154.59062184 218.89979477 -166.95876512 220.73469024 -179.75195312 221.30517578 C-181.19151367 221.39049561 -181.19151367 221.39049561 -182.66015625 221.47753906 C-183.93306519 221.53361328 -183.93306519 221.53361328 -185.23168945 221.59082031 C-187.4941138 221.97082097 -187.4941138 221.97082097 -188.58666992 224.20800781 C-188.8210376 224.85382813 -189.05540527 225.49964844 -189.296875 226.16503906 C-190.01875 225.69066406 -190.740625 225.21628906 -191.484375 224.72753906 C-194.21311889 223.21157023 -196.25993579 222.69076131 -199.296875 222.16503906 C-198.84248047 221.01455078 -198.84248047 221.01455078 -198.37890625 219.84082031 C-194.34957524 209.16619262 -191.59292872 198.33452105 -189.296875 187.16503906 C-189.00417725 185.75109863 -189.00417725 185.75109863 -188.70556641 184.30859375 C-184.6161008 163.73314531 -184.48375186 143.06624976 -184.296875 122.16503906 C-183.50168457 121.84688232 -182.70649414 121.52872559 -181.88720703 121.20092773 C-176.37148938 118.95610034 -171.13597424 116.77459005 -166.171875 113.47753906 C-165.28242188 112.89617187 -164.39296875 112.31480469 -163.4765625 111.71582031 C-160.10028866 109.31624449 -160.10028866 109.31624449 -158.671875 105.54003906 C-158.48625 104.36441406 -158.48625 104.36441406 -158.296875 103.16503906 C-157.23082031 102.93816406 -156.16476562 102.71128906 -155.06640625 102.47753906 C-145.05274365 98.99091664 -139.66486644 84.65009096 -134.82421875 75.76269531 C-128.28370946 63.79565045 -121.33524393 53.27530155 -111.69580078 43.57861328 C-110.40541451 42.27471512 -109.14456576 40.94176102 -107.88671875 39.60644531 C-103.39501078 34.90876837 -98.74592949 31.17415721 -93.265625 27.67285156 C-91.00914507 26.23666962 -91.00914507 26.23666962 -90.296875 23.16503906 C-88.27657167 22.46838274 -86.24968473 21.78811477 -84.203125 21.17285156 C-80.72663868 19.96729582 -77.4750273 18.39542472 -74.171875 16.79003906 C-51.15133465 5.8744638 -25.31670006 1.26733481 0 0 Z " fill="#83C8FB" transform="translate(466.296875,189.8349609375)"/>
<path d="M0 0 C2.62842983 2.55478748 4.69120578 5.25424722 6.8125 8.25 C14.31808844 18.60253578 21.65152753 26.44157452 34 31 C36.5923198 31.3990217 39.19959751 31.70928771 41.8125 31.9375 C53.12049369 33.16230511 61.36772236 36.28575196 69 45 C73.71903202 51.80035182 76.22818968 58.96468479 78 67 C78.36351563 66.28714844 78.72703125 65.57429688 79.1015625 64.83984375 C84.95910472 53.68047485 90.82304396 46.72285025 102.75390625 41.8828125 C106.81817642 40.77748752 110.75044873 40.50177206 114.9375 40.1875 C130.22098136 38.75288035 145.18707835 33.84325873 156.26953125 22.72265625 C158 21 158 21 160 21 C158.27015979 50.50451111 152.32953625 80.26788219 132 103 C131.24976563 103.84433594 130.49953125 104.68867187 129.7265625 105.55859375 C121.79285294 113.9929743 113.11185324 119.90561994 101.9375 123.0625 C97.85849424 124.53192497 96.40331212 125.23100537 94.3671875 129.11328125 C93.25470371 133.0811401 92.55697274 136.92695327 92 141 C91.78214844 142.23878906 91.56429687 143.47757813 91.33984375 144.75390625 C87.7039795 167.45999888 89.96061457 189.99110629 103.015625 209.40625 C114.06475882 223.84842491 132.41401505 231.31252752 150 234 C150 234.33 150 234.66 150 235 C130.85993232 236.34316264 110.79140424 225.94725097 96.52734375 213.9140625 C93.96750098 211.65886872 91.47918253 209.34339006 89 207 C88.18660156 206.26265625 87.37320313 205.5253125 86.53515625 204.765625 C64.30869294 183.83833885 51.50746022 152.29856512 45 123 C45 122.01 45 121.02 45 120 C43.7934375 119.7215625 43.7934375 119.7215625 42.5625 119.4375 C28.29487406 113.68038778 19.1668635 99.46112435 13 86 C7.55866515 72.81079145 4.23259824 59.05925622 2 45 C1.88285645 44.27844727 1.76571289 43.55689453 1.64501953 42.81347656 C-0.5570842 28.61923291 -0.20733182 14.32503413 0 0 Z " fill="#275E87" transform="translate(5,5)"/>
<path d="M0 0 C0.34026234 23.98326028 -0.98056548 46.54200724 -6 70 C-6.25257568 71.22759033 -6.25257568 71.22759033 -6.51025391 72.47998047 C-11.29850862 95.54899285 -19.09475861 118.21793327 -28.90869141 139.61914062 C-29.9922964 141.98319339 -31.04942443 144.35790672 -32.10546875 146.734375 C-37.06213647 157.70149914 -42.94263328 167.98331477 -49.1796875 178.26953125 C-51.30179811 181.77896304 -53.24763415 185.29307224 -55 189 C-54.01 189.33 -53.02 189.66 -52 190 C-56.66605295 193.77724863 -61.96289467 195.61889563 -67.5 197.8125 C-68.60609619 198.25247314 -69.71219238 198.69244629 -70.85180664 199.14575195 C-77.96942751 201.92997523 -85.12161336 204.47523124 -92.4375 206.6875 C-93.27667969 206.94313721 -94.11585938 207.19877441 -94.98046875 207.4621582 C-100.7387989 209.13060055 -100.7387989 209.13060055 -103 208 C-102.47792969 207.16082031 -101.95585937 206.32164062 -101.41796875 205.45703125 C-80.54682244 171.54021458 -65.94551081 134.33650842 -59.25561523 95.03295898 C-59.10423096 94.14423096 -58.95284668 93.25550293 -58.796875 92.33984375 C-58.66635742 91.54956787 -58.53583984 90.75929199 -58.40136719 89.94506836 C-58 88 -58 88 -57 86 C-56.20323502 81.39791319 -55.64983247 76.7579518 -55.0625 72.125 C-54.9735144 71.43035645 -54.88452881 70.73571289 -54.79284668 70.02001953 C-52.61044208 52.73813386 -51.74701998 35.39402613 -51 18 C-51.66 17.67 -52.32 17.34 -53 17 C-37.05450999 8.5558049 -18.42164948 0 0 0 Z " fill="#9BD2FB" transform="translate(437,194)"/>
<path d="M0 0 C1.13155518 -0.04253906 2.26311035 -0.08507812 3.42895508 -0.12890625 C12.26422903 -0.20122597 19.34071652 2.02380915 25.93725586 8.1159668 C31.60686853 14.59480521 30.76915243 22.68436857 30.40527344 30.79345703 C27.56669611 66.07200883 9.68874859 100.97108771 -11.04101562 128.97192383 C-16.53622989 136.60404491 -20.62414044 145.10442653 -24.8125 153.5 C-25.71613281 153.25507813 -26.61976563 153.01015625 -27.55078125 152.7578125 C-30.81260329 152.14717627 -30.81260329 152.14717627 -32.98046875 154.0546875 C-33.64691406 154.82039062 -34.31335938 155.58609375 -35 156.375 C-39.87311055 161.65010115 -45.17343046 166.06750701 -50.8125 170.5 C-51.88177734 171.35271484 -51.88177734 171.35271484 -52.97265625 172.22265625 C-56.89717891 175.27332893 -60.91299954 177.72684301 -65.29296875 180.06640625 C-70.31260371 182.92253963 -75.04347982 186.24802854 -79.8125 189.5 C-80.4725 189.17 -81.1325 188.84 -81.8125 188.5 C-81.50658936 187.98429443 -81.20067871 187.46858887 -80.88549805 186.93725586 C-67.9088744 164.94392034 -57.6187544 142.45962813 -48.8125 118.5 C-48.45969971 117.55777588 -48.10689941 116.61555176 -47.7434082 115.64477539 C-45.51446645 109.6399673 -43.55745924 103.61757071 -41.875 97.4375 C-41.62266602 96.51138916 -41.37033203 95.58527832 -41.11035156 94.63110352 C-33.05085238 64.15011805 -30.79447538 33.85059009 -29.8125 2.5 C-19.87857082 0.89145727 -10.06392808 0.18732556 0 0 Z " fill="#9BD2FB" transform="translate(476.8125,189.5)"/>
<path d="M0 0 C0.99 0.495 0.99 0.495 2 1 C-10.88945977 35.19167098 -28.4406347 75.54474838 -63 93 C-69.99614643 96.09061708 -77.57383406 99.12083291 -85.29296875 99.1328125 C-86.08767578 99.13410156 -86.88238281 99.13539063 -87.70117188 99.13671875 C-88.52166016 99.13285156 -89.34214844 99.12898438 -90.1875 99.125 C-91.43563477 99.13080078 -91.43563477 99.13080078 -92.70898438 99.13671875 C-98.87332908 99.12667092 -98.87332908 99.12667092 -100 98 C-100.99492296 91.68172636 -97.73963212 86.92030192 -94.9375 81.5 C-86.26302103 64.01308649 -81.34789318 46.17240692 -78 27 C-76.98353394 26.78234985 -76.98353394 26.78234985 -75.9465332 26.56030273 C-50.0891483 20.9641551 -25.45556134 13.35422965 -2.0378418 0.84228516 C-1.02911011 0.425354 -1.02911011 0.425354 0 0 Z " fill="#9BD2FC" transform="translate(403,408)"/>
<path d="M0 0 C4.27029821 -0.1764773 8.53964163 -0.28157988 12.8125 -0.375 C14.00810547 -0.42527344 15.20371094 -0.47554687 16.43554688 -0.52734375 C25.66902698 -0.67829983 32.83706438 1.21971797 39.74584961 7.61645508 C45.42476906 14.08553752 44.58146861 22.18846511 44.21777344 30.29345703 C41.37919611 65.57200883 23.50124859 100.47108771 2.77148438 128.47192383 C-2.72372989 136.10404491 -6.81164044 144.60442653 -11 153 C-18.23215227 150.70376712 -18.23215227 150.70376712 -20 148 C-19.50103913 144.93373272 -18.31994979 142.49523323 -16.84765625 139.78125 C-9.02737977 124.99757692 -3.19474186 109.88392222 2 94 C2.30808594 93.06833008 2.61617188 92.13666016 2.93359375 91.17675781 C12.40851482 62.0424671 14.95620295 31.43492462 16 1 C10.72 1 5.44 1 0 1 C0 0.67 0 0.34 0 0 Z " fill="#6ABDFA" transform="translate(463,190)"/>
<path d="M0 0 C3.3 0 6.6 0 10 0 C10.25051665 8.72931245 9.54700668 17.05922405 8.25 25.6875 C8.06590576 26.92282471 7.88181152 28.15814941 7.69213867 29.4309082 C2.91046044 60.62527681 -7.60958845 91.73741335 -27 117 C-26.34 117.66 -25.68 118.32 -25 119 C-26.32 119 -27.64 119 -29 119 C-29.66 120.32 -30.32 121.64 -31 123 C-31.721875 122.525625 -32.44375 122.05125 -33.1875 121.5625 C-35.91624389 120.04653117 -37.96306079 119.52572225 -41 119 C-40.69707031 118.23300781 -40.39414062 117.46601563 -40.08203125 116.67578125 C-36.05270024 106.00115356 -33.29605372 95.16948199 -31 84 C-30.70730225 82.58605957 -30.70730225 82.58605957 -30.40869141 81.14355469 C-26.3192258 60.56810624 -26.18687686 39.9012107 -26 19 C-24.80721436 18.52276489 -24.80721436 18.52276489 -23.59033203 18.03588867 C-18.07461438 15.79106128 -12.83909924 13.60955099 -7.875 10.3125 C-6.98554688 9.73113281 -6.09609375 9.14976562 -5.1796875 8.55078125 C-1.80341366 6.15120542 -1.80341366 6.15120542 -0.375 2.375 C-0.189375 1.199375 -0.189375 1.199375 0 0 Z " fill="#9AD1FB" transform="translate(308,293)"/>
<path d="M0 0 C6.28224499 0.87496448 10.01475895 2.8001383 14.3125 7.5625 C19.58321809 15.17575946 17.64030412 27.79056493 16.1640625 36.49609375 C10.71427678 64.6188379 -0.86814625 103.34366245 -23 123 C-23.66 123 -24.32 123 -25 123 C-23.3466772 118.00853974 -21.6676641 113.0280231 -19.94921875 108.05859375 C-16.12801008 96.92475941 -12.48533747 85.79864169 -9.625 74.375 C-9.39901123 73.47837646 -9.17302246 72.58175293 -8.94018555 71.65795898 C-4.96730392 55.20185725 -3.17121349 38.78265358 -1.8125 21.9375 C-1.63417772 19.79876846 -1.45514567 17.66009597 -1.27539062 15.52148438 C-0.84209759 10.34829871 -0.41833797 5.1744156 0 0 Z " fill="#98D0F9" transform="translate(490,192)"/>
<path d="M0 0 C2.83635073 0.91989753 5.65005141 1.86250007 8.42578125 2.953125 C29.61652643 11.17182212 51.57689693 9.58488012 72.3203125 0.98828125 C75 0 75 0 78 0 C79.80462004 3.60924008 79.1902455 7.83873376 79.1875 11.8125 C79.18814453 12.75633545 79.18878906 13.7001709 79.18945312 14.67260742 C79.13472425 21.95465758 78.484275 28.85692659 77 36 C71.92996687 37.69682561 67.89915884 36.15904644 63 34.625 C62.12496826 34.35461914 61.24993652 34.08423828 60.34838867 33.80566406 C38.79058751 26.9209831 18.187273 16.8956366 1 2 C0.67 1.34 0.34 0.68 0 0 Z " fill="#97CEF8" transform="translate(106,367)"/>
<path d="M0 0 C3.3 0 6.6 0 10 0 C10.25051665 8.72931245 9.54700668 17.05922405 8.25 25.6875 C8.06590576 26.92282471 7.88181152 28.15814941 7.69213867 29.4309082 C2.91046044 60.62527681 -7.60958845 91.73741335 -27 117 C-26.34 117.66 -25.68 118.32 -25 119 C-26.32 119 -27.64 119 -29 119 C-29.66 120.32 -30.32 121.64 -31 123 C-31.721875 122.525625 -32.44375 122.05125 -33.1875 121.5625 C-35.89475226 120.05847097 -37.96194275 119.43400818 -41 119 C-40.01 116.03 -39.02 113.06 -38 110 C-37.01 110 -36.02 110 -35 110 C-13.16250025 83.42880909 -0.52518826 39.05695152 -1 5 C-0.71479595 3.32442621 -0.40044304 1.65182755 0 0 Z " fill="#6ABDFA" transform="translate(308,293)"/>
<path d="M0 0 C4.36492736 2.40706674 5.93942071 4.83284673 7.8125 9.4375 C8.54520346 14.47483626 7.62027557 18.24512573 5.20703125 22.63671875 C1.9113554 26.89247944 -2.54684459 28.17382324 -7.6875 29 C-12.37661747 28.24639184 -15.64727219 26.60297396 -19.1875 23.4375 C-21.97287223 18.73718437 -22.86540686 14.86075487 -22.1875 9.4375 C-20.44294414 4.504976 -17.73316107 1.40475576 -13.0390625 -0.90234375 C-8.34602817 -2.57559861 -4.45447532 -1.90552555 0 0 Z " fill="#275E87" transform="translate(308.1875,235.5625)"/>
<path d="M0 0 C0.66 0.33 1.32 0.66 2 1 C-0.31 3.31 -2.62 5.62 -5 8 C-5.33 7.34 -5.66 6.68 -6 6 C-2.25 1.125 -2.25 1.125 0 0 Z " fill="#25589A" transform="translate(97,53)"/>
</svg>
